# Negara Konoha — WarungKopi
# Original fictional game asset, Nusantara/Indonesia-inspired.
# 1 OBJ unit = 1 meter. Y-up. Intended front = +Z in Unity.
mtllib WarungKopi.mtl

o PLINTH
usemtl stone
v -2.100000 -0.000000 1.700000
v -2.100000 0.160000 1.700000
v -2.100000 0.000000 -1.700000
v -2.100000 0.160000 -1.700000
v 2.100000 -0.000000 1.700000
v 2.100000 0.160000 1.700000
v 2.100000 0.000000 -1.700000
v 2.100000 0.160000 -1.700000
f 2 4 1
f 5 2 1
f 1 4 3
f 3 5 1
f 2 8 4
f 6 2 5
f 6 8 2
f 4 8 3
f 7 5 3
f 3 8 7
f 7 6 5
f 8 6 7

o BACK_WALL
usemtl wood2
v -2.000000 0.135000 -1.400000
v -2.000000 2.585000 -1.400000
v -2.000000 0.135000 -1.560000
v -2.000000 2.585000 -1.560000
v 2.000000 0.135000 -1.400000
v 2.000000 2.585000 -1.400000
v 2.000000 0.135000 -1.560000
v 2.000000 2.585000 -1.560000
f 10 12 9
f 13 10 9
f 9 12 11
f 11 13 9
f 10 16 12
f 14 10 13
f 14 16 10
f 12 16 11
f 15 13 11
f 11 16 15
f 15 14 13
f 16 14 15

o LEFT_WALL
usemtl wood2
v -2.000000 0.135000 1.300000
v -2.000000 2.585000 1.300000
v -2.000000 0.135000 -1.500000
v -2.000000 2.585000 -1.500000
v -1.840000 0.135000 1.300000
v -1.840000 2.585000 1.300000
v -1.840000 0.135000 -1.500000
v -1.840000 2.585000 -1.500000
f 18 20 17
f 21 18 17
f 17 20 19
f 19 21 17
f 18 24 20
f 22 18 21
f 22 24 18
f 20 24 19
f 23 21 19
f 19 24 23
f 23 22 21
f 24 22 23

o RIGHT_LOW
usemtl wood2
v 1.840000 0.150000 -0.365000
v 1.840000 1.350000 -0.365000
v 1.840000 0.150000 -1.515000
v 1.840000 1.350000 -1.515000
v 2.000000 0.150000 -0.365000
v 2.000000 1.350000 -0.365000
v 2.000000 0.150000 -1.515000
v 2.000000 1.350000 -1.515000
f 26 28 25
f 29 26 25
f 25 28 27
f 27 29 25
f 26 32 28
f 30 26 29
f 30 32 26
f 28 32 27
f 31 29 27
f 27 32 31
f 31 30 29
f 32 30 31

o COUNTER
usemtl wood
v -1.725000 0.130000 1.305000
v -1.725000 1.150000 1.305000
v -1.725000 0.130000 0.755000
v -1.725000 1.150000 0.755000
v 1.725000 0.130000 1.305000
v 1.725000 1.150000 1.305000
v 1.725000 0.130000 0.755000
v 1.725000 1.150000 0.755000
f 34 36 33
f 37 34 33
f 33 36 35
f 35 37 33
f 34 40 36
f 38 34 37
f 38 40 34
f 36 40 35
f 39 37 35
f 35 40 39
f 39 38 37
f 40 38 39

o COUNTER_TOP
usemtl stone2
v -1.800000 1.145000 1.380000
v -1.800000 1.235000 1.380000
v -1.800000 1.145000 0.680000
v -1.800000 1.235000 0.680000
v 1.800000 1.145000 1.380000
v 1.800000 1.235000 1.380000
v 1.800000 1.145000 0.680000
v 1.800000 1.235000 0.680000
f 42 44 41
f 45 42 41
f 41 44 43
f 43 45 41
f 42 48 44
f 46 42 45
f 46 48 42
f 44 48 43
f 47 45 43
f 43 48 47
f 47 46 45
f 48 46 47

o SLAT_0
usemtl wood2
v -1.600000 1.520000 1.390000
v -1.600000 2.380000 1.390000
v -1.600000 1.520000 1.310000
v -1.600000 2.380000 1.310000
v -1.500000 1.520000 1.390000
v -1.500000 2.380000 1.390000
v -1.500000 1.520000 1.310000
v -1.500000 2.380000 1.310000
f 50 52 49
f 53 50 49
f 49 52 51
f 51 53 49
f 50 56 52
f 54 50 53
f 54 56 50
f 52 56 51
f 55 53 51
f 51 56 55
f 55 54 53
f 56 54 55

o SLAT_1
usemtl wood2
v -1.260000 1.520000 1.390000
v -1.260000 2.380000 1.390000
v -1.260000 1.520000 1.310000
v -1.260000 2.380000 1.310000
v -1.160000 1.520000 1.390000
v -1.160000 2.380000 1.390000
v -1.160000 1.520000 1.310000
v -1.160000 2.380000 1.310000
f 58 60 57
f 61 58 57
f 57 60 59
f 59 61 57
f 58 64 60
f 62 58 61
f 62 64 58
f 60 64 59
f 63 61 59
f 59 64 63
f 63 62 61
f 64 62 63

o SLAT_2
usemtl wood2
v -0.920000 1.520000 1.390000
v -0.920000 2.380000 1.390000
v -0.920000 1.520000 1.310000
v -0.920000 2.380000 1.310000
v -0.820000 1.520000 1.390000
v -0.820000 2.380000 1.390000
v -0.820000 1.520000 1.310000
v -0.820000 2.380000 1.310000
f 66 68 65
f 69 66 65
f 65 68 67
f 67 69 65
f 66 72 68
f 70 66 69
f 70 72 66
f 68 72 67
f 71 69 67
f 67 72 71
f 71 70 69
f 72 70 71

o SLAT_3
usemtl wood2
v -0.580000 1.520000 1.390000
v -0.580000 2.380000 1.390000
v -0.580000 1.520000 1.310000
v -0.580000 2.380000 1.310000
v -0.480000 1.520000 1.390000
v -0.480000 2.380000 1.390000
v -0.480000 1.520000 1.310000
v -0.480000 2.380000 1.310000
f 74 76 73
f 77 74 73
f 73 76 75
f 75 77 73
f 74 80 76
f 78 74 77
f 78 80 74
f 76 80 75
f 79 77 75
f 75 80 79
f 79 78 77
f 80 78 79

o SLAT_4
usemtl wood2
v -0.240000 1.520000 1.390000
v -0.240000 2.380000 1.390000
v -0.240000 1.520000 1.310000
v -0.240000 2.380000 1.310000
v -0.140000 1.520000 1.390000
v -0.140000 2.380000 1.390000
v -0.140000 1.520000 1.310000
v -0.140000 2.380000 1.310000
f 82 84 81
f 85 82 81
f 81 84 83
f 83 85 81
f 82 88 84
f 86 82 85
f 86 88 82
f 84 88 83
f 87 85 83
f 83 88 87
f 87 86 85
f 88 86 87

o SLAT_5
usemtl wood2
v 0.100000 1.520000 1.390000
v 0.100000 2.380000 1.390000
v 0.100000 1.520000 1.310000
v 0.100000 2.380000 1.310000
v 0.200000 1.520000 1.390000
v 0.200000 2.380000 1.390000
v 0.200000 1.520000 1.310000
v 0.200000 2.380000 1.310000
f 90 92 89
f 93 90 89
f 89 92 91
f 91 93 89
f 90 96 92
f 94 90 93
f 94 96 90
f 92 96 91
f 95 93 91
f 91 96 95
f 95 94 93
f 96 94 95

o SLAT_6
usemtl wood2
v 0.440000 1.520000 1.390000
v 0.440000 2.380000 1.390000
v 0.440000 1.520000 1.310000
v 0.440000 2.380000 1.310000
v 0.540000 1.520000 1.390000
v 0.540000 2.380000 1.390000
v 0.540000 1.520000 1.310000
v 0.540000 2.380000 1.310000
f 98 100 97
f 101 98 97
f 97 100 99
f 99 101 97
f 98 104 100
f 102 98 101
f 102 104 98
f 100 104 99
f 103 101 99
f 99 104 103
f 103 102 101
f 104 102 103

o SLAT_7
usemtl wood2
v 0.780000 1.520000 1.390000
v 0.780000 2.380000 1.390000
v 0.780000 1.520000 1.310000
v 0.780000 2.380000 1.310000
v 0.880000 1.520000 1.390000
v 0.880000 2.380000 1.390000
v 0.880000 1.520000 1.310000
v 0.880000 2.380000 1.310000
f 106 108 105
f 109 106 105
f 105 108 107
f 107 109 105
f 106 112 108
f 110 106 109
f 110 112 106
f 108 112 107
f 111 109 107
f 107 112 111
f 111 110 109
f 112 110 111

o SLAT_8
usemtl wood2
v 1.120000 1.520000 1.390000
v 1.120000 2.380000 1.390000
v 1.120000 1.520000 1.310000
v 1.120000 2.380000 1.310000
v 1.220000 1.520000 1.390000
v 1.220000 2.380000 1.390000
v 1.220000 1.520000 1.310000
v 1.220000 2.380000 1.310000
f 114 116 113
f 117 114 113
f 113 116 115
f 115 117 113
f 114 120 116
f 118 114 117
f 118 120 114
f 116 120 115
f 119 117 115
f 115 120 119
f 119 118 117
f 120 118 119

o SLAT_9
usemtl wood2
v 1.460000 1.520000 1.390000
v 1.460000 2.380000 1.390000
v 1.460000 1.520000 1.310000
v 1.460000 2.380000 1.310000
v 1.560000 1.520000 1.390000
v 1.560000 2.380000 1.390000
v 1.560000 1.520000 1.310000
v 1.560000 2.380000 1.310000
f 122 124 121
f 125 122 121
f 121 124 123
f 123 125 121
f 122 128 124
f 126 122 125
f 126 128 122
f 124 128 123
f 127 125 123
f 123 128 127
f 127 126 125
f 128 126 127

o ROOF
usemtl roof
v -2.225000 2.630000 1.875000
v 2.225000 2.630000 1.875000
v 2.225000 2.630000 -1.875000
v -2.225000 2.630000 -1.875000
v 0.000000 3.410000 0.000000
f 129 130 133
f 130 131 133
f 131 132 133
f 132 129 133
f 129 132 131
f 129 131 130

o AWNING
usemtl roofdark
v -1.855197 2.676350 2.405000
v -1.837832 2.774831 2.405000
v -1.855197 2.676350 1.155000
v -1.837832 2.774831 1.155000
v 1.837832 2.025169 2.405000
v 1.855197 2.123650 2.405000
v 1.837832 2.025169 1.155000
v 1.855197 2.123650 1.155000
f 135 137 134
f 138 135 134
f 134 137 136
f 136 138 134
f 135 141 137
f 139 135 138
f 139 141 135
f 137 141 136
f 140 138 136
f 136 141 140
f 140 139 138
f 141 139 140

o STOOL_-1.15
usemtl wood
v -1.340000 0.075000 1.740000
v -1.340000 0.525000 1.740000
v -1.340000 0.075000 1.360000
v -1.340000 0.525000 1.360000
v -0.960000 0.075000 1.740000
v -0.960000 0.525000 1.740000
v -0.960000 0.075000 1.360000
v -0.960000 0.525000 1.360000
f 143 145 142
f 146 143 142
f 142 145 144
f 144 146 142
f 143 149 145
f 147 143 146
f 147 149 143
f 145 149 144
f 148 146 144
f 144 149 148
f 148 147 146
f 149 147 148

o STOOL_1.15
usemtl wood
v 0.960000 0.075000 1.740000
v 0.960000 0.525000 1.740000
v 0.960000 0.075000 1.360000
v 0.960000 0.525000 1.360000
v 1.340000 0.075000 1.740000
v 1.340000 0.525000 1.740000
v 1.340000 0.075000 1.360000
v 1.340000 0.525000 1.360000
f 151 153 150
f 154 151 150
f 150 153 152
f 152 154 150
f 151 157 153
f 155 151 154
f 155 157 151
f 153 157 152
f 156 154 152
f 152 157 156
f 156 155 154
f 157 155 156

o JAR_0
usemtl glass
v -0.350000 1.250000 1.100000
v -0.250000 1.250000 1.100000
v -0.250000 1.470000 1.100000
v -0.350000 1.470000 1.100000
v -0.269098 1.250000 1.041221
v -0.269098 1.470000 1.041221
v -0.319098 1.250000 1.004894
v -0.319098 1.470000 1.004894
v -0.380902 1.250000 1.004894
v -0.380902 1.470000 1.004894
v -0.430902 1.250000 1.041221
v -0.430902 1.470000 1.041221
v -0.450000 1.250000 1.100000
v -0.450000 1.470000 1.100000
v -0.430902 1.250000 1.158779
v -0.430902 1.470000 1.158779
v -0.380902 1.250000 1.195106
v -0.380902 1.470000 1.195106
v -0.319098 1.250000 1.195106
v -0.319098 1.470000 1.195106
v -0.269098 1.250000 1.158779
v -0.269098 1.470000 1.158779
f 159 158 162
f 159 162 160
f 160 162 163
f 160 163 161
f 162 158 164
f 162 164 163
f 163 164 165
f 163 165 161
f 164 158 166
f 164 166 165
f 165 166 167
f 165 167 161
f 166 158 168
f 166 168 167
f 167 168 169
f 167 169 161
f 168 158 170
f 168 170 169
f 169 170 171
f 169 171 161
f 170 158 172
f 170 172 171
f 171 172 173
f 171 173 161
f 172 158 174
f 172 174 173
f 173 174 175
f 173 175 161
f 174 158 176
f 174 176 175
f 175 176 177
f 175 177 161
f 176 158 178
f 176 178 177
f 177 178 179
f 177 179 161
f 178 158 159
f 178 159 179
f 179 159 160
f 179 160 161

o JAR_1
usemtl glass
v 0.000000 1.250000 1.100000
v 0.100000 1.250000 1.100000
v 0.100000 1.470000 1.100000
v 0.000000 1.470000 1.100000
v 0.080902 1.250000 1.041221
v 0.080902 1.470000 1.041221
v 0.030902 1.250000 1.004894
v 0.030902 1.470000 1.004894
v -0.030902 1.250000 1.004894
v -0.030902 1.470000 1.004894
v -0.080902 1.250000 1.041221
v -0.080902 1.470000 1.041221
v -0.100000 1.250000 1.100000
v -0.100000 1.470000 1.100000
v -0.080902 1.250000 1.158779
v -0.080902 1.470000 1.158779
v -0.030902 1.250000 1.195106
v -0.030902 1.470000 1.195106
v 0.030902 1.250000 1.195106
v 0.030902 1.470000 1.195106
v 0.080902 1.250000 1.158779
v 0.080902 1.470000 1.158779
f 181 180 184
f 181 184 182
f 182 184 185
f 182 185 183
f 184 180 186
f 184 186 185
f 185 186 187
f 185 187 183
f 186 180 188
f 186 188 187
f 187 188 189
f 187 189 183
f 188 180 190
f 188 190 189
f 189 190 191
f 189 191 183
f 190 180 192
f 190 192 191
f 191 192 193
f 191 193 183
f 192 180 194
f 192 194 193
f 193 194 195
f 193 195 183
f 194 180 196
f 194 196 195
f 195 196 197
f 195 197 183
f 196 180 198
f 196 198 197
f 197 198 199
f 197 199 183
f 198 180 200
f 198 200 199
f 199 200 201
f 199 201 183
f 200 180 181
f 200 181 201
f 201 181 182
f 201 182 183

o JAR_2
usemtl glass
v 0.350000 1.250000 1.100000
v 0.450000 1.250000 1.100000
v 0.450000 1.470000 1.100000
v 0.350000 1.470000 1.100000
v 0.430902 1.250000 1.041221
v 0.430902 1.470000 1.041221
v 0.380902 1.250000 1.004894
v 0.380902 1.470000 1.004894
v 0.319098 1.250000 1.004894
v 0.319098 1.470000 1.004894
v 0.269098 1.250000 1.041221
v 0.269098 1.470000 1.041221
v 0.250000 1.250000 1.100000
v 0.250000 1.470000 1.100000
v 0.269098 1.250000 1.158779
v 0.269098 1.470000 1.158779
v 0.319098 1.250000 1.195106
v 0.319098 1.470000 1.195106
v 0.380902 1.250000 1.195106
v 0.380902 1.470000 1.195106
v 0.430902 1.250000 1.158779
v 0.430902 1.470000 1.158779
f 203 202 206
f 203 206 204
f 204 206 207
f 204 207 205
f 206 202 208
f 206 208 207
f 207 208 209
f 207 209 205
f 208 202 210
f 208 210 209
f 209 210 211
f 209 211 205
f 210 202 212
f 210 212 211
f 211 212 213
f 211 213 205
f 212 202 214
f 212 214 213
f 213 214 215
f 213 215 205
f 214 202 216
f 214 216 215
f 215 216 217
f 215 217 205
f 216 202 218
f 216 218 217
f 217 218 219
f 217 219 205
f 218 202 220
f 218 220 219
f 219 220 221
f 219 221 205
f 220 202 222
f 220 222 221
f 221 222 223
f 221 223 205
f 222 202 203
f 222 203 223
f 223 203 204
f 223 204 205

o ACCENT_RED
usemtl red
v -1.900000 1.350000 1.445000
v -1.900000 1.950000 1.445000
v -1.900000 1.350000 1.395000
v -1.900000 1.950000 1.395000
v -1.600000 1.350000 1.445000
v -1.600000 1.950000 1.445000
v -1.600000 1.350000 1.395000
v -1.600000 1.950000 1.395000
f 225 227 224
f 228 225 224
f 224 227 226
f 226 228 224
f 225 231 227
f 229 225 228
f 229 231 225
f 227 231 226
f 230 228 226
f 226 231 230
f 230 229 228
f 231 229 230

o ACCENT_WHITE
usemtl white
v -1.570000 1.350000 1.445000
v -1.570000 1.950000 1.445000
v -1.570000 1.350000 1.395000
v -1.570000 1.950000 1.395000
v -1.270000 1.350000 1.445000
v -1.270000 1.950000 1.445000
v -1.270000 1.350000 1.395000
v -1.270000 1.950000 1.395000
f 233 235 232
f 236 233 232
f 232 235 234
f 234 236 232
f 233 239 235
f 237 233 236
f 237 239 233
f 235 239 234
f 238 236 234
f 234 239 238
f 238 237 236
f 239 237 238
