# Negara Konoha — Becak
# Original fictional game asset, Nusantara/Indonesia-inspired.
# 1 OBJ unit = 1 meter. Y-up. Intended front = +Z in Unity.
mtllib Becak.mtl

o WHEEL_REAR
usemtl black
v 0.000000 -0.015000 -0.600000
v 0.030311 0.002500 -0.600000
v 0.030311 0.037500 -0.600000
v 0.000000 0.055000 -0.600000
v -0.030311 0.037500 -0.600000
v -0.030311 0.002500 -0.600000
v 0.000000 0.013545 -0.743506
v 0.030311 0.029713 -0.736809
v 0.030311 0.062049 -0.723415
v 0.000000 0.078217 -0.716718
v -0.030311 0.062049 -0.723415
v -0.030311 0.029713 -0.736809
v 0.000000 0.094835 -0.865165
v 0.030311 0.107209 -0.852791
v 0.030311 0.131958 -0.828042
v 0.000000 0.144332 -0.815668
v -0.030311 0.131958 -0.828042
v -0.030311 0.107209 -0.852791
v 0.000000 0.216494 -0.946455
v 0.030311 0.223191 -0.930287
v 0.030311 0.236585 -0.897951
v 0.000000 0.243282 -0.881783
v -0.030311 0.236585 -0.897951
v -0.030311 0.223191 -0.930287
v 0.000000 0.360000 -0.975000
v 0.030311 0.360000 -0.957500
v 0.030311 0.360000 -0.922500
v 0.000000 0.360000 -0.905000
v -0.030311 0.360000 -0.922500
v -0.030311 0.360000 -0.957500
v -0.000000 0.503506 -0.946455
v 0.030311 0.496809 -0.930287
v 0.030311 0.483415 -0.897951
v -0.000000 0.476718 -0.881783
v -0.030311 0.483415 -0.897951
v -0.030311 0.496809 -0.930287
v -0.000000 0.625165 -0.865165
v 0.030311 0.612791 -0.852791
v 0.030311 0.588042 -0.828042
v -0.000000 0.575668 -0.815668
v -0.030311 0.588042 -0.828042
v -0.030311 0.612791 -0.852791
v -0.000000 0.706455 -0.743506
v 0.030311 0.690287 -0.736809
v 0.030311 0.657951 -0.723415
v -0.000000 0.641783 -0.716718
v -0.030311 0.657951 -0.723415
v -0.030311 0.690287 -0.736809
v -0.000000 0.735000 -0.600000
v 0.030311 0.717500 -0.600000
v 0.030311 0.682500 -0.600000
v -0.000000 0.665000 -0.600000
v -0.030311 0.682500 -0.600000
v -0.030311 0.717500 -0.600000
v -0.000000 0.706455 -0.456494
v 0.030311 0.690287 -0.463191
v 0.030311 0.657951 -0.476585
v -0.000000 0.641783 -0.483282
v -0.030311 0.657951 -0.476585
v -0.030311 0.690287 -0.463191
v -0.000000 0.625165 -0.334835
v 0.030311 0.612791 -0.347209
v 0.030311 0.588042 -0.371958
v -0.000000 0.575668 -0.384332
v -0.030311 0.588042 -0.371958
v -0.030311 0.612791 -0.347209
v -0.000000 0.503506 -0.253545
v 0.030311 0.496809 -0.269713
v 0.030311 0.483415 -0.302049
v -0.000000 0.476718 -0.318217
v -0.030311 0.483415 -0.302049
v -0.030311 0.496809 -0.269713
v -0.000000 0.360000 -0.225000
v 0.030311 0.360000 -0.242500
v 0.030311 0.360000 -0.277500
v 0.000000 0.360000 -0.295000
v -0.030311 0.360000 -0.277500
v -0.030311 0.360000 -0.242500
v 0.000000 0.216494 -0.253545
v 0.030311 0.223191 -0.269713
v 0.030311 0.236585 -0.302049
v 0.000000 0.243282 -0.318217
v -0.030311 0.236585 -0.302049
v -0.030311 0.223191 -0.269713
v 0.000000 0.094835 -0.334835
v 0.030311 0.107209 -0.347209
v 0.030311 0.131958 -0.371958
v 0.000000 0.144332 -0.384332
v -0.030311 0.131958 -0.371958
v -0.030311 0.107209 -0.347209
v 0.000000 0.013545 -0.456494
v 0.030311 0.029713 -0.463191
v 0.030311 0.062049 -0.476585
v 0.000000 0.078217 -0.483282
v -0.030311 0.062049 -0.476585
v -0.030311 0.029713 -0.463191
f 1 7 2
f 2 7 8
f 2 8 3
f 3 8 9
f 3 9 4
f 4 9 10
f 4 10 5
f 5 10 11
f 5 11 6
f 6 11 12
f 6 12 1
f 1 12 7
f 7 13 8
f 8 13 14
f 8 14 9
f 9 14 15
f 9 15 10
f 10 15 16
f 10 16 11
f 11 16 17
f 11 17 12
f 12 17 18
f 12 18 7
f 7 18 13
f 13 19 14
f 14 19 20
f 14 20 15
f 15 20 21
f 15 21 16
f 16 21 22
f 16 22 17
f 17 22 23
f 17 23 18
f 18 23 24
f 18 24 13
f 13 24 19
f 19 25 20
f 20 25 26
f 20 26 21
f 21 26 27
f 21 27 22
f 22 27 28
f 22 28 23
f 23 28 29
f 23 29 24
f 24 29 30
f 24 30 19
f 19 30 25
f 25 31 26
f 26 31 32
f 26 32 27
f 27 32 33
f 27 33 28
f 28 33 34
f 28 34 29
f 29 34 35
f 29 35 30
f 30 35 36
f 30 36 25
f 25 36 31
f 31 37 32
f 32 37 38
f 32 38 33
f 33 38 39
f 33 39 34
f 34 39 40
f 34 40 35
f 35 40 41
f 35 41 36
f 36 41 42
f 36 42 31
f 31 42 37
f 37 43 38
f 38 43 44
f 38 44 39
f 39 44 45
f 39 45 40
f 40 45 46
f 40 46 41
f 41 46 47
f 41 47 42
f 42 47 48
f 42 48 37
f 37 48 43
f 43 49 44
f 44 49 50
f 44 50 45
f 45 50 51
f 45 51 46
f 46 51 52
f 46 52 47
f 47 52 53
f 47 53 48
f 48 53 54
f 48 54 43
f 43 54 49
f 49 55 50
f 50 55 56
f 50 56 51
f 51 56 57
f 51 57 52
f 52 57 58
f 52 58 53
f 53 58 59
f 53 59 54
f 54 59 60
f 54 60 49
f 49 60 55
f 55 61 56
f 56 61 62
f 56 62 57
f 57 62 63
f 57 63 58
f 58 63 64
f 58 64 59
f 59 64 65
f 59 65 60
f 60 65 66
f 60 66 55
f 55 66 61
f 61 67 62
f 62 67 68
f 62 68 63
f 63 68 69
f 63 69 64
f 64 69 70
f 64 70 65
f 65 70 71
f 65 71 66
f 66 71 72
f 66 72 61
f 61 72 67
f 67 73 68
f 68 73 74
f 68 74 69
f 69 74 75
f 69 75 70
f 70 75 76
f 70 76 71
f 71 76 77
f 71 77 72
f 72 77 78
f 72 78 67
f 67 78 73
f 73 79 74
f 74 79 80
f 74 80 75
f 75 80 81
f 75 81 76
f 76 81 82
f 76 82 77
f 77 82 83
f 77 83 78
f 78 83 84
f 78 84 73
f 73 84 79
f 79 85 80
f 80 85 86
f 80 86 81
f 81 86 87
f 81 87 82
f 82 87 88
f 82 88 83
f 83 88 89
f 83 89 84
f 84 89 90
f 84 90 79
f 79 90 85
f 85 91 86
f 86 91 92
f 86 92 87
f 87 92 93
f 87 93 88
f 88 93 94
f 88 94 89
f 89 94 95
f 89 95 90
f 90 95 96
f 90 96 85
f 85 96 91
f 91 1 92
f 92 1 2
f 92 2 93
f 93 2 3
f 93 3 94
f 94 3 4
f 94 4 95
f 95 4 5
f 95 5 96
f 96 5 6
f 96 6 91
f 91 6 1

o WHEEL_FRONT_-0.42
usemtl black
v -0.420000 -0.015000 0.550000
v -0.389689 0.002500 0.550000
v -0.389689 0.037500 0.550000
v -0.420000 0.055000 0.550000
v -0.450311 0.037500 0.550000
v -0.450311 0.002500 0.550000
v -0.420000 0.010500 0.421801
v -0.389689 0.026668 0.428498
v -0.389689 0.059004 0.441892
v -0.420000 0.075172 0.448589
v -0.450311 0.059004 0.441892
v -0.450311 0.026668 0.428498
v -0.420000 0.083119 0.313119
v -0.389689 0.095494 0.325494
v -0.389689 0.120242 0.350242
v -0.420000 0.132617 0.362617
v -0.450311 0.120242 0.350242
v -0.450311 0.095494 0.325494
v -0.420000 0.191801 0.240500
v -0.389689 0.198498 0.256668
v -0.389689 0.211892 0.289004
v -0.420000 0.218589 0.305172
v -0.450311 0.211892 0.289004
v -0.450311 0.198498 0.256668
v -0.420000 0.320000 0.215000
v -0.389689 0.320000 0.232500
v -0.389689 0.320000 0.267500
v -0.420000 0.320000 0.285000
v -0.450311 0.320000 0.267500
v -0.450311 0.320000 0.232500
v -0.420000 0.448199 0.240500
v -0.389689 0.441502 0.256668
v -0.389689 0.428108 0.289004
v -0.420000 0.421411 0.305172
v -0.450311 0.428108 0.289004
v -0.450311 0.441502 0.256668
v -0.420000 0.556881 0.313119
v -0.389689 0.544506 0.325494
v -0.389689 0.519758 0.350242
v -0.420000 0.507383 0.362617
v -0.450311 0.519758 0.350242
v -0.450311 0.544506 0.325494
v -0.420000 0.629500 0.421801
v -0.389689 0.613332 0.428498
v -0.389689 0.580996 0.441892
v -0.420000 0.564828 0.448589
v -0.450311 0.580996 0.441892
v -0.450311 0.613332 0.428498
v -0.420000 0.655000 0.550000
v -0.389689 0.637500 0.550000
v -0.389689 0.602500 0.550000
v -0.420000 0.585000 0.550000
v -0.450311 0.602500 0.550000
v -0.450311 0.637500 0.550000
v -0.420000 0.629500 0.678199
v -0.389689 0.613332 0.671502
v -0.389689 0.580996 0.658108
v -0.420000 0.564828 0.651411
v -0.450311 0.580996 0.658108
v -0.450311 0.613332 0.671502
v -0.420000 0.556881 0.786881
v -0.389689 0.544506 0.774506
v -0.389689 0.519758 0.749758
v -0.420000 0.507383 0.737383
v -0.450311 0.519758 0.749758
v -0.450311 0.544506 0.774506
v -0.420000 0.448199 0.859500
v -0.389689 0.441502 0.843332
v -0.389689 0.428108 0.810996
v -0.420000 0.421411 0.794828
v -0.450311 0.428108 0.810996
v -0.450311 0.441502 0.843332
v -0.420000 0.320000 0.885000
v -0.389689 0.320000 0.867500
v -0.389689 0.320000 0.832500
v -0.420000 0.320000 0.815000
v -0.450311 0.320000 0.832500
v -0.450311 0.320000 0.867500
v -0.420000 0.191801 0.859500
v -0.389689 0.198498 0.843332
v -0.389689 0.211892 0.810996
v -0.420000 0.218589 0.794828
v -0.450311 0.211892 0.810996
v -0.450311 0.198498 0.843332
v -0.420000 0.083119 0.786881
v -0.389689 0.095494 0.774506
v -0.389689 0.120242 0.749758
v -0.420000 0.132617 0.737383
v -0.450311 0.120242 0.749758
v -0.450311 0.095494 0.774506
v -0.420000 0.010500 0.678199
v -0.389689 0.026668 0.671502
v -0.389689 0.059004 0.658108
v -0.420000 0.075172 0.651411
v -0.450311 0.059004 0.658108
v -0.450311 0.026668 0.671502
f 97 103 98
f 98 103 104
f 98 104 99
f 99 104 105
f 99 105 100
f 100 105 106
f 100 106 101
f 101 106 107
f 101 107 102
f 102 107 108
f 102 108 97
f 97 108 103
f 103 109 104
f 104 109 110
f 104 110 105
f 105 110 111
f 105 111 106
f 106 111 112
f 106 112 107
f 107 112 113
f 107 113 108
f 108 113 114
f 108 114 103
f 103 114 109
f 109 115 110
f 110 115 116
f 110 116 111
f 111 116 117
f 111 117 112
f 112 117 118
f 112 118 113
f 113 118 119
f 113 119 114
f 114 119 120
f 114 120 109
f 109 120 115
f 115 121 116
f 116 121 122
f 116 122 117
f 117 122 123
f 117 123 118
f 118 123 124
f 118 124 119
f 119 124 125
f 119 125 120
f 120 125 126
f 120 126 115
f 115 126 121
f 121 127 122
f 122 127 128
f 122 128 123
f 123 128 129
f 123 129 124
f 124 129 130
f 124 130 125
f 125 130 131
f 125 131 126
f 126 131 132
f 126 132 121
f 121 132 127
f 127 133 128
f 128 133 134
f 128 134 129
f 129 134 135
f 129 135 130
f 130 135 136
f 130 136 131
f 131 136 137
f 131 137 132
f 132 137 138
f 132 138 127
f 127 138 133
f 133 139 134
f 134 139 140
f 134 140 135
f 135 140 141
f 135 141 136
f 136 141 142
f 136 142 137
f 137 142 143
f 137 143 138
f 138 143 144
f 138 144 133
f 133 144 139
f 139 145 140
f 140 145 146
f 140 146 141
f 141 146 147
f 141 147 142
f 142 147 148
f 142 148 143
f 143 148 149
f 143 149 144
f 144 149 150
f 144 150 139
f 139 150 145
f 145 151 146
f 146 151 152
f 146 152 147
f 147 152 153
f 147 153 148
f 148 153 154
f 148 154 149
f 149 154 155
f 149 155 150
f 150 155 156
f 150 156 145
f 145 156 151
f 151 157 152
f 152 157 158
f 152 158 153
f 153 158 159
f 153 159 154
f 154 159 160
f 154 160 155
f 155 160 161
f 155 161 156
f 156 161 162
f 156 162 151
f 151 162 157
f 157 163 158
f 158 163 164
f 158 164 159
f 159 164 165
f 159 165 160
f 160 165 166
f 160 166 161
f 161 166 167
f 161 167 162
f 162 167 168
f 162 168 157
f 157 168 163
f 163 169 164
f 164 169 170
f 164 170 165
f 165 170 171
f 165 171 166
f 166 171 172
f 166 172 167
f 167 172 173
f 167 173 168
f 168 173 174
f 168 174 163
f 163 174 169
f 169 175 170
f 170 175 176
f 170 176 171
f 171 176 177
f 171 177 172
f 172 177 178
f 172 178 173
f 173 178 179
f 173 179 174
f 174 179 180
f 174 180 169
f 169 180 175
f 175 181 176
f 176 181 182
f 176 182 177
f 177 182 183
f 177 183 178
f 178 183 184
f 178 184 179
f 179 184 185
f 179 185 180
f 180 185 186
f 180 186 175
f 175 186 181
f 181 187 182
f 182 187 188
f 182 188 183
f 183 188 189
f 183 189 184
f 184 189 190
f 184 190 185
f 185 190 191
f 185 191 186
f 186 191 192
f 186 192 181
f 181 192 187
f 187 97 188
f 188 97 98
f 188 98 189
f 189 98 99
f 189 99 190
f 190 99 100
f 190 100 191
f 191 100 101
f 191 101 192
f 192 101 102
f 192 102 187
f 187 102 97

o WHEEL_FRONT_0.42
usemtl black
v 0.420000 -0.015000 0.550000
v 0.450311 0.002500 0.550000
v 0.450311 0.037500 0.550000
v 0.420000 0.055000 0.550000
v 0.389689 0.037500 0.550000
v 0.389689 0.002500 0.550000
v 0.420000 0.010500 0.421801
v 0.450311 0.026668 0.428498
v 0.450311 0.059004 0.441892
v 0.420000 0.075172 0.448589
v 0.389689 0.059004 0.441892
v 0.389689 0.026668 0.428498
v 0.420000 0.083119 0.313119
v 0.450311 0.095494 0.325494
v 0.450311 0.120242 0.350242
v 0.420000 0.132617 0.362617
v 0.389689 0.120242 0.350242
v 0.389689 0.095494 0.325494
v 0.420000 0.191801 0.240500
v 0.450311 0.198498 0.256668
v 0.450311 0.211892 0.289004
v 0.420000 0.218589 0.305172
v 0.389689 0.211892 0.289004
v 0.389689 0.198498 0.256668
v 0.420000 0.320000 0.215000
v 0.450311 0.320000 0.232500
v 0.450311 0.320000 0.267500
v 0.420000 0.320000 0.285000
v 0.389689 0.320000 0.267500
v 0.389689 0.320000 0.232500
v 0.420000 0.448199 0.240500
v 0.450311 0.441502 0.256668
v 0.450311 0.428108 0.289004
v 0.420000 0.421411 0.305172
v 0.389689 0.428108 0.289004
v 0.389689 0.441502 0.256668
v 0.420000 0.556881 0.313119
v 0.450311 0.544506 0.325494
v 0.450311 0.519758 0.350242
v 0.420000 0.507383 0.362617
v 0.389689 0.519758 0.350242
v 0.389689 0.544506 0.325494
v 0.420000 0.629500 0.421801
v 0.450311 0.613332 0.428498
v 0.450311 0.580996 0.441892
v 0.420000 0.564828 0.448589
v 0.389689 0.580996 0.441892
v 0.389689 0.613332 0.428498
v 0.420000 0.655000 0.550000
v 0.450311 0.637500 0.550000
v 0.450311 0.602500 0.550000
v 0.420000 0.585000 0.550000
v 0.389689 0.602500 0.550000
v 0.389689 0.637500 0.550000
v 0.420000 0.629500 0.678199
v 0.450311 0.613332 0.671502
v 0.450311 0.580996 0.658108
v 0.420000 0.564828 0.651411
v 0.389689 0.580996 0.658108
v 0.389689 0.613332 0.671502
v 0.420000 0.556881 0.786881
v 0.450311 0.544506 0.774506
v 0.450311 0.519758 0.749758
v 0.420000 0.507383 0.737383
v 0.389689 0.519758 0.749758
v 0.389689 0.544506 0.774506
v 0.420000 0.448199 0.859500
v 0.450311 0.441502 0.843332
v 0.450311 0.428108 0.810996
v 0.420000 0.421411 0.794828
v 0.389689 0.428108 0.810996
v 0.389689 0.441502 0.843332
v 0.420000 0.320000 0.885000
v 0.450311 0.320000 0.867500
v 0.450311 0.320000 0.832500
v 0.420000 0.320000 0.815000
v 0.389689 0.320000 0.832500
v 0.389689 0.320000 0.867500
v 0.420000 0.191801 0.859500
v 0.450311 0.198498 0.843332
v 0.450311 0.211892 0.810996
v 0.420000 0.218589 0.794828
v 0.389689 0.211892 0.810996
v 0.389689 0.198498 0.843332
v 0.420000 0.083119 0.786881
v 0.450311 0.095494 0.774506
v 0.450311 0.120242 0.749758
v 0.420000 0.132617 0.737383
v 0.389689 0.120242 0.749758
v 0.389689 0.095494 0.774506
v 0.420000 0.010500 0.678199
v 0.450311 0.026668 0.671502
v 0.450311 0.059004 0.658108
v 0.420000 0.075172 0.651411
v 0.389689 0.059004 0.658108
v 0.389689 0.026668 0.671502
f 193 199 194
f 194 199 200
f 194 200 195
f 195 200 201
f 195 201 196
f 196 201 202
f 196 202 197
f 197 202 203
f 197 203 198
f 198 203 204
f 198 204 193
f 193 204 199
f 199 205 200
f 200 205 206
f 200 206 201
f 201 206 207
f 201 207 202
f 202 207 208
f 202 208 203
f 203 208 209
f 203 209 204
f 204 209 210
f 204 210 199
f 199 210 205
f 205 211 206
f 206 211 212
f 206 212 207
f 207 212 213
f 207 213 208
f 208 213 214
f 208 214 209
f 209 214 215
f 209 215 210
f 210 215 216
f 210 216 205
f 205 216 211
f 211 217 212
f 212 217 218
f 212 218 213
f 213 218 219
f 213 219 214
f 214 219 220
f 214 220 215
f 215 220 221
f 215 221 216
f 216 221 222
f 216 222 211
f 211 222 217
f 217 223 218
f 218 223 224
f 218 224 219
f 219 224 225
f 219 225 220
f 220 225 226
f 220 226 221
f 221 226 227
f 221 227 222
f 222 227 228
f 222 228 217
f 217 228 223
f 223 229 224
f 224 229 230
f 224 230 225
f 225 230 231
f 225 231 226
f 226 231 232
f 226 232 227
f 227 232 233
f 227 233 228
f 228 233 234
f 228 234 223
f 223 234 229
f 229 235 230
f 230 235 236
f 230 236 231
f 231 236 237
f 231 237 232
f 232 237 238
f 232 238 233
f 233 238 239
f 233 239 234
f 234 239 240
f 234 240 229
f 229 240 235
f 235 241 236
f 236 241 242
f 236 242 237
f 237 242 243
f 237 243 238
f 238 243 244
f 238 244 239
f 239 244 245
f 239 245 240
f 240 245 246
f 240 246 235
f 235 246 241
f 241 247 242
f 242 247 248
f 242 248 243
f 243 248 249
f 243 249 244
f 244 249 250
f 244 250 245
f 245 250 251
f 245 251 246
f 246 251 252
f 246 252 241
f 241 252 247
f 247 253 248
f 248 253 254
f 248 254 249
f 249 254 255
f 249 255 250
f 250 255 256
f 250 256 251
f 251 256 257
f 251 257 252
f 252 257 258
f 252 258 247
f 247 258 253
f 253 259 254
f 254 259 260
f 254 260 255
f 255 260 261
f 255 261 256
f 256 261 262
f 256 262 257
f 257 262 263
f 257 263 258
f 258 263 264
f 258 264 253
f 253 264 259
f 259 265 260
f 260 265 266
f 260 266 261
f 261 266 267
f 261 267 262
f 262 267 268
f 262 268 263
f 263 268 269
f 263 269 264
f 264 269 270
f 264 270 259
f 259 270 265
f 265 271 266
f 266 271 272
f 266 272 267
f 267 272 273
f 267 273 268
f 268 273 274
f 268 274 269
f 269 274 275
f 269 275 270
f 270 275 276
f 270 276 265
f 265 276 271
f 271 277 272
f 272 277 278
f 272 278 273
f 273 278 279
f 273 279 274
f 274 279 280
f 274 280 275
f 275 280 281
f 275 281 276
f 276 281 282
f 276 282 271
f 271 282 277
f 277 283 278
f 278 283 284
f 278 284 279
f 279 284 285
f 279 285 280
f 280 285 286
f 280 286 281
f 281 286 287
f 281 287 282
f 282 287 288
f 282 288 277
f 277 288 283
f 283 193 284
f 284 193 194
f 284 194 285
f 285 194 195
f 285 195 286
f 286 195 196
f 286 196 287
f 287 196 197
f 287 197 288
f 288 197 198
f 288 198 283
f 283 198 193

o FRAME_A
usemtl metal
v 0.000000 0.360000 -0.600000
v 0.035000 0.360000 -0.600000
v 0.035000 0.720000 -0.080000
v 0.000000 0.720000 -0.080000
v 0.017500 0.384921 -0.617253
v 0.017500 0.744921 -0.097253
v -0.017500 0.384921 -0.617253
v -0.017500 0.744921 -0.097253
v -0.035000 0.360000 -0.600000
v -0.035000 0.720000 -0.080000
v -0.017500 0.335079 -0.582747
v -0.017500 0.695079 -0.062747
v 0.017500 0.335079 -0.582747
v 0.017500 0.695079 -0.062747
f 290 289 293
f 290 293 291
f 291 293 294
f 291 294 292
f 293 289 295
f 293 295 294
f 294 295 296
f 294 296 292
f 295 289 297
f 295 297 296
f 296 297 298
f 296 298 292
f 297 289 299
f 297 299 298
f 298 299 300
f 298 300 292
f 299 289 301
f 299 301 300
f 300 301 302
f 300 302 292
f 301 289 290
f 301 290 302
f 302 290 291
f 302 291 292

o FRAME_B
usemtl metal
v 0.000000 0.720000 -0.080000
v 0.035000 0.720000 -0.080000
v 0.035000 0.820000 -0.520000
v 0.000000 0.820000 -0.520000
v 0.017500 0.690443 -0.086718
v 0.017500 0.790443 -0.526718
v -0.017500 0.690443 -0.086718
v -0.017500 0.790443 -0.526718
v -0.035000 0.720000 -0.080000
v -0.035000 0.820000 -0.520000
v -0.017500 0.749557 -0.073282
v -0.017500 0.849557 -0.513282
v 0.017500 0.749557 -0.073282
v 0.017500 0.849557 -0.513282
f 304 303 307
f 304 307 305
f 305 307 308
f 305 308 306
f 307 303 309
f 307 309 308
f 308 309 310
f 308 310 306
f 309 303 311
f 309 311 310
f 310 311 312
f 310 312 306
f 311 303 313
f 311 313 312
f 312 313 314
f 312 314 306
f 313 303 315
f 313 315 314
f 314 315 316
f 314 316 306
f 315 303 304
f 315 304 316
f 316 304 305
f 316 305 306

o SEAT
usemtl black
v -0.170000 0.885000 -0.340000
v -0.170000 0.975000 -0.340000
v -0.170000 0.885000 -0.620000
v -0.170000 0.975000 -0.620000
v 0.170000 0.885000 -0.340000
v 0.170000 0.975000 -0.340000
v 0.170000 0.885000 -0.620000
v 0.170000 0.975000 -0.620000
f 318 320 317
f 321 318 317
f 317 320 319
f 319 321 317
f 318 324 320
f 322 318 321
f 322 324 318
f 320 324 319
f 323 321 319
f 319 324 323
f 323 322 321
f 324 322 323

o CABIN_BASE
usemtl wood2
v -0.475000 0.430000 0.830000
v -0.475000 0.590000 0.830000
v -0.475000 0.430000 0.010000
v -0.475000 0.590000 0.010000
v 0.475000 0.430000 0.830000
v 0.475000 0.590000 0.830000
v 0.475000 0.430000 0.010000
v 0.475000 0.590000 0.010000
f 326 328 325
f 329 326 325
f 325 328 327
f 327 329 325
f 326 332 328
f 330 326 329
f 330 332 326
f 328 332 327
f 331 329 327
f 327 332 331
f 331 330 329
f 332 330 331

o CABIN_BACK
usemtl red
v -0.475000 0.530000 0.100000
v -0.475000 1.310000 0.100000
v -0.475000 0.530000 0.000000
v -0.475000 1.310000 0.000000
v 0.475000 0.530000 0.100000
v 0.475000 1.310000 0.100000
v 0.475000 0.530000 0.000000
v 0.475000 1.310000 0.000000
f 334 336 333
f 337 334 333
f 333 336 335
f 335 337 333
f 334 340 336
f 338 334 337
f 338 340 334
f 336 340 335
f 339 337 335
f 335 340 339
f 339 338 337
f 340 338 339

o CABIN_SEAT
usemtl cream
v -0.360000 0.640000 0.440000
v -0.360000 0.800000 0.440000
v -0.360000 0.640000 0.160000
v -0.360000 0.800000 0.160000
v 0.360000 0.640000 0.440000
v 0.360000 0.800000 0.440000
v 0.360000 0.640000 0.160000
v 0.360000 0.800000 0.160000
f 342 344 341
f 345 342 341
f 341 344 343
f 343 345 341
f 342 348 344
f 346 342 345
f 346 348 342
f 344 348 343
f 347 345 343
f 343 348 347
f 347 346 345
f 348 346 347

o CANOPY_POST_-0.43
usemtl metal
v -0.430000 0.980000 0.120000
v -0.405000 0.980000 0.120000
v -0.405000 1.700000 0.120000
v -0.430000 1.700000 0.120000
v -0.417500 0.980000 0.098349
v -0.417500 1.700000 0.098349
v -0.442500 0.980000 0.098349
v -0.442500 1.700000 0.098349
v -0.455000 0.980000 0.120000
v -0.455000 1.700000 0.120000
v -0.442500 0.980000 0.141651
v -0.442500 1.700000 0.141651
v -0.417500 0.980000 0.141651
v -0.417500 1.700000 0.141651
f 350 349 353
f 350 353 351
f 351 353 354
f 351 354 352
f 353 349 355
f 353 355 354
f 354 355 356
f 354 356 352
f 355 349 357
f 355 357 356
f 356 357 358
f 356 358 352
f 357 349 359
f 357 359 358
f 358 359 360
f 358 360 352
f 359 349 361
f 359 361 360
f 360 361 362
f 360 362 352
f 361 349 350
f 361 350 362
f 362 350 351
f 362 351 352

o CANOPY_POST_0.43
usemtl metal
v 0.430000 0.980000 0.120000
v 0.455000 0.980000 0.120000
v 0.455000 1.700000 0.120000
v 0.430000 1.700000 0.120000
v 0.442500 0.980000 0.098349
v 0.442500 1.700000 0.098349
v 0.417500 0.980000 0.098349
v 0.417500 1.700000 0.098349
v 0.405000 0.980000 0.120000
v 0.405000 1.700000 0.120000
v 0.417500 0.980000 0.141651
v 0.417500 1.700000 0.141651
v 0.442500 0.980000 0.141651
v 0.442500 1.700000 0.141651
f 364 363 367
f 364 367 365
f 365 367 368
f 365 368 366
f 367 363 369
f 367 369 368
f 368 369 370
f 368 370 366
f 369 363 371
f 369 371 370
f 370 371 372
f 370 372 366
f 371 363 373
f 371 373 372
f 372 373 374
f 372 374 366
f 373 363 375
f 373 375 374
f 374 375 376
f 374 376 366
f 375 363 364
f 375 364 376
f 376 364 365
f 376 365 366

o CANOPY
usemtl red
v -0.512417 1.714640 0.820000
v -0.503702 1.814259 0.820000
v -0.512417 1.714640 -0.100000
v -0.503702 1.814259 -0.100000
v 0.503702 1.625741 0.820000
v 0.512417 1.725360 0.820000
v 0.503702 1.625741 -0.100000
v 0.512417 1.725360 -0.100000
f 378 380 377
f 381 378 377
f 377 380 379
f 379 381 377
f 378 384 380
f 382 378 381
f 382 384 378
f 380 384 379
f 383 381 379
f 379 384 383
f 383 382 381
f 384 382 383

o CANOPY_WHITE_STRIPE
usemtl white
v -0.520000 1.650000 0.850000
v -0.520000 1.690000 0.850000
v -0.520000 1.650000 0.750000
v -0.520000 1.690000 0.750000
v 0.520000 1.650000 0.850000
v 0.520000 1.690000 0.850000
v 0.520000 1.650000 0.750000
v 0.520000 1.690000 0.750000
f 386 388 385
f 389 386 385
f 385 388 387
f 387 389 385
f 386 392 388
f 390 386 389
f 390 392 386
f 388 392 387
f 391 389 387
f 387 392 391
f 391 390 389
f 392 390 391

o HANDLE
usemtl metal
v -0.300000 1.020000 -0.330000
v -0.300000 0.995000 -0.330000
v 0.300000 0.995000 -0.330000
v 0.300000 1.020000 -0.330000
v -0.300000 1.007500 -0.351651
v 0.300000 1.007500 -0.351651
v -0.300000 1.032500 -0.351651
v 0.300000 1.032500 -0.351651
v -0.300000 1.045000 -0.330000
v 0.300000 1.045000 -0.330000
v -0.300000 1.032500 -0.308349
v 0.300000 1.032500 -0.308349
v -0.300000 1.007500 -0.308349
v 0.300000 1.007500 -0.308349
f 394 393 397
f 394 397 395
f 395 397 398
f 395 398 396
f 397 393 399
f 397 399 398
f 398 399 400
f 398 400 396
f 399 393 401
f 399 401 400
f 400 401 402
f 400 402 396
f 401 393 403
f 401 403 402
f 402 403 404
f 402 404 396
f 403 393 405
f 403 405 404
f 404 405 406
f 404 406 396
f 405 393 394
f 405 394 406
f 406 394 395
f 406 395 396
