# Negara Konoha — PohonKetapang
# Original fictional game asset, Nusantara/Indonesia-inspired.
# 1 OBJ unit = 1 meter. Y-up. Intended front = +Z in Unity.
mtllib PohonKetapang.mtl

o TRUNK
usemtl wood2
v 0.000000 0.000000 0.000000
v 0.220000 0.000000 0.000000
v 0.220000 3.000000 0.000000
v 0.000000 3.000000 0.000000
v 0.168530 0.000000 -0.141413
v 0.168530 3.000000 -0.141413
v 0.038203 0.000000 -0.216658
v 0.038203 3.000000 -0.216658
v -0.110000 0.000000 -0.190526
v -0.110000 3.000000 -0.190526
v -0.206732 0.000000 -0.075244
v -0.206732 3.000000 -0.075244
v -0.206732 -0.000000 0.075244
v -0.206732 3.000000 0.075244
v -0.110000 -0.000000 0.190526
v -0.110000 3.000000 0.190526
v 0.038203 -0.000000 0.216658
v 0.038203 3.000000 0.216658
v 0.168530 -0.000000 0.141413
v 0.168530 3.000000 0.141413
f 2 1 5
f 2 5 3
f 3 5 6
f 3 6 4
f 5 1 7
f 5 7 6
f 6 7 8
f 6 8 4
f 7 1 9
f 7 9 8
f 8 9 10
f 8 10 4
f 9 1 11
f 9 11 10
f 10 11 12
f 10 12 4
f 11 1 13
f 11 13 12
f 12 13 14
f 12 14 4
f 13 1 15
f 13 15 14
f 14 15 16
f 14 16 4
f 15 1 17
f 15 17 16
f 16 17 18
f 16 18 4
f 17 1 19
f 17 19 18
f 18 19 20
f 18 20 4
f 19 1 2
f 19 2 20
f 20 2 3
f 20 3 4

o BR_0_0
usemtl wood
v 0.000000 1.500000 0.000000
v 0.010857 1.433379 0.000000
v 1.360857 1.653379 0.000000
v 1.350000 1.720000 0.000000
v 0.006769 1.458462 -0.052774
v 1.356769 1.678462 -0.052774
v -0.002416 1.514825 -0.065808
v 1.347584 1.734825 -0.065808
v -0.009782 1.560024 -0.029287
v 1.340218 1.780024 -0.029287
v -0.009782 1.560024 0.029287
v 1.340218 1.780024 0.029287
v -0.002416 1.514825 0.065808
v 1.347584 1.734825 0.065808
v 0.006769 1.458462 0.052774
v 1.356769 1.678462 0.052774
f 22 21 25
f 22 25 23
f 23 25 26
f 23 26 24
f 25 21 27
f 25 27 26
f 26 27 28
f 26 28 24
f 27 21 29
f 27 29 28
f 28 29 30
f 28 30 24
f 29 21 31
f 29 31 30
f 30 31 32
f 30 32 24
f 31 21 33
f 31 33 32
f 32 33 34
f 32 34 24
f 33 21 35
f 33 35 34
f 34 35 36
f 34 36 24
f 35 21 22
f 35 22 36
f 36 22 23
f 36 23 24

o BR_0_1
usemtl wood
v -0.000000 1.500000 0.000000
v 0.062091 1.479413 0.016647
v 0.479264 1.699413 -1.267279
v 0.417173 1.720000 -1.283926
v 0.025698 1.437627 -0.002338
v 0.442871 1.657627 -1.286264
v -0.030046 1.442809 -0.019562
v 0.387127 1.662809 -1.303489
v -0.063165 1.491057 -0.022056
v 0.354008 1.711057 -1.305982
v -0.048719 1.546039 -0.007941
v 0.368454 1.766039 -1.291867
v 0.002413 1.566353 0.012154
v 0.419586 1.786353 -1.271773
v 0.051728 1.536701 0.023096
v 0.468901 1.756701 -1.260830
f 38 37 41
f 38 41 39
f 39 41 42
f 39 42 40
f 41 37 43
f 41 43 42
f 42 43 44
f 42 44 40
f 43 37 45
f 43 45 44
f 44 45 46
f 44 46 40
f 45 37 47
f 45 47 46
f 46 47 48
f 46 48 40
f 47 37 49
f 47 49 48
f 48 49 50
f 48 50 40
f 49 37 51
f 49 51 50
f 50 51 52
f 50 52 40
f 51 37 38
f 51 38 52
f 52 38 39
f 52 39 40

o BR_0_2
usemtl wood
v 0.000000 1.500000 0.000000
v 0.030427 1.553898 -0.026935
v -1.061746 1.773898 -0.820446
v -1.092173 1.720000 -0.793510
v 0.040030 1.502989 -0.054267
v -1.052143 1.722989 -0.847777
v 0.019490 1.449829 -0.040735
v -1.072683 1.669829 -0.834245
v -0.015727 1.434449 0.003472
v -1.107899 1.654449 -0.790038
v -0.039100 1.468430 0.045064
v -1.131273 1.688430 -0.748446
v -0.033031 1.526184 0.052722
v -1.125204 1.746184 -0.740788
v -0.002088 1.564220 0.020679
v -1.094261 1.784220 -0.772831
f 54 53 57
f 54 57 55
f 55 57 58
f 55 58 56
f 57 53 59
f 57 59 58
f 58 59 60
f 58 60 56
f 59 53 61
f 59 61 60
f 60 61 62
f 60 62 56
f 61 53 63
f 61 63 62
f 62 63 64
f 62 64 56
f 63 53 65
f 63 65 64
f 64 65 66
f 64 66 56
f 65 53 67
f 65 67 66
f 66 67 68
f 66 68 56
f 67 53 54
f 67 54 68
f 68 54 55
f 68 55 56

o BR_0_3
usemtl wood
v -0.000000 1.500000 0.000000
v 0.030427 1.553898 0.026935
v -1.061746 1.773898 0.820446
v -1.092173 1.720000 0.793510
v -0.002088 1.564220 -0.020679
v -1.094261 1.784220 0.772831
v -0.033031 1.526184 -0.052722
v -1.125204 1.746184 0.740788
v -0.039100 1.468430 -0.045064
v -1.131273 1.688430 0.748446
v -0.015727 1.434449 -0.003472
v -1.107899 1.654449 0.790038
v 0.019490 1.449829 0.040735
v -1.072683 1.669829 0.834245
v 0.040030 1.502989 0.054267
v -1.052143 1.722989 0.847777
f 70 69 73
f 70 73 71
f 71 73 74
f 71 74 72
f 73 69 75
f 73 75 74
f 74 75 76
f 74 76 72
f 75 69 77
f 75 77 76
f 76 77 78
f 76 78 72
f 77 69 79
f 77 79 78
f 78 79 80
f 78 80 72
f 79 69 81
f 79 81 80
f 80 81 82
f 80 82 72
f 81 69 83
f 81 83 82
f 82 83 84
f 82 84 72
f 83 69 70
f 83 70 84
f 84 70 71
f 84 71 72

o BR_0_4
usemtl wood
v 0.000000 1.500000 0.000000
v 0.062091 1.479413 -0.016647
v 0.479264 1.699413 1.267279
v 0.417173 1.720000 1.283926
v 0.051728 1.536701 -0.023096
v 0.468901 1.756701 1.260830
v 0.002413 1.566353 -0.012154
v 0.419586 1.786353 1.271773
v -0.048719 1.546039 0.007941
v 0.368454 1.766039 1.291867
v -0.063165 1.491057 0.022056
v 0.354008 1.711057 1.305982
v -0.030046 1.442809 0.019562
v 0.387127 1.662809 1.303489
v 0.025698 1.437627 0.002338
v 0.442871 1.657627 1.286264
f 86 85 89
f 86 89 87
f 87 89 90
f 87 90 88
f 89 85 91
f 89 91 90
f 90 91 92
f 90 92 88
f 91 85 93
f 91 93 92
f 92 93 94
f 92 94 88
f 93 85 95
f 93 95 94
f 94 95 96
f 94 96 88
f 95 85 97
f 95 97 96
f 96 97 98
f 96 98 88
f 97 85 99
f 97 99 98
f 98 99 100
f 98 100 88
f 99 85 86
f 99 86 100
f 100 86 87
f 100 87 88

o BR_1_0
usemtl wood
v 0.000000 2.200000 0.000000
v 0.016202 2.137206 0.018725
v 1.491017 2.357206 -0.519624
v 1.474815 2.420000 -0.538350
v -0.004538 2.142928 -0.035755
v 1.470277 2.362928 -0.574104
v -0.021861 2.191626 -0.063311
v 1.452954 2.411626 -0.601660
v -0.022722 2.246630 -0.043192
v 1.452093 2.466630 -0.581542
v -0.006473 2.266521 0.009451
v 1.468342 2.486521 -0.528899
v 0.014650 2.236320 0.054977
v 1.489465 2.456320 -0.483372
v 0.024742 2.178769 0.059105
v 1.499557 2.398769 -0.479245
f 102 101 105
f 102 105 103
f 103 105 106
f 103 106 104
f 105 101 107
f 105 107 106
f 106 107 108
f 106 108 104
f 107 101 109
f 107 109 108
f 108 109 110
f 108 110 104
f 109 101 111
f 109 111 110
f 110 111 112
f 110 112 104
f 111 101 113
f 111 113 112
f 112 113 114
f 112 114 104
f 113 101 115
f 113 115 114
f 114 115 116
f 114 116 104
f 115 101 102
f 115 102 116
f 116 102 103
f 116 103 104

o BR_1_1
usemtl wood
v 0.000000 2.200000 0.000000
v 0.065766 2.188454 0.009890
v 0.336949 2.408454 -1.536512
v 0.271183 2.420000 -1.546402
v 0.033272 2.141324 -0.002513
v 0.304455 2.361324 -1.548915
v -0.024277 2.138378 -0.013024
v 0.246907 2.358378 -1.559426
v -0.063544 2.181835 -0.013728
v 0.207639 2.401835 -1.560130
v -0.054962 2.238971 -0.004094
v 0.216222 2.458971 -1.550496
v -0.004992 2.266761 0.008622
v 0.266191 2.486761 -1.537780
v 0.048737 2.244278 0.014846
v 0.319920 2.464278 -1.531556
f 118 117 121
f 118 121 119
f 119 121 122
f 119 122 120
f 121 117 123
f 121 123 122
f 122 123 124
f 122 124 120
f 123 117 125
f 123 125 124
f 124 125 126
f 124 126 120
f 125 117 127
f 125 127 126
f 126 127 128
f 126 128 120
f 127 117 129
f 127 129 128
f 128 129 130
f 128 130 120
f 129 117 131
f 129 131 130
f 130 131 132
f 130 132 120
f 131 117 118
f 131 118 132
f 132 118 119
f 132 119 120

o BR_1_2
usemtl wood
v 0.000000 2.200000 0.000000
v 0.033333 2.251248 -0.028615
v -1.170299 2.471248 -1.036668
v -1.203632 2.420000 -1.008053
v 0.043155 2.198396 -0.051878
v -1.160477 2.418396 -1.059931
v 0.020481 2.146752 -0.036075
v -1.183151 2.366752 -1.044128
v -0.017616 2.135205 0.006893
v -1.221248 2.355205 -1.001160
v -0.042448 2.172450 0.044670
v -1.246079 2.392450 -0.963382
v -0.035315 2.230441 0.048810
v -1.238947 2.450441 -0.959242
v -0.001590 2.265509 0.016195
v -1.205222 2.485509 -0.991857
f 134 133 137
f 134 137 135
f 135 137 138
f 135 138 136
f 137 133 139
f 137 139 138
f 138 139 140
f 138 140 136
f 139 133 141
f 139 141 140
f 140 141 142
f 140 142 136
f 141 133 143
f 141 143 142
f 142 143 144
f 142 144 136
f 143 133 145
f 143 145 144
f 144 145 146
f 144 146 136
f 145 133 147
f 145 147 146
f 146 147 148
f 146 148 136
f 147 133 134
f 147 134 148
f 148 134 135
f 148 135 136

o BR_1_3
usemtl wood
v 0.000000 2.200000 0.000000
v 0.016202 2.262794 0.018725
v -1.458613 2.482794 0.557075
v -1.474815 2.420000 0.538350
v -0.004538 2.257072 -0.035755
v -1.479353 2.477072 0.502595
v -0.021861 2.208374 -0.063311
v -1.496676 2.428374 0.475039
v -0.022722 2.153370 -0.043192
v -1.497537 2.373370 0.495157
v -0.006473 2.133479 0.009451
v -1.481288 2.353479 0.547800
v 0.014650 2.163680 0.054977
v -1.460165 2.383680 0.593327
v 0.024742 2.221231 0.059105
v -1.450073 2.441231 0.597454
f 150 149 153
f 150 153 151
f 151 153 154
f 151 154 152
f 153 149 155
f 153 155 154
f 154 155 156
f 154 156 152
f 155 149 157
f 155 157 156
f 156 157 158
f 156 158 152
f 157 149 159
f 157 159 158
f 158 159 160
f 158 160 152
f 159 149 161
f 159 161 160
f 160 161 162
f 160 162 152
f 161 149 163
f 161 163 162
f 162 163 164
f 162 164 152
f 163 149 150
f 163 150 164
f 164 150 151
f 164 151 152

o BR_1_4
usemtl wood
v 0.000000 2.200000 0.000000
v 0.065766 2.211546 0.009890
v -0.205418 2.431546 1.556292
v -0.271183 2.420000 1.546402
v 0.033272 2.258676 -0.002513
v -0.237912 2.478676 1.543889
v -0.024277 2.261622 -0.013024
v -0.295460 2.481622 1.533378
v -0.063544 2.218165 -0.013728
v -0.334727 2.438165 1.532675
v -0.054962 2.161029 -0.004094
v -0.326145 2.381029 1.542308
v -0.004992 2.133239 0.008622
v -0.276175 2.353239 1.555025
v 0.048737 2.155722 0.014846
v -0.222446 2.375722 1.561248
f 166 165 169
f 166 169 167
f 167 169 170
f 167 170 168
f 169 165 171
f 169 171 170
f 170 171 172
f 170 172 168
f 171 165 173
f 171 173 172
f 172 173 174
f 172 174 168
f 173 165 175
f 173 175 174
f 174 175 176
f 174 176 168
f 175 165 177
f 175 177 176
f 176 177 178
f 176 178 168
f 177 165 179
f 177 179 178
f 178 179 180
f 178 180 168
f 179 165 166
f 179 166 180
f 180 166 167
f 180 167 168

o BR_1_5
usemtl wood
v 0.000000 2.200000 0.000000
v 0.033333 2.148752 -0.028615
v 1.236965 2.368752 0.979437
v 1.203632 2.420000 1.008053
v 0.043155 2.201604 -0.051878
v 1.246787 2.421604 0.956175
v 0.020481 2.253248 -0.036075
v 1.224113 2.473248 0.971977
v -0.017616 2.264795 0.006893
v 1.186016 2.484795 1.014945
v -0.042448 2.227550 0.044670
v 1.161184 2.447550 1.052723
v -0.035315 2.169559 0.048810
v 1.168317 2.389559 1.056863
v -0.001590 2.134491 0.016195
v 1.202042 2.354491 1.024248
f 182 181 185
f 182 185 183
f 183 185 186
f 183 186 184
f 185 181 187
f 185 187 186
f 186 187 188
f 186 188 184
f 187 181 189
f 187 189 188
f 188 189 190
f 188 190 184
f 189 181 191
f 189 191 190
f 190 191 192
f 190 192 184
f 191 181 193
f 191 193 192
f 192 193 194
f 192 194 184
f 193 181 195
f 193 195 194
f 194 195 196
f 194 196 184
f 195 181 182
f 195 182 196
f 196 182 183
f 196 183 184

o BR_2_0
usemtl wood
v 0.000000 2.900000 0.000000
v 0.008234 2.833004 0.000000
v 1.798234 3.053004 0.000000
v 1.790000 3.120000 0.000000
v 0.005134 2.858229 -0.052774
v 1.795134 3.078229 -0.052774
v -0.001832 2.914908 -0.065808
v 1.788168 3.134908 -0.065808
v -0.007419 2.960361 -0.029287
v 1.782581 3.180361 -0.029287
v -0.007419 2.960361 0.029287
v 1.782581 3.180361 0.029287
v -0.001832 2.914908 0.065808
v 1.788168 3.134908 0.065808
v 0.005134 2.858229 0.052774
v 1.795134 3.078229 0.052774
f 198 197 201
f 198 201 199
f 199 201 202
f 199 202 200
f 201 197 203
f 201 203 202
f 202 203 204
f 202 204 200
f 203 197 205
f 203 205 204
f 204 205 206
f 204 206 200
f 205 197 207
f 205 207 206
f 206 207 208
f 206 208 200
f 207 197 209
f 207 209 208
f 208 209 210
f 208 210 200
f 209 197 211
f 209 211 210
f 210 211 212
f 210 212 200
f 211 197 198
f 211 198 212
f 212 198 199
f 212 199 200

o BR_2_1
usemtl wood
v 0.000000 2.900000 0.000000
v 0.044461 2.858229 0.028890
v 1.160508 3.078229 -1.370588
v 1.116047 3.120000 -1.399478
v 0.005134 2.833004 -0.006438
v 1.121181 3.053004 -1.405916
v -0.038059 2.858229 -0.036918
v 1.077988 3.078229 -1.436396
v -0.052593 2.914908 -0.039598
v 1.063454 3.134908 -1.439076
v -0.027523 2.960361 -0.012460
v 1.088524 3.180361 -1.411938
v 0.018272 2.960361 0.024060
v 1.134319 3.180361 -1.375418
v 0.050308 2.914908 0.042463
v 1.166355 3.134908 -1.357015
f 214 213 217
f 214 217 215
f 215 217 218
f 215 218 216
f 217 213 219
f 217 219 218
f 218 219 220
f 218 220 216
f 219 213 221
f 219 221 220
f 220 221 222
f 220 222 216
f 221 213 223
f 221 223 222
f 222 223 224
f 222 224 216
f 223 213 225
f 223 225 224
f 224 225 226
f 224 226 216
f 225 213 227
f 225 227 226
f 226 227 228
f 226 228 216
f 227 213 214
f 227 214 228
f 228 214 215
f 228 215 216

o BR_2_2
usemtl wood
v 0.000000 2.900000 0.000000
v 0.064565 2.914908 -0.012857
v -0.333747 3.134908 -1.757978
v -0.398312 3.120000 -1.745121
v 0.050308 2.858229 -0.016748
v -0.348004 3.078229 -1.761869
v -0.001832 2.833004 -0.008028
v -0.400145 3.053004 -1.753149
v -0.052593 2.858229 0.006738
v -0.450905 3.078229 -1.738383
v -0.063750 2.914908 0.016430
v -0.462062 3.134908 -1.728691
v -0.026902 2.960361 0.013750
v -0.425215 3.180361 -1.731371
v 0.030204 2.960361 0.000716
v -0.368109 3.180361 -1.744405
f 230 229 233
f 230 233 231
f 231 233 234
f 231 234 232
f 233 229 235
f 233 235 234
f 234 235 236
f 234 236 232
f 235 229 237
f 235 237 236
f 236 237 238
f 236 238 232
f 237 229 239
f 237 239 238
f 238 239 240
f 238 240 232
f 239 229 241
f 239 241 240
f 240 241 242
f 240 242 232
f 241 229 243
f 241 243 242
f 242 243 244
f 242 244 232
f 243 229 230
f 243 230 244
f 244 230 231
f 244 231 232

o BR_2_3
usemtl wood
v 0.000000 2.900000 0.000000
v 0.019391 2.960361 -0.023168
v -1.593343 3.180361 -0.799820
v -1.612734 3.120000 -0.776652
v 0.030204 2.914908 -0.058496
v -1.582531 3.134908 -0.835148
v 0.018272 2.858229 -0.049775
v -1.594462 3.078229 -0.826427
v -0.007419 2.833004 -0.003573
v -1.620153 3.053004 -0.780225
v -0.027523 2.858229 0.045320
v -1.640257 3.078229 -0.731332
v -0.026902 2.914908 0.060086
v -1.639636 3.134908 -0.716566
v -0.006023 2.960361 0.029606
v -1.618757 3.180361 -0.747046
f 246 245 249
f 246 249 247
f 247 249 250
f 247 250 248
f 249 245 251
f 249 251 250
f 250 251 252
f 250 252 248
f 251 245 253
f 251 253 252
f 252 253 254
f 252 254 248
f 253 245 255
f 253 255 254
f 254 255 256
f 254 256 248
f 255 245 257
f 255 257 256
f 256 257 258
f 256 258 248
f 257 245 259
f 257 259 258
f 258 259 260
f 258 260 248
f 259 245 246
f 259 246 260
f 260 246 247
f 260 247 248

o BR_2_4
usemtl wood
v 0.000000 2.900000 0.000000
v 0.019391 2.960361 0.023168
v -1.593343 3.180361 0.799820
v -1.612734 3.120000 0.776652
v -0.006023 2.960361 -0.029606
v -1.618757 3.180361 0.747046
v -0.026902 2.914908 -0.060086
v -1.639636 3.134908 0.716566
v -0.027523 2.858229 -0.045320
v -1.640257 3.078229 0.731332
v -0.007419 2.833004 0.003573
v -1.620153 3.053004 0.780225
v 0.018272 2.858229 0.049775
v -1.594462 3.078229 0.826427
v 0.030204 2.914908 0.058496
v -1.582531 3.134908 0.835148
f 262 261 265
f 262 265 263
f 263 265 266
f 263 266 264
f 265 261 267
f 265 267 266
f 266 267 268
f 266 268 264
f 267 261 269
f 267 269 268
f 268 269 270
f 268 270 264
f 269 261 271
f 269 271 270
f 270 271 272
f 270 272 264
f 271 261 273
f 271 273 272
f 272 273 274
f 272 274 264
f 273 261 275
f 273 275 274
f 274 275 276
f 274 276 264
f 275 261 262
f 275 262 276
f 276 262 263
f 276 263 264

o BR_2_5
usemtl wood
v 0.000000 2.900000 0.000000
v 0.064565 2.914908 0.012857
v -0.333747 3.134908 1.757978
v -0.398312 3.120000 1.745121
v 0.030204 2.960361 -0.000716
v -0.368109 3.180361 1.744405
v -0.026902 2.960361 -0.013750
v -0.425215 3.180361 1.731371
v -0.063750 2.914908 -0.016430
v -0.462062 3.134908 1.728691
v -0.052593 2.858229 -0.006738
v -0.450905 3.078229 1.738383
v -0.001832 2.833004 0.008028
v -0.400145 3.053004 1.753149
v 0.050308 2.858229 0.016748
v -0.348004 3.078229 1.761869
f 278 277 281
f 278 281 279
f 279 281 282
f 279 282 280
f 281 277 283
f 281 283 282
f 282 283 284
f 282 284 280
f 283 277 285
f 283 285 284
f 284 285 286
f 284 286 280
f 285 277 287
f 285 287 286
f 286 287 288
f 286 288 280
f 287 277 289
f 287 289 288
f 288 289 290
f 288 290 280
f 289 277 291
f 289 291 290
f 290 291 292
f 290 292 280
f 291 277 278
f 291 278 292
f 292 278 279
f 292 279 280

o BR_2_6
usemtl wood
v -0.000000 2.900000 0.000000
v 0.044461 2.858229 -0.028890
v 1.160508 3.078229 1.370588
v 1.116047 3.120000 1.399478
v 0.050308 2.914908 -0.042463
v 1.166355 3.134908 1.357015
v 0.018272 2.960361 -0.024060
v 1.134319 3.180361 1.375418
v -0.027523 2.960361 0.012460
v 1.088524 3.180361 1.411938
v -0.052593 2.914908 0.039598
v 1.063454 3.134908 1.439076
v -0.038059 2.858229 0.036918
v 1.077988 3.078229 1.436396
v 0.005134 2.833004 0.006438
v 1.121181 3.053004 1.405916
f 294 293 297
f 294 297 295
f 295 297 298
f 295 298 296
f 297 293 299
f 297 299 298
f 298 299 300
f 298 300 296
f 299 293 301
f 299 301 300
f 300 301 302
f 300 302 296
f 301 293 303
f 301 303 302
f 302 303 304
f 302 304 296
f 303 293 305
f 303 305 304
f 304 305 306
f 304 306 296
f 305 293 307
f 305 307 306
f 306 307 308
f 306 308 296
f 307 293 294
f 307 294 308
f 308 294 295
f 308 295 296

o BR_3_0
usemtl wood
v 0.000000 3.500000 0.000000
v 0.014417 3.436969 0.019377
v 1.902556 3.656969 -0.669848
v 1.888139 3.720000 -0.689225
v -0.006160 3.442712 -0.035163
v 1.881979 3.662712 -0.724387
v -0.022099 3.491594 -0.063224
v 1.866040 3.711594 -0.752448
v -0.021397 3.546806 -0.043676
v 1.866742 3.766806 -0.732901
v -0.004582 3.566772 0.008760
v 1.883557 3.786772 -0.680464
v 0.015683 3.536457 0.054600
v 1.903822 3.756457 -0.634624
v 0.024138 3.478689 0.059325
v 1.912277 3.698689 -0.629900
f 310 309 313
f 310 313 311
f 311 313 314
f 311 314 312
f 313 309 315
f 313 315 314
f 314 315 316
f 314 316 312
f 315 309 317
f 315 317 316
f 316 317 318
f 316 318 312
f 317 309 319
f 317 319 318
f 318 319 320
f 318 320 312
f 319 309 321
f 319 321 320
f 320 321 322
f 320 322 312
f 321 309 323
f 321 323 322
f 322 323 324
f 322 324 312
f 323 309 310
f 323 310 324
f 324 310 311
f 324 311 312

o BR_3_1
usemtl wood
v 0.000000 3.500000 0.000000
v 0.056799 3.471699 0.023005
v 0.904559 3.691699 -1.799467
v 0.847761 3.720000 -1.822471
v 0.017428 3.434789 0.000235
v 0.865188 3.654789 -1.822237
v -0.035067 3.446984 -0.022712
v 0.812694 3.666984 -1.845183
v -0.061155 3.499101 -0.028556
v 0.786605 3.719101 -1.851028
v -0.041193 3.551895 -0.012897
v 0.806568 3.771895 -1.835368
v 0.009789 3.565611 0.012474
v 0.857550 3.785611 -1.809997
v 0.053399 3.529921 0.028452
v 0.901160 3.749921 -1.794020
f 326 325 329
f 326 329 327
f 327 329 330
f 327 330 328
f 329 325 331
f 329 331 330
f 330 331 332
f 330 332 328
f 331 325 333
f 331 333 332
f 332 333 334
f 332 334 328
f 333 325 335
f 333 335 334
f 334 335 336
f 334 336 328
f 335 325 337
f 335 337 336
f 336 337 338
f 336 338 328
f 337 325 339
f 337 339 338
f 338 339 340
f 338 340 328
f 339 325 326
f 339 326 340
f 340 326 327
f 340 327 328

o BR_3_2
usemtl wood
v 0.000000 3.500000 0.000000
v 0.060427 3.523008 -0.019377
v -0.628798 3.743008 -1.907516
v -0.689225 3.720000 -1.888139
v 0.052825 3.465066 -0.023353
v -0.636400 3.685066 -1.911492
v 0.005445 3.433429 -0.009744
v -0.683780 3.653429 -1.897883
v -0.046036 3.451922 0.011202
v -0.735260 3.671922 -1.876937
v -0.062850 3.506619 0.023713
v -0.752075 3.726619 -1.864426
v -0.032337 3.556331 0.018368
v -0.721562 3.776331 -1.869772
v 0.022526 3.563625 -0.000809
v -0.666698 3.783625 -1.888948
f 342 341 345
f 342 345 343
f 343 345 346
f 343 346 344
f 345 341 347
f 345 347 346
f 346 347 348
f 346 348 344
f 347 341 349
f 347 349 348
f 348 349 350
f 348 350 344
f 349 341 351
f 349 351 350
f 350 351 352
f 350 352 344
f 351 341 353
f 351 353 352
f 352 353 354
f 352 354 344
f 353 341 355
f 353 355 354
f 354 355 356
f 354 356 344
f 355 341 342
f 355 342 356
f 356 342 343
f 356 343 344

o BR_3_3
usemtl wood
v 0.000000 3.500000 0.000000
v 0.018045 3.560839 -0.023005
v -1.804426 3.780839 -0.870765
v -1.822471 3.720000 -0.847761
v 0.029237 3.515806 -0.058750
v -1.793234 3.735806 -0.906511
v 0.018413 3.458871 -0.050256
v -1.804059 3.678871 -0.898016
v -0.006277 3.432907 -0.003917
v -1.828748 3.652907 -0.851678
v -0.026240 3.457465 0.045371
v -1.848711 3.677465 -0.802390
v -0.026444 3.514053 0.060494
v -1.848915 3.734053 -0.787267
v -0.006735 3.560059 0.030064
v -1.829206 3.780059 -0.817697
f 358 357 361
f 358 361 359
f 359 361 362
f 359 362 360
f 361 357 363
f 361 363 362
f 362 363 364
f 362 364 360
f 363 357 365
f 363 365 364
f 364 365 366
f 364 366 360
f 365 357 367
f 365 367 366
f 366 367 368
f 366 368 360
f 367 357 369
f 367 369 368
f 368 369 370
f 368 370 360
f 369 357 371
f 369 371 370
f 370 371 372
f 370 372 360
f 371 357 358
f 371 358 372
f 372 358 359
f 372 359 360

o BR_3_4
usemtl wood
v -0.000000 3.500000 0.000000
v 0.014417 3.563031 0.019377
v -1.873722 3.783031 0.708601
v -1.888139 3.720000 0.689225
v -0.006160 3.557288 -0.035163
v -1.894299 3.777288 0.654062
v -0.022099 3.508406 -0.063224
v -1.910238 3.728406 0.626001
v -0.021397 3.453194 -0.043676
v -1.909536 3.673194 0.645549
v -0.004582 3.433228 0.008760
v -1.892721 3.653228 0.697985
v 0.015683 3.463543 0.054600
v -1.872456 3.683543 0.743825
v 0.024138 3.521311 0.059325
v -1.864001 3.741311 0.748549
f 374 373 377
f 374 377 375
f 375 377 378
f 375 378 376
f 377 373 379
f 377 379 378
f 378 379 380
f 378 380 376
f 379 373 381
f 379 381 380
f 380 381 382
f 380 382 376
f 381 373 383
f 381 383 382
f 382 383 384
f 382 384 376
f 383 373 385
f 383 385 384
f 384 385 386
f 384 386 376
f 385 373 387
f 385 387 386
f 386 387 388
f 386 388 376
f 387 373 374
f 387 374 388
f 388 374 375
f 388 375 376

o BR_3_5
usemtl wood
v 0.000000 3.500000 0.000000
v 0.056799 3.528301 0.023005
v -0.790962 3.748301 1.845476
v -0.847761 3.720000 1.822471
v 0.017428 3.565211 0.000235
v -0.830333 3.785211 1.822706
v -0.035067 3.553016 -0.022712
v -0.882828 3.773016 1.799759
v -0.061155 3.500899 -0.028556
v -0.908916 3.720899 1.793915
v -0.041193 3.448105 -0.012897
v -0.888953 3.668105 1.809574
v 0.009789 3.434389 0.012474
v -0.837971 3.654389 1.834945
v 0.053399 3.470079 0.028452
v -0.794361 3.690079 1.850923
f 390 389 393
f 390 393 391
f 391 393 394
f 391 394 392
f 393 389 395
f 393 395 394
f 394 395 396
f 394 396 392
f 395 389 397
f 395 397 396
f 396 397 398
f 396 398 392
f 397 389 399
f 397 399 398
f 398 399 400
f 398 400 392
f 399 389 401
f 399 401 400
f 400 401 402
f 400 402 392
f 401 389 403
f 401 403 402
f 402 403 404
f 402 404 392
f 403 389 390
f 403 390 404
f 404 390 391
f 404 391 392

o BR_3_6
usemtl wood
v -0.000000 3.500000 0.000000
v 0.060427 3.476992 -0.019377
v 0.749652 3.696992 1.868762
v 0.689225 3.720000 1.888139
v 0.052825 3.534934 -0.023353
v 0.742050 3.754934 1.864786
v 0.005445 3.566571 -0.009744
v 0.694669 3.786571 1.878395
v -0.046036 3.548078 0.011202
v 0.643189 3.768078 1.899342
v -0.062850 3.493381 0.023713
v 0.626375 3.713381 1.911852
v -0.032337 3.443669 0.018368
v 0.656887 3.663669 1.906507
v 0.022526 3.436375 -0.000809
v 0.711751 3.656375 1.887330
f 406 405 409
f 406 409 407
f 407 409 410
f 407 410 408
f 409 405 411
f 409 411 410
f 410 411 412
f 410 412 408
f 411 405 413
f 411 413 412
f 412 413 414
f 412 414 408
f 413 405 415
f 413 415 414
f 414 415 416
f 414 416 408
f 415 405 417
f 415 417 416
f 416 417 418
f 416 418 408
f 417 405 419
f 417 419 418
f 418 419 420
f 418 420 408
f 419 405 406
f 419 406 420
f 420 406 407
f 420 407 408

o BR_3_7
usemtl wood
v -0.000000 3.500000 0.000000
v 0.018045 3.439161 -0.023005
v 1.840517 3.659161 0.824756
v 1.822471 3.720000 0.847761
v 0.029237 3.484194 -0.058750
v 1.851708 3.704194 0.789010
v 0.018413 3.541129 -0.050256
v 1.840884 3.761129 0.797505
v -0.006277 3.567093 -0.003917
v 1.816194 3.787093 0.843843
v -0.026240 3.542535 0.045371
v 1.796232 3.762535 0.893131
v -0.026444 3.485947 0.060494
v 1.796028 3.705947 0.908254
v -0.006735 3.439941 0.030064
v 1.815737 3.659941 0.877824
f 422 421 425
f 422 425 423
f 423 425 426
f 423 426 424
f 425 421 427
f 425 427 426
f 426 427 428
f 426 428 424
f 427 421 429
f 427 429 428
f 428 429 430
f 428 430 424
f 429 421 431
f 429 431 430
f 430 431 432
f 430 432 424
f 431 421 433
f 431 433 432
f 432 433 434
f 432 434 424
f 433 421 435
f 433 435 434
f 434 435 436
f 434 436 424
f 435 421 422
f 435 422 436
f 436 422 423
f 436 423 424

o LEAF_0_0
usemtl green2
v 0.406842 2.000000 -0.489975
v 1.353158 2.000000 -0.489975
v 0.406842 2.000000 0.489975
v 1.353158 2.000000 0.489975
v 0.880000 2.257237 0.302821
v 0.880000 2.257237 -0.302821
v 0.880000 1.742763 0.302821
v 0.880000 1.742763 -0.302821
v 1.645586 1.841019 0.000000
v 1.645586 2.158981 0.000000
v 0.114414 1.841019 0.000000
v 0.114414 2.158981 0.000000
v 0.880000 2.000000 -0.576000
v 0.880000 2.000000 0.576000
v 0.601885 2.151200 0.465994
v 1.158115 2.151200 0.465994
v 0.601885 2.151200 -0.465994
v 1.158115 2.151200 -0.465994
v 0.880000 2.302400 0.000000
v 0.601885 1.848800 0.465994
v 1.158115 1.848800 0.465994
v 0.601885 1.848800 -0.465994
v 1.158115 1.848800 -0.465994
v 0.880000 1.697600 0.000000
v 1.608115 1.906553 -0.288000
v 1.608115 1.906553 0.288000
v 1.330000 1.755353 0.177994
v 1.330000 1.755353 -0.177994
v 1.608115 2.093447 -0.288000
v 1.608115 2.093447 0.288000
v 1.330000 2.244647 0.177994
v 1.330000 2.244647 -0.177994
v 1.780000 2.000000 0.000000
v 0.151885 1.906553 -0.288000
v 0.151885 1.906553 0.288000
v 0.430000 1.755353 0.177994
v 0.430000 1.755353 -0.177994
v 0.151885 2.093447 -0.288000
v 0.151885 2.093447 0.288000
v 0.430000 2.244647 0.177994
v 0.430000 2.244647 -0.177994
v -0.020000 2.000000 0.000000
f 437 474 453
f 474 448 477
f 453 477 442
f 474 477 453
f 437 453 449
f 453 442 454
f 449 454 438
f 453 454 449
f 437 449 458
f 449 438 459
f 458 459 444
f 449 459 458
f 437 458 470
f 458 444 473
f 470 473 447
f 458 473 470
f 437 470 474
f 470 447 478
f 474 478 448
f 470 478 474
f 438 454 465
f 454 442 468
f 465 468 446
f 454 468 465
f 442 477 455
f 477 448 476
f 455 476 441
f 477 476 455
f 448 478 475
f 478 447 471
f 475 471 439
f 478 471 475
f 447 473 472
f 473 444 460
f 472 460 443
f 473 460 472
f 444 459 464
f 459 438 461
f 464 461 445
f 459 461 464
f 440 466 452
f 466 446 467
f 452 467 441
f 466 467 452
f 440 452 450
f 452 441 451
f 450 451 439
f 452 451 450
f 440 450 457
f 450 439 456
f 457 456 443
f 450 456 457
f 440 457 462
f 457 443 463
f 462 463 445
f 457 463 462
f 440 462 466
f 462 445 469
f 466 469 446
f 462 469 466
f 441 467 455
f 467 446 468
f 455 468 442
f 467 468 455
f 439 451 475
f 451 441 476
f 475 476 448
f 451 476 475
f 443 456 472
f 456 439 471
f 472 471 447
f 456 471 472
f 445 463 464
f 463 443 460
f 464 460 444
f 463 460 464
f 446 469 465
f 469 445 461
f 465 461 438
f 469 461 465

o LEAF_0_1
usemtl green2
v -0.201223 2.000000 -1.248442
v 0.745093 2.000000 -1.248442
v -0.201223 2.000000 -0.268493
v 0.745093 2.000000 -0.268493
v 0.271935 2.257237 -0.455646
v 0.271935 2.257237 -1.061289
v 0.271935 1.742763 -0.455646
v 0.271935 1.742763 -1.061289
v 1.037521 1.841019 -0.758468
v 1.037521 2.158981 -0.758468
v -0.493651 1.841019 -0.758468
v -0.493651 2.158981 -0.758468
v 0.271935 2.000000 -1.334468
v 0.271935 2.000000 -0.182468
v -0.006180 2.151200 -0.292474
v 0.550050 2.151200 -0.292474
v -0.006180 2.151200 -1.224461
v 0.550050 2.151200 -1.224461
v 0.271935 2.302400 -0.758468
v -0.006180 1.848800 -0.292474
v 0.550050 1.848800 -0.292474
v -0.006180 1.848800 -1.224461
v 0.550050 1.848800 -1.224461
v 0.271935 1.697600 -0.758468
v 1.000050 1.906553 -1.046468
v 1.000050 1.906553 -0.470468
v 0.721935 1.755353 -0.580474
v 0.721935 1.755353 -0.936461
v 1.000050 2.093447 -1.046468
v 1.000050 2.093447 -0.470468
v 0.721935 2.244647 -0.580474
v 0.721935 2.244647 -0.936461
v 1.171935 2.000000 -0.758468
v -0.456180 1.906553 -1.046468
v -0.456180 1.906553 -0.470468
v -0.178065 1.755353 -0.580474
v -0.178065 1.755353 -0.936461
v -0.456180 2.093447 -1.046468
v -0.456180 2.093447 -0.470468
v -0.178065 2.244647 -0.580474
v -0.178065 2.244647 -0.936461
v -0.628065 2.000000 -0.758468
f 479 516 495
f 516 490 519
f 495 519 484
f 516 519 495
f 479 495 491
f 495 484 496
f 491 496 480
f 495 496 491
f 479 491 500
f 491 480 501
f 500 501 486
f 491 501 500
f 479 500 512
f 500 486 515
f 512 515 489
f 500 515 512
f 479 512 516
f 512 489 520
f 516 520 490
f 512 520 516
f 480 496 507
f 496 484 510
f 507 510 488
f 496 510 507
f 484 519 497
f 519 490 518
f 497 518 483
f 519 518 497
f 490 520 517
f 520 489 513
f 517 513 481
f 520 513 517
f 489 515 514
f 515 486 502
f 514 502 485
f 515 502 514
f 486 501 506
f 501 480 503
f 506 503 487
f 501 503 506
f 482 508 494
f 508 488 509
f 494 509 483
f 508 509 494
f 482 494 492
f 494 483 493
f 492 493 481
f 494 493 492
f 482 492 499
f 492 481 498
f 499 498 485
f 492 498 499
f 482 499 504
f 499 485 505
f 504 505 487
f 499 505 504
f 482 504 508
f 504 487 511
f 508 511 488
f 504 511 508
f 483 509 497
f 509 488 510
f 497 510 484
f 509 510 497
f 481 493 517
f 493 483 518
f 517 518 490
f 493 518 517
f 485 498 514
f 498 481 513
f 514 513 489
f 498 513 514
f 487 505 506
f 505 485 502
f 506 502 486
f 505 502 506
f 488 511 507
f 511 487 503
f 507 503 480
f 511 503 507

o LEAF_0_2
usemtl green2
v -1.185093 2.000000 -0.958734
v -0.238777 2.000000 -0.958734
v -1.185093 2.000000 0.021216
v -0.238777 2.000000 0.021216
v -0.711935 2.257237 -0.165938
v -0.711935 2.257237 -0.771580
v -0.711935 1.742763 -0.165938
v -0.711935 1.742763 -0.771580
v 0.053651 1.841019 -0.468759
v 0.053651 2.158981 -0.468759
v -1.477521 1.841019 -0.468759
v -1.477521 2.158981 -0.468759
v -0.711935 2.000000 -1.044759
v -0.711935 2.000000 0.107241
v -0.990050 2.151200 -0.002765
v -0.433820 2.151200 -0.002765
v -0.990050 2.151200 -0.934753
v -0.433820 2.151200 -0.934753
v -0.711935 2.302400 -0.468759
v -0.990050 1.848800 -0.002765
v -0.433820 1.848800 -0.002765
v -0.990050 1.848800 -0.934753
v -0.433820 1.848800 -0.934753
v -0.711935 1.697600 -0.468759
v 0.016180 1.906553 -0.756759
v 0.016180 1.906553 -0.180759
v -0.261935 1.755353 -0.290765
v -0.261935 1.755353 -0.646753
v 0.016180 2.093447 -0.756759
v 0.016180 2.093447 -0.180759
v -0.261935 2.244647 -0.290765
v -0.261935 2.244647 -0.646753
v 0.188065 2.000000 -0.468759
v -1.440050 1.906553 -0.756759
v -1.440050 1.906553 -0.180759
v -1.161935 1.755353 -0.290765
v -1.161935 1.755353 -0.646753
v -1.440050 2.093447 -0.756759
v -1.440050 2.093447 -0.180759
v -1.161935 2.244647 -0.290765
v -1.161935 2.244647 -0.646753
v -1.611935 2.000000 -0.468759
f 521 558 537
f 558 532 561
f 537 561 526
f 558 561 537
f 521 537 533
f 537 526 538
f 533 538 522
f 537 538 533
f 521 533 542
f 533 522 543
f 542 543 528
f 533 543 542
f 521 542 554
f 542 528 557
f 554 557 531
f 542 557 554
f 521 554 558
f 554 531 562
f 558 562 532
f 554 562 558
f 522 538 549
f 538 526 552
f 549 552 530
f 538 552 549
f 526 561 539
f 561 532 560
f 539 560 525
f 561 560 539
f 532 562 559
f 562 531 555
f 559 555 523
f 562 555 559
f 531 557 556
f 557 528 544
f 556 544 527
f 557 544 556
f 528 543 548
f 543 522 545
f 548 545 529
f 543 545 548
f 524 550 536
f 550 530 551
f 536 551 525
f 550 551 536
f 524 536 534
f 536 525 535
f 534 535 523
f 536 535 534
f 524 534 541
f 534 523 540
f 541 540 527
f 534 540 541
f 524 541 546
f 541 527 547
f 546 547 529
f 541 547 546
f 524 546 550
f 546 529 553
f 550 553 530
f 546 553 550
f 525 551 539
f 551 530 552
f 539 552 526
f 551 552 539
f 523 535 559
f 535 525 560
f 559 560 532
f 535 560 559
f 527 540 556
f 540 523 555
f 556 555 531
f 540 555 556
f 529 547 548
f 547 527 544
f 548 544 528
f 547 544 548
f 530 553 549
f 553 529 545
f 549 545 522
f 553 545 549

o LEAF_0_3
usemtl green2
v -1.185093 2.000000 -0.021216
v -0.238777 2.000000 -0.021216
v -1.185093 2.000000 0.958734
v -0.238777 2.000000 0.958734
v -0.711935 2.257237 0.771580
v -0.711935 2.257237 0.165938
v -0.711935 1.742763 0.771580
v -0.711935 1.742763 0.165938
v 0.053651 1.841019 0.468759
v 0.053651 2.158981 0.468759
v -1.477521 1.841019 0.468759
v -1.477521 2.158981 0.468759
v -0.711935 2.000000 -0.107241
v -0.711935 2.000000 1.044759
v -0.990050 2.151200 0.934753
v -0.433820 2.151200 0.934753
v -0.990050 2.151200 0.002765
v -0.433820 2.151200 0.002765
v -0.711935 2.302400 0.468759
v -0.990050 1.848800 0.934753
v -0.433820 1.848800 0.934753
v -0.990050 1.848800 0.002765
v -0.433820 1.848800 0.002765
v -0.711935 1.697600 0.468759
v 0.016180 1.906553 0.180759
v 0.016180 1.906553 0.756759
v -0.261935 1.755353 0.646753
v -0.261935 1.755353 0.290765
v 0.016180 2.093447 0.180759
v 0.016180 2.093447 0.756759
v -0.261935 2.244647 0.646753
v -0.261935 2.244647 0.290765
v 0.188065 2.000000 0.468759
v -1.440050 1.906553 0.180759
v -1.440050 1.906553 0.756759
v -1.161935 1.755353 0.646753
v -1.161935 1.755353 0.290765
v -1.440050 2.093447 0.180759
v -1.440050 2.093447 0.756759
v -1.161935 2.244647 0.646753
v -1.161935 2.244647 0.290765
v -1.611935 2.000000 0.468759
f 563 600 579
f 600 574 603
f 579 603 568
f 600 603 579
f 563 579 575
f 579 568 580
f 575 580 564
f 579 580 575
f 563 575 584
f 575 564 585
f 584 585 570
f 575 585 584
f 563 584 596
f 584 570 599
f 596 599 573
f 584 599 596
f 563 596 600
f 596 573 604
f 600 604 574
f 596 604 600
f 564 580 591
f 580 568 594
f 591 594 572
f 580 594 591
f 568 603 581
f 603 574 602
f 581 602 567
f 603 602 581
f 574 604 601
f 604 573 597
f 601 597 565
f 604 597 601
f 573 599 598
f 599 570 586
f 598 586 569
f 599 586 598
f 570 585 590
f 585 564 587
f 590 587 571
f 585 587 590
f 566 592 578
f 592 572 593
f 578 593 567
f 592 593 578
f 566 578 576
f 578 567 577
f 576 577 565
f 578 577 576
f 566 576 583
f 576 565 582
f 583 582 569
f 576 582 583
f 566 583 588
f 583 569 589
f 588 589 571
f 583 589 588
f 566 588 592
f 588 571 595
f 592 595 572
f 588 595 592
f 567 593 581
f 593 572 594
f 581 594 568
f 593 594 581
f 565 577 601
f 577 567 602
f 601 602 574
f 577 602 601
f 569 582 598
f 582 565 597
f 598 597 573
f 582 597 598
f 571 589 590
f 589 569 586
f 590 586 570
f 589 586 590
f 572 595 591
f 595 571 587
f 591 587 564
f 595 587 591

o LEAF_0_4
usemtl green2
v -0.201223 2.000000 0.268493
v 0.745093 2.000000 0.268493
v -0.201223 2.000000 1.248442
v 0.745093 2.000000 1.248442
v 0.271935 2.257237 1.061289
v 0.271935 2.257237 0.455646
v 0.271935 1.742763 1.061289
v 0.271935 1.742763 0.455646
v 1.037521 1.841019 0.758468
v 1.037521 2.158981 0.758468
v -0.493651 1.841019 0.758468
v -0.493651 2.158981 0.758468
v 0.271935 2.000000 0.182468
v 0.271935 2.000000 1.334468
v -0.006180 2.151200 1.224461
v 0.550050 2.151200 1.224461
v -0.006180 2.151200 0.292474
v 0.550050 2.151200 0.292474
v 0.271935 2.302400 0.758468
v -0.006180 1.848800 1.224461
v 0.550050 1.848800 1.224461
v -0.006180 1.848800 0.292474
v 0.550050 1.848800 0.292474
v 0.271935 1.697600 0.758468
v 1.000050 1.906553 0.470468
v 1.000050 1.906553 1.046468
v 0.721935 1.755353 0.936461
v 0.721935 1.755353 0.580474
v 1.000050 2.093447 0.470468
v 1.000050 2.093447 1.046468
v 0.721935 2.244647 0.936461
v 0.721935 2.244647 0.580474
v 1.171935 2.000000 0.758468
v -0.456180 1.906553 0.470468
v -0.456180 1.906553 1.046468
v -0.178065 1.755353 0.936461
v -0.178065 1.755353 0.580474
v -0.456180 2.093447 0.470468
v -0.456180 2.093447 1.046468
v -0.178065 2.244647 0.936461
v -0.178065 2.244647 0.580474
v -0.628065 2.000000 0.758468
f 605 642 621
f 642 616 645
f 621 645 610
f 642 645 621
f 605 621 617
f 621 610 622
f 617 622 606
f 621 622 617
f 605 617 626
f 617 606 627
f 626 627 612
f 617 627 626
f 605 626 638
f 626 612 641
f 638 641 615
f 626 641 638
f 605 638 642
f 638 615 646
f 642 646 616
f 638 646 642
f 606 622 633
f 622 610 636
f 633 636 614
f 622 636 633
f 610 645 623
f 645 616 644
f 623 644 609
f 645 644 623
f 616 646 643
f 646 615 639
f 643 639 607
f 646 639 643
f 615 641 640
f 641 612 628
f 640 628 611
f 641 628 640
f 612 627 632
f 627 606 629
f 632 629 613
f 627 629 632
f 608 634 620
f 634 614 635
f 620 635 609
f 634 635 620
f 608 620 618
f 620 609 619
f 618 619 607
f 620 619 618
f 608 618 625
f 618 607 624
f 625 624 611
f 618 624 625
f 608 625 630
f 625 611 631
f 630 631 613
f 625 631 630
f 608 630 634
f 630 613 637
f 634 637 614
f 630 637 634
f 609 635 623
f 635 614 636
f 623 636 610
f 635 636 623
f 607 619 643
f 619 609 644
f 643 644 616
f 619 644 643
f 611 624 640
f 624 607 639
f 640 639 615
f 624 639 640
f 613 631 632
f 631 611 628
f 632 628 612
f 631 628 632
f 614 637 633
f 637 613 629
f 633 629 606
f 637 629 633

o LEAF_1_0
usemtl green2
v 0.560486 2.800000 -0.739369
v 1.506802 2.800000 -0.739369
v 0.560486 2.800000 0.240581
v 1.506802 2.800000 0.240581
v 1.033644 3.057237 0.053427
v 1.033644 3.057237 -0.552215
v 1.033644 2.542763 0.053427
v 1.033644 2.542763 -0.552215
v 1.799230 2.641019 -0.249394
v 1.799230 2.958981 -0.249394
v 0.268059 2.641019 -0.249394
v 0.268059 2.958981 -0.249394
v 1.033644 2.800000 -0.825394
v 1.033644 2.800000 0.326606
v 0.755529 2.951200 0.216600
v 1.311760 2.951200 0.216600
v 0.755529 2.951200 -0.715388
v 1.311760 2.951200 -0.715388
v 1.033644 3.102400 -0.249394
v 0.755529 2.648800 0.216600
v 1.311760 2.648800 0.216600
v 0.755529 2.648800 -0.715388
v 1.311760 2.648800 -0.715388
v 1.033644 2.497600 -0.249394
v 1.761760 2.706553 -0.537394
v 1.761760 2.706553 0.038606
v 1.483644 2.555353 -0.071400
v 1.483644 2.555353 -0.427388
v 1.761760 2.893447 -0.537394
v 1.761760 2.893447 0.038606
v 1.483644 3.044647 -0.071400
v 1.483644 3.044647 -0.427388
v 1.933644 2.800000 -0.249394
v 0.305529 2.706553 -0.537394
v 0.305529 2.706553 0.038606
v 0.583644 2.555353 -0.071400
v 0.583644 2.555353 -0.427388
v 0.305529 2.893447 -0.537394
v 0.305529 2.893447 0.038606
v 0.583644 3.044647 -0.071400
v 0.583644 3.044647 -0.427388
v 0.133644 2.800000 -0.249394
f 647 684 663
f 684 658 687
f 663 687 652
f 684 687 663
f 647 663 659
f 663 652 664
f 659 664 648
f 663 664 659
f 647 659 668
f 659 648 669
f 668 669 654
f 659 669 668
f 647 668 680
f 668 654 683
f 680 683 657
f 668 683 680
f 647 680 684
f 680 657 688
f 684 688 658
f 680 688 684
f 648 664 675
f 664 652 678
f 675 678 656
f 664 678 675
f 652 687 665
f 687 658 686
f 665 686 651
f 687 686 665
f 658 688 685
f 688 657 681
f 685 681 649
f 688 681 685
f 657 683 682
f 683 654 670
f 682 670 653
f 683 670 682
f 654 669 674
f 669 648 671
f 674 671 655
f 669 671 674
f 650 676 662
f 676 656 677
f 662 677 651
f 676 677 662
f 650 662 660
f 662 651 661
f 660 661 649
f 662 661 660
f 650 660 667
f 660 649 666
f 667 666 653
f 660 666 667
f 650 667 672
f 667 653 673
f 672 673 655
f 667 673 672
f 650 672 676
f 672 655 679
f 676 679 656
f 672 679 676
f 651 677 665
f 677 656 678
f 665 678 652
f 677 678 665
f 649 661 685
f 661 651 686
f 685 686 658
f 661 686 685
f 653 666 682
f 666 649 681
f 682 681 657
f 666 681 682
f 655 673 674
f 673 653 670
f 674 670 654
f 673 670 674
f 656 679 675
f 679 655 671
f 675 671 648
f 679 671 675

o LEAF_1_1
usemtl green2
v -0.425813 2.800000 -1.424063
v 0.520503 2.800000 -1.424063
v -0.425813 2.800000 -0.444114
v 0.520503 2.800000 -0.444114
v 0.047345 3.057237 -0.631267
v 0.047345 3.057237 -1.236910
v 0.047345 2.542763 -0.631267
v 0.047345 2.542763 -1.236910
v 0.812931 2.641019 -0.934089
v 0.812931 2.958981 -0.934089
v -0.718240 2.641019 -0.934089
v -0.718240 2.958981 -0.934089
v 0.047345 2.800000 -1.510089
v 0.047345 2.800000 -0.358089
v -0.230770 2.951200 -0.468095
v 0.325461 2.951200 -0.468095
v -0.230770 2.951200 -1.400082
v 0.325461 2.951200 -1.400082
v 0.047345 3.102400 -0.934089
v -0.230770 2.648800 -0.468095
v 0.325461 2.648800 -0.468095
v -0.230770 2.648800 -1.400082
v 0.325461 2.648800 -1.400082
v 0.047345 2.497600 -0.934089
v 0.775461 2.706553 -1.222089
v 0.775461 2.706553 -0.646089
v 0.497345 2.555353 -0.756095
v 0.497345 2.555353 -1.112082
v 0.775461 2.893447 -1.222089
v 0.775461 2.893447 -0.646089
v 0.497345 3.044647 -0.756095
v 0.497345 3.044647 -1.112082
v 0.947345 2.800000 -0.934089
v -0.680770 2.706553 -1.222089
v -0.680770 2.706553 -0.646089
v -0.402655 2.555353 -0.756095
v -0.402655 2.555353 -1.112082
v -0.680770 2.893447 -1.222089
v -0.680770 2.893447 -0.646089
v -0.402655 3.044647 -0.756095
v -0.402655 3.044647 -1.112082
v -0.852655 2.800000 -0.934089
f 689 726 705
f 726 700 729
f 705 729 694
f 726 729 705
f 689 705 701
f 705 694 706
f 701 706 690
f 705 706 701
f 689 701 710
f 701 690 711
f 710 711 696
f 701 711 710
f 689 710 722
f 710 696 725
f 722 725 699
f 710 725 722
f 689 722 726
f 722 699 730
f 726 730 700
f 722 730 726
f 690 706 717
f 706 694 720
f 717 720 698
f 706 720 717
f 694 729 707
f 729 700 728
f 707 728 693
f 729 728 707
f 700 730 727
f 730 699 723
f 727 723 691
f 730 723 727
f 699 725 724
f 725 696 712
f 724 712 695
f 725 712 724
f 696 711 716
f 711 690 713
f 716 713 697
f 711 713 716
f 692 718 704
f 718 698 719
f 704 719 693
f 718 719 704
f 692 704 702
f 704 693 703
f 702 703 691
f 704 703 702
f 692 702 709
f 702 691 708
f 709 708 695
f 702 708 709
f 692 709 714
f 709 695 715
f 714 715 697
f 709 715 714
f 692 714 718
f 714 697 721
f 718 721 698
f 714 721 718
f 693 719 707
f 719 698 720
f 707 720 694
f 719 720 707
f 691 703 727
f 703 693 728
f 727 728 700
f 703 728 727
f 695 708 724
f 708 691 723
f 724 723 699
f 708 723 724
f 697 715 716
f 715 695 712
f 716 712 696
f 715 712 716
f 698 721 717
f 721 697 713
f 717 713 690
f 721 713 717

o LEAF_1_2
usemtl green2
v -1.477541 2.800000 -0.817879
v -0.531225 2.800000 -0.817879
v -1.477541 2.800000 0.162070
v -0.531225 2.800000 0.162070
v -1.004383 3.057237 -0.025083
v -1.004383 3.057237 -0.630726
v -1.004383 2.542763 -0.025083
v -1.004383 2.542763 -0.630726
v -0.238797 2.641019 -0.327905
v -0.238797 2.958981 -0.327905
v -1.769969 2.641019 -0.327905
v -1.769969 2.958981 -0.327905
v -1.004383 2.800000 -0.903905
v -1.004383 2.800000 0.248095
v -1.282499 2.951200 0.138089
v -0.726268 2.951200 0.138089
v -1.282499 2.951200 -0.793898
v -0.726268 2.951200 -0.793898
v -1.004383 3.102400 -0.327905
v -1.282499 2.648800 0.138089
v -0.726268 2.648800 0.138089
v -1.282499 2.648800 -0.793898
v -0.726268 2.648800 -0.793898
v -1.004383 2.497600 -0.327905
v -0.276268 2.706553 -0.615905
v -0.276268 2.706553 -0.039905
v -0.554383 2.555353 -0.149911
v -0.554383 2.555353 -0.505898
v -0.276268 2.893447 -0.615905
v -0.276268 2.893447 -0.039905
v -0.554383 3.044647 -0.149911
v -0.554383 3.044647 -0.505898
v -0.104383 2.800000 -0.327905
v -1.732499 2.706553 -0.615905
v -1.732499 2.706553 -0.039905
v -1.454383 2.555353 -0.149911
v -1.454383 2.555353 -0.505898
v -1.732499 2.893447 -0.615905
v -1.732499 2.893447 -0.039905
v -1.454383 3.044647 -0.149911
v -1.454383 3.044647 -0.505898
v -1.904383 2.800000 -0.327905
f 731 768 747
f 768 742 771
f 747 771 736
f 768 771 747
f 731 747 743
f 747 736 748
f 743 748 732
f 747 748 743
f 731 743 752
f 743 732 753
f 752 753 738
f 743 753 752
f 731 752 764
f 752 738 767
f 764 767 741
f 752 767 764
f 731 764 768
f 764 741 772
f 768 772 742
f 764 772 768
f 732 748 759
f 748 736 762
f 759 762 740
f 748 762 759
f 736 771 749
f 771 742 770
f 749 770 735
f 771 770 749
f 742 772 769
f 772 741 765
f 769 765 733
f 772 765 769
f 741 767 766
f 767 738 754
f 766 754 737
f 767 754 766
f 738 753 758
f 753 732 755
f 758 755 739
f 753 755 758
f 734 760 746
f 760 740 761
f 746 761 735
f 760 761 746
f 734 746 744
f 746 735 745
f 744 745 733
f 746 745 744
f 734 744 751
f 744 733 750
f 751 750 737
f 744 750 751
f 734 751 756
f 751 737 757
f 756 757 739
f 751 757 756
f 734 756 760
f 756 739 763
f 760 763 740
f 756 763 760
f 735 761 749
f 761 740 762
f 749 762 736
f 761 762 749
f 733 745 769
f 745 735 770
f 769 770 742
f 745 770 769
f 737 750 766
f 750 733 765
f 766 765 741
f 750 765 766
f 739 757 758
f 757 737 754
f 758 754 738
f 757 754 758
f 740 763 759
f 763 739 755
f 759 755 732
f 763 755 759

o LEAF_1_3
usemtl green2
v -1.141246 2.800000 0.241457
v -0.194930 2.800000 0.241457
v -1.141246 2.800000 1.221407
v -0.194930 2.800000 1.221407
v -0.668088 3.057237 1.034253
v -0.668088 3.057237 0.428611
v -0.668088 2.542763 1.034253
v -0.668088 2.542763 0.428611
v 0.097497 2.641019 0.731432
v 0.097497 2.958981 0.731432
v -1.433674 2.641019 0.731432
v -1.433674 2.958981 0.731432
v -0.668088 2.800000 0.155432
v -0.668088 2.800000 1.307432
v -0.946204 2.951200 1.197426
v -0.389973 2.951200 1.197426
v -0.946204 2.951200 0.265439
v -0.389973 2.951200 0.265439
v -0.668088 3.102400 0.731432
v -0.946204 2.648800 1.197426
v -0.389973 2.648800 1.197426
v -0.946204 2.648800 0.265439
v -0.389973 2.648800 0.265439
v -0.668088 2.497600 0.731432
v 0.060027 2.706553 0.443432
v 0.060027 2.706553 1.019432
v -0.218088 2.555353 0.909426
v -0.218088 2.555353 0.553439
v 0.060027 2.893447 0.443432
v 0.060027 2.893447 1.019432
v -0.218088 3.044647 0.909426
v -0.218088 3.044647 0.553439
v 0.231912 2.800000 0.731432
v -1.396204 2.706553 0.443432
v -1.396204 2.706553 1.019432
v -1.118088 2.555353 0.909426
v -1.118088 2.555353 0.553439
v -1.396204 2.893447 0.443432
v -1.396204 2.893447 1.019432
v -1.118088 3.044647 0.909426
v -1.118088 3.044647 0.553439
v -1.568088 2.800000 0.731432
f 773 810 789
f 810 784 813
f 789 813 778
f 810 813 789
f 773 789 785
f 789 778 790
f 785 790 774
f 789 790 785
f 773 785 794
f 785 774 795
f 794 795 780
f 785 795 794
f 773 794 806
f 794 780 809
f 806 809 783
f 794 809 806
f 773 806 810
f 806 783 814
f 810 814 784
f 806 814 810
f 774 790 801
f 790 778 804
f 801 804 782
f 790 804 801
f 778 813 791
f 813 784 812
f 791 812 777
f 813 812 791
f 784 814 811
f 814 783 807
f 811 807 775
f 814 807 811
f 783 809 808
f 809 780 796
f 808 796 779
f 809 796 808
f 780 795 800
f 795 774 797
f 800 797 781
f 795 797 800
f 776 802 788
f 802 782 803
f 788 803 777
f 802 803 788
f 776 788 786
f 788 777 787
f 786 787 775
f 788 787 786
f 776 786 793
f 786 775 792
f 793 792 779
f 786 792 793
f 776 793 798
f 793 779 799
f 798 799 781
f 793 799 798
f 776 798 802
f 798 781 805
f 802 805 782
f 798 805 802
f 777 803 791
f 803 782 804
f 791 804 778
f 803 804 791
f 775 787 811
f 787 777 812
f 811 812 784
f 787 812 811
f 779 792 808
f 792 775 807
f 808 807 783
f 792 807 808
f 781 799 800
f 799 779 796
f 800 796 780
f 799 796 800
f 782 805 801
f 805 781 797
f 801 797 774
f 805 797 801

o LEAF_1_4
usemtl green2
v 0.118324 2.800000 0.289980
v 1.064640 2.800000 0.289980
v 0.118324 2.800000 1.269929
v 1.064640 2.800000 1.269929
v 0.591482 3.057237 1.082776
v 0.591482 3.057237 0.477133
v 0.591482 2.542763 1.082776
v 0.591482 2.542763 0.477133
v 1.357068 2.641019 0.779955
v 1.357068 2.958981 0.779955
v -0.174104 2.641019 0.779955
v -0.174104 2.958981 0.779955
v 0.591482 2.800000 0.203955
v 0.591482 2.800000 1.355955
v 0.313367 2.951200 1.245948
v 0.869597 2.951200 1.245948
v 0.313367 2.951200 0.313961
v 0.869597 2.951200 0.313961
v 0.591482 3.102400 0.779955
v 0.313367 2.648800 1.245948
v 0.869597 2.648800 1.245948
v 0.313367 2.648800 0.313961
v 0.869597 2.648800 0.313961
v 0.591482 2.497600 0.779955
v 1.319597 2.706553 0.491955
v 1.319597 2.706553 1.067955
v 1.041482 2.555353 0.957948
v 1.041482 2.555353 0.601961
v 1.319597 2.893447 0.491955
v 1.319597 2.893447 1.067955
v 1.041482 3.044647 0.957948
v 1.041482 3.044647 0.601961
v 1.491482 2.800000 0.779955
v -0.136633 2.706553 0.491955
v -0.136633 2.706553 1.067955
v 0.141482 2.555353 0.957948
v 0.141482 2.555353 0.601961
v -0.136633 2.893447 0.491955
v -0.136633 2.893447 1.067955
v 0.141482 3.044647 0.957948
v 0.141482 3.044647 0.601961
v -0.308518 2.800000 0.779955
f 815 852 831
f 852 826 855
f 831 855 820
f 852 855 831
f 815 831 827
f 831 820 832
f 827 832 816
f 831 832 827
f 815 827 836
f 827 816 837
f 836 837 822
f 827 837 836
f 815 836 848
f 836 822 851
f 848 851 825
f 836 851 848
f 815 848 852
f 848 825 856
f 852 856 826
f 848 856 852
f 816 832 843
f 832 820 846
f 843 846 824
f 832 846 843
f 820 855 833
f 855 826 854
f 833 854 819
f 855 854 833
f 826 856 853
f 856 825 849
f 853 849 817
f 856 849 853
f 825 851 850
f 851 822 838
f 850 838 821
f 851 838 850
f 822 837 842
f 837 816 839
f 842 839 823
f 837 839 842
f 818 844 830
f 844 824 845
f 830 845 819
f 844 845 830
f 818 830 828
f 830 819 829
f 828 829 817
f 830 829 828
f 818 828 835
f 828 817 834
f 835 834 821
f 828 834 835
f 818 835 840
f 835 821 841
f 840 841 823
f 835 841 840
f 818 840 844
f 840 823 847
f 844 847 824
f 840 847 844
f 819 845 833
f 845 824 846
f 833 846 820
f 845 846 833
f 817 829 853
f 829 819 854
f 853 854 826
f 829 854 853
f 821 834 850
f 834 817 849
f 850 849 825
f 834 849 850
f 823 841 842
f 841 821 838
f 842 838 822
f 841 838 842
f 824 847 843
f 847 823 839
f 843 839 816
f 847 839 843

o LEAF_2_0
usemtl green2
v 0.564670 3.600000 -1.027247
v 1.510986 3.600000 -1.027247
v 0.564670 3.600000 -0.047297
v 1.510986 3.600000 -0.047297
v 1.037828 3.857237 -0.234451
v 1.037828 3.857237 -0.840093
v 1.037828 3.342763 -0.234451
v 1.037828 3.342763 -0.840093
v 1.803413 3.441019 -0.537272
v 1.803413 3.758981 -0.537272
v 0.272242 3.441019 -0.537272
v 0.272242 3.758981 -0.537272
v 1.037828 3.600000 -1.113272
v 1.037828 3.600000 0.038728
v 0.759712 3.751200 -0.071278
v 1.315943 3.751200 -0.071278
v 0.759712 3.751200 -1.003266
v 1.315943 3.751200 -1.003266
v 1.037828 3.902400 -0.537272
v 0.759712 3.448800 -0.071278
v 1.315943 3.448800 -0.071278
v 0.759712 3.448800 -1.003266
v 1.315943 3.448800 -1.003266
v 1.037828 3.297600 -0.537272
v 1.765943 3.506553 -0.825272
v 1.765943 3.506553 -0.249272
v 1.487828 3.355353 -0.359278
v 1.487828 3.355353 -0.715266
v 1.765943 3.693447 -0.825272
v 1.765943 3.693447 -0.249272
v 1.487828 3.844647 -0.359278
v 1.487828 3.844647 -0.715266
v 1.937828 3.600000 -0.537272
v 0.309712 3.506553 -0.825272
v 0.309712 3.506553 -0.249272
v 0.587828 3.355353 -0.359278
v 0.587828 3.355353 -0.715266
v 0.309712 3.693447 -0.825272
v 0.309712 3.693447 -0.249272
v 0.587828 3.844647 -0.359278
v 0.587828 3.844647 -0.715266
v 0.137828 3.600000 -0.537272
f 857 894 873
f 894 868 897
f 873 897 862
f 894 897 873
f 857 873 869
f 873 862 874
f 869 874 858
f 873 874 869
f 857 869 878
f 869 858 879
f 878 879 864
f 869 879 878
f 857 878 890
f 878 864 893
f 890 893 867
f 878 893 890
f 857 890 894
f 890 867 898
f 894 898 868
f 890 898 894
f 858 874 885
f 874 862 888
f 885 888 866
f 874 888 885
f 862 897 875
f 897 868 896
f 875 896 861
f 897 896 875
f 868 898 895
f 898 867 891
f 895 891 859
f 898 891 895
f 867 893 892
f 893 864 880
f 892 880 863
f 893 880 892
f 864 879 884
f 879 858 881
f 884 881 865
f 879 881 884
f 860 886 872
f 886 866 887
f 872 887 861
f 886 887 872
f 860 872 870
f 872 861 871
f 870 871 859
f 872 871 870
f 860 870 877
f 870 859 876
f 877 876 863
f 870 876 877
f 860 877 882
f 877 863 883
f 882 883 865
f 877 883 882
f 860 882 886
f 882 865 889
f 886 889 866
f 882 889 886
f 861 887 875
f 887 866 888
f 875 888 862
f 887 888 875
f 859 871 895
f 871 861 896
f 895 896 868
f 871 896 895
f 863 876 892
f 876 859 891
f 892 891 867
f 876 891 892
f 865 883 884
f 883 863 880
f 884 880 864
f 883 880 884
f 866 889 885
f 889 865 881
f 885 881 858
f 889 881 885

o LEAF_2_1
usemtl green2
v -0.744108 3.600000 -1.508438
v 0.202208 3.600000 -1.508438
v -0.744108 3.600000 -0.528489
v 0.202208 3.600000 -0.528489
v -0.270950 3.857237 -0.715642
v -0.270950 3.857237 -1.321285
v -0.270950 3.342763 -0.715642
v -0.270950 3.342763 -1.321285
v 0.494635 3.441019 -1.018463
v 0.494635 3.758981 -1.018463
v -1.036536 3.441019 -1.018463
v -1.036536 3.758981 -1.018463
v -0.270950 3.600000 -1.594463
v -0.270950 3.600000 -0.442463
v -0.549066 3.751200 -0.552470
v 0.007165 3.751200 -0.552470
v -0.549066 3.751200 -1.484457
v 0.007165 3.751200 -1.484457
v -0.270950 3.902400 -1.018463
v -0.549066 3.448800 -0.552470
v 0.007165 3.448800 -0.552470
v -0.549066 3.448800 -1.484457
v 0.007165 3.448800 -1.484457
v -0.270950 3.297600 -1.018463
v 0.457165 3.506553 -1.306463
v 0.457165 3.506553 -0.730463
v 0.179050 3.355353 -0.840470
v 0.179050 3.355353 -1.196457
v 0.457165 3.693447 -1.306463
v 0.457165 3.693447 -0.730463
v 0.179050 3.844647 -0.840470
v 0.179050 3.844647 -1.196457
v 0.629050 3.600000 -1.018463
v -0.999066 3.506553 -1.306463
v -0.999066 3.506553 -0.730463
v -0.720950 3.355353 -0.840470
v -0.720950 3.355353 -1.196457
v -0.999066 3.693447 -1.306463
v -0.999066 3.693447 -0.730463
v -0.720950 3.844647 -0.840470
v -0.720950 3.844647 -1.196457
v -1.170950 3.600000 -1.018463
f 899 936 915
f 936 910 939
f 915 939 904
f 936 939 915
f 899 915 911
f 915 904 916
f 911 916 900
f 915 916 911
f 899 911 920
f 911 900 921
f 920 921 906
f 911 921 920
f 899 920 932
f 920 906 935
f 932 935 909
f 920 935 932
f 899 932 936
f 932 909 940
f 936 940 910
f 932 940 936
f 900 916 927
f 916 904 930
f 927 930 908
f 916 930 927
f 904 939 917
f 939 910 938
f 917 938 903
f 939 938 917
f 910 940 937
f 940 909 933
f 937 933 901
f 940 933 937
f 909 935 934
f 935 906 922
f 934 922 905
f 935 922 934
f 906 921 926
f 921 900 923
f 926 923 907
f 921 923 926
f 902 928 914
f 928 908 929
f 914 929 903
f 928 929 914
f 902 914 912
f 914 903 913
f 912 913 901
f 914 913 912
f 902 912 919
f 912 901 918
f 919 918 905
f 912 918 919
f 902 919 924
f 919 905 925
f 924 925 907
f 919 925 924
f 902 924 928
f 924 907 931
f 928 931 908
f 924 931 928
f 903 929 917
f 929 908 930
f 917 930 904
f 929 930 917
f 901 913 937
f 913 903 938
f 937 938 910
f 913 938 937
f 905 918 934
f 918 901 933
f 934 933 909
f 918 933 934
f 907 925 926
f 925 905 922
f 926 922 906
f 925 922 926
f 908 931 927
f 931 907 923
f 927 923 900
f 931 923 927

o LEAF_2_2
usemtl green2
v -1.678442 3.600000 -0.582148
v -0.732126 3.600000 -0.582148
v -1.678442 3.600000 0.397802
v -0.732126 3.600000 0.397802
v -1.205284 3.857237 0.210648
v -1.205284 3.857237 -0.394994
v -1.205284 3.342763 0.210648
v -1.205284 3.342763 -0.394994
v -0.439698 3.441019 -0.092173
v -0.439698 3.758981 -0.092173
v -1.970870 3.441019 -0.092173
v -1.970870 3.758981 -0.092173
v -1.205284 3.600000 -0.668173
v -1.205284 3.600000 0.483827
v -1.483399 3.751200 0.373821
v -0.927169 3.751200 0.373821
v -1.483399 3.751200 -0.558167
v -0.927169 3.751200 -0.558167
v -1.205284 3.902400 -0.092173
v -1.483399 3.448800 0.373821
v -0.927169 3.448800 0.373821
v -1.483399 3.448800 -0.558167
v -0.927169 3.448800 -0.558167
v -1.205284 3.297600 -0.092173
v -0.477169 3.506553 -0.380173
v -0.477169 3.506553 0.195827
v -0.755284 3.355353 0.085821
v -0.755284 3.355353 -0.270167
v -0.477169 3.693447 -0.380173
v -0.477169 3.693447 0.195827
v -0.755284 3.844647 0.085821
v -0.755284 3.844647 -0.270167
v -0.305284 3.600000 -0.092173
v -1.933399 3.506553 -0.380173
v -1.933399 3.506553 0.195827
v -1.655284 3.355353 0.085821
v -1.655284 3.355353 -0.270167
v -1.933399 3.693447 -0.380173
v -1.933399 3.693447 0.195827
v -1.655284 3.844647 0.085821
v -1.655284 3.844647 -0.270167
v -2.105284 3.600000 -0.092173
f 941 978 957
f 978 952 981
f 957 981 946
f 978 981 957
f 941 957 953
f 957 946 958
f 953 958 942
f 957 958 953
f 941 953 962
f 953 942 963
f 962 963 948
f 953 963 962
f 941 962 974
f 962 948 977
f 974 977 951
f 962 977 974
f 941 974 978
f 974 951 982
f 978 982 952
f 974 982 978
f 942 958 969
f 958 946 972
f 969 972 950
f 958 972 969
f 946 981 959
f 981 952 980
f 959 980 945
f 981 980 959
f 952 982 979
f 982 951 975
f 979 975 943
f 982 975 979
f 951 977 976
f 977 948 964
f 976 964 947
f 977 964 976
f 948 963 968
f 963 942 965
f 968 965 949
f 963 965 968
f 944 970 956
f 970 950 971
f 956 971 945
f 970 971 956
f 944 956 954
f 956 945 955
f 954 955 943
f 956 955 954
f 944 954 961
f 954 943 960
f 961 960 947
f 954 960 961
f 944 961 966
f 961 947 967
f 966 967 949
f 961 967 966
f 944 966 970
f 966 949 973
f 970 973 950
f 966 973 970
f 945 971 959
f 971 950 972
f 959 972 946
f 971 972 959
f 943 955 979
f 955 945 980
f 979 980 952
f 955 980 979
f 947 960 976
f 960 943 975
f 976 975 951
f 960 975 976
f 949 967 968
f 967 947 964
f 968 964 948
f 967 964 968
f 950 973 969
f 973 949 965
f 969 965 942
f 973 965 969

o LEAF_2_3
usemtl green2
v -0.947114 3.600000 0.471523
v -0.000798 3.600000 0.471523
v -0.947114 3.600000 1.451472
v -0.000798 3.600000 1.451472
v -0.473956 3.857237 1.264319
v -0.473956 3.857237 0.658676
v -0.473956 3.342763 1.264319
v -0.473956 3.342763 0.658676
v 0.291630 3.441019 0.961497
v 0.291630 3.758981 0.961497
v -1.239542 3.441019 0.961497
v -1.239542 3.758981 0.961497
v -0.473956 3.600000 0.385497
v -0.473956 3.600000 1.537497
v -0.752072 3.751200 1.427491
v -0.195841 3.751200 1.427491
v -0.752072 3.751200 0.495504
v -0.195841 3.751200 0.495504
v -0.473956 3.902400 0.961497
v -0.752072 3.448800 1.427491
v -0.195841 3.448800 1.427491
v -0.752072 3.448800 0.495504
v -0.195841 3.448800 0.495504
v -0.473956 3.297600 0.961497
v 0.254159 3.506553 0.673497
v 0.254159 3.506553 1.249497
v -0.023956 3.355353 1.139491
v -0.023956 3.355353 0.783504
v 0.254159 3.693447 0.673497
v 0.254159 3.693447 1.249497
v -0.023956 3.844647 1.139491
v -0.023956 3.844647 0.783504
v 0.426044 3.600000 0.961497
v -1.202072 3.506553 0.673497
v -1.202072 3.506553 1.249497
v -0.923956 3.355353 1.139491
v -0.923956 3.355353 0.783504
v -1.202072 3.693447 0.673497
v -1.202072 3.693447 1.249497
v -0.923956 3.844647 1.139491
v -0.923956 3.844647 0.783504
v -1.373956 3.600000 0.961497
f 983 1020 999
f 1020 994 1023
f 999 1023 988
f 1020 1023 999
f 983 999 995
f 999 988 1000
f 995 1000 984
f 999 1000 995
f 983 995 1004
f 995 984 1005
f 1004 1005 990
f 995 1005 1004
f 983 1004 1016
f 1004 990 1019
f 1016 1019 993
f 1004 1019 1016
f 983 1016 1020
f 1016 993 1024
f 1020 1024 994
f 1016 1024 1020
f 984 1000 1011
f 1000 988 1014
f 1011 1014 992
f 1000 1014 1011
f 988 1023 1001
f 1023 994 1022
f 1001 1022 987
f 1023 1022 1001
f 994 1024 1021
f 1024 993 1017
f 1021 1017 985
f 1024 1017 1021
f 993 1019 1018
f 1019 990 1006
f 1018 1006 989
f 1019 1006 1018
f 990 1005 1010
f 1005 984 1007
f 1010 1007 991
f 1005 1007 1010
f 986 1012 998
f 1012 992 1013
f 998 1013 987
f 1012 1013 998
f 986 998 996
f 998 987 997
f 996 997 985
f 998 997 996
f 986 996 1003
f 996 985 1002
f 1003 1002 989
f 996 1002 1003
f 986 1003 1008
f 1003 989 1009
f 1008 1009 991
f 1003 1009 1008
f 986 1008 1012
f 1008 991 1015
f 1012 1015 992
f 1008 1015 1012
f 987 1013 1001
f 1013 992 1014
f 1001 1014 988
f 1013 1014 1001
f 985 997 1021
f 997 987 1022
f 1021 1022 994
f 997 1022 1021
f 989 1002 1018
f 1002 985 1017
f 1018 1017 993
f 1002 1017 1018
f 991 1009 1010
f 1009 989 1006
f 1010 1006 990
f 1009 1006 1010
f 992 1015 1011
f 1015 991 1007
f 1011 1007 984
f 1015 1007 1011

o LEAF_2_4
usemtl green2
v 0.439205 3.600000 0.196436
v 1.385521 3.600000 0.196436
v 0.439205 3.600000 1.176386
v 1.385521 3.600000 1.176386
v 0.912363 3.857237 0.989232
v 0.912363 3.857237 0.383590
v 0.912363 3.342763 0.989232
v 0.912363 3.342763 0.383590
v 1.677949 3.441019 0.686411
v 1.677949 3.758981 0.686411
v 0.146777 3.441019 0.686411
v 0.146777 3.758981 0.686411
v 0.912363 3.600000 0.110411
v 0.912363 3.600000 1.262411
v 0.634248 3.751200 1.152405
v 1.190478 3.751200 1.152405
v 0.634248 3.751200 0.220417
v 1.190478 3.751200 0.220417
v 0.912363 3.902400 0.686411
v 0.634248 3.448800 1.152405
v 1.190478 3.448800 1.152405
v 0.634248 3.448800 0.220417
v 1.190478 3.448800 0.220417
v 0.912363 3.297600 0.686411
v 1.640478 3.506553 0.398411
v 1.640478 3.506553 0.974411
v 1.362363 3.355353 0.864405
v 1.362363 3.355353 0.508417
v 1.640478 3.693447 0.398411
v 1.640478 3.693447 0.974411
v 1.362363 3.844647 0.864405
v 1.362363 3.844647 0.508417
v 1.812363 3.600000 0.686411
v 0.184248 3.506553 0.398411
v 0.184248 3.506553 0.974411
v 0.462363 3.355353 0.864405
v 0.462363 3.355353 0.508417
v 0.184248 3.693447 0.398411
v 0.184248 3.693447 0.974411
v 0.462363 3.844647 0.864405
v 0.462363 3.844647 0.508417
v 0.012363 3.600000 0.686411
f 1025 1062 1041
f 1062 1036 1065
f 1041 1065 1030
f 1062 1065 1041
f 1025 1041 1037
f 1041 1030 1042
f 1037 1042 1026
f 1041 1042 1037
f 1025 1037 1046
f 1037 1026 1047
f 1046 1047 1032
f 1037 1047 1046
f 1025 1046 1058
f 1046 1032 1061
f 1058 1061 1035
f 1046 1061 1058
f 1025 1058 1062
f 1058 1035 1066
f 1062 1066 1036
f 1058 1066 1062
f 1026 1042 1053
f 1042 1030 1056
f 1053 1056 1034
f 1042 1056 1053
f 1030 1065 1043
f 1065 1036 1064
f 1043 1064 1029
f 1065 1064 1043
f 1036 1066 1063
f 1066 1035 1059
f 1063 1059 1027
f 1066 1059 1063
f 1035 1061 1060
f 1061 1032 1048
f 1060 1048 1031
f 1061 1048 1060
f 1032 1047 1052
f 1047 1026 1049
f 1052 1049 1033
f 1047 1049 1052
f 1028 1054 1040
f 1054 1034 1055
f 1040 1055 1029
f 1054 1055 1040
f 1028 1040 1038
f 1040 1029 1039
f 1038 1039 1027
f 1040 1039 1038
f 1028 1038 1045
f 1038 1027 1044
f 1045 1044 1031
f 1038 1044 1045
f 1028 1045 1050
f 1045 1031 1051
f 1050 1051 1033
f 1045 1051 1050
f 1028 1050 1054
f 1050 1033 1057
f 1054 1057 1034
f 1050 1057 1054
f 1029 1055 1043
f 1055 1034 1056
f 1043 1056 1030
f 1055 1056 1043
f 1027 1039 1063
f 1039 1029 1064
f 1063 1064 1036
f 1039 1064 1063
f 1031 1044 1060
f 1044 1027 1059
f 1060 1059 1035
f 1044 1059 1060
f 1033 1051 1052
f 1051 1031 1048
f 1052 1048 1032
f 1051 1048 1052
f 1034 1057 1053
f 1057 1033 1049
f 1053 1049 1026
f 1057 1049 1053

o LEAF_3_0
usemtl green3
v 0.152562 4.250000 -1.067594
v 1.098878 4.250000 -1.067594
v 0.152562 4.250000 -0.087644
v 1.098878 4.250000 -0.087644
v 0.625720 4.507237 -0.274798
v 0.625720 4.507237 -0.880440
v 0.625720 3.992763 -0.274798
v 0.625720 3.992763 -0.880440
v 1.391306 4.091019 -0.577619
v 1.391306 4.408981 -0.577619
v -0.139866 4.091019 -0.577619
v -0.139866 4.408981 -0.577619
v 0.625720 4.250000 -1.153619
v 0.625720 4.250000 -0.001619
v 0.347605 4.401200 -0.111625
v 0.903835 4.401200 -0.111625
v 0.347605 4.401200 -1.043613
v 0.903835 4.401200 -1.043613
v 0.625720 4.552400 -0.577619
v 0.347605 4.098800 -0.111625
v 0.903835 4.098800 -0.111625
v 0.347605 4.098800 -1.043613
v 0.903835 4.098800 -1.043613
v 0.625720 3.947600 -0.577619
v 1.353835 4.156553 -0.865619
v 1.353835 4.156553 -0.289619
v 1.075720 4.005353 -0.399625
v 1.075720 4.005353 -0.755613
v 1.353835 4.343447 -0.865619
v 1.353835 4.343447 -0.289619
v 1.075720 4.494647 -0.399625
v 1.075720 4.494647 -0.755613
v 1.525720 4.250000 -0.577619
v -0.102395 4.156553 -0.865619
v -0.102395 4.156553 -0.289619
v 0.175720 4.005353 -0.399625
v 0.175720 4.005353 -0.755613
v -0.102395 4.343447 -0.865619
v -0.102395 4.343447 -0.289619
v 0.175720 4.494647 -0.399625
v 0.175720 4.494647 -0.755613
v -0.274280 4.250000 -0.577619
f 1067 1104 1083
f 1104 1078 1107
f 1083 1107 1072
f 1104 1107 1083
f 1067 1083 1079
f 1083 1072 1084
f 1079 1084 1068
f 1083 1084 1079
f 1067 1079 1088
f 1079 1068 1089
f 1088 1089 1074
f 1079 1089 1088
f 1067 1088 1100
f 1088 1074 1103
f 1100 1103 1077
f 1088 1103 1100
f 1067 1100 1104
f 1100 1077 1108
f 1104 1108 1078
f 1100 1108 1104
f 1068 1084 1095
f 1084 1072 1098
f 1095 1098 1076
f 1084 1098 1095
f 1072 1107 1085
f 1107 1078 1106
f 1085 1106 1071
f 1107 1106 1085
f 1078 1108 1105
f 1108 1077 1101
f 1105 1101 1069
f 1108 1101 1105
f 1077 1103 1102
f 1103 1074 1090
f 1102 1090 1073
f 1103 1090 1102
f 1074 1089 1094
f 1089 1068 1091
f 1094 1091 1075
f 1089 1091 1094
f 1070 1096 1082
f 1096 1076 1097
f 1082 1097 1071
f 1096 1097 1082
f 1070 1082 1080
f 1082 1071 1081
f 1080 1081 1069
f 1082 1081 1080
f 1070 1080 1087
f 1080 1069 1086
f 1087 1086 1073
f 1080 1086 1087
f 1070 1087 1092
f 1087 1073 1093
f 1092 1093 1075
f 1087 1093 1092
f 1070 1092 1096
f 1092 1075 1099
f 1096 1099 1076
f 1092 1099 1096
f 1071 1097 1085
f 1097 1076 1098
f 1085 1098 1072
f 1097 1098 1085
f 1069 1081 1105
f 1081 1071 1106
f 1105 1106 1078
f 1081 1106 1105
f 1073 1086 1102
f 1086 1069 1101
f 1102 1101 1077
f 1086 1101 1102
f 1075 1093 1094
f 1093 1073 1090
f 1094 1090 1074
f 1093 1090 1094
f 1076 1099 1095
f 1099 1075 1091
f 1095 1091 1068
f 1099 1091 1095

o LEAF_3_1
usemtl green3
v -0.904920 4.250000 -1.191431
v 0.041396 4.250000 -1.191431
v -0.904920 4.250000 -0.211481
v 0.041396 4.250000 -0.211481
v -0.431762 4.507237 -0.398635
v -0.431762 4.507237 -1.004277
v -0.431762 3.992763 -0.398635
v -0.431762 3.992763 -1.004277
v 0.333823 4.091019 -0.701456
v 0.333823 4.408981 -0.701456
v -1.197348 4.091019 -0.701456
v -1.197348 4.408981 -0.701456
v -0.431762 4.250000 -1.277456
v -0.431762 4.250000 -0.125456
v -0.709878 4.401200 -0.235463
v -0.153647 4.401200 -0.235463
v -0.709878 4.401200 -1.167450
v -0.153647 4.401200 -1.167450
v -0.431762 4.552400 -0.701456
v -0.709878 4.098800 -0.235463
v -0.153647 4.098800 -0.235463
v -0.709878 4.098800 -1.167450
v -0.153647 4.098800 -1.167450
v -0.431762 3.947600 -0.701456
v 0.296353 4.156553 -0.989456
v 0.296353 4.156553 -0.413456
v 0.018238 4.005353 -0.523463
v 0.018238 4.005353 -0.879450
v 0.296353 4.343447 -0.989456
v 0.296353 4.343447 -0.413456
v 0.018238 4.494647 -0.523463
v 0.018238 4.494647 -0.879450
v 0.468238 4.250000 -0.701456
v -1.159878 4.156553 -0.989456
v -1.159878 4.156553 -0.413456
v -0.881762 4.005353 -0.523463
v -0.881762 4.005353 -0.879450
v -1.159878 4.343447 -0.989456
v -1.159878 4.343447 -0.413456
v -0.881762 4.494647 -0.523463
v -0.881762 4.494647 -0.879450
v -1.331762 4.250000 -0.701456
f 1109 1146 1125
f 1146 1120 1149
f 1125 1149 1114
f 1146 1149 1125
f 1109 1125 1121
f 1125 1114 1126
f 1121 1126 1110
f 1125 1126 1121
f 1109 1121 1130
f 1121 1110 1131
f 1130 1131 1116
f 1121 1131 1130
f 1109 1130 1142
f 1130 1116 1145
f 1142 1145 1119
f 1130 1145 1142
f 1109 1142 1146
f 1142 1119 1150
f 1146 1150 1120
f 1142 1150 1146
f 1110 1126 1137
f 1126 1114 1140
f 1137 1140 1118
f 1126 1140 1137
f 1114 1149 1127
f 1149 1120 1148
f 1127 1148 1113
f 1149 1148 1127
f 1120 1150 1147
f 1150 1119 1143
f 1147 1143 1111
f 1150 1143 1147
f 1119 1145 1144
f 1145 1116 1132
f 1144 1132 1115
f 1145 1132 1144
f 1116 1131 1136
f 1131 1110 1133
f 1136 1133 1117
f 1131 1133 1136
f 1112 1138 1124
f 1138 1118 1139
f 1124 1139 1113
f 1138 1139 1124
f 1112 1124 1122
f 1124 1113 1123
f 1122 1123 1111
f 1124 1123 1122
f 1112 1122 1129
f 1122 1111 1128
f 1129 1128 1115
f 1122 1128 1129
f 1112 1129 1134
f 1129 1115 1135
f 1134 1135 1117
f 1129 1135 1134
f 1112 1134 1138
f 1134 1117 1141
f 1138 1141 1118
f 1134 1141 1138
f 1113 1139 1127
f 1139 1118 1140
f 1127 1140 1114
f 1139 1140 1127
f 1111 1123 1147
f 1123 1113 1148
f 1147 1148 1120
f 1123 1148 1147
f 1115 1128 1144
f 1128 1111 1143
f 1144 1143 1119
f 1128 1143 1144
f 1117 1135 1136
f 1135 1115 1132
f 1136 1132 1116
f 1135 1132 1136
f 1118 1141 1137
f 1141 1117 1133
f 1137 1133 1110
f 1141 1133 1137

o LEAF_3_2
usemtl green3
v -1.365722 4.250000 -0.345880
v -0.419406 4.250000 -0.345880
v -1.365722 4.250000 0.634070
v -0.419406 4.250000 0.634070
v -0.892564 4.507237 0.446916
v -0.892564 4.507237 -0.158726
v -0.892564 3.992763 0.446916
v -0.892564 3.992763 -0.158726
v -0.126978 4.091019 0.144095
v -0.126978 4.408981 0.144095
v -1.658149 4.091019 0.144095
v -1.658149 4.408981 0.144095
v -0.892564 4.250000 -0.431905
v -0.892564 4.250000 0.720095
v -1.170679 4.401200 0.610089
v -0.614448 4.401200 0.610089
v -1.170679 4.401200 -0.321899
v -0.614448 4.401200 -0.321899
v -0.892564 4.552400 0.144095
v -1.170679 4.098800 0.610089
v -0.614448 4.098800 0.610089
v -1.170679 4.098800 -0.321899
v -0.614448 4.098800 -0.321899
v -0.892564 3.947600 0.144095
v -0.164448 4.156553 -0.143905
v -0.164448 4.156553 0.432095
v -0.442564 4.005353 0.322089
v -0.442564 4.005353 -0.033899
v -0.164448 4.343447 -0.143905
v -0.164448 4.343447 0.432095
v -0.442564 4.494647 0.322089
v -0.442564 4.494647 -0.033899
v 0.007436 4.250000 0.144095
v -1.620679 4.156553 -0.143905
v -1.620679 4.156553 0.432095
v -1.342564 4.005353 0.322089
v -1.342564 4.005353 -0.033899
v -1.620679 4.343447 -0.143905
v -1.620679 4.343447 0.432095
v -1.342564 4.494647 0.322089
v -1.342564 4.494647 -0.033899
v -1.792564 4.250000 0.144095
f 1151 1188 1167
f 1188 1162 1191
f 1167 1191 1156
f 1188 1191 1167
f 1151 1167 1163
f 1167 1156 1168
f 1163 1168 1152
f 1167 1168 1163
f 1151 1163 1172
f 1163 1152 1173
f 1172 1173 1158
f 1163 1173 1172
f 1151 1172 1184
f 1172 1158 1187
f 1184 1187 1161
f 1172 1187 1184
f 1151 1184 1188
f 1184 1161 1192
f 1188 1192 1162
f 1184 1192 1188
f 1152 1168 1179
f 1168 1156 1182
f 1179 1182 1160
f 1168 1182 1179
f 1156 1191 1169
f 1191 1162 1190
f 1169 1190 1155
f 1191 1190 1169
f 1162 1192 1189
f 1192 1161 1185
f 1189 1185 1153
f 1192 1185 1189
f 1161 1187 1186
f 1187 1158 1174
f 1186 1174 1157
f 1187 1174 1186
f 1158 1173 1178
f 1173 1152 1175
f 1178 1175 1159
f 1173 1175 1178
f 1154 1180 1166
f 1180 1160 1181
f 1166 1181 1155
f 1180 1181 1166
f 1154 1166 1164
f 1166 1155 1165
f 1164 1165 1153
f 1166 1165 1164
f 1154 1164 1171
f 1164 1153 1170
f 1171 1170 1157
f 1164 1170 1171
f 1154 1171 1176
f 1171 1157 1177
f 1176 1177 1159
f 1171 1177 1176
f 1154 1176 1180
f 1176 1159 1183
f 1180 1183 1160
f 1176 1183 1180
f 1155 1181 1169
f 1181 1160 1182
f 1169 1182 1156
f 1181 1182 1169
f 1153 1165 1189
f 1165 1155 1190
f 1189 1190 1162
f 1165 1190 1189
f 1157 1170 1186
f 1170 1153 1185
f 1186 1185 1161
f 1170 1185 1186
f 1159 1177 1178
f 1177 1157 1174
f 1178 1174 1158
f 1177 1174 1178
f 1160 1183 1179
f 1183 1159 1175
f 1179 1175 1152
f 1183 1175 1179

o LEAF_3_3
usemtl green3
v -0.593030 4.250000 0.300537
v 0.353286 4.250000 0.300537
v -0.593030 4.250000 1.280487
v 0.353286 4.250000 1.280487
v -0.119872 4.507237 1.093333
v -0.119872 4.507237 0.487691
v -0.119872 3.992763 1.093333
v -0.119872 3.992763 0.487691
v 0.645713 4.091019 0.790512
v 0.645713 4.408981 0.790512
v -0.885458 4.091019 0.790512
v -0.885458 4.408981 0.790512
v -0.119872 4.250000 0.214512
v -0.119872 4.250000 1.366512
v -0.397988 4.401200 1.256506
v 0.158243 4.401200 1.256506
v -0.397988 4.401200 0.324518
v 0.158243 4.401200 0.324518
v -0.119872 4.552400 0.790512
v -0.397988 4.098800 1.256506
v 0.158243 4.098800 1.256506
v -0.397988 4.098800 0.324518
v 0.158243 4.098800 0.324518
v -0.119872 3.947600 0.790512
v 0.608243 4.156553 0.502512
v 0.608243 4.156553 1.078512
v 0.330128 4.005353 0.968506
v 0.330128 4.005353 0.612518
v 0.608243 4.343447 0.502512
v 0.608243 4.343447 1.078512
v 0.330128 4.494647 0.968506
v 0.330128 4.494647 0.612518
v 0.780128 4.250000 0.790512
v -0.847988 4.156553 0.502512
v -0.847988 4.156553 1.078512
v -0.569872 4.005353 0.968506
v -0.569872 4.005353 0.612518
v -0.847988 4.343447 0.502512
v -0.847988 4.343447 1.078512
v -0.569872 4.494647 0.968506
v -0.569872 4.494647 0.612518
v -1.019872 4.250000 0.790512
f 1193 1230 1209
f 1230 1204 1233
f 1209 1233 1198
f 1230 1233 1209
f 1193 1209 1205
f 1209 1198 1210
f 1205 1210 1194
f 1209 1210 1205
f 1193 1205 1214
f 1205 1194 1215
f 1214 1215 1200
f 1205 1215 1214
f 1193 1214 1226
f 1214 1200 1229
f 1226 1229 1203
f 1214 1229 1226
f 1193 1226 1230
f 1226 1203 1234
f 1230 1234 1204
f 1226 1234 1230
f 1194 1210 1221
f 1210 1198 1224
f 1221 1224 1202
f 1210 1224 1221
f 1198 1233 1211
f 1233 1204 1232
f 1211 1232 1197
f 1233 1232 1211
f 1204 1234 1231
f 1234 1203 1227
f 1231 1227 1195
f 1234 1227 1231
f 1203 1229 1228
f 1229 1200 1216
f 1228 1216 1199
f 1229 1216 1228
f 1200 1215 1220
f 1215 1194 1217
f 1220 1217 1201
f 1215 1217 1220
f 1196 1222 1208
f 1222 1202 1223
f 1208 1223 1197
f 1222 1223 1208
f 1196 1208 1206
f 1208 1197 1207
f 1206 1207 1195
f 1208 1207 1206
f 1196 1206 1213
f 1206 1195 1212
f 1213 1212 1199
f 1206 1212 1213
f 1196 1213 1218
f 1213 1199 1219
f 1218 1219 1201
f 1213 1219 1218
f 1196 1218 1222
f 1218 1201 1225
f 1222 1225 1202
f 1218 1225 1222
f 1197 1223 1211
f 1223 1202 1224
f 1211 1224 1198
f 1223 1224 1211
f 1195 1207 1231
f 1207 1197 1232
f 1231 1232 1204
f 1207 1232 1231
f 1199 1212 1228
f 1212 1195 1227
f 1228 1227 1203
f 1212 1227 1228
f 1201 1219 1220
f 1219 1199 1216
f 1220 1216 1200
f 1219 1216 1220
f 1202 1225 1221
f 1225 1201 1217
f 1221 1217 1194
f 1225 1217 1221

o LEAF_3_4
usemtl green3
v 0.345321 4.250000 -0.145507
v 1.291637 4.250000 -0.145507
v 0.345321 4.250000 0.834443
v 1.291637 4.250000 0.834443
v 0.818479 4.507237 0.647289
v 0.818479 4.507237 0.041647
v 0.818479 3.992763 0.647289
v 0.818479 3.992763 0.041647
v 1.584064 4.091019 0.344468
v 1.584064 4.408981 0.344468
v 0.052893 4.091019 0.344468
v 0.052893 4.408981 0.344468
v 0.818479 4.250000 -0.231532
v 0.818479 4.250000 0.920468
v 0.540363 4.401200 0.810462
v 1.096594 4.401200 0.810462
v 0.540363 4.401200 -0.121526
v 1.096594 4.401200 -0.121526
v 0.818479 4.552400 0.344468
v 0.540363 4.098800 0.810462
v 1.096594 4.098800 0.810462
v 0.540363 4.098800 -0.121526
v 1.096594 4.098800 -0.121526
v 0.818479 3.947600 0.344468
v 1.546594 4.156553 0.056468
v 1.546594 4.156553 0.632468
v 1.268479 4.005353 0.522462
v 1.268479 4.005353 0.166474
v 1.546594 4.343447 0.056468
v 1.546594 4.343447 0.632468
v 1.268479 4.494647 0.522462
v 1.268479 4.494647 0.166474
v 1.718479 4.250000 0.344468
v 0.090363 4.156553 0.056468
v 0.090363 4.156553 0.632468
v 0.368479 4.005353 0.522462
v 0.368479 4.005353 0.166474
v 0.090363 4.343447 0.056468
v 0.090363 4.343447 0.632468
v 0.368479 4.494647 0.522462
v 0.368479 4.494647 0.166474
v -0.081521 4.250000 0.344468
f 1235 1272 1251
f 1272 1246 1275
f 1251 1275 1240
f 1272 1275 1251
f 1235 1251 1247
f 1251 1240 1252
f 1247 1252 1236
f 1251 1252 1247
f 1235 1247 1256
f 1247 1236 1257
f 1256 1257 1242
f 1247 1257 1256
f 1235 1256 1268
f 1256 1242 1271
f 1268 1271 1245
f 1256 1271 1268
f 1235 1268 1272
f 1268 1245 1276
f 1272 1276 1246
f 1268 1276 1272
f 1236 1252 1263
f 1252 1240 1266
f 1263 1266 1244
f 1252 1266 1263
f 1240 1275 1253
f 1275 1246 1274
f 1253 1274 1239
f 1275 1274 1253
f 1246 1276 1273
f 1276 1245 1269
f 1273 1269 1237
f 1276 1269 1273
f 1245 1271 1270
f 1271 1242 1258
f 1270 1258 1241
f 1271 1258 1270
f 1242 1257 1262
f 1257 1236 1259
f 1262 1259 1243
f 1257 1259 1262
f 1238 1264 1250
f 1264 1244 1265
f 1250 1265 1239
f 1264 1265 1250
f 1238 1250 1248
f 1250 1239 1249
f 1248 1249 1237
f 1250 1249 1248
f 1238 1248 1255
f 1248 1237 1254
f 1255 1254 1241
f 1248 1254 1255
f 1238 1255 1260
f 1255 1241 1261
f 1260 1261 1243
f 1255 1261 1260
f 1238 1260 1264
f 1260 1243 1267
f 1264 1267 1244
f 1260 1267 1264
f 1239 1265 1253
f 1265 1244 1266
f 1253 1266 1240
f 1265 1266 1253
f 1237 1249 1273
f 1249 1239 1274
f 1273 1274 1246
f 1249 1274 1273
f 1241 1254 1270
f 1254 1237 1269
f 1270 1269 1245
f 1254 1269 1270
f 1243 1261 1262
f 1261 1241 1258
f 1262 1258 1242
f 1261 1258 1262
f 1244 1267 1263
f 1267 1243 1259
f 1263 1259 1236
f 1267 1259 1263
