# Negara Konoha — Pendopo
# Original fictional game asset, Nusantara/Indonesia-inspired.
# 1 OBJ unit = 1 meter. Y-up. Intended front = +Z in Unity.
mtllib Pendopo.mtl

o PLATFORM
usemtl stone
v -2.550000 -0.000000 2.550000
v -2.550000 0.380000 2.550000
v -2.550000 0.000000 -2.550000
v -2.550000 0.380000 -2.550000
v 2.550000 -0.000000 2.550000
v 2.550000 0.380000 2.550000
v 2.550000 0.000000 -2.550000
v 2.550000 0.380000 -2.550000
f 2 4 1
f 5 2 1
f 1 4 3
f 3 5 1
f 2 8 4
f 6 2 5
f 6 8 2
f 4 8 3
f 7 5 3
f 3 8 7
f 7 6 5
f 8 6 7

o FLOOR
usemtl wood2
v -2.325000 0.380000 2.325000
v -2.325000 0.560000 2.325000
v -2.325000 0.380000 -2.325000
v -2.325000 0.560000 -2.325000
v 2.325000 0.380000 2.325000
v 2.325000 0.560000 2.325000
v 2.325000 0.380000 -2.325000
v 2.325000 0.560000 -2.325000
f 10 12 9
f 13 10 9
f 9 12 11
f 11 13 9
f 10 16 12
f 14 10 13
f 14 16 10
f 12 16 11
f 15 13 11
f 11 16 15
f 15 14 13
f 16 14 15

o POST_0
usemtl wood
v -1.850000 0.555000 1.850000
v -1.750000 0.555000 1.850000
v -1.750000 3.205000 1.850000
v -1.850000 3.205000 1.850000
v -1.779289 0.555000 1.779289
v -1.779289 3.205000 1.779289
v -1.850000 0.555000 1.750000
v -1.850000 3.205000 1.750000
v -1.920711 0.555000 1.779289
v -1.920711 3.205000 1.779289
v -1.950000 0.555000 1.850000
v -1.950000 3.205000 1.850000
v -1.920711 0.555000 1.920711
v -1.920711 3.205000 1.920711
v -1.850000 0.555000 1.950000
v -1.850000 3.205000 1.950000
v -1.779289 0.555000 1.920711
v -1.779289 3.205000 1.920711
f 18 17 21
f 18 21 19
f 19 21 22
f 19 22 20
f 21 17 23
f 21 23 22
f 22 23 24
f 22 24 20
f 23 17 25
f 23 25 24
f 24 25 26
f 24 26 20
f 25 17 27
f 25 27 26
f 26 27 28
f 26 28 20
f 27 17 29
f 27 29 28
f 28 29 30
f 28 30 20
f 29 17 31
f 29 31 30
f 30 31 32
f 30 32 20
f 31 17 33
f 31 33 32
f 32 33 34
f 32 34 20
f 33 17 18
f 33 18 34
f 34 18 19
f 34 19 20

o POST_BASE_0
usemtl stone2
v -1.850000 0.570000 1.850000
v -1.690000 0.570000 1.850000
v -1.690000 0.770000 1.850000
v -1.850000 0.770000 1.850000
v -1.736863 0.570000 1.736863
v -1.736863 0.770000 1.736863
v -1.850000 0.570000 1.690000
v -1.850000 0.770000 1.690000
v -1.963137 0.570000 1.736863
v -1.963137 0.770000 1.736863
v -2.010000 0.570000 1.850000
v -2.010000 0.770000 1.850000
v -1.963137 0.570000 1.963137
v -1.963137 0.770000 1.963137
v -1.850000 0.570000 2.010000
v -1.850000 0.770000 2.010000
v -1.736863 0.570000 1.963137
v -1.736863 0.770000 1.963137
f 36 35 39
f 36 39 37
f 37 39 40
f 37 40 38
f 39 35 41
f 39 41 40
f 40 41 42
f 40 42 38
f 41 35 43
f 41 43 42
f 42 43 44
f 42 44 38
f 43 35 45
f 43 45 44
f 44 45 46
f 44 46 38
f 45 35 47
f 45 47 46
f 46 47 48
f 46 48 38
f 47 35 49
f 47 49 48
f 48 49 50
f 48 50 38
f 49 35 51
f 49 51 50
f 50 51 52
f 50 52 38
f 51 35 36
f 51 36 52
f 52 36 37
f 52 37 38

o POST_1
usemtl wood
v 0.000000 0.555000 1.850000
v 0.100000 0.555000 1.850000
v 0.100000 3.205000 1.850000
v 0.000000 3.205000 1.850000
v 0.070711 0.555000 1.779289
v 0.070711 3.205000 1.779289
v 0.000000 0.555000 1.750000
v 0.000000 3.205000 1.750000
v -0.070711 0.555000 1.779289
v -0.070711 3.205000 1.779289
v -0.100000 0.555000 1.850000
v -0.100000 3.205000 1.850000
v -0.070711 0.555000 1.920711
v -0.070711 3.205000 1.920711
v -0.000000 0.555000 1.950000
v -0.000000 3.205000 1.950000
v 0.070711 0.555000 1.920711
v 0.070711 3.205000 1.920711
f 54 53 57
f 54 57 55
f 55 57 58
f 55 58 56
f 57 53 59
f 57 59 58
f 58 59 60
f 58 60 56
f 59 53 61
f 59 61 60
f 60 61 62
f 60 62 56
f 61 53 63
f 61 63 62
f 62 63 64
f 62 64 56
f 63 53 65
f 63 65 64
f 64 65 66
f 64 66 56
f 65 53 67
f 65 67 66
f 66 67 68
f 66 68 56
f 67 53 69
f 67 69 68
f 68 69 70
f 68 70 56
f 69 53 54
f 69 54 70
f 70 54 55
f 70 55 56

o POST_BASE_1
usemtl stone2
v 0.000000 0.570000 1.850000
v 0.160000 0.570000 1.850000
v 0.160000 0.770000 1.850000
v 0.000000 0.770000 1.850000
v 0.113137 0.570000 1.736863
v 0.113137 0.770000 1.736863
v 0.000000 0.570000 1.690000
v 0.000000 0.770000 1.690000
v -0.113137 0.570000 1.736863
v -0.113137 0.770000 1.736863
v -0.160000 0.570000 1.850000
v -0.160000 0.770000 1.850000
v -0.113137 0.570000 1.963137
v -0.113137 0.770000 1.963137
v -0.000000 0.570000 2.010000
v -0.000000 0.770000 2.010000
v 0.113137 0.570000 1.963137
v 0.113137 0.770000 1.963137
f 72 71 75
f 72 75 73
f 73 75 76
f 73 76 74
f 75 71 77
f 75 77 76
f 76 77 78
f 76 78 74
f 77 71 79
f 77 79 78
f 78 79 80
f 78 80 74
f 79 71 81
f 79 81 80
f 80 81 82
f 80 82 74
f 81 71 83
f 81 83 82
f 82 83 84
f 82 84 74
f 83 71 85
f 83 85 84
f 84 85 86
f 84 86 74
f 85 71 87
f 85 87 86
f 86 87 88
f 86 88 74
f 87 71 72
f 87 72 88
f 88 72 73
f 88 73 74

o POST_2
usemtl wood
v 1.850000 0.555000 1.850000
v 1.950000 0.555000 1.850000
v 1.950000 3.205000 1.850000
v 1.850000 3.205000 1.850000
v 1.920711 0.555000 1.779289
v 1.920711 3.205000 1.779289
v 1.850000 0.555000 1.750000
v 1.850000 3.205000 1.750000
v 1.779289 0.555000 1.779289
v 1.779289 3.205000 1.779289
v 1.750000 0.555000 1.850000
v 1.750000 3.205000 1.850000
v 1.779289 0.555000 1.920711
v 1.779289 3.205000 1.920711
v 1.850000 0.555000 1.950000
v 1.850000 3.205000 1.950000
v 1.920711 0.555000 1.920711
v 1.920711 3.205000 1.920711
f 90 89 93
f 90 93 91
f 91 93 94
f 91 94 92
f 93 89 95
f 93 95 94
f 94 95 96
f 94 96 92
f 95 89 97
f 95 97 96
f 96 97 98
f 96 98 92
f 97 89 99
f 97 99 98
f 98 99 100
f 98 100 92
f 99 89 101
f 99 101 100
f 100 101 102
f 100 102 92
f 101 89 103
f 101 103 102
f 102 103 104
f 102 104 92
f 103 89 105
f 103 105 104
f 104 105 106
f 104 106 92
f 105 89 90
f 105 90 106
f 106 90 91
f 106 91 92

o POST_BASE_2
usemtl stone2
v 1.850000 0.570000 1.850000
v 2.010000 0.570000 1.850000
v 2.010000 0.770000 1.850000
v 1.850000 0.770000 1.850000
v 1.963137 0.570000 1.736863
v 1.963137 0.770000 1.736863
v 1.850000 0.570000 1.690000
v 1.850000 0.770000 1.690000
v 1.736863 0.570000 1.736863
v 1.736863 0.770000 1.736863
v 1.690000 0.570000 1.850000
v 1.690000 0.770000 1.850000
v 1.736863 0.570000 1.963137
v 1.736863 0.770000 1.963137
v 1.850000 0.570000 2.010000
v 1.850000 0.770000 2.010000
v 1.963137 0.570000 1.963137
v 1.963137 0.770000 1.963137
f 108 107 111
f 108 111 109
f 109 111 112
f 109 112 110
f 111 107 113
f 111 113 112
f 112 113 114
f 112 114 110
f 113 107 115
f 113 115 114
f 114 115 116
f 114 116 110
f 115 107 117
f 115 117 116
f 116 117 118
f 116 118 110
f 117 107 119
f 117 119 118
f 118 119 120
f 118 120 110
f 119 107 121
f 119 121 120
f 120 121 122
f 120 122 110
f 121 107 123
f 121 123 122
f 122 123 124
f 122 124 110
f 123 107 108
f 123 108 124
f 124 108 109
f 124 109 110

o POST_3
usemtl wood
v -1.850000 0.555000 0.000000
v -1.750000 0.555000 0.000000
v -1.750000 3.205000 0.000000
v -1.850000 3.205000 0.000000
v -1.779289 0.555000 -0.070711
v -1.779289 3.205000 -0.070711
v -1.850000 0.555000 -0.100000
v -1.850000 3.205000 -0.100000
v -1.920711 0.555000 -0.070711
v -1.920711 3.205000 -0.070711
v -1.950000 0.555000 0.000000
v -1.950000 3.205000 0.000000
v -1.920711 0.555000 0.070711
v -1.920711 3.205000 0.070711
v -1.850000 0.555000 0.100000
v -1.850000 3.205000 0.100000
v -1.779289 0.555000 0.070711
v -1.779289 3.205000 0.070711
f 126 125 129
f 126 129 127
f 127 129 130
f 127 130 128
f 129 125 131
f 129 131 130
f 130 131 132
f 130 132 128
f 131 125 133
f 131 133 132
f 132 133 134
f 132 134 128
f 133 125 135
f 133 135 134
f 134 135 136
f 134 136 128
f 135 125 137
f 135 137 136
f 136 137 138
f 136 138 128
f 137 125 139
f 137 139 138
f 138 139 140
f 138 140 128
f 139 125 141
f 139 141 140
f 140 141 142
f 140 142 128
f 141 125 126
f 141 126 142
f 142 126 127
f 142 127 128

o POST_BASE_3
usemtl stone2
v -1.850000 0.570000 0.000000
v -1.690000 0.570000 0.000000
v -1.690000 0.770000 0.000000
v -1.850000 0.770000 0.000000
v -1.736863 0.570000 -0.113137
v -1.736863 0.770000 -0.113137
v -1.850000 0.570000 -0.160000
v -1.850000 0.770000 -0.160000
v -1.963137 0.570000 -0.113137
v -1.963137 0.770000 -0.113137
v -2.010000 0.570000 0.000000
v -2.010000 0.770000 0.000000
v -1.963137 0.570000 0.113137
v -1.963137 0.770000 0.113137
v -1.850000 0.570000 0.160000
v -1.850000 0.770000 0.160000
v -1.736863 0.570000 0.113137
v -1.736863 0.770000 0.113137
f 144 143 147
f 144 147 145
f 145 147 148
f 145 148 146
f 147 143 149
f 147 149 148
f 148 149 150
f 148 150 146
f 149 143 151
f 149 151 150
f 150 151 152
f 150 152 146
f 151 143 153
f 151 153 152
f 152 153 154
f 152 154 146
f 153 143 155
f 153 155 154
f 154 155 156
f 154 156 146
f 155 143 157
f 155 157 156
f 156 157 158
f 156 158 146
f 157 143 159
f 157 159 158
f 158 159 160
f 158 160 146
f 159 143 144
f 159 144 160
f 160 144 145
f 160 145 146

o POST_4
usemtl wood
v 1.850000 0.555000 0.000000
v 1.950000 0.555000 0.000000
v 1.950000 3.205000 0.000000
v 1.850000 3.205000 0.000000
v 1.920711 0.555000 -0.070711
v 1.920711 3.205000 -0.070711
v 1.850000 0.555000 -0.100000
v 1.850000 3.205000 -0.100000
v 1.779289 0.555000 -0.070711
v 1.779289 3.205000 -0.070711
v 1.750000 0.555000 0.000000
v 1.750000 3.205000 0.000000
v 1.779289 0.555000 0.070711
v 1.779289 3.205000 0.070711
v 1.850000 0.555000 0.100000
v 1.850000 3.205000 0.100000
v 1.920711 0.555000 0.070711
v 1.920711 3.205000 0.070711
f 162 161 165
f 162 165 163
f 163 165 166
f 163 166 164
f 165 161 167
f 165 167 166
f 166 167 168
f 166 168 164
f 167 161 169
f 167 169 168
f 168 169 170
f 168 170 164
f 169 161 171
f 169 171 170
f 170 171 172
f 170 172 164
f 171 161 173
f 171 173 172
f 172 173 174
f 172 174 164
f 173 161 175
f 173 175 174
f 174 175 176
f 174 176 164
f 175 161 177
f 175 177 176
f 176 177 178
f 176 178 164
f 177 161 162
f 177 162 178
f 178 162 163
f 178 163 164

o POST_BASE_4
usemtl stone2
v 1.850000 0.570000 0.000000
v 2.010000 0.570000 0.000000
v 2.010000 0.770000 0.000000
v 1.850000 0.770000 0.000000
v 1.963137 0.570000 -0.113137
v 1.963137 0.770000 -0.113137
v 1.850000 0.570000 -0.160000
v 1.850000 0.770000 -0.160000
v 1.736863 0.570000 -0.113137
v 1.736863 0.770000 -0.113137
v 1.690000 0.570000 0.000000
v 1.690000 0.770000 0.000000
v 1.736863 0.570000 0.113137
v 1.736863 0.770000 0.113137
v 1.850000 0.570000 0.160000
v 1.850000 0.770000 0.160000
v 1.963137 0.570000 0.113137
v 1.963137 0.770000 0.113137
f 180 179 183
f 180 183 181
f 181 183 184
f 181 184 182
f 183 179 185
f 183 185 184
f 184 185 186
f 184 186 182
f 185 179 187
f 185 187 186
f 186 187 188
f 186 188 182
f 187 179 189
f 187 189 188
f 188 189 190
f 188 190 182
f 189 179 191
f 189 191 190
f 190 191 192
f 190 192 182
f 191 179 193
f 191 193 192
f 192 193 194
f 192 194 182
f 193 179 195
f 193 195 194
f 194 195 196
f 194 196 182
f 195 179 180
f 195 180 196
f 196 180 181
f 196 181 182

o POST_5
usemtl wood
v -1.850000 0.555000 -1.850000
v -1.750000 0.555000 -1.850000
v -1.750000 3.205000 -1.850000
v -1.850000 3.205000 -1.850000
v -1.779289 0.555000 -1.920711
v -1.779289 3.205000 -1.920711
v -1.850000 0.555000 -1.950000
v -1.850000 3.205000 -1.950000
v -1.920711 0.555000 -1.920711
v -1.920711 3.205000 -1.920711
v -1.950000 0.555000 -1.850000
v -1.950000 3.205000 -1.850000
v -1.920711 0.555000 -1.779289
v -1.920711 3.205000 -1.779289
v -1.850000 0.555000 -1.750000
v -1.850000 3.205000 -1.750000
v -1.779289 0.555000 -1.779289
v -1.779289 3.205000 -1.779289
f 198 197 201
f 198 201 199
f 199 201 202
f 199 202 200
f 201 197 203
f 201 203 202
f 202 203 204
f 202 204 200
f 203 197 205
f 203 205 204
f 204 205 206
f 204 206 200
f 205 197 207
f 205 207 206
f 206 207 208
f 206 208 200
f 207 197 209
f 207 209 208
f 208 209 210
f 208 210 200
f 209 197 211
f 209 211 210
f 210 211 212
f 210 212 200
f 211 197 213
f 211 213 212
f 212 213 214
f 212 214 200
f 213 197 198
f 213 198 214
f 214 198 199
f 214 199 200

o POST_BASE_5
usemtl stone2
v -1.850000 0.570000 -1.850000
v -1.690000 0.570000 -1.850000
v -1.690000 0.770000 -1.850000
v -1.850000 0.770000 -1.850000
v -1.736863 0.570000 -1.963137
v -1.736863 0.770000 -1.963137
v -1.850000 0.570000 -2.010000
v -1.850000 0.770000 -2.010000
v -1.963137 0.570000 -1.963137
v -1.963137 0.770000 -1.963137
v -2.010000 0.570000 -1.850000
v -2.010000 0.770000 -1.850000
v -1.963137 0.570000 -1.736863
v -1.963137 0.770000 -1.736863
v -1.850000 0.570000 -1.690000
v -1.850000 0.770000 -1.690000
v -1.736863 0.570000 -1.736863
v -1.736863 0.770000 -1.736863
f 216 215 219
f 216 219 217
f 217 219 220
f 217 220 218
f 219 215 221
f 219 221 220
f 220 221 222
f 220 222 218
f 221 215 223
f 221 223 222
f 222 223 224
f 222 224 218
f 223 215 225
f 223 225 224
f 224 225 226
f 224 226 218
f 225 215 227
f 225 227 226
f 226 227 228
f 226 228 218
f 227 215 229
f 227 229 228
f 228 229 230
f 228 230 218
f 229 215 231
f 229 231 230
f 230 231 232
f 230 232 218
f 231 215 216
f 231 216 232
f 232 216 217
f 232 217 218

o POST_6
usemtl wood
v 0.000000 0.555000 -1.850000
v 0.100000 0.555000 -1.850000
v 0.100000 3.205000 -1.850000
v 0.000000 3.205000 -1.850000
v 0.070711 0.555000 -1.920711
v 0.070711 3.205000 -1.920711
v 0.000000 0.555000 -1.950000
v 0.000000 3.205000 -1.950000
v -0.070711 0.555000 -1.920711
v -0.070711 3.205000 -1.920711
v -0.100000 0.555000 -1.850000
v -0.100000 3.205000 -1.850000
v -0.070711 0.555000 -1.779289
v -0.070711 3.205000 -1.779289
v -0.000000 0.555000 -1.750000
v -0.000000 3.205000 -1.750000
v 0.070711 0.555000 -1.779289
v 0.070711 3.205000 -1.779289
f 234 233 237
f 234 237 235
f 235 237 238
f 235 238 236
f 237 233 239
f 237 239 238
f 238 239 240
f 238 240 236
f 239 233 241
f 239 241 240
f 240 241 242
f 240 242 236
f 241 233 243
f 241 243 242
f 242 243 244
f 242 244 236
f 243 233 245
f 243 245 244
f 244 245 246
f 244 246 236
f 245 233 247
f 245 247 246
f 246 247 248
f 246 248 236
f 247 233 249
f 247 249 248
f 248 249 250
f 248 250 236
f 249 233 234
f 249 234 250
f 250 234 235
f 250 235 236

o POST_BASE_6
usemtl stone2
v 0.000000 0.570000 -1.850000
v 0.160000 0.570000 -1.850000
v 0.160000 0.770000 -1.850000
v 0.000000 0.770000 -1.850000
v 0.113137 0.570000 -1.963137
v 0.113137 0.770000 -1.963137
v 0.000000 0.570000 -2.010000
v 0.000000 0.770000 -2.010000
v -0.113137 0.570000 -1.963137
v -0.113137 0.770000 -1.963137
v -0.160000 0.570000 -1.850000
v -0.160000 0.770000 -1.850000
v -0.113137 0.570000 -1.736863
v -0.113137 0.770000 -1.736863
v -0.000000 0.570000 -1.690000
v -0.000000 0.770000 -1.690000
v 0.113137 0.570000 -1.736863
v 0.113137 0.770000 -1.736863
f 252 251 255
f 252 255 253
f 253 255 256
f 253 256 254
f 255 251 257
f 255 257 256
f 256 257 258
f 256 258 254
f 257 251 259
f 257 259 258
f 258 259 260
f 258 260 254
f 259 251 261
f 259 261 260
f 260 261 262
f 260 262 254
f 261 251 263
f 261 263 262
f 262 263 264
f 262 264 254
f 263 251 265
f 263 265 264
f 264 265 266
f 264 266 254
f 265 251 267
f 265 267 266
f 266 267 268
f 266 268 254
f 267 251 252
f 267 252 268
f 268 252 253
f 268 253 254

o POST_7
usemtl wood
v 1.850000 0.555000 -1.850000
v 1.950000 0.555000 -1.850000
v 1.950000 3.205000 -1.850000
v 1.850000 3.205000 -1.850000
v 1.920711 0.555000 -1.920711
v 1.920711 3.205000 -1.920711
v 1.850000 0.555000 -1.950000
v 1.850000 3.205000 -1.950000
v 1.779289 0.555000 -1.920711
v 1.779289 3.205000 -1.920711
v 1.750000 0.555000 -1.850000
v 1.750000 3.205000 -1.850000
v 1.779289 0.555000 -1.779289
v 1.779289 3.205000 -1.779289
v 1.850000 0.555000 -1.750000
v 1.850000 3.205000 -1.750000
v 1.920711 0.555000 -1.779289
v 1.920711 3.205000 -1.779289
f 270 269 273
f 270 273 271
f 271 273 274
f 271 274 272
f 273 269 275
f 273 275 274
f 274 275 276
f 274 276 272
f 275 269 277
f 275 277 276
f 276 277 278
f 276 278 272
f 277 269 279
f 277 279 278
f 278 279 280
f 278 280 272
f 279 269 281
f 279 281 280
f 280 281 282
f 280 282 272
f 281 269 283
f 281 283 282
f 282 283 284
f 282 284 272
f 283 269 285
f 283 285 284
f 284 285 286
f 284 286 272
f 285 269 270
f 285 270 286
f 286 270 271
f 286 271 272

o POST_BASE_7
usemtl stone2
v 1.850000 0.570000 -1.850000
v 2.010000 0.570000 -1.850000
v 2.010000 0.770000 -1.850000
v 1.850000 0.770000 -1.850000
v 1.963137 0.570000 -1.963137
v 1.963137 0.770000 -1.963137
v 1.850000 0.570000 -2.010000
v 1.850000 0.770000 -2.010000
v 1.736863 0.570000 -1.963137
v 1.736863 0.770000 -1.963137
v 1.690000 0.570000 -1.850000
v 1.690000 0.770000 -1.850000
v 1.736863 0.570000 -1.736863
v 1.736863 0.770000 -1.736863
v 1.850000 0.570000 -1.690000
v 1.850000 0.770000 -1.690000
v 1.963137 0.570000 -1.736863
v 1.963137 0.770000 -1.736863
f 288 287 291
f 288 291 289
f 289 291 292
f 289 292 290
f 291 287 293
f 291 293 292
f 292 293 294
f 292 294 290
f 293 287 295
f 293 295 294
f 294 295 296
f 294 296 290
f 295 287 297
f 295 297 296
f 296 297 298
f 296 298 290
f 297 287 299
f 297 299 298
f 298 299 300
f 298 300 290
f 299 287 301
f 299 301 300
f 300 301 302
f 300 302 290
f 301 287 303
f 301 303 302
f 302 303 304
f 302 304 290
f 303 287 288
f 303 288 304
f 304 288 289
f 304 289 290

o BEAM_FRONT
usemtl wood2
v -2.075000 2.930000 1.920000
v -2.075000 3.110000 1.920000
v -2.075000 2.930000 1.780000
v -2.075000 3.110000 1.780000
v 2.075000 2.930000 1.920000
v 2.075000 3.110000 1.920000
v 2.075000 2.930000 1.780000
v 2.075000 3.110000 1.780000
f 306 308 305
f 309 306 305
f 305 308 307
f 307 309 305
f 306 312 308
f 310 306 309
f 310 312 306
f 308 312 307
f 311 309 307
f 307 312 311
f 311 310 309
f 312 310 311

o BEAM_BACK
usemtl wood2
v -2.075000 2.930000 -1.780000
v -2.075000 3.110000 -1.780000
v -2.075000 2.930000 -1.920000
v -2.075000 3.110000 -1.920000
v 2.075000 2.930000 -1.780000
v 2.075000 3.110000 -1.780000
v 2.075000 2.930000 -1.920000
v 2.075000 3.110000 -1.920000
f 314 316 313
f 317 314 313
f 313 316 315
f 315 317 313
f 314 320 316
f 318 314 317
f 318 320 314
f 316 320 315
f 319 317 315
f 315 320 319
f 319 318 317
f 320 318 319

o BEAM_LEFT
usemtl wood2
v -1.920000 2.930000 2.075000
v -1.920000 3.110000 2.075000
v -1.920000 2.930000 -2.075000
v -1.920000 3.110000 -2.075000
v -1.780000 2.930000 2.075000
v -1.780000 3.110000 2.075000
v -1.780000 2.930000 -2.075000
v -1.780000 3.110000 -2.075000
f 322 324 321
f 325 322 321
f 321 324 323
f 323 325 321
f 322 328 324
f 326 322 325
f 326 328 322
f 324 328 323
f 327 325 323
f 323 328 327
f 327 326 325
f 328 326 327

o BEAM_RIGHT
usemtl wood2
v 1.780000 2.930000 2.075000
v 1.780000 3.110000 2.075000
v 1.780000 2.930000 -2.075000
v 1.780000 3.110000 -2.075000
v 1.920000 2.930000 2.075000
v 1.920000 3.110000 2.075000
v 1.920000 2.930000 -2.075000
v 1.920000 3.110000 -2.075000
f 330 332 329
f 333 330 329
f 329 332 331
f 331 333 329
f 330 336 332
f 334 330 333
f 334 336 330
f 332 336 331
f 335 333 331
f 331 336 335
f 335 334 333
f 336 334 335

o ROOF_LOWER
usemtl roof
v -2.625000 3.050000 2.625000
v 2.625000 3.050000 2.625000
v 2.625000 3.050000 -2.625000
v -2.625000 3.050000 -2.625000
v 0.000000 4.100000 0.000000
f 337 338 341
f 338 339 341
f 339 340 341
f 340 337 341
f 337 340 339
f 337 339 338

o ROOF_UPPER
usemtl roofdark
v -1.525000 3.880000 1.525000
v 1.525000 3.880000 1.525000
v 1.525000 3.880000 -1.525000
v -1.525000 3.880000 -1.525000
v 0.000000 5.030000 0.000000
f 342 343 346
f 343 344 346
f 344 345 346
f 345 342 346
f 342 345 344
f 342 344 343

o FINIAL
usemtl gold
v 0.000000 5.150000 0.000000
v 0.170000 5.150000 0.000000
v 0.000000 5.850000 0.000000
v 0.120208 5.150000 -0.120208
v 0.000000 5.150000 -0.170000
v -0.120208 5.150000 -0.120208
v -0.170000 5.150000 0.000000
v -0.120208 5.150000 0.120208
v -0.000000 5.150000 0.170000
v 0.120208 5.150000 0.120208
f 348 347 350
f 348 350 349
f 350 347 351
f 350 351 349
f 351 347 352
f 351 352 349
f 352 347 353
f 352 353 349
f 353 347 354
f 353 354 349
f 354 347 355
f 354 355 349
f 355 347 356
f 355 356 349
f 356 347 348
f 356 348 349

o LANTERN_CORD_-1.15
usemtl black
v -1.150000 2.830000 0.850000
v -1.135000 2.830000 0.850000
v -1.135000 3.170000 0.850000
v -1.150000 3.170000 0.850000
v -1.145365 2.830000 0.835734
v -1.145365 3.170000 0.835734
v -1.162135 2.830000 0.841183
v -1.162135 3.170000 0.841183
v -1.162135 2.830000 0.858817
v -1.162135 3.170000 0.858817
v -1.145365 2.830000 0.864266
v -1.145365 3.170000 0.864266
f 358 357 361
f 358 361 359
f 359 361 362
f 359 362 360
f 361 357 363
f 361 363 362
f 362 363 364
f 362 364 360
f 363 357 365
f 363 365 364
f 364 365 366
f 364 366 360
f 365 357 367
f 365 367 366
f 366 367 368
f 366 368 360
f 367 357 358
f 367 358 368
f 368 358 359
f 368 359 360

o LANTERN_-1.15
usemtl cream
v -1.240000 2.600000 0.940000
v -1.240000 2.840000 0.940000
v -1.240000 2.600000 0.760000
v -1.240000 2.840000 0.760000
v -1.060000 2.600000 0.940000
v -1.060000 2.840000 0.940000
v -1.060000 2.600000 0.760000
v -1.060000 2.840000 0.760000
f 370 372 369
f 373 370 369
f 369 372 371
f 371 373 369
f 370 376 372
f 374 370 373
f 374 376 370
f 372 376 371
f 375 373 371
f 371 376 375
f 375 374 373
f 376 374 375

o LANTERN_CORD_1.15
usemtl black
v 1.150000 2.830000 0.850000
v 1.165000 2.830000 0.850000
v 1.165000 3.170000 0.850000
v 1.150000 3.170000 0.850000
v 1.154635 2.830000 0.835734
v 1.154635 3.170000 0.835734
v 1.137865 2.830000 0.841183
v 1.137865 3.170000 0.841183
v 1.137865 2.830000 0.858817
v 1.137865 3.170000 0.858817
v 1.154635 2.830000 0.864266
v 1.154635 3.170000 0.864266
f 378 377 381
f 378 381 379
f 379 381 382
f 379 382 380
f 381 377 383
f 381 383 382
f 382 383 384
f 382 384 380
f 383 377 385
f 383 385 384
f 384 385 386
f 384 386 380
f 385 377 387
f 385 387 386
f 386 387 388
f 386 388 380
f 387 377 378
f 387 378 388
f 388 378 379
f 388 379 380

o LANTERN_1.15
usemtl cream
v 1.060000 2.600000 0.940000
v 1.060000 2.840000 0.940000
v 1.060000 2.600000 0.760000
v 1.060000 2.840000 0.760000
v 1.240000 2.600000 0.940000
v 1.240000 2.840000 0.940000
v 1.240000 2.600000 0.760000
v 1.240000 2.840000 0.760000
f 390 392 389
f 393 390 389
f 389 392 391
f 391 393 389
f 390 396 392
f 394 390 393
f 394 396 390
f 392 396 391
f 395 393 391
f 391 396 395
f 395 394 393
f 396 394 395
