# Negara Konoha — GerobakBakso
# Original fictional game asset, Nusantara/Indonesia-inspired.
# 1 OBJ unit = 1 meter. Y-up. Intended front = +Z in Unity.
mtllib GerobakBakso.mtl

o CART_BODY
usemtl wood2
v -0.660000 0.205000 0.390000
v -0.660000 1.355000 0.390000
v -0.660000 0.205000 -0.390000
v -0.660000 1.355000 -0.390000
v 0.660000 0.205000 0.390000
v 0.660000 1.355000 0.390000
v 0.660000 0.205000 -0.390000
v 0.660000 1.355000 -0.390000
f 2 4 1
f 5 2 1
f 1 4 3
f 3 5 1
f 2 8 4
f 6 2 5
f 6 8 2
f 4 8 3
f 7 5 3
f 3 8 7
f 7 6 5
f 8 6 7

o FRONT_GLASS
usemtl glass
v -0.410000 0.730000 0.430000
v -0.410000 1.350000 0.430000
v -0.410000 0.730000 0.390000
v -0.410000 1.350000 0.390000
v 0.410000 0.730000 0.430000
v 0.410000 1.350000 0.430000
v 0.410000 0.730000 0.390000
v 0.410000 1.350000 0.390000
f 10 12 9
f 13 10 9
f 9 12 11
f 11 13 9
f 10 16 12
f 14 10 13
f 14 16 10
f 12 16 11
f 15 13 11
f 11 16 15
f 15 14 13
f 16 14 15

o SIDE_GLASS
usemtl glass
v 0.640000 0.730000 0.320000
v 0.640000 1.350000 0.320000
v 0.640000 0.730000 -0.160000
v 0.640000 1.350000 -0.160000
v 0.680000 0.730000 0.320000
v 0.680000 1.350000 0.320000
v 0.680000 0.730000 -0.160000
v 0.680000 1.350000 -0.160000
f 18 20 17
f 21 18 17
f 17 20 19
f 19 21 17
f 18 24 20
f 22 18 21
f 22 24 18
f 20 24 19
f 23 21 19
f 19 24 23
f 23 22 21
f 24 22 23

o COUNTER
usemtl stone2
v -0.725000 1.340000 0.440000
v -0.725000 1.420000 0.440000
v -0.725000 1.340000 -0.440000
v -0.725000 1.420000 -0.440000
v 0.725000 1.340000 0.440000
v 0.725000 1.420000 0.440000
v 0.725000 1.340000 -0.440000
v 0.725000 1.420000 -0.440000
f 26 28 25
f 29 26 25
f 25 28 27
f 27 29 25
f 26 32 28
f 30 26 29
f 30 32 26
f 28 32 27
f 31 29 27
f 27 32 31
f 31 30 29
f 32 30 31

o WHEEL_-0.48
usemtl black
v -0.480000 -0.005000 -0.300000
v -0.449689 0.012500 -0.300000
v -0.449689 0.047500 -0.300000
v -0.480000 0.065000 -0.300000
v -0.510311 0.047500 -0.300000
v -0.510311 0.012500 -0.300000
v -0.480000 0.012127 -0.386104
v -0.449689 0.028295 -0.379407
v -0.449689 0.060631 -0.366013
v -0.480000 0.076799 -0.359316
v -0.510311 0.060631 -0.366013
v -0.510311 0.028295 -0.379407
v -0.480000 0.060901 -0.459099
v -0.449689 0.073275 -0.446725
v -0.449689 0.098024 -0.421976
v -0.480000 0.110398 -0.409602
v -0.510311 0.098024 -0.421976
v -0.510311 0.073275 -0.446725
v -0.480000 0.133896 -0.507873
v -0.449689 0.140593 -0.491705
v -0.449689 0.153987 -0.459369
v -0.480000 0.160684 -0.443201
v -0.510311 0.153987 -0.459369
v -0.510311 0.140593 -0.491705
v -0.480000 0.220000 -0.525000
v -0.449689 0.220000 -0.507500
v -0.449689 0.220000 -0.472500
v -0.480000 0.220000 -0.455000
v -0.510311 0.220000 -0.472500
v -0.510311 0.220000 -0.507500
v -0.480000 0.306104 -0.507873
v -0.449689 0.299407 -0.491705
v -0.449689 0.286013 -0.459369
v -0.480000 0.279316 -0.443201
v -0.510311 0.286013 -0.459369
v -0.510311 0.299407 -0.491705
v -0.480000 0.379099 -0.459099
v -0.449689 0.366725 -0.446725
v -0.449689 0.341976 -0.421976
v -0.480000 0.329602 -0.409602
v -0.510311 0.341976 -0.421976
v -0.510311 0.366725 -0.446725
v -0.480000 0.427873 -0.386104
v -0.449689 0.411705 -0.379407
v -0.449689 0.379369 -0.366013
v -0.480000 0.363201 -0.359316
v -0.510311 0.379369 -0.366013
v -0.510311 0.411705 -0.379407
v -0.480000 0.445000 -0.300000
v -0.449689 0.427500 -0.300000
v -0.449689 0.392500 -0.300000
v -0.480000 0.375000 -0.300000
v -0.510311 0.392500 -0.300000
v -0.510311 0.427500 -0.300000
v -0.480000 0.427873 -0.213896
v -0.449689 0.411705 -0.220593
v -0.449689 0.379369 -0.233987
v -0.480000 0.363201 -0.240684
v -0.510311 0.379369 -0.233987
v -0.510311 0.411705 -0.220593
v -0.480000 0.379099 -0.140901
v -0.449689 0.366725 -0.153275
v -0.449689 0.341976 -0.178024
v -0.480000 0.329602 -0.190398
v -0.510311 0.341976 -0.178024
v -0.510311 0.366725 -0.153275
v -0.480000 0.306104 -0.092127
v -0.449689 0.299407 -0.108295
v -0.449689 0.286013 -0.140631
v -0.480000 0.279316 -0.156799
v -0.510311 0.286013 -0.140631
v -0.510311 0.299407 -0.108295
v -0.480000 0.220000 -0.075000
v -0.449689 0.220000 -0.092500
v -0.449689 0.220000 -0.127500
v -0.480000 0.220000 -0.145000
v -0.510311 0.220000 -0.127500
v -0.510311 0.220000 -0.092500
v -0.480000 0.133896 -0.092127
v -0.449689 0.140593 -0.108295
v -0.449689 0.153987 -0.140631
v -0.480000 0.160684 -0.156799
v -0.510311 0.153987 -0.140631
v -0.510311 0.140593 -0.108295
v -0.480000 0.060901 -0.140901
v -0.449689 0.073275 -0.153275
v -0.449689 0.098024 -0.178024
v -0.480000 0.110398 -0.190398
v -0.510311 0.098024 -0.178024
v -0.510311 0.073275 -0.153275
v -0.480000 0.012127 -0.213896
v -0.449689 0.028295 -0.220593
v -0.449689 0.060631 -0.233987
v -0.480000 0.076799 -0.240684
v -0.510311 0.060631 -0.233987
v -0.510311 0.028295 -0.220593
f 33 39 34
f 34 39 40
f 34 40 35
f 35 40 41
f 35 41 36
f 36 41 42
f 36 42 37
f 37 42 43
f 37 43 38
f 38 43 44
f 38 44 33
f 33 44 39
f 39 45 40
f 40 45 46
f 40 46 41
f 41 46 47
f 41 47 42
f 42 47 48
f 42 48 43
f 43 48 49
f 43 49 44
f 44 49 50
f 44 50 39
f 39 50 45
f 45 51 46
f 46 51 52
f 46 52 47
f 47 52 53
f 47 53 48
f 48 53 54
f 48 54 49
f 49 54 55
f 49 55 50
f 50 55 56
f 50 56 45
f 45 56 51
f 51 57 52
f 52 57 58
f 52 58 53
f 53 58 59
f 53 59 54
f 54 59 60
f 54 60 55
f 55 60 61
f 55 61 56
f 56 61 62
f 56 62 51
f 51 62 57
f 57 63 58
f 58 63 64
f 58 64 59
f 59 64 65
f 59 65 60
f 60 65 66
f 60 66 61
f 61 66 67
f 61 67 62
f 62 67 68
f 62 68 57
f 57 68 63
f 63 69 64
f 64 69 70
f 64 70 65
f 65 70 71
f 65 71 66
f 66 71 72
f 66 72 67
f 67 72 73
f 67 73 68
f 68 73 74
f 68 74 63
f 63 74 69
f 69 75 70
f 70 75 76
f 70 76 71
f 71 76 77
f 71 77 72
f 72 77 78
f 72 78 73
f 73 78 79
f 73 79 74
f 74 79 80
f 74 80 69
f 69 80 75
f 75 81 76
f 76 81 82
f 76 82 77
f 77 82 83
f 77 83 78
f 78 83 84
f 78 84 79
f 79 84 85
f 79 85 80
f 80 85 86
f 80 86 75
f 75 86 81
f 81 87 82
f 82 87 88
f 82 88 83
f 83 88 89
f 83 89 84
f 84 89 90
f 84 90 85
f 85 90 91
f 85 91 86
f 86 91 92
f 86 92 81
f 81 92 87
f 87 93 88
f 88 93 94
f 88 94 89
f 89 94 95
f 89 95 90
f 90 95 96
f 90 96 91
f 91 96 97
f 91 97 92
f 92 97 98
f 92 98 87
f 87 98 93
f 93 99 94
f 94 99 100
f 94 100 95
f 95 100 101
f 95 101 96
f 96 101 102
f 96 102 97
f 97 102 103
f 97 103 98
f 98 103 104
f 98 104 93
f 93 104 99
f 99 105 100
f 100 105 106
f 100 106 101
f 101 106 107
f 101 107 102
f 102 107 108
f 102 108 103
f 103 108 109
f 103 109 104
f 104 109 110
f 104 110 99
f 99 110 105
f 105 111 106
f 106 111 112
f 106 112 107
f 107 112 113
f 107 113 108
f 108 113 114
f 108 114 109
f 109 114 115
f 109 115 110
f 110 115 116
f 110 116 105
f 105 116 111
f 111 117 112
f 112 117 118
f 112 118 113
f 113 118 119
f 113 119 114
f 114 119 120
f 114 120 115
f 115 120 121
f 115 121 116
f 116 121 122
f 116 122 111
f 111 122 117
f 117 123 118
f 118 123 124
f 118 124 119
f 119 124 125
f 119 125 120
f 120 125 126
f 120 126 121
f 121 126 127
f 121 127 122
f 122 127 128
f 122 128 117
f 117 128 123
f 123 33 124
f 124 33 34
f 124 34 125
f 125 34 35
f 125 35 126
f 126 35 36
f 126 36 127
f 127 36 37
f 127 37 128
f 128 37 38
f 128 38 123
f 123 38 33

o WHEEL_0.48
usemtl black
v 0.480000 -0.005000 -0.300000
v 0.510311 0.012500 -0.300000
v 0.510311 0.047500 -0.300000
v 0.480000 0.065000 -0.300000
v 0.449689 0.047500 -0.300000
v 0.449689 0.012500 -0.300000
v 0.480000 0.012127 -0.386104
v 0.510311 0.028295 -0.379407
v 0.510311 0.060631 -0.366013
v 0.480000 0.076799 -0.359316
v 0.449689 0.060631 -0.366013
v 0.449689 0.028295 -0.379407
v 0.480000 0.060901 -0.459099
v 0.510311 0.073275 -0.446725
v 0.510311 0.098024 -0.421976
v 0.480000 0.110398 -0.409602
v 0.449689 0.098024 -0.421976
v 0.449689 0.073275 -0.446725
v 0.480000 0.133896 -0.507873
v 0.510311 0.140593 -0.491705
v 0.510311 0.153987 -0.459369
v 0.480000 0.160684 -0.443201
v 0.449689 0.153987 -0.459369
v 0.449689 0.140593 -0.491705
v 0.480000 0.220000 -0.525000
v 0.510311 0.220000 -0.507500
v 0.510311 0.220000 -0.472500
v 0.480000 0.220000 -0.455000
v 0.449689 0.220000 -0.472500
v 0.449689 0.220000 -0.507500
v 0.480000 0.306104 -0.507873
v 0.510311 0.299407 -0.491705
v 0.510311 0.286013 -0.459369
v 0.480000 0.279316 -0.443201
v 0.449689 0.286013 -0.459369
v 0.449689 0.299407 -0.491705
v 0.480000 0.379099 -0.459099
v 0.510311 0.366725 -0.446725
v 0.510311 0.341976 -0.421976
v 0.480000 0.329602 -0.409602
v 0.449689 0.341976 -0.421976
v 0.449689 0.366725 -0.446725
v 0.480000 0.427873 -0.386104
v 0.510311 0.411705 -0.379407
v 0.510311 0.379369 -0.366013
v 0.480000 0.363201 -0.359316
v 0.449689 0.379369 -0.366013
v 0.449689 0.411705 -0.379407
v 0.480000 0.445000 -0.300000
v 0.510311 0.427500 -0.300000
v 0.510311 0.392500 -0.300000
v 0.480000 0.375000 -0.300000
v 0.449689 0.392500 -0.300000
v 0.449689 0.427500 -0.300000
v 0.480000 0.427873 -0.213896
v 0.510311 0.411705 -0.220593
v 0.510311 0.379369 -0.233987
v 0.480000 0.363201 -0.240684
v 0.449689 0.379369 -0.233987
v 0.449689 0.411705 -0.220593
v 0.480000 0.379099 -0.140901
v 0.510311 0.366725 -0.153275
v 0.510311 0.341976 -0.178024
v 0.480000 0.329602 -0.190398
v 0.449689 0.341976 -0.178024
v 0.449689 0.366725 -0.153275
v 0.480000 0.306104 -0.092127
v 0.510311 0.299407 -0.108295
v 0.510311 0.286013 -0.140631
v 0.480000 0.279316 -0.156799
v 0.449689 0.286013 -0.140631
v 0.449689 0.299407 -0.108295
v 0.480000 0.220000 -0.075000
v 0.510311 0.220000 -0.092500
v 0.510311 0.220000 -0.127500
v 0.480000 0.220000 -0.145000
v 0.449689 0.220000 -0.127500
v 0.449689 0.220000 -0.092500
v 0.480000 0.133896 -0.092127
v 0.510311 0.140593 -0.108295
v 0.510311 0.153987 -0.140631
v 0.480000 0.160684 -0.156799
v 0.449689 0.153987 -0.140631
v 0.449689 0.140593 -0.108295
v 0.480000 0.060901 -0.140901
v 0.510311 0.073275 -0.153275
v 0.510311 0.098024 -0.178024
v 0.480000 0.110398 -0.190398
v 0.449689 0.098024 -0.178024
v 0.449689 0.073275 -0.153275
v 0.480000 0.012127 -0.213896
v 0.510311 0.028295 -0.220593
v 0.510311 0.060631 -0.233987
v 0.480000 0.076799 -0.240684
v 0.449689 0.060631 -0.233987
v 0.449689 0.028295 -0.220593
f 129 135 130
f 130 135 136
f 130 136 131
f 131 136 137
f 131 137 132
f 132 137 138
f 132 138 133
f 133 138 139
f 133 139 134
f 134 139 140
f 134 140 129
f 129 140 135
f 135 141 136
f 136 141 142
f 136 142 137
f 137 142 143
f 137 143 138
f 138 143 144
f 138 144 139
f 139 144 145
f 139 145 140
f 140 145 146
f 140 146 135
f 135 146 141
f 141 147 142
f 142 147 148
f 142 148 143
f 143 148 149
f 143 149 144
f 144 149 150
f 144 150 145
f 145 150 151
f 145 151 146
f 146 151 152
f 146 152 141
f 141 152 147
f 147 153 148
f 148 153 154
f 148 154 149
f 149 154 155
f 149 155 150
f 150 155 156
f 150 156 151
f 151 156 157
f 151 157 152
f 152 157 158
f 152 158 147
f 147 158 153
f 153 159 154
f 154 159 160
f 154 160 155
f 155 160 161
f 155 161 156
f 156 161 162
f 156 162 157
f 157 162 163
f 157 163 158
f 158 163 164
f 158 164 153
f 153 164 159
f 159 165 160
f 160 165 166
f 160 166 161
f 161 166 167
f 161 167 162
f 162 167 168
f 162 168 163
f 163 168 169
f 163 169 164
f 164 169 170
f 164 170 159
f 159 170 165
f 165 171 166
f 166 171 172
f 166 172 167
f 167 172 173
f 167 173 168
f 168 173 174
f 168 174 169
f 169 174 175
f 169 175 170
f 170 175 176
f 170 176 165
f 165 176 171
f 171 177 172
f 172 177 178
f 172 178 173
f 173 178 179
f 173 179 174
f 174 179 180
f 174 180 175
f 175 180 181
f 175 181 176
f 176 181 182
f 176 182 171
f 171 182 177
f 177 183 178
f 178 183 184
f 178 184 179
f 179 184 185
f 179 185 180
f 180 185 186
f 180 186 181
f 181 186 187
f 181 187 182
f 182 187 188
f 182 188 177
f 177 188 183
f 183 189 184
f 184 189 190
f 184 190 185
f 185 190 191
f 185 191 186
f 186 191 192
f 186 192 187
f 187 192 193
f 187 193 188
f 188 193 194
f 188 194 183
f 183 194 189
f 189 195 190
f 190 195 196
f 190 196 191
f 191 196 197
f 191 197 192
f 192 197 198
f 192 198 193
f 193 198 199
f 193 199 194
f 194 199 200
f 194 200 189
f 189 200 195
f 195 201 196
f 196 201 202
f 196 202 197
f 197 202 203
f 197 203 198
f 198 203 204
f 198 204 199
f 199 204 205
f 199 205 200
f 200 205 206
f 200 206 195
f 195 206 201
f 201 207 202
f 202 207 208
f 202 208 203
f 203 208 209
f 203 209 204
f 204 209 210
f 204 210 205
f 205 210 211
f 205 211 206
f 206 211 212
f 206 212 201
f 201 212 207
f 207 213 208
f 208 213 214
f 208 214 209
f 209 214 215
f 209 215 210
f 210 215 216
f 210 216 211
f 211 216 217
f 211 217 212
f 212 217 218
f 212 218 207
f 207 218 213
f 213 219 214
f 214 219 220
f 214 220 215
f 215 220 221
f 215 221 216
f 216 221 222
f 216 222 217
f 217 222 223
f 217 223 218
f 218 223 224
f 218 224 213
f 213 224 219
f 219 129 220
f 220 129 130
f 220 130 221
f 221 130 131
f 221 131 222
f 222 131 132
f 222 132 223
f 223 132 133
f 223 133 224
f 224 133 134
f 224 134 219
f 219 134 129

o HANDLE_-0.4
usemtl metal
v -0.400000 0.850000 -0.350000
v -0.375000 0.850000 -0.350000
v -0.375000 0.940000 -0.900000
v -0.400000 0.940000 -0.900000
v -0.387500 0.828634 -0.353496
v -0.387500 0.918634 -0.903496
v -0.412500 0.828634 -0.353496
v -0.412500 0.918634 -0.903496
v -0.425000 0.850000 -0.350000
v -0.425000 0.940000 -0.900000
v -0.412500 0.871366 -0.346504
v -0.412500 0.961366 -0.896504
v -0.387500 0.871366 -0.346504
v -0.387500 0.961366 -0.896504
f 226 225 229
f 226 229 227
f 227 229 230
f 227 230 228
f 229 225 231
f 229 231 230
f 230 231 232
f 230 232 228
f 231 225 233
f 231 233 232
f 232 233 234
f 232 234 228
f 233 225 235
f 233 235 234
f 234 235 236
f 234 236 228
f 235 225 237
f 235 237 236
f 236 237 238
f 236 238 228
f 237 225 226
f 237 226 238
f 238 226 227
f 238 227 228

o HANDLE_0.4
usemtl metal
v 0.400000 0.850000 -0.350000
v 0.425000 0.850000 -0.350000
v 0.425000 0.940000 -0.900000
v 0.400000 0.940000 -0.900000
v 0.412500 0.828634 -0.353496
v 0.412500 0.918634 -0.903496
v 0.387500 0.828634 -0.353496
v 0.387500 0.918634 -0.903496
v 0.375000 0.850000 -0.350000
v 0.375000 0.940000 -0.900000
v 0.387500 0.871366 -0.346504
v 0.387500 0.961366 -0.896504
v 0.412500 0.871366 -0.346504
v 0.412500 0.961366 -0.896504
f 240 239 243
f 240 243 241
f 241 243 244
f 241 244 242
f 243 239 245
f 243 245 244
f 244 245 246
f 244 246 242
f 245 239 247
f 245 247 246
f 246 247 248
f 246 248 242
f 247 239 249
f 247 249 248
f 248 249 250
f 248 250 242
f 249 239 251
f 249 251 250
f 250 251 252
f 250 252 242
f 251 239 240
f 251 240 252
f 252 240 241
f 252 241 242

o POT
usemtl silver
v 0.350000 1.430000 0.020000
v 0.590000 1.430000 0.020000
v 0.590000 1.650000 0.020000
v 0.350000 1.650000 0.020000
v 0.557846 1.430000 -0.100000
v 0.557846 1.650000 -0.100000
v 0.470000 1.430000 -0.187846
v 0.470000 1.650000 -0.187846
v 0.350000 1.430000 -0.220000
v 0.350000 1.650000 -0.220000
v 0.230000 1.430000 -0.187846
v 0.230000 1.650000 -0.187846
v 0.142154 1.430000 -0.100000
v 0.142154 1.650000 -0.100000
v 0.110000 1.430000 0.020000
v 0.110000 1.650000 0.020000
v 0.142154 1.430000 0.140000
v 0.142154 1.650000 0.140000
v 0.230000 1.430000 0.227846
v 0.230000 1.650000 0.227846
v 0.350000 1.430000 0.260000
v 0.350000 1.650000 0.260000
v 0.470000 1.430000 0.227846
v 0.470000 1.650000 0.227846
v 0.557846 1.430000 0.140000
v 0.557846 1.650000 0.140000
f 254 253 257
f 254 257 255
f 255 257 258
f 255 258 256
f 257 253 259
f 257 259 258
f 258 259 260
f 258 260 256
f 259 253 261
f 259 261 260
f 260 261 262
f 260 262 256
f 261 253 263
f 261 263 262
f 262 263 264
f 262 264 256
f 263 253 265
f 263 265 264
f 264 265 266
f 264 266 256
f 265 253 267
f 265 267 266
f 266 267 268
f 266 268 256
f 267 253 269
f 267 269 268
f 268 269 270
f 268 270 256
f 269 253 271
f 269 271 270
f 270 271 272
f 270 272 256
f 271 253 273
f 271 273 272
f 272 273 274
f 272 274 256
f 273 253 275
f 273 275 274
f 274 275 276
f 274 276 256
f 275 253 277
f 275 277 276
f 276 277 278
f 276 278 256
f 277 253 254
f 277 254 278
f 278 254 255
f 278 255 256

o BOWL_0
usemtl white
v -0.380000 1.450000 0.170000
v -0.290000 1.450000 0.170000
v -0.290000 1.490000 0.170000
v -0.380000 1.490000 0.170000
v -0.307188 1.450000 0.117099
v -0.307188 1.490000 0.117099
v -0.352188 1.450000 0.084405
v -0.352188 1.490000 0.084405
v -0.407812 1.450000 0.084405
v -0.407812 1.490000 0.084405
v -0.452812 1.450000 0.117099
v -0.452812 1.490000 0.117099
v -0.470000 1.450000 0.170000
v -0.470000 1.490000 0.170000
v -0.452812 1.450000 0.222901
v -0.452812 1.490000 0.222901
v -0.407812 1.450000 0.255595
v -0.407812 1.490000 0.255595
v -0.352188 1.450000 0.255595
v -0.352188 1.490000 0.255595
v -0.307188 1.450000 0.222901
v -0.307188 1.490000 0.222901
f 280 279 283
f 280 283 281
f 281 283 284
f 281 284 282
f 283 279 285
f 283 285 284
f 284 285 286
f 284 286 282
f 285 279 287
f 285 287 286
f 286 287 288
f 286 288 282
f 287 279 289
f 287 289 288
f 288 289 290
f 288 290 282
f 289 279 291
f 289 291 290
f 290 291 292
f 290 292 282
f 291 279 293
f 291 293 292
f 292 293 294
f 292 294 282
f 293 279 295
f 293 295 294
f 294 295 296
f 294 296 282
f 295 279 297
f 295 297 296
f 296 297 298
f 296 298 282
f 297 279 299
f 297 299 298
f 298 299 300
f 298 300 282
f 299 279 280
f 299 280 300
f 300 280 281
f 300 281 282

o BOWL_1
usemtl white
v -0.200000 1.450000 0.170000
v -0.110000 1.450000 0.170000
v -0.110000 1.490000 0.170000
v -0.200000 1.490000 0.170000
v -0.127188 1.450000 0.117099
v -0.127188 1.490000 0.117099
v -0.172188 1.450000 0.084405
v -0.172188 1.490000 0.084405
v -0.227812 1.450000 0.084405
v -0.227812 1.490000 0.084405
v -0.272812 1.450000 0.117099
v -0.272812 1.490000 0.117099
v -0.290000 1.450000 0.170000
v -0.290000 1.490000 0.170000
v -0.272812 1.450000 0.222901
v -0.272812 1.490000 0.222901
v -0.227812 1.450000 0.255595
v -0.227812 1.490000 0.255595
v -0.172188 1.450000 0.255595
v -0.172188 1.490000 0.255595
v -0.127188 1.450000 0.222901
v -0.127188 1.490000 0.222901
f 302 301 305
f 302 305 303
f 303 305 306
f 303 306 304
f 305 301 307
f 305 307 306
f 306 307 308
f 306 308 304
f 307 301 309
f 307 309 308
f 308 309 310
f 308 310 304
f 309 301 311
f 309 311 310
f 310 311 312
f 310 312 304
f 311 301 313
f 311 313 312
f 312 313 314
f 312 314 304
f 313 301 315
f 313 315 314
f 314 315 316
f 314 316 304
f 315 301 317
f 315 317 316
f 316 317 318
f 316 318 304
f 317 301 319
f 317 319 318
f 318 319 320
f 318 320 304
f 319 301 321
f 319 321 320
f 320 321 322
f 320 322 304
f 321 301 302
f 321 302 322
f 322 302 303
f 322 303 304

o BOWL_2
usemtl white
v -0.020000 1.450000 0.170000
v 0.070000 1.450000 0.170000
v 0.070000 1.490000 0.170000
v -0.020000 1.490000 0.170000
v 0.052812 1.450000 0.117099
v 0.052812 1.490000 0.117099
v 0.007812 1.450000 0.084405
v 0.007812 1.490000 0.084405
v -0.047812 1.450000 0.084405
v -0.047812 1.490000 0.084405
v -0.092812 1.450000 0.117099
v -0.092812 1.490000 0.117099
v -0.110000 1.450000 0.170000
v -0.110000 1.490000 0.170000
v -0.092812 1.450000 0.222901
v -0.092812 1.490000 0.222901
v -0.047812 1.450000 0.255595
v -0.047812 1.490000 0.255595
v 0.007812 1.450000 0.255595
v 0.007812 1.490000 0.255595
v 0.052812 1.450000 0.222901
v 0.052812 1.490000 0.222901
f 324 323 327
f 324 327 325
f 325 327 328
f 325 328 326
f 327 323 329
f 327 329 328
f 328 329 330
f 328 330 326
f 329 323 331
f 329 331 330
f 330 331 332
f 330 332 326
f 331 323 333
f 331 333 332
f 332 333 334
f 332 334 326
f 333 323 335
f 333 335 334
f 334 335 336
f 334 336 326
f 335 323 337
f 335 337 336
f 336 337 338
f 336 338 326
f 337 323 339
f 337 339 338
f 338 339 340
f 338 340 326
f 339 323 341
f 339 341 340
f 340 341 342
f 340 342 326
f 341 323 343
f 341 343 342
f 342 343 344
f 342 344 326
f 343 323 324
f 343 324 344
f 344 324 325
f 344 325 326

o BOWL_3
usemtl white
v 0.160000 1.450000 0.170000
v 0.250000 1.450000 0.170000
v 0.250000 1.490000 0.170000
v 0.160000 1.490000 0.170000
v 0.232812 1.450000 0.117099
v 0.232812 1.490000 0.117099
v 0.187812 1.450000 0.084405
v 0.187812 1.490000 0.084405
v 0.132188 1.450000 0.084405
v 0.132188 1.490000 0.084405
v 0.087188 1.450000 0.117099
v 0.087188 1.490000 0.117099
v 0.070000 1.450000 0.170000
v 0.070000 1.490000 0.170000
v 0.087188 1.450000 0.222901
v 0.087188 1.490000 0.222901
v 0.132188 1.450000 0.255595
v 0.132188 1.490000 0.255595
v 0.187812 1.450000 0.255595
v 0.187812 1.490000 0.255595
v 0.232812 1.450000 0.222901
v 0.232812 1.490000 0.222901
f 346 345 349
f 346 349 347
f 347 349 350
f 347 350 348
f 349 345 351
f 349 351 350
f 350 351 352
f 350 352 348
f 351 345 353
f 351 353 352
f 352 353 354
f 352 354 348
f 353 345 355
f 353 355 354
f 354 355 356
f 354 356 348
f 355 345 357
f 355 357 356
f 356 357 358
f 356 358 348
f 357 345 359
f 357 359 358
f 358 359 360
f 358 360 348
f 359 345 361
f 359 361 360
f 360 361 362
f 360 362 348
f 361 345 363
f 361 363 362
f 362 363 364
f 362 364 348
f 363 345 365
f 363 365 364
f 364 365 366
f 364 366 348
f 365 345 346
f 365 346 366
f 366 346 347
f 366 347 348

o UMBRELLA_POLE
usemtl metal
v 0.000000 1.375000 -0.180000
v 0.035000 1.375000 -0.180000
v 0.035000 3.025000 -0.180000
v 0.000000 3.025000 -0.180000
v 0.024749 1.375000 -0.204749
v 0.024749 3.025000 -0.204749
v 0.000000 1.375000 -0.215000
v 0.000000 3.025000 -0.215000
v -0.024749 1.375000 -0.204749
v -0.024749 3.025000 -0.204749
v -0.035000 1.375000 -0.180000
v -0.035000 3.025000 -0.180000
v -0.024749 1.375000 -0.155251
v -0.024749 3.025000 -0.155251
v -0.000000 1.375000 -0.145000
v -0.000000 3.025000 -0.145000
v 0.024749 1.375000 -0.155251
v 0.024749 3.025000 -0.155251
f 368 367 371
f 368 371 369
f 369 371 372
f 369 372 370
f 371 367 373
f 371 373 372
f 372 373 374
f 372 374 370
f 373 367 375
f 373 375 374
f 374 375 376
f 374 376 370
f 375 367 377
f 375 377 376
f 376 377 378
f 376 378 370
f 377 367 379
f 377 379 378
f 378 379 380
f 378 380 370
f 379 367 381
f 379 381 380
f 380 381 382
f 380 382 370
f 381 367 383
f 381 383 382
f 382 383 384
f 382 384 370
f 383 367 368
f 383 368 384
f 384 368 369
f 384 369 370

o UMBRELLA
usemtl red
v 0.000000 3.000000 -0.180000
v 1.020000 3.000000 -0.180000
v 0.000000 3.238000 -0.180000
v 0.883346 3.000000 -0.690000
v 0.510000 3.000000 -1.063346
v 0.000000 3.000000 -1.200000
v -0.510000 3.000000 -1.063346
v -0.883346 3.000000 -0.690000
v -1.020000 3.000000 -0.180000
v -0.883346 3.000000 0.330000
v -0.510000 3.000000 0.703346
v -0.000000 3.000000 0.840000
v 0.510000 3.000000 0.703346
v 0.883346 3.000000 0.330000
f 386 385 388
f 386 388 387
f 388 385 389
f 388 389 387
f 389 385 390
f 389 390 387
f 390 385 391
f 390 391 387
f 391 385 392
f 391 392 387
f 392 385 393
f 392 393 387
f 393 385 394
f 393 394 387
f 394 385 395
f 394 395 387
f 395 385 396
f 395 396 387
f 396 385 397
f 396 397 387
f 397 385 398
f 397 398 387
f 398 385 386
f 398 386 387

o RIB_0
usemtl white
v 0.000000 3.150000 -0.180000
v -0.003989 3.132448 -0.180000
v 0.876011 2.932448 -0.180000
v 0.880000 2.950000 -0.180000
v -0.001233 3.144576 -0.197119
v 0.878767 2.944576 -0.197119
v 0.003227 3.164200 -0.190580
v 0.883227 2.964200 -0.190580
v 0.003227 3.164200 -0.169420
v 0.883227 2.964200 -0.169420
v -0.001233 3.144576 -0.162881
v 0.878767 2.944576 -0.162881
f 400 399 403
f 400 403 401
f 401 403 404
f 401 404 402
f 403 399 405
f 403 405 404
f 404 405 406
f 404 406 402
f 405 399 407
f 405 407 406
f 406 407 408
f 406 408 402
f 407 399 409
f 407 409 408
f 408 409 410
f 408 410 402
f 409 399 400
f 409 400 410
f 410 400 401
f 410 401 402

o RIB_1
usemtl white
v -0.000000 3.150000 -0.180000
v 0.012503 3.141224 -0.170478
v 0.452503 2.941224 -0.932581
v 0.440000 2.950000 -0.942102
v -0.005192 3.132831 -0.178492
v 0.434808 2.932831 -0.940594
v -0.015712 3.148165 -0.188590
v 0.424288 2.948165 -0.950692
v -0.004518 3.166035 -0.186817
v 0.435482 2.966035 -0.948919
v 0.012919 3.161745 -0.175623
v 0.452919 2.961745 -0.937726
f 412 411 415
f 412 415 413
f 413 415 416
f 413 416 414
f 415 411 417
f 415 417 416
f 416 417 418
f 416 418 414
f 417 411 419
f 417 419 418
f 418 419 420
f 418 420 414
f 419 411 421
f 419 421 420
f 420 421 422
f 420 422 414
f 421 411 412
f 421 412 422
f 422 412 413
f 422 413 414

o RIB_2
usemtl white
v 0.000000 3.150000 -0.180000
v 0.012503 3.158776 -0.189522
v -0.427497 2.958776 -0.951624
v -0.440000 2.950000 -0.942102
v 0.012919 3.138255 -0.184377
v -0.427081 2.938255 -0.946479
v -0.004518 3.133965 -0.173183
v -0.444518 2.933965 -0.935286
v -0.015712 3.151835 -0.171410
v -0.455712 2.951835 -0.933513
v -0.005192 3.167169 -0.181508
v -0.445192 2.967169 -0.943610
f 424 423 427
f 424 427 425
f 425 427 428
f 425 428 426
f 427 423 429
f 427 429 428
f 428 429 430
f 428 430 426
f 429 423 431
f 429 431 430
f 430 431 432
f 430 432 426
f 431 423 433
f 431 433 432
f 432 433 434
f 432 434 426
f 433 423 424
f 433 424 434
f 434 424 425
f 434 425 426

o RIB_3
usemtl white
v 0.000000 3.150000 -0.180000
v -0.003989 3.167552 -0.180000
v -0.883989 2.967552 -0.180000
v -0.880000 2.950000 -0.180000
v -0.001233 3.155424 -0.197119
v -0.881233 2.955424 -0.197119
v 0.003227 3.135800 -0.190580
v -0.876773 2.935800 -0.190580
v 0.003227 3.135800 -0.169420
v -0.876773 2.935800 -0.169420
v -0.001233 3.155424 -0.162881
v -0.881233 2.955424 -0.162881
f 436 435 439
f 436 439 437
f 437 439 440
f 437 440 438
f 439 435 441
f 439 441 440
f 440 441 442
f 440 442 438
f 441 435 443
f 441 443 442
f 442 443 444
f 442 444 438
f 443 435 445
f 443 445 444
f 444 445 446
f 444 446 438
f 445 435 436
f 445 436 446
f 446 436 437
f 446 437 438

o RIB_4
usemtl white
v 0.000000 3.150000 -0.180000
v 0.012503 3.158776 -0.170478
v -0.427497 2.958776 0.591624
v -0.440000 2.950000 0.582102
v -0.005192 3.167169 -0.178492
v -0.445192 2.967169 0.583610
v -0.015712 3.151835 -0.188590
v -0.455712 2.951835 0.573513
v -0.004518 3.133965 -0.186817
v -0.444518 2.933965 0.575286
v 0.012919 3.138255 -0.175623
v -0.427081 2.938255 0.586479
f 448 447 451
f 448 451 449
f 449 451 452
f 449 452 450
f 451 447 453
f 451 453 452
f 452 453 454
f 452 454 450
f 453 447 455
f 453 455 454
f 454 455 456
f 454 456 450
f 455 447 457
f 455 457 456
f 456 457 458
f 456 458 450
f 457 447 448
f 457 448 458
f 458 448 449
f 458 449 450

o RIB_5
usemtl white
v 0.000000 3.150000 -0.180000
v 0.012503 3.141224 -0.189522
v 0.452503 2.941224 0.572581
v 0.440000 2.950000 0.582102
v 0.012919 3.161745 -0.184377
v 0.452919 2.961745 0.577726
v -0.004518 3.166035 -0.173183
v 0.435482 2.966035 0.588919
v -0.015712 3.148165 -0.171410
v 0.424288 2.948165 0.590692
v -0.005192 3.132831 -0.181508
v 0.434808 2.932831 0.580594
f 460 459 463
f 460 463 461
f 461 463 464
f 461 464 462
f 463 459 465
f 463 465 464
f 464 465 466
f 464 466 462
f 465 459 467
f 465 467 466
f 466 467 468
f 466 468 462
f 467 459 469
f 467 469 468
f 468 469 470
f 468 470 462
f 469 459 460
f 469 460 470
f 470 460 461
f 470 461 462
