# Negara Konoha — GedungLama
# Original fictional game asset, Nusantara/Indonesia-inspired.
# 1 OBJ unit = 1 meter. Y-up. Intended front = +Z in Unity.
mtllib GedungLama.mtl

o PLINTH
usemtl stone
v -2.000000 0.005000 2.000000
v -2.000000 0.455000 2.000000
v -2.000000 0.005000 -2.000000
v -2.000000 0.455000 -2.000000
v 2.000000 0.005000 2.000000
v 2.000000 0.455000 2.000000
v 2.000000 0.005000 -2.000000
v 2.000000 0.455000 -2.000000
f 2 4 1
f 5 2 1
f 1 4 3
f 3 5 1
f 2 8 4
f 6 2 5
f 6 8 2
f 4 8 3
f 7 5 3
f 3 8 7
f 7 6 5
f 8 6 7

o BODY
usemtl cream
v -1.850000 0.220000 1.850000
v -1.850000 5.820000 1.850000
v -1.850000 0.220000 -1.850000
v -1.850000 5.820000 -1.850000
v 1.850000 0.220000 1.850000
v 1.850000 5.820000 1.850000
v 1.850000 0.220000 -1.850000
v 1.850000 5.820000 -1.850000
f 10 12 9
f 13 10 9
f 9 12 11
f 11 13 9
f 10 16 12
f 14 10 13
f 14 16 10
f 12 16 11
f 15 13 11
f 11 16 15
f 15 14 13
f 16 14 15

o COLUMN_-1.42
usemtl stone2
v -1.420000 0.230000 1.920000
v -1.280000 0.230000 1.920000
v -1.280000 4.730000 1.920000
v -1.420000 4.730000 1.920000
v -1.306738 0.230000 1.837710
v -1.306738 4.730000 1.837710
v -1.376738 0.230000 1.786852
v -1.376738 4.730000 1.786852
v -1.463262 0.230000 1.786852
v -1.463262 4.730000 1.786852
v -1.533262 0.230000 1.837710
v -1.533262 4.730000 1.837710
v -1.560000 0.230000 1.920000
v -1.560000 4.730000 1.920000
v -1.533262 0.230000 2.002290
v -1.533262 4.730000 2.002290
v -1.463262 0.230000 2.053148
v -1.463262 4.730000 2.053148
v -1.376738 0.230000 2.053148
v -1.376738 4.730000 2.053148
v -1.306738 0.230000 2.002290
v -1.306738 4.730000 2.002290
f 18 17 21
f 18 21 19
f 19 21 22
f 19 22 20
f 21 17 23
f 21 23 22
f 22 23 24
f 22 24 20
f 23 17 25
f 23 25 24
f 24 25 26
f 24 26 20
f 25 17 27
f 25 27 26
f 26 27 28
f 26 28 20
f 27 17 29
f 27 29 28
f 28 29 30
f 28 30 20
f 29 17 31
f 29 31 30
f 30 31 32
f 30 32 20
f 31 17 33
f 31 33 32
f 32 33 34
f 32 34 20
f 33 17 35
f 33 35 34
f 34 35 36
f 34 36 20
f 35 17 37
f 35 37 36
f 36 37 38
f 36 38 20
f 37 17 18
f 37 18 38
f 38 18 19
f 38 19 20

o COLUMN_1.42
usemtl stone2
v 1.420000 0.230000 1.920000
v 1.560000 0.230000 1.920000
v 1.560000 4.730000 1.920000
v 1.420000 4.730000 1.920000
v 1.533262 0.230000 1.837710
v 1.533262 4.730000 1.837710
v 1.463262 0.230000 1.786852
v 1.463262 4.730000 1.786852
v 1.376738 0.230000 1.786852
v 1.376738 4.730000 1.786852
v 1.306738 0.230000 1.837710
v 1.306738 4.730000 1.837710
v 1.280000 0.230000 1.920000
v 1.280000 4.730000 1.920000
v 1.306738 0.230000 2.002290
v 1.306738 4.730000 2.002290
v 1.376738 0.230000 2.053148
v 1.376738 4.730000 2.053148
v 1.463262 0.230000 2.053148
v 1.463262 4.730000 2.053148
v 1.533262 0.230000 2.002290
v 1.533262 4.730000 2.002290
f 40 39 43
f 40 43 41
f 41 43 44
f 41 44 42
f 43 39 45
f 43 45 44
f 44 45 46
f 44 46 42
f 45 39 47
f 45 47 46
f 46 47 48
f 46 48 42
f 47 39 49
f 47 49 48
f 48 49 50
f 48 50 42
f 49 39 51
f 49 51 50
f 50 51 52
f 50 52 42
f 51 39 53
f 51 53 52
f 52 53 54
f 52 54 42
f 53 39 55
f 53 55 54
f 54 55 56
f 54 56 42
f 55 39 57
f 55 57 56
f 56 57 58
f 56 58 42
f 57 39 59
f 57 59 58
f 58 59 60
f 58 60 42
f 59 39 40
f 59 40 60
f 60 40 41
f 60 41 42

o DOOR
usemtl wood
v -0.450000 0.475000 1.920000
v -0.450000 2.525000 1.920000
v -0.450000 0.475000 1.840000
v -0.450000 2.525000 1.840000
v 0.450000 0.475000 1.920000
v 0.450000 2.525000 1.920000
v 0.450000 0.475000 1.840000
v 0.450000 2.525000 1.840000
f 62 64 61
f 65 62 61
f 61 64 63
f 63 65 61
f 62 68 64
f 66 62 65
f 66 68 62
f 64 68 63
f 67 65 63
f 63 68 67
f 67 66 65
f 68 66 67

o WINDOW_0_-1.15
usemtl glass
v -1.525000 1.025000 1.910000
v -1.525000 2.075000 1.910000
v -1.525000 1.025000 1.850000
v -1.525000 2.075000 1.850000
v -0.775000 1.025000 1.910000
v -0.775000 2.075000 1.910000
v -0.775000 1.025000 1.850000
v -0.775000 2.075000 1.850000
f 70 72 69
f 73 70 69
f 69 72 71
f 71 73 69
f 70 76 72
f 74 70 73
f 74 76 70
f 72 76 71
f 75 73 71
f 71 76 75
f 75 74 73
f 76 74 75

o KREPYAK_0_-1.15_0
usemtl wood2
v -1.760000 1.182500 1.960000
v -1.760000 1.237500 1.960000
v -1.760000 1.182500 1.880000
v -1.760000 1.237500 1.880000
v -1.460000 1.182500 1.960000
v -1.460000 1.237500 1.960000
v -1.460000 1.182500 1.880000
v -1.460000 1.237500 1.880000
f 78 80 77
f 81 78 77
f 77 80 79
f 79 81 77
f 78 84 80
f 82 78 81
f 82 84 78
f 80 84 79
f 83 81 79
f 79 84 83
f 83 82 81
f 84 82 83

o KREPYAKR_0_-1.15_0
usemtl wood2
v -0.840000 1.182500 1.960000
v -0.840000 1.237500 1.960000
v -0.840000 1.182500 1.880000
v -0.840000 1.237500 1.880000
v -0.540000 1.182500 1.960000
v -0.540000 1.237500 1.960000
v -0.540000 1.182500 1.880000
v -0.540000 1.237500 1.880000
f 86 88 85
f 89 86 85
f 85 88 87
f 87 89 85
f 86 92 88
f 90 86 89
f 90 92 86
f 88 92 87
f 91 89 87
f 87 92 91
f 91 90 89
f 92 90 91

o KREPYAK_0_-1.15_1
usemtl wood2
v -1.760000 1.352500 1.960000
v -1.760000 1.407500 1.960000
v -1.760000 1.352500 1.880000
v -1.760000 1.407500 1.880000
v -1.460000 1.352500 1.960000
v -1.460000 1.407500 1.960000
v -1.460000 1.352500 1.880000
v -1.460000 1.407500 1.880000
f 94 96 93
f 97 94 93
f 93 96 95
f 95 97 93
f 94 100 96
f 98 94 97
f 98 100 94
f 96 100 95
f 99 97 95
f 95 100 99
f 99 98 97
f 100 98 99

o KREPYAKR_0_-1.15_1
usemtl wood2
v -0.840000 1.352500 1.960000
v -0.840000 1.407500 1.960000
v -0.840000 1.352500 1.880000
v -0.840000 1.407500 1.880000
v -0.540000 1.352500 1.960000
v -0.540000 1.407500 1.960000
v -0.540000 1.352500 1.880000
v -0.540000 1.407500 1.880000
f 102 104 101
f 105 102 101
f 101 104 103
f 103 105 101
f 102 108 104
f 106 102 105
f 106 108 102
f 104 108 103
f 107 105 103
f 103 108 107
f 107 106 105
f 108 106 107

o KREPYAK_0_-1.15_2
usemtl wood2
v -1.760000 1.522500 1.960000
v -1.760000 1.577500 1.960000
v -1.760000 1.522500 1.880000
v -1.760000 1.577500 1.880000
v -1.460000 1.522500 1.960000
v -1.460000 1.577500 1.960000
v -1.460000 1.522500 1.880000
v -1.460000 1.577500 1.880000
f 110 112 109
f 113 110 109
f 109 112 111
f 111 113 109
f 110 116 112
f 114 110 113
f 114 116 110
f 112 116 111
f 115 113 111
f 111 116 115
f 115 114 113
f 116 114 115

o KREPYAKR_0_-1.15_2
usemtl wood2
v -0.840000 1.522500 1.960000
v -0.840000 1.577500 1.960000
v -0.840000 1.522500 1.880000
v -0.840000 1.577500 1.880000
v -0.540000 1.522500 1.960000
v -0.540000 1.577500 1.960000
v -0.540000 1.522500 1.880000
v -0.540000 1.577500 1.880000
f 118 120 117
f 121 118 117
f 117 120 119
f 119 121 117
f 118 124 120
f 122 118 121
f 122 124 118
f 120 124 119
f 123 121 119
f 119 124 123
f 123 122 121
f 124 122 123

o KREPYAK_0_-1.15_3
usemtl wood2
v -1.760000 1.692500 1.960000
v -1.760000 1.747500 1.960000
v -1.760000 1.692500 1.880000
v -1.760000 1.747500 1.880000
v -1.460000 1.692500 1.960000
v -1.460000 1.747500 1.960000
v -1.460000 1.692500 1.880000
v -1.460000 1.747500 1.880000
f 126 128 125
f 129 126 125
f 125 128 127
f 127 129 125
f 126 132 128
f 130 126 129
f 130 132 126
f 128 132 127
f 131 129 127
f 127 132 131
f 131 130 129
f 132 130 131

o KREPYAKR_0_-1.15_3
usemtl wood2
v -0.840000 1.692500 1.960000
v -0.840000 1.747500 1.960000
v -0.840000 1.692500 1.880000
v -0.840000 1.747500 1.880000
v -0.540000 1.692500 1.960000
v -0.540000 1.747500 1.960000
v -0.540000 1.692500 1.880000
v -0.540000 1.747500 1.880000
f 134 136 133
f 137 134 133
f 133 136 135
f 135 137 133
f 134 140 136
f 138 134 137
f 138 140 134
f 136 140 135
f 139 137 135
f 135 140 139
f 139 138 137
f 140 138 139

o KREPYAK_0_-1.15_4
usemtl wood2
v -1.760000 1.862500 1.960000
v -1.760000 1.917500 1.960000
v -1.760000 1.862500 1.880000
v -1.760000 1.917500 1.880000
v -1.460000 1.862500 1.960000
v -1.460000 1.917500 1.960000
v -1.460000 1.862500 1.880000
v -1.460000 1.917500 1.880000
f 142 144 141
f 145 142 141
f 141 144 143
f 143 145 141
f 142 148 144
f 146 142 145
f 146 148 142
f 144 148 143
f 147 145 143
f 143 148 147
f 147 146 145
f 148 146 147

o KREPYAKR_0_-1.15_4
usemtl wood2
v -0.840000 1.862500 1.960000
v -0.840000 1.917500 1.960000
v -0.840000 1.862500 1.880000
v -0.840000 1.917500 1.880000
v -0.540000 1.862500 1.960000
v -0.540000 1.917500 1.960000
v -0.540000 1.862500 1.880000
v -0.540000 1.917500 1.880000
f 150 152 149
f 153 150 149
f 149 152 151
f 151 153 149
f 150 156 152
f 154 150 153
f 154 156 150
f 152 156 151
f 155 153 151
f 151 156 155
f 155 154 153
f 156 154 155

o WINDOW_0_1.15
usemtl glass
v 0.775000 1.025000 1.910000
v 0.775000 2.075000 1.910000
v 0.775000 1.025000 1.850000
v 0.775000 2.075000 1.850000
v 1.525000 1.025000 1.910000
v 1.525000 2.075000 1.910000
v 1.525000 1.025000 1.850000
v 1.525000 2.075000 1.850000
f 158 160 157
f 161 158 157
f 157 160 159
f 159 161 157
f 158 164 160
f 162 158 161
f 162 164 158
f 160 164 159
f 163 161 159
f 159 164 163
f 163 162 161
f 164 162 163

o KREPYAK_0_1.15_0
usemtl wood2
v 0.540000 1.182500 1.960000
v 0.540000 1.237500 1.960000
v 0.540000 1.182500 1.880000
v 0.540000 1.237500 1.880000
v 0.840000 1.182500 1.960000
v 0.840000 1.237500 1.960000
v 0.840000 1.182500 1.880000
v 0.840000 1.237500 1.880000
f 166 168 165
f 169 166 165
f 165 168 167
f 167 169 165
f 166 172 168
f 170 166 169
f 170 172 166
f 168 172 167
f 171 169 167
f 167 172 171
f 171 170 169
f 172 170 171

o KREPYAKR_0_1.15_0
usemtl wood2
v 1.460000 1.182500 1.960000
v 1.460000 1.237500 1.960000
v 1.460000 1.182500 1.880000
v 1.460000 1.237500 1.880000
v 1.760000 1.182500 1.960000
v 1.760000 1.237500 1.960000
v 1.760000 1.182500 1.880000
v 1.760000 1.237500 1.880000
f 174 176 173
f 177 174 173
f 173 176 175
f 175 177 173
f 174 180 176
f 178 174 177
f 178 180 174
f 176 180 175
f 179 177 175
f 175 180 179
f 179 178 177
f 180 178 179

o KREPYAK_0_1.15_1
usemtl wood2
v 0.540000 1.352500 1.960000
v 0.540000 1.407500 1.960000
v 0.540000 1.352500 1.880000
v 0.540000 1.407500 1.880000
v 0.840000 1.352500 1.960000
v 0.840000 1.407500 1.960000
v 0.840000 1.352500 1.880000
v 0.840000 1.407500 1.880000
f 182 184 181
f 185 182 181
f 181 184 183
f 183 185 181
f 182 188 184
f 186 182 185
f 186 188 182
f 184 188 183
f 187 185 183
f 183 188 187
f 187 186 185
f 188 186 187

o KREPYAKR_0_1.15_1
usemtl wood2
v 1.460000 1.352500 1.960000
v 1.460000 1.407500 1.960000
v 1.460000 1.352500 1.880000
v 1.460000 1.407500 1.880000
v 1.760000 1.352500 1.960000
v 1.760000 1.407500 1.960000
v 1.760000 1.352500 1.880000
v 1.760000 1.407500 1.880000
f 190 192 189
f 193 190 189
f 189 192 191
f 191 193 189
f 190 196 192
f 194 190 193
f 194 196 190
f 192 196 191
f 195 193 191
f 191 196 195
f 195 194 193
f 196 194 195

o KREPYAK_0_1.15_2
usemtl wood2
v 0.540000 1.522500 1.960000
v 0.540000 1.577500 1.960000
v 0.540000 1.522500 1.880000
v 0.540000 1.577500 1.880000
v 0.840000 1.522500 1.960000
v 0.840000 1.577500 1.960000
v 0.840000 1.522500 1.880000
v 0.840000 1.577500 1.880000
f 198 200 197
f 201 198 197
f 197 200 199
f 199 201 197
f 198 204 200
f 202 198 201
f 202 204 198
f 200 204 199
f 203 201 199
f 199 204 203
f 203 202 201
f 204 202 203

o KREPYAKR_0_1.15_2
usemtl wood2
v 1.460000 1.522500 1.960000
v 1.460000 1.577500 1.960000
v 1.460000 1.522500 1.880000
v 1.460000 1.577500 1.880000
v 1.760000 1.522500 1.960000
v 1.760000 1.577500 1.960000
v 1.760000 1.522500 1.880000
v 1.760000 1.577500 1.880000
f 206 208 205
f 209 206 205
f 205 208 207
f 207 209 205
f 206 212 208
f 210 206 209
f 210 212 206
f 208 212 207
f 211 209 207
f 207 212 211
f 211 210 209
f 212 210 211

o KREPYAK_0_1.15_3
usemtl wood2
v 0.540000 1.692500 1.960000
v 0.540000 1.747500 1.960000
v 0.540000 1.692500 1.880000
v 0.540000 1.747500 1.880000
v 0.840000 1.692500 1.960000
v 0.840000 1.747500 1.960000
v 0.840000 1.692500 1.880000
v 0.840000 1.747500 1.880000
f 214 216 213
f 217 214 213
f 213 216 215
f 215 217 213
f 214 220 216
f 218 214 217
f 218 220 214
f 216 220 215
f 219 217 215
f 215 220 219
f 219 218 217
f 220 218 219

o KREPYAKR_0_1.15_3
usemtl wood2
v 1.460000 1.692500 1.960000
v 1.460000 1.747500 1.960000
v 1.460000 1.692500 1.880000
v 1.460000 1.747500 1.880000
v 1.760000 1.692500 1.960000
v 1.760000 1.747500 1.960000
v 1.760000 1.692500 1.880000
v 1.760000 1.747500 1.880000
f 222 224 221
f 225 222 221
f 221 224 223
f 223 225 221
f 222 228 224
f 226 222 225
f 226 228 222
f 224 228 223
f 227 225 223
f 223 228 227
f 227 226 225
f 228 226 227

o KREPYAK_0_1.15_4
usemtl wood2
v 0.540000 1.862500 1.960000
v 0.540000 1.917500 1.960000
v 0.540000 1.862500 1.880000
v 0.540000 1.917500 1.880000
v 0.840000 1.862500 1.960000
v 0.840000 1.917500 1.960000
v 0.840000 1.862500 1.880000
v 0.840000 1.917500 1.880000
f 230 232 229
f 233 230 229
f 229 232 231
f 231 233 229
f 230 236 232
f 234 230 233
f 234 236 230
f 232 236 231
f 235 233 231
f 231 236 235
f 235 234 233
f 236 234 235

o KREPYAKR_0_1.15_4
usemtl wood2
v 1.460000 1.862500 1.960000
v 1.460000 1.917500 1.960000
v 1.460000 1.862500 1.880000
v 1.460000 1.917500 1.880000
v 1.760000 1.862500 1.960000
v 1.760000 1.917500 1.960000
v 1.760000 1.862500 1.880000
v 1.760000 1.917500 1.880000
f 238 240 237
f 241 238 237
f 237 240 239
f 239 241 237
f 238 244 240
f 242 238 241
f 242 244 238
f 240 244 239
f 243 241 239
f 239 244 243
f 243 242 241
f 244 242 243

o WINDOW_1_-1.15
usemtl glass
v -1.525000 3.475000 1.910000
v -1.525000 4.525000 1.910000
v -1.525000 3.475000 1.850000
v -1.525000 4.525000 1.850000
v -0.775000 3.475000 1.910000
v -0.775000 4.525000 1.910000
v -0.775000 3.475000 1.850000
v -0.775000 4.525000 1.850000
f 246 248 245
f 249 246 245
f 245 248 247
f 247 249 245
f 246 252 248
f 250 246 249
f 250 252 246
f 248 252 247
f 251 249 247
f 247 252 251
f 251 250 249
f 252 250 251

o KREPYAK_1_-1.15_0
usemtl wood2
v -1.760000 3.632500 1.960000
v -1.760000 3.687500 1.960000
v -1.760000 3.632500 1.880000
v -1.760000 3.687500 1.880000
v -1.460000 3.632500 1.960000
v -1.460000 3.687500 1.960000
v -1.460000 3.632500 1.880000
v -1.460000 3.687500 1.880000
f 254 256 253
f 257 254 253
f 253 256 255
f 255 257 253
f 254 260 256
f 258 254 257
f 258 260 254
f 256 260 255
f 259 257 255
f 255 260 259
f 259 258 257
f 260 258 259

o KREPYAKR_1_-1.15_0
usemtl wood2
v -0.840000 3.632500 1.960000
v -0.840000 3.687500 1.960000
v -0.840000 3.632500 1.880000
v -0.840000 3.687500 1.880000
v -0.540000 3.632500 1.960000
v -0.540000 3.687500 1.960000
v -0.540000 3.632500 1.880000
v -0.540000 3.687500 1.880000
f 262 264 261
f 265 262 261
f 261 264 263
f 263 265 261
f 262 268 264
f 266 262 265
f 266 268 262
f 264 268 263
f 267 265 263
f 263 268 267
f 267 266 265
f 268 266 267

o KREPYAK_1_-1.15_1
usemtl wood2
v -1.760000 3.802500 1.960000
v -1.760000 3.857500 1.960000
v -1.760000 3.802500 1.880000
v -1.760000 3.857500 1.880000
v -1.460000 3.802500 1.960000
v -1.460000 3.857500 1.960000
v -1.460000 3.802500 1.880000
v -1.460000 3.857500 1.880000
f 270 272 269
f 273 270 269
f 269 272 271
f 271 273 269
f 270 276 272
f 274 270 273
f 274 276 270
f 272 276 271
f 275 273 271
f 271 276 275
f 275 274 273
f 276 274 275

o KREPYAKR_1_-1.15_1
usemtl wood2
v -0.840000 3.802500 1.960000
v -0.840000 3.857500 1.960000
v -0.840000 3.802500 1.880000
v -0.840000 3.857500 1.880000
v -0.540000 3.802500 1.960000
v -0.540000 3.857500 1.960000
v -0.540000 3.802500 1.880000
v -0.540000 3.857500 1.880000
f 278 280 277
f 281 278 277
f 277 280 279
f 279 281 277
f 278 284 280
f 282 278 281
f 282 284 278
f 280 284 279
f 283 281 279
f 279 284 283
f 283 282 281
f 284 282 283

o KREPYAK_1_-1.15_2
usemtl wood2
v -1.760000 3.972500 1.960000
v -1.760000 4.027500 1.960000
v -1.760000 3.972500 1.880000
v -1.760000 4.027500 1.880000
v -1.460000 3.972500 1.960000
v -1.460000 4.027500 1.960000
v -1.460000 3.972500 1.880000
v -1.460000 4.027500 1.880000
f 286 288 285
f 289 286 285
f 285 288 287
f 287 289 285
f 286 292 288
f 290 286 289
f 290 292 286
f 288 292 287
f 291 289 287
f 287 292 291
f 291 290 289
f 292 290 291

o KREPYAKR_1_-1.15_2
usemtl wood2
v -0.840000 3.972500 1.960000
v -0.840000 4.027500 1.960000
v -0.840000 3.972500 1.880000
v -0.840000 4.027500 1.880000
v -0.540000 3.972500 1.960000
v -0.540000 4.027500 1.960000
v -0.540000 3.972500 1.880000
v -0.540000 4.027500 1.880000
f 294 296 293
f 297 294 293
f 293 296 295
f 295 297 293
f 294 300 296
f 298 294 297
f 298 300 294
f 296 300 295
f 299 297 295
f 295 300 299
f 299 298 297
f 300 298 299

o KREPYAK_1_-1.15_3
usemtl wood2
v -1.760000 4.142500 1.960000
v -1.760000 4.197500 1.960000
v -1.760000 4.142500 1.880000
v -1.760000 4.197500 1.880000
v -1.460000 4.142500 1.960000
v -1.460000 4.197500 1.960000
v -1.460000 4.142500 1.880000
v -1.460000 4.197500 1.880000
f 302 304 301
f 305 302 301
f 301 304 303
f 303 305 301
f 302 308 304
f 306 302 305
f 306 308 302
f 304 308 303
f 307 305 303
f 303 308 307
f 307 306 305
f 308 306 307

o KREPYAKR_1_-1.15_3
usemtl wood2
v -0.840000 4.142500 1.960000
v -0.840000 4.197500 1.960000
v -0.840000 4.142500 1.880000
v -0.840000 4.197500 1.880000
v -0.540000 4.142500 1.960000
v -0.540000 4.197500 1.960000
v -0.540000 4.142500 1.880000
v -0.540000 4.197500 1.880000
f 310 312 309
f 313 310 309
f 309 312 311
f 311 313 309
f 310 316 312
f 314 310 313
f 314 316 310
f 312 316 311
f 315 313 311
f 311 316 315
f 315 314 313
f 316 314 315

o KREPYAK_1_-1.15_4
usemtl wood2
v -1.760000 4.312500 1.960000
v -1.760000 4.367500 1.960000
v -1.760000 4.312500 1.880000
v -1.760000 4.367500 1.880000
v -1.460000 4.312500 1.960000
v -1.460000 4.367500 1.960000
v -1.460000 4.312500 1.880000
v -1.460000 4.367500 1.880000
f 318 320 317
f 321 318 317
f 317 320 319
f 319 321 317
f 318 324 320
f 322 318 321
f 322 324 318
f 320 324 319
f 323 321 319
f 319 324 323
f 323 322 321
f 324 322 323

o KREPYAKR_1_-1.15_4
usemtl wood2
v -0.840000 4.312500 1.960000
v -0.840000 4.367500 1.960000
v -0.840000 4.312500 1.880000
v -0.840000 4.367500 1.880000
v -0.540000 4.312500 1.960000
v -0.540000 4.367500 1.960000
v -0.540000 4.312500 1.880000
v -0.540000 4.367500 1.880000
f 326 328 325
f 329 326 325
f 325 328 327
f 327 329 325
f 326 332 328
f 330 326 329
f 330 332 326
f 328 332 327
f 331 329 327
f 327 332 331
f 331 330 329
f 332 330 331

o WINDOW_1_1.15
usemtl glass
v 0.775000 3.475000 1.910000
v 0.775000 4.525000 1.910000
v 0.775000 3.475000 1.850000
v 0.775000 4.525000 1.850000
v 1.525000 3.475000 1.910000
v 1.525000 4.525000 1.910000
v 1.525000 3.475000 1.850000
v 1.525000 4.525000 1.850000
f 334 336 333
f 337 334 333
f 333 336 335
f 335 337 333
f 334 340 336
f 338 334 337
f 338 340 334
f 336 340 335
f 339 337 335
f 335 340 339
f 339 338 337
f 340 338 339

o KREPYAK_1_1.15_0
usemtl wood2
v 0.540000 3.632500 1.960000
v 0.540000 3.687500 1.960000
v 0.540000 3.632500 1.880000
v 0.540000 3.687500 1.880000
v 0.840000 3.632500 1.960000
v 0.840000 3.687500 1.960000
v 0.840000 3.632500 1.880000
v 0.840000 3.687500 1.880000
f 342 344 341
f 345 342 341
f 341 344 343
f 343 345 341
f 342 348 344
f 346 342 345
f 346 348 342
f 344 348 343
f 347 345 343
f 343 348 347
f 347 346 345
f 348 346 347

o KREPYAKR_1_1.15_0
usemtl wood2
v 1.460000 3.632500 1.960000
v 1.460000 3.687500 1.960000
v 1.460000 3.632500 1.880000
v 1.460000 3.687500 1.880000
v 1.760000 3.632500 1.960000
v 1.760000 3.687500 1.960000
v 1.760000 3.632500 1.880000
v 1.760000 3.687500 1.880000
f 350 352 349
f 353 350 349
f 349 352 351
f 351 353 349
f 350 356 352
f 354 350 353
f 354 356 350
f 352 356 351
f 355 353 351
f 351 356 355
f 355 354 353
f 356 354 355

o KREPYAK_1_1.15_1
usemtl wood2
v 0.540000 3.802500 1.960000
v 0.540000 3.857500 1.960000
v 0.540000 3.802500 1.880000
v 0.540000 3.857500 1.880000
v 0.840000 3.802500 1.960000
v 0.840000 3.857500 1.960000
v 0.840000 3.802500 1.880000
v 0.840000 3.857500 1.880000
f 358 360 357
f 361 358 357
f 357 360 359
f 359 361 357
f 358 364 360
f 362 358 361
f 362 364 358
f 360 364 359
f 363 361 359
f 359 364 363
f 363 362 361
f 364 362 363

o KREPYAKR_1_1.15_1
usemtl wood2
v 1.460000 3.802500 1.960000
v 1.460000 3.857500 1.960000
v 1.460000 3.802500 1.880000
v 1.460000 3.857500 1.880000
v 1.760000 3.802500 1.960000
v 1.760000 3.857500 1.960000
v 1.760000 3.802500 1.880000
v 1.760000 3.857500 1.880000
f 366 368 365
f 369 366 365
f 365 368 367
f 367 369 365
f 366 372 368
f 370 366 369
f 370 372 366
f 368 372 367
f 371 369 367
f 367 372 371
f 371 370 369
f 372 370 371

o KREPYAK_1_1.15_2
usemtl wood2
v 0.540000 3.972500 1.960000
v 0.540000 4.027500 1.960000
v 0.540000 3.972500 1.880000
v 0.540000 4.027500 1.880000
v 0.840000 3.972500 1.960000
v 0.840000 4.027500 1.960000
v 0.840000 3.972500 1.880000
v 0.840000 4.027500 1.880000
f 374 376 373
f 377 374 373
f 373 376 375
f 375 377 373
f 374 380 376
f 378 374 377
f 378 380 374
f 376 380 375
f 379 377 375
f 375 380 379
f 379 378 377
f 380 378 379

o KREPYAKR_1_1.15_2
usemtl wood2
v 1.460000 3.972500 1.960000
v 1.460000 4.027500 1.960000
v 1.460000 3.972500 1.880000
v 1.460000 4.027500 1.880000
v 1.760000 3.972500 1.960000
v 1.760000 4.027500 1.960000
v 1.760000 3.972500 1.880000
v 1.760000 4.027500 1.880000
f 382 384 381
f 385 382 381
f 381 384 383
f 383 385 381
f 382 388 384
f 386 382 385
f 386 388 382
f 384 388 383
f 387 385 383
f 383 388 387
f 387 386 385
f 388 386 387

o KREPYAK_1_1.15_3
usemtl wood2
v 0.540000 4.142500 1.960000
v 0.540000 4.197500 1.960000
v 0.540000 4.142500 1.880000
v 0.540000 4.197500 1.880000
v 0.840000 4.142500 1.960000
v 0.840000 4.197500 1.960000
v 0.840000 4.142500 1.880000
v 0.840000 4.197500 1.880000
f 390 392 389
f 393 390 389
f 389 392 391
f 391 393 389
f 390 396 392
f 394 390 393
f 394 396 390
f 392 396 391
f 395 393 391
f 391 396 395
f 395 394 393
f 396 394 395

o KREPYAKR_1_1.15_3
usemtl wood2
v 1.460000 4.142500 1.960000
v 1.460000 4.197500 1.960000
v 1.460000 4.142500 1.880000
v 1.460000 4.197500 1.880000
v 1.760000 4.142500 1.960000
v 1.760000 4.197500 1.960000
v 1.760000 4.142500 1.880000
v 1.760000 4.197500 1.880000
f 398 400 397
f 401 398 397
f 397 400 399
f 399 401 397
f 398 404 400
f 402 398 401
f 402 404 398
f 400 404 399
f 403 401 399
f 399 404 403
f 403 402 401
f 404 402 403

o KREPYAK_1_1.15_4
usemtl wood2
v 0.540000 4.312500 1.960000
v 0.540000 4.367500 1.960000
v 0.540000 4.312500 1.880000
v 0.540000 4.367500 1.880000
v 0.840000 4.312500 1.960000
v 0.840000 4.367500 1.960000
v 0.840000 4.312500 1.880000
v 0.840000 4.367500 1.880000
f 406 408 405
f 409 406 405
f 405 408 407
f 407 409 405
f 406 412 408
f 410 406 409
f 410 412 406
f 408 412 407
f 411 409 407
f 407 412 411
f 411 410 409
f 412 410 411

o KREPYAKR_1_1.15_4
usemtl wood2
v 1.460000 4.312500 1.960000
v 1.460000 4.367500 1.960000
v 1.460000 4.312500 1.880000
v 1.460000 4.367500 1.880000
v 1.760000 4.312500 1.960000
v 1.760000 4.367500 1.960000
v 1.760000 4.312500 1.880000
v 1.760000 4.367500 1.880000
f 414 416 413
f 417 414 413
f 413 416 415
f 415 417 413
f 414 420 416
f 418 414 417
f 418 420 414
f 416 420 415
f 419 417 415
f 415 420 419
f 419 418 417
f 420 418 419

o CORNICE_5.72
usemtl stone
v -1.975000 5.610000 1.975000
v -1.975000 5.830000 1.975000
v -1.975000 5.610000 -1.975000
v -1.975000 5.830000 -1.975000
v 1.975000 5.610000 1.975000
v 1.975000 5.830000 1.975000
v 1.975000 5.610000 -1.975000
v 1.975000 5.830000 -1.975000
f 422 424 421
f 425 422 421
f 421 424 423
f 423 425 421
f 422 428 424
f 426 422 425
f 426 428 422
f 424 428 423
f 427 425 423
f 423 428 427
f 427 426 425
f 428 426 427

o CORNICE_5.95
usemtl stone
v -2.090000 5.840000 2.090000
v -2.090000 6.060000 2.090000
v -2.090000 5.840000 -2.090000
v -2.090000 6.060000 -2.090000
v 2.090000 5.840000 2.090000
v 2.090000 6.060000 2.090000
v 2.090000 5.840000 -2.090000
v 2.090000 6.060000 -2.090000
f 430 432 429
f 433 430 429
f 429 432 431
f 431 433 429
f 430 436 432
f 434 430 433
f 434 436 430
f 432 436 431
f 435 433 431
f 431 436 435
f 435 434 433
f 436 434 435

o TILE_ROOF
usemtl roof
v -2.175000 6.030000 2.175000
v 2.175000 6.030000 2.175000
v 2.175000 6.030000 -2.175000
v -2.175000 6.030000 -2.175000
v 0.000000 7.330000 0.000000
f 437 438 441
f 438 439 441
f 439 440 441
f 440 437 441
f 437 440 439
f 437 439 438

o CUPOLA_BASE
usemtl stone2
v 0.000000 7.280000 0.000000
v 0.480000 7.280000 0.000000
v 0.480000 7.680000 0.000000
v 0.000000 7.680000 0.000000
v 0.415692 7.280000 -0.240000
v 0.415692 7.680000 -0.240000
v 0.240000 7.280000 -0.415692
v 0.240000 7.680000 -0.415692
v 0.000000 7.280000 -0.480000
v 0.000000 7.680000 -0.480000
v -0.240000 7.280000 -0.415692
v -0.240000 7.680000 -0.415692
v -0.415692 7.280000 -0.240000
v -0.415692 7.680000 -0.240000
v -0.480000 7.280000 0.000000
v -0.480000 7.680000 0.000000
v -0.415692 7.280000 0.240000
v -0.415692 7.680000 0.240000
v -0.240000 7.280000 0.415692
v -0.240000 7.680000 0.415692
v -0.000000 7.280000 0.480000
v -0.000000 7.680000 0.480000
v 0.240000 7.280000 0.415692
v 0.240000 7.680000 0.415692
v 0.415692 7.280000 0.240000
v 0.415692 7.680000 0.240000
f 443 442 446
f 443 446 444
f 444 446 447
f 444 447 445
f 446 442 448
f 446 448 447
f 447 448 449
f 447 449 445
f 448 442 450
f 448 450 449
f 449 450 451
f 449 451 445
f 450 442 452
f 450 452 451
f 451 452 453
f 451 453 445
f 452 442 454
f 452 454 453
f 453 454 455
f 453 455 445
f 454 442 456
f 454 456 455
f 455 456 457
f 455 457 445
f 456 442 458
f 456 458 457
f 457 458 459
f 457 459 445
f 458 442 460
f 458 460 459
f 459 460 461
f 459 461 445
f 460 442 462
f 460 462 461
f 461 462 463
f 461 463 445
f 462 442 464
f 462 464 463
f 463 464 465
f 463 465 445
f 464 442 466
f 464 466 465
f 465 466 467
f 465 467 445
f 466 442 443
f 466 443 467
f 467 443 444
f 467 444 445

o CUPOLA_ROOF
usemtl roofdark
v 0.000000 7.920000 0.000000
v 0.700000 7.920000 0.000000
v 0.000000 8.470000 0.000000
v 0.494975 7.920000 -0.494975
v 0.000000 7.920000 -0.700000
v -0.494975 7.920000 -0.494975
v -0.700000 7.920000 0.000000
v -0.494975 7.920000 0.494975
v -0.000000 7.920000 0.700000
v 0.494975 7.920000 0.494975
f 469 468 471
f 469 471 470
f 471 468 472
f 471 472 470
f 472 468 473
f 472 473 470
f 473 468 474
f 473 474 470
f 474 468 475
f 474 475 470
f 475 468 476
f 475 476 470
f 476 468 477
f 476 477 470
f 477 468 469
f 477 469 470
