# Negara Konoha — MotorBebek
# Original fictional game asset, Nusantara/Indonesia-inspired.
# 1 OBJ unit = 1 meter. Y-up. Intended front = +Z in Unity.
mtllib MotorBebek.mtl

o WHEEL_-0.46
usemtl black
v 0.000000 -0.025000 0.460000
v 0.030311 -0.007500 0.460000
v 0.030311 0.027500 0.460000
v 0.000000 0.045000 0.460000
v -0.030311 0.027500 0.460000
v -0.030311 -0.007500 0.460000
v 0.000000 -0.005589 0.362416
v 0.030311 0.010579 0.369113
v 0.030311 0.042914 0.382507
v 0.000000 0.059082 0.389204
v -0.030311 0.042914 0.382507
v -0.030311 0.010579 0.369113
v 0.000000 0.049688 0.279688
v 0.030311 0.062062 0.292062
v 0.030311 0.086811 0.316811
v 0.000000 0.099185 0.329185
v -0.030311 0.086811 0.316811
v -0.030311 0.062062 0.292062
v 0.000000 0.132416 0.224411
v 0.030311 0.139113 0.240579
v 0.030311 0.152507 0.272914
v 0.000000 0.159204 0.289082
v -0.030311 0.152507 0.272914
v -0.030311 0.139113 0.240579
v 0.000000 0.230000 0.205000
v 0.030311 0.230000 0.222500
v 0.030311 0.230000 0.257500
v 0.000000 0.230000 0.275000
v -0.030311 0.230000 0.257500
v -0.030311 0.230000 0.222500
v -0.000000 0.327584 0.224411
v 0.030311 0.320887 0.240579
v 0.030311 0.307493 0.272914
v -0.000000 0.300796 0.289082
v -0.030311 0.307493 0.272914
v -0.030311 0.320887 0.240579
v -0.000000 0.410312 0.279688
v 0.030311 0.397938 0.292062
v 0.030311 0.373189 0.316811
v -0.000000 0.360815 0.329185
v -0.030311 0.373189 0.316811
v -0.030311 0.397938 0.292062
v -0.000000 0.465589 0.362416
v 0.030311 0.449421 0.369113
v 0.030311 0.417086 0.382507
v -0.000000 0.400918 0.389204
v -0.030311 0.417086 0.382507
v -0.030311 0.449421 0.369113
v -0.000000 0.485000 0.460000
v 0.030311 0.467500 0.460000
v 0.030311 0.432500 0.460000
v -0.000000 0.415000 0.460000
v -0.030311 0.432500 0.460000
v -0.030311 0.467500 0.460000
v -0.000000 0.465589 0.557584
v 0.030311 0.449421 0.550887
v 0.030311 0.417086 0.537493
v -0.000000 0.400918 0.530796
v -0.030311 0.417086 0.537493
v -0.030311 0.449421 0.550887
v -0.000000 0.410312 0.640312
v 0.030311 0.397938 0.627938
v 0.030311 0.373189 0.603189
v -0.000000 0.360815 0.590815
v -0.030311 0.373189 0.603189
v -0.030311 0.397938 0.627938
v -0.000000 0.327584 0.695589
v 0.030311 0.320887 0.679421
v 0.030311 0.307493 0.647086
v -0.000000 0.300796 0.630918
v -0.030311 0.307493 0.647086
v -0.030311 0.320887 0.679421
v -0.000000 0.230000 0.715000
v 0.030311 0.230000 0.697500
v 0.030311 0.230000 0.662500
v 0.000000 0.230000 0.645000
v -0.030311 0.230000 0.662500
v -0.030311 0.230000 0.697500
v 0.000000 0.132416 0.695589
v 0.030311 0.139113 0.679421
v 0.030311 0.152507 0.647086
v 0.000000 0.159204 0.630918
v -0.030311 0.152507 0.647086
v -0.030311 0.139113 0.679421
v 0.000000 0.049688 0.640312
v 0.030311 0.062062 0.627938
v 0.030311 0.086811 0.603189
v 0.000000 0.099185 0.590815
v -0.030311 0.086811 0.603189
v -0.030311 0.062062 0.627938
v 0.000000 -0.005589 0.557584
v 0.030311 0.010579 0.550887
v 0.030311 0.042914 0.537493
v 0.000000 0.059082 0.530796
v -0.030311 0.042914 0.537493
v -0.030311 0.010579 0.550887
f 1 7 2
f 2 7 8
f 2 8 3
f 3 8 9
f 3 9 4
f 4 9 10
f 4 10 5
f 5 10 11
f 5 11 6
f 6 11 12
f 6 12 1
f 1 12 7
f 7 13 8
f 8 13 14
f 8 14 9
f 9 14 15
f 9 15 10
f 10 15 16
f 10 16 11
f 11 16 17
f 11 17 12
f 12 17 18
f 12 18 7
f 7 18 13
f 13 19 14
f 14 19 20
f 14 20 15
f 15 20 21
f 15 21 16
f 16 21 22
f 16 22 17
f 17 22 23
f 17 23 18
f 18 23 24
f 18 24 13
f 13 24 19
f 19 25 20
f 20 25 26
f 20 26 21
f 21 26 27
f 21 27 22
f 22 27 28
f 22 28 23
f 23 28 29
f 23 29 24
f 24 29 30
f 24 30 19
f 19 30 25
f 25 31 26
f 26 31 32
f 26 32 27
f 27 32 33
f 27 33 28
f 28 33 34
f 28 34 29
f 29 34 35
f 29 35 30
f 30 35 36
f 30 36 25
f 25 36 31
f 31 37 32
f 32 37 38
f 32 38 33
f 33 38 39
f 33 39 34
f 34 39 40
f 34 40 35
f 35 40 41
f 35 41 36
f 36 41 42
f 36 42 31
f 31 42 37
f 37 43 38
f 38 43 44
f 38 44 39
f 39 44 45
f 39 45 40
f 40 45 46
f 40 46 41
f 41 46 47
f 41 47 42
f 42 47 48
f 42 48 37
f 37 48 43
f 43 49 44
f 44 49 50
f 44 50 45
f 45 50 51
f 45 51 46
f 46 51 52
f 46 52 47
f 47 52 53
f 47 53 48
f 48 53 54
f 48 54 43
f 43 54 49
f 49 55 50
f 50 55 56
f 50 56 51
f 51 56 57
f 51 57 52
f 52 57 58
f 52 58 53
f 53 58 59
f 53 59 54
f 54 59 60
f 54 60 49
f 49 60 55
f 55 61 56
f 56 61 62
f 56 62 57
f 57 62 63
f 57 63 58
f 58 63 64
f 58 64 59
f 59 64 65
f 59 65 60
f 60 65 66
f 60 66 55
f 55 66 61
f 61 67 62
f 62 67 68
f 62 68 63
f 63 68 69
f 63 69 64
f 64 69 70
f 64 70 65
f 65 70 71
f 65 71 66
f 66 71 72
f 66 72 61
f 61 72 67
f 67 73 68
f 68 73 74
f 68 74 69
f 69 74 75
f 69 75 70
f 70 75 76
f 70 76 71
f 71 76 77
f 71 77 72
f 72 77 78
f 72 78 67
f 67 78 73
f 73 79 74
f 74 79 80
f 74 80 75
f 75 80 81
f 75 81 76
f 76 81 82
f 76 82 77
f 77 82 83
f 77 83 78
f 78 83 84
f 78 84 73
f 73 84 79
f 79 85 80
f 80 85 86
f 80 86 81
f 81 86 87
f 81 87 82
f 82 87 88
f 82 88 83
f 83 88 89
f 83 89 84
f 84 89 90
f 84 90 79
f 79 90 85
f 85 91 86
f 86 91 92
f 86 92 87
f 87 92 93
f 87 93 88
f 88 93 94
f 88 94 89
f 89 94 95
f 89 95 90
f 90 95 96
f 90 96 85
f 85 96 91
f 91 1 92
f 92 1 2
f 92 2 93
f 93 2 3
f 93 3 94
f 94 3 4
f 94 4 95
f 95 4 5
f 95 5 96
f 96 5 6
f 96 6 91
f 91 6 1

o HUB_-0.46
usemtl silver
v -0.110000 0.230000 0.460000
v -0.110000 0.180000 0.460000
v 0.110000 0.180000 0.460000
v 0.110000 0.230000 0.460000
v -0.110000 0.194645 0.424645
v 0.110000 0.194645 0.424645
v -0.110000 0.230000 0.410000
v 0.110000 0.230000 0.410000
v -0.110000 0.265355 0.424645
v 0.110000 0.265355 0.424645
v -0.110000 0.280000 0.460000
v 0.110000 0.280000 0.460000
v -0.110000 0.265355 0.495355
v 0.110000 0.265355 0.495355
v -0.110000 0.230000 0.510000
v 0.110000 0.230000 0.510000
v -0.110000 0.194645 0.495355
v 0.110000 0.194645 0.495355
f 98 97 101
f 98 101 99
f 99 101 102
f 99 102 100
f 101 97 103
f 101 103 102
f 102 103 104
f 102 104 100
f 103 97 105
f 103 105 104
f 104 105 106
f 104 106 100
f 105 97 107
f 105 107 106
f 106 107 108
f 106 108 100
f 107 97 109
f 107 109 108
f 108 109 110
f 108 110 100
f 109 97 111
f 109 111 110
f 110 111 112
f 110 112 100
f 111 97 113
f 111 113 112
f 112 113 114
f 112 114 100
f 113 97 98
f 113 98 114
f 114 98 99
f 114 99 100

o WHEEL_0.47
usemtl black
v 0.000000 -0.025000 -0.470000
v 0.030311 -0.007500 -0.470000
v 0.030311 0.027500 -0.470000
v 0.000000 0.045000 -0.470000
v -0.030311 0.027500 -0.470000
v -0.030311 -0.007500 -0.470000
v 0.000000 -0.005589 -0.567584
v 0.030311 0.010579 -0.560887
v 0.030311 0.042914 -0.547493
v 0.000000 0.059082 -0.540796
v -0.030311 0.042914 -0.547493
v -0.030311 0.010579 -0.560887
v 0.000000 0.049688 -0.650312
v 0.030311 0.062062 -0.637938
v 0.030311 0.086811 -0.613189
v 0.000000 0.099185 -0.600815
v -0.030311 0.086811 -0.613189
v -0.030311 0.062062 -0.637938
v 0.000000 0.132416 -0.705589
v 0.030311 0.139113 -0.689421
v 0.030311 0.152507 -0.657086
v 0.000000 0.159204 -0.640918
v -0.030311 0.152507 -0.657086
v -0.030311 0.139113 -0.689421
v 0.000000 0.230000 -0.725000
v 0.030311 0.230000 -0.707500
v 0.030311 0.230000 -0.672500
v 0.000000 0.230000 -0.655000
v -0.030311 0.230000 -0.672500
v -0.030311 0.230000 -0.707500
v -0.000000 0.327584 -0.705589
v 0.030311 0.320887 -0.689421
v 0.030311 0.307493 -0.657086
v -0.000000 0.300796 -0.640918
v -0.030311 0.307493 -0.657086
v -0.030311 0.320887 -0.689421
v -0.000000 0.410312 -0.650312
v 0.030311 0.397938 -0.637938
v 0.030311 0.373189 -0.613189
v -0.000000 0.360815 -0.600815
v -0.030311 0.373189 -0.613189
v -0.030311 0.397938 -0.637938
v -0.000000 0.465589 -0.567584
v 0.030311 0.449421 -0.560887
v 0.030311 0.417086 -0.547493
v -0.000000 0.400918 -0.540796
v -0.030311 0.417086 -0.547493
v -0.030311 0.449421 -0.560887
v -0.000000 0.485000 -0.470000
v 0.030311 0.467500 -0.470000
v 0.030311 0.432500 -0.470000
v -0.000000 0.415000 -0.470000
v -0.030311 0.432500 -0.470000
v -0.030311 0.467500 -0.470000
v -0.000000 0.465589 -0.372416
v 0.030311 0.449421 -0.379113
v 0.030311 0.417086 -0.392507
v -0.000000 0.400918 -0.399204
v -0.030311 0.417086 -0.392507
v -0.030311 0.449421 -0.379113
v -0.000000 0.410312 -0.289688
v 0.030311 0.397938 -0.302062
v 0.030311 0.373189 -0.326811
v -0.000000 0.360815 -0.339185
v -0.030311 0.373189 -0.326811
v -0.030311 0.397938 -0.302062
v -0.000000 0.327584 -0.234411
v 0.030311 0.320887 -0.250579
v 0.030311 0.307493 -0.282914
v -0.000000 0.300796 -0.299082
v -0.030311 0.307493 -0.282914
v -0.030311 0.320887 -0.250579
v -0.000000 0.230000 -0.215000
v 0.030311 0.230000 -0.232500
v 0.030311 0.230000 -0.267500
v 0.000000 0.230000 -0.285000
v -0.030311 0.230000 -0.267500
v -0.030311 0.230000 -0.232500
v 0.000000 0.132416 -0.234411
v 0.030311 0.139113 -0.250579
v 0.030311 0.152507 -0.282914
v 0.000000 0.159204 -0.299082
v -0.030311 0.152507 -0.282914
v -0.030311 0.139113 -0.250579
v 0.000000 0.049688 -0.289688
v 0.030311 0.062062 -0.302062
v 0.030311 0.086811 -0.326811
v 0.000000 0.099185 -0.339185
v -0.030311 0.086811 -0.326811
v -0.030311 0.062062 -0.302062
v 0.000000 -0.005589 -0.372416
v 0.030311 0.010579 -0.379113
v 0.030311 0.042914 -0.392507
v 0.000000 0.059082 -0.399204
v -0.030311 0.042914 -0.392507
v -0.030311 0.010579 -0.379113
f 115 121 116
f 116 121 122
f 116 122 117
f 117 122 123
f 117 123 118
f 118 123 124
f 118 124 119
f 119 124 125
f 119 125 120
f 120 125 126
f 120 126 115
f 115 126 121
f 121 127 122
f 122 127 128
f 122 128 123
f 123 128 129
f 123 129 124
f 124 129 130
f 124 130 125
f 125 130 131
f 125 131 126
f 126 131 132
f 126 132 121
f 121 132 127
f 127 133 128
f 128 133 134
f 128 134 129
f 129 134 135
f 129 135 130
f 130 135 136
f 130 136 131
f 131 136 137
f 131 137 132
f 132 137 138
f 132 138 127
f 127 138 133
f 133 139 134
f 134 139 140
f 134 140 135
f 135 140 141
f 135 141 136
f 136 141 142
f 136 142 137
f 137 142 143
f 137 143 138
f 138 143 144
f 138 144 133
f 133 144 139
f 139 145 140
f 140 145 146
f 140 146 141
f 141 146 147
f 141 147 142
f 142 147 148
f 142 148 143
f 143 148 149
f 143 149 144
f 144 149 150
f 144 150 139
f 139 150 145
f 145 151 146
f 146 151 152
f 146 152 147
f 147 152 153
f 147 153 148
f 148 153 154
f 148 154 149
f 149 154 155
f 149 155 150
f 150 155 156
f 150 156 145
f 145 156 151
f 151 157 152
f 152 157 158
f 152 158 153
f 153 158 159
f 153 159 154
f 154 159 160
f 154 160 155
f 155 160 161
f 155 161 156
f 156 161 162
f 156 162 151
f 151 162 157
f 157 163 158
f 158 163 164
f 158 164 159
f 159 164 165
f 159 165 160
f 160 165 166
f 160 166 161
f 161 166 167
f 161 167 162
f 162 167 168
f 162 168 157
f 157 168 163
f 163 169 164
f 164 169 170
f 164 170 165
f 165 170 171
f 165 171 166
f 166 171 172
f 166 172 167
f 167 172 173
f 167 173 168
f 168 173 174
f 168 174 163
f 163 174 169
f 169 175 170
f 170 175 176
f 170 176 171
f 171 176 177
f 171 177 172
f 172 177 178
f 172 178 173
f 173 178 179
f 173 179 174
f 174 179 180
f 174 180 169
f 169 180 175
f 175 181 176
f 176 181 182
f 176 182 177
f 177 182 183
f 177 183 178
f 178 183 184
f 178 184 179
f 179 184 185
f 179 185 180
f 180 185 186
f 180 186 175
f 175 186 181
f 181 187 182
f 182 187 188
f 182 188 183
f 183 188 189
f 183 189 184
f 184 189 190
f 184 190 185
f 185 190 191
f 185 191 186
f 186 191 192
f 186 192 181
f 181 192 187
f 187 193 188
f 188 193 194
f 188 194 189
f 189 194 195
f 189 195 190
f 190 195 196
f 190 196 191
f 191 196 197
f 191 197 192
f 192 197 198
f 192 198 187
f 187 198 193
f 193 199 194
f 194 199 200
f 194 200 195
f 195 200 201
f 195 201 196
f 196 201 202
f 196 202 197
f 197 202 203
f 197 203 198
f 198 203 204
f 198 204 193
f 193 204 199
f 199 205 200
f 200 205 206
f 200 206 201
f 201 206 207
f 201 207 202
f 202 207 208
f 202 208 203
f 203 208 209
f 203 209 204
f 204 209 210
f 204 210 199
f 199 210 205
f 205 115 206
f 206 115 116
f 206 116 207
f 207 116 117
f 207 117 208
f 208 117 118
f 208 118 209
f 209 118 119
f 209 119 210
f 210 119 120
f 210 120 205
f 205 120 115

o HUB_0.47
usemtl silver
v -0.110000 0.230000 -0.470000
v -0.110000 0.180000 -0.470000
v 0.110000 0.180000 -0.470000
v 0.110000 0.230000 -0.470000
v -0.110000 0.194645 -0.505355
v 0.110000 0.194645 -0.505355
v -0.110000 0.230000 -0.520000
v 0.110000 0.230000 -0.520000
v -0.110000 0.265355 -0.505355
v 0.110000 0.265355 -0.505355
v -0.110000 0.280000 -0.470000
v 0.110000 0.280000 -0.470000
v -0.110000 0.265355 -0.434645
v 0.110000 0.265355 -0.434645
v -0.110000 0.230000 -0.420000
v 0.110000 0.230000 -0.420000
v -0.110000 0.194645 -0.434645
v 0.110000 0.194645 -0.434645
f 212 211 215
f 212 215 213
f 213 215 216
f 213 216 214
f 215 211 217
f 215 217 216
f 216 217 218
f 216 218 214
f 217 211 219
f 217 219 218
f 218 219 220
f 218 220 214
f 219 211 221
f 219 221 220
f 220 221 222
f 220 222 214
f 221 211 223
f 221 223 222
f 222 223 224
f 222 224 214
f 223 211 225
f 223 225 224
f 224 225 226
f 224 226 214
f 225 211 227
f 225 227 226
f 226 227 228
f 226 228 214
f 227 211 212
f 227 212 228
f 228 212 213
f 228 213 214

o FRAME1
usemtl red
v 0.000000 0.330000 -0.380000
v 0.055000 0.330000 -0.380000
v 0.055000 0.550000 0.150000
v 0.000000 0.550000 0.150000
v 0.034292 0.369715 -0.396486
v 0.034292 0.589715 0.133514
v -0.012239 0.379524 -0.400557
v -0.012239 0.599524 0.129443
v -0.049553 0.352040 -0.389149
v -0.049553 0.572040 0.140851
v -0.049553 0.307960 -0.370851
v -0.049553 0.527960 0.159149
v -0.012239 0.280476 -0.359443
v -0.012239 0.500476 0.170557
v 0.034292 0.290285 -0.363514
v 0.034292 0.510285 0.166486
f 230 229 233
f 230 233 231
f 231 233 234
f 231 234 232
f 233 229 235
f 233 235 234
f 234 235 236
f 234 236 232
f 235 229 237
f 235 237 236
f 236 237 238
f 236 238 232
f 237 229 239
f 237 239 238
f 238 239 240
f 238 240 232
f 239 229 241
f 239 241 240
f 240 241 242
f 240 242 232
f 241 229 243
f 241 243 242
f 242 243 244
f 242 244 232
f 243 229 230
f 243 230 244
f 244 230 231
f 244 231 232

o FRAME2
usemtl red
v 0.000000 0.550000 0.150000
v 0.050000 0.550000 0.150000
v 0.050000 0.350000 0.400000
v 0.000000 0.350000 0.400000
v 0.031174 0.580525 0.174420
v 0.031174 0.380525 0.424420
v -0.011126 0.588065 0.180452
v -0.011126 0.388065 0.430452
v -0.045048 0.566940 0.163552
v -0.045048 0.366940 0.413552
v -0.045048 0.533060 0.136448
v -0.045048 0.333060 0.386448
v -0.011126 0.511935 0.119548
v -0.011126 0.311935 0.369548
v 0.031174 0.519475 0.125580
v 0.031174 0.319475 0.375580
f 246 245 249
f 246 249 247
f 247 249 250
f 247 250 248
f 249 245 251
f 249 251 250
f 250 251 252
f 250 252 248
f 251 245 253
f 251 253 252
f 252 253 254
f 252 254 248
f 253 245 255
f 253 255 254
f 254 255 256
f 254 256 248
f 255 245 257
f 255 257 256
f 256 257 258
f 256 258 248
f 257 245 259
f 257 259 258
f 258 259 260
f 258 260 248
f 259 245 246
f 259 246 260
f 260 246 247
f 260 247 248

o ENGINE
usemtl metal
v -0.165000 0.280000 0.060000
v -0.165000 0.580000 0.060000
v -0.165000 0.280000 -0.260000
v -0.165000 0.580000 -0.260000
v 0.165000 0.280000 0.060000
v 0.165000 0.580000 0.060000
v 0.165000 0.280000 -0.260000
v 0.165000 0.580000 -0.260000
f 262 264 261
f 265 262 261
f 261 264 263
f 263 265 261
f 262 268 264
f 266 262 265
f 266 268 262
f 264 268 263
f 267 265 263
f 263 268 267
f 267 266 265
f 268 266 267

o LEG_SHIELD
usemtl white
v -0.154749 0.465893 0.300000
v -0.221552 0.941221 0.300000
v -0.154749 0.465893 0.100000
v -0.221552 0.941221 0.100000
v 0.221552 0.518779 0.300000
v 0.154749 0.994107 0.300000
v 0.221552 0.518779 0.100000
v 0.154749 0.994107 0.100000
f 270 272 269
f 273 270 269
f 269 272 271
f 271 273 269
f 270 276 272
f 274 270 273
f 274 276 270
f 272 276 271
f 275 273 271
f 271 276 275
f 275 274 273
f 276 274 275

o SEAT
usemtl black
v -0.166098 0.818263 0.030000
v -0.173074 0.918020 0.030000
v -0.166098 0.818263 -0.470000
v -0.173074 0.918020 -0.470000
v 0.173074 0.841980 0.030000
v 0.166098 0.941737 0.030000
v 0.173074 0.841980 -0.470000
v 0.166098 0.941737 -0.470000
f 278 280 277
f 281 278 277
f 277 280 279
f 279 281 277
f 278 284 280
f 282 278 281
f 282 284 278
f 280 284 279
f 283 281 279
f 279 284 283
f 283 282 281
f 284 282 283

o FORK
usemtl silver
v 0.000000 0.280000 0.430000
v 0.035000 0.280000 0.430000
v 0.035000 0.920000 0.330000
v 0.000000 0.920000 0.330000
v 0.017500 0.275321 0.400052
v 0.017500 0.915321 0.300052
v -0.017500 0.275321 0.400052
v -0.017500 0.915321 0.300052
v -0.035000 0.280000 0.430000
v -0.035000 0.920000 0.330000
v -0.017500 0.284679 0.459948
v -0.017500 0.924679 0.359948
v 0.017500 0.284679 0.459948
v 0.017500 0.924679 0.359948
f 286 285 289
f 286 289 287
f 287 289 290
f 287 290 288
f 289 285 291
f 289 291 290
f 290 291 292
f 290 292 288
f 291 285 293
f 291 293 292
f 292 293 294
f 292 294 288
f 293 285 295
f 293 295 294
f 294 295 296
f 294 296 288
f 295 285 297
f 295 297 296
f 296 297 298
f 296 298 288
f 297 285 286
f 297 286 298
f 298 286 287
f 298 287 288

o HANDLE
usemtl metal
v -0.230000 1.000000 0.350000
v -0.230000 0.975000 0.350000
v 0.230000 0.975000 0.350000
v 0.230000 1.000000 0.350000
v -0.230000 0.987500 0.328349
v 0.230000 0.987500 0.328349
v -0.230000 1.012500 0.328349
v 0.230000 1.012500 0.328349
v -0.230000 1.025000 0.350000
v 0.230000 1.025000 0.350000
v -0.230000 1.012500 0.371651
v 0.230000 1.012500 0.371651
v -0.230000 0.987500 0.371651
v 0.230000 0.987500 0.371651
f 300 299 303
f 300 303 301
f 301 303 304
f 301 304 302
f 303 299 305
f 303 305 304
f 304 305 306
f 304 306 302
f 305 299 307
f 305 307 306
f 306 307 308
f 306 308 302
f 307 299 309
f 307 309 308
f 308 309 310
f 308 310 302
f 309 299 311
f 309 311 310
f 310 311 312
f 310 312 302
f 311 299 300
f 311 300 312
f 312 300 301
f 312 301 302

o HEADLAMP
usemtl cream
v -0.059145 0.940000 0.366409
v 0.059145 0.940000 0.366409
v -0.059145 0.940000 0.473591
v 0.059145 0.940000 0.473591
v 0.000000 1.016559 0.453121
v 0.000000 1.016559 0.386879
v 0.000000 0.863441 0.453121
v 0.000000 0.863441 0.386879
v 0.095698 0.892684 0.420000
v 0.095698 0.987316 0.420000
v -0.095698 0.892684 0.420000
v -0.095698 0.987316 0.420000
v 0.000000 0.940000 0.357000
v 0.000000 0.940000 0.483000
v -0.034764 0.985000 0.470968
v 0.034764 0.985000 0.470968
v -0.034764 0.985000 0.369032
v 0.034764 0.985000 0.369032
v 0.000000 1.030000 0.420000
v -0.034764 0.895000 0.470968
v 0.034764 0.895000 0.470968
v -0.034764 0.895000 0.369032
v 0.034764 0.895000 0.369032
v 0.000000 0.850000 0.420000
v 0.091014 0.912188 0.388500
v 0.091014 0.912188 0.451500
v 0.056250 0.867188 0.439468
v 0.056250 0.867188 0.400532
v 0.091014 0.967812 0.388500
v 0.091014 0.967812 0.451500
v 0.056250 1.012812 0.439468
v 0.056250 1.012812 0.400532
v 0.112500 0.940000 0.420000
v -0.091014 0.912188 0.388500
v -0.091014 0.912188 0.451500
v -0.056250 0.867188 0.439468
v -0.056250 0.867188 0.400532
v -0.091014 0.967812 0.388500
v -0.091014 0.967812 0.451500
v -0.056250 1.012812 0.439468
v -0.056250 1.012812 0.400532
v -0.112500 0.940000 0.420000
f 313 350 329
f 350 324 353
f 329 353 318
f 350 353 329
f 313 329 325
f 329 318 330
f 325 330 314
f 329 330 325
f 313 325 334
f 325 314 335
f 334 335 320
f 325 335 334
f 313 334 346
f 334 320 349
f 346 349 323
f 334 349 346
f 313 346 350
f 346 323 354
f 350 354 324
f 346 354 350
f 314 330 341
f 330 318 344
f 341 344 322
f 330 344 341
f 318 353 331
f 353 324 352
f 331 352 317
f 353 352 331
f 324 354 351
f 354 323 347
f 351 347 315
f 354 347 351
f 323 349 348
f 349 320 336
f 348 336 319
f 349 336 348
f 320 335 340
f 335 314 337
f 340 337 321
f 335 337 340
f 316 342 328
f 342 322 343
f 328 343 317
f 342 343 328
f 316 328 326
f 328 317 327
f 326 327 315
f 328 327 326
f 316 326 333
f 326 315 332
f 333 332 319
f 326 332 333
f 316 333 338
f 333 319 339
f 338 339 321
f 333 339 338
f 316 338 342
f 338 321 345
f 342 345 322
f 338 345 342
f 317 343 331
f 343 322 344
f 331 344 318
f 343 344 331
f 315 327 351
f 327 317 352
f 351 352 324
f 327 352 351
f 319 332 348
f 332 315 347
f 348 347 323
f 332 347 348
f 321 339 340
f 339 319 336
f 340 336 320
f 339 336 340
f 322 345 341
f 345 321 337
f 341 337 314
f 345 337 341

o TAIL_RED
usemtl red
v -0.090000 0.755000 -0.490000
v -0.090000 0.845000 -0.490000
v -0.090000 0.755000 -0.550000
v -0.090000 0.845000 -0.550000
v 0.090000 0.755000 -0.490000
v 0.090000 0.845000 -0.490000
v 0.090000 0.755000 -0.550000
v 0.090000 0.845000 -0.550000
f 356 358 355
f 359 356 355
f 355 358 357
f 357 359 355
f 356 362 358
f 360 356 359
f 360 362 356
f 358 362 357
f 361 359 357
f 357 362 361
f 361 360 359
f 362 360 361
