# Negara Konoha — PohonPalem
# Original fictional game asset, Nusantara/Indonesia-inspired.
# 1 OBJ unit = 1 meter. Y-up. Intended front = +Z in Unity.
mtllib PohonPalem.mtl

o TRUNK_0
usemtl wood2
v 0.000000 0.000000 -0.000000
v 0.139825 -0.006989 0.000087
v 0.199825 1.193011 -0.029913
v 0.060000 1.200000 -0.030000
v 0.098810 -0.007413 -0.098902
v 0.158810 1.192587 -0.128902
v -0.000087 -0.003495 -0.139956
v 0.059913 1.196505 -0.169956
v -0.098933 0.002471 -0.099026
v -0.038933 1.202471 -0.129026
v -0.139825 0.006989 -0.000087
v -0.079825 1.206989 -0.030087
v -0.098810 0.007413 0.098902
v -0.038810 1.207413 0.068902
v 0.000087 0.003495 0.139956
v 0.060087 1.203495 0.109956
v 0.098933 -0.002471 0.099026
v 0.158933 1.197529 0.069026
f 2 1 5
f 2 5 3
f 3 5 6
f 3 6 4
f 5 1 7
f 5 7 6
f 6 7 8
f 6 8 4
f 7 1 9
f 7 9 8
f 8 9 10
f 8 10 4
f 9 1 11
f 9 11 10
f 10 11 12
f 10 12 4
f 11 1 13
f 11 13 12
f 12 13 14
f 12 14 4
f 13 1 15
f 13 15 14
f 14 15 16
f 14 16 4
f 15 1 17
f 15 17 16
f 16 17 18
f 16 18 4
f 17 1 2
f 17 2 18
f 18 2 3
f 18 3 4

o TRUNK_1
usemtl wood2
v 0.060000 1.200000 -0.030000
v 0.187623 1.190184 -0.029925
v 0.287623 2.490184 -0.049925
v 0.160000 2.500000 -0.050000
v 0.150190 1.191671 -0.120446
v 0.250190 2.491671 -0.140446
v 0.059925 1.198037 -0.157985
v 0.159925 2.498037 -0.177985
v -0.030296 1.205553 -0.120552
v 0.069704 2.505553 -0.140552
v -0.067623 1.209816 -0.030075
v 0.032377 2.509816 -0.050075
v -0.030190 1.208329 0.060446
v 0.069810 2.508329 0.040446
v 0.060075 1.201963 0.097985
v 0.160075 2.501963 0.077985
v 0.150296 1.194447 0.060552
v 0.250296 2.494447 0.040552
f 20 19 23
f 20 23 21
f 21 23 24
f 21 24 22
f 23 19 25
f 23 25 24
f 24 25 26
f 24 26 22
f 25 19 27
f 25 27 26
f 26 27 28
f 26 28 22
f 27 19 29
f 27 29 28
f 28 29 30
f 28 30 22
f 29 19 31
f 29 31 30
f 30 31 32
f 30 32 22
f 31 19 33
f 31 33 32
f 32 33 34
f 32 34 22
f 33 19 35
f 33 35 34
f 34 35 36
f 34 36 22
f 35 19 20
f 35 20 36
f 36 20 21
f 36 21 22

o TRUNK_2
usemtl wood2
v 0.160000 2.500000 -0.050000
v 0.275509 2.489340 -0.050123
v 0.395509 3.789340 -0.020123
v 0.280000 3.800000 -0.020000
v 0.241764 2.494347 -0.132089
v 0.361764 3.794347 -0.102089
v 0.160123 2.502665 -0.165969
v 0.280123 3.802665 -0.135969
v 0.078409 2.509422 -0.131916
v 0.198409 3.809422 -0.101916
v 0.044491 2.510660 -0.049877
v 0.164491 3.810660 -0.019877
v 0.078236 2.505653 0.032089
v 0.198236 3.805653 0.062089
v 0.159877 2.497335 0.065969
v 0.279877 3.797335 0.095969
v 0.241591 2.490578 0.031916
v 0.361591 3.790578 0.061916
f 38 37 41
f 38 41 39
f 39 41 42
f 39 42 40
f 41 37 43
f 41 43 42
f 42 43 44
f 42 44 40
f 43 37 45
f 43 45 44
f 44 45 46
f 44 46 40
f 45 37 47
f 45 47 46
f 46 47 48
f 46 48 40
f 47 37 49
f 47 49 48
f 48 49 50
f 48 50 40
f 49 37 51
f 49 51 50
f 50 51 52
f 50 52 40
f 51 37 53
f 51 53 52
f 52 53 54
f 52 54 40
f 53 37 38
f 53 38 54
f 54 38 39
f 54 39 40

o TRUNK_3
usemtl wood2
v 0.280000 3.800000 -0.020000
v 0.383890 3.795212 -0.020129
v 0.443890 5.095212 0.049871
v 0.340000 5.100000 0.050000
v 0.353552 3.800564 -0.093524
v 0.413552 5.100564 -0.023524
v 0.280129 3.805586 -0.123850
v 0.340129 5.105586 -0.053850
v 0.206630 3.807335 -0.093342
v 0.266630 5.107335 -0.023342
v 0.176110 3.804788 -0.019871
v 0.236110 5.104788 0.050129
v 0.206448 3.799436 0.053524
v 0.266448 5.099436 0.123524
v 0.279871 3.794414 0.083850
v 0.339871 5.094414 0.153850
v 0.353370 3.792665 0.053342
v 0.413370 5.092665 0.123342
f 56 55 59
f 56 59 57
f 57 59 60
f 57 60 58
f 59 55 61
f 59 61 60
f 60 61 62
f 60 62 58
f 61 55 63
f 61 63 62
f 62 63 64
f 62 64 58
f 63 55 65
f 63 65 64
f 64 65 66
f 64 66 58
f 65 55 67
f 65 67 66
f 66 67 68
f 66 68 58
f 67 55 69
f 67 69 68
f 68 69 70
f 68 70 58
f 69 55 71
f 69 71 70
f 70 71 72
f 70 72 58
f 71 55 56
f 71 56 72
f 72 56 57
f 72 57 58

o TRUNK_4
usemtl wood2
v 0.340000 5.100000 0.050000
v 0.431864 5.105001 0.050159
v 0.371864 6.205001 0.120159
v 0.280000 6.200000 0.120000
v 0.404845 5.107661 -0.014810
v 0.344845 6.207661 0.055190
v 0.339841 5.105834 -0.041815
v 0.279841 6.205834 0.028185
v 0.274930 5.100589 -0.015035
v 0.214930 6.200589 0.054965
v 0.248136 5.094999 0.049841
v 0.188136 6.194999 0.119841
v 0.275155 5.092339 0.114810
v 0.215155 6.192339 0.184810
v 0.340159 5.094166 0.141815
v 0.280159 6.194166 0.211815
v 0.405070 5.099411 0.115035
v 0.345070 6.199411 0.185035
f 74 73 77
f 74 77 75
f 75 77 78
f 75 78 76
f 77 73 79
f 77 79 78
f 78 79 80
f 78 80 76
f 79 73 81
f 79 81 80
f 80 81 82
f 80 82 76
f 81 73 83
f 81 83 82
f 82 83 84
f 82 84 76
f 83 73 85
f 83 85 84
f 84 85 86
f 84 86 76
f 85 73 87
f 85 87 86
f 86 87 88
f 86 88 76
f 87 73 89
f 87 89 88
f 88 89 90
f 88 90 76
f 89 73 74
f 89 74 90
f 90 74 75
f 90 75 76

o CROWN_CORE
usemtl green2
v 0.148567 6.200000 -0.092663
v 0.411433 6.200000 -0.092663
v 0.148567 6.200000 0.332663
v 0.411433 6.200000 0.332663
v 0.280000 6.412663 0.251433
v 0.280000 6.412663 -0.011433
v 0.280000 5.987337 0.251433
v 0.280000 5.987337 -0.011433
v 0.492663 6.068567 0.120000
v 0.492663 6.331433 0.120000
v 0.067337 6.068567 0.120000
v 0.067337 6.331433 0.120000
v 0.280000 6.200000 -0.130000
v 0.280000 6.200000 0.370000
v 0.202746 6.325000 0.322254
v 0.357254 6.325000 0.322254
v 0.202746 6.325000 -0.082254
v 0.357254 6.325000 -0.082254
v 0.280000 6.450000 0.120000
v 0.202746 6.075000 0.322254
v 0.357254 6.075000 0.322254
v 0.202746 6.075000 -0.082254
v 0.357254 6.075000 -0.082254
v 0.280000 5.950000 0.120000
v 0.482254 6.122746 -0.005000
v 0.482254 6.122746 0.245000
v 0.405000 5.997746 0.197254
v 0.405000 5.997746 0.042746
v 0.482254 6.277254 -0.005000
v 0.482254 6.277254 0.245000
v 0.405000 6.402254 0.197254
v 0.405000 6.402254 0.042746
v 0.530000 6.200000 0.120000
v 0.077746 6.122746 -0.005000
v 0.077746 6.122746 0.245000
v 0.155000 5.997746 0.197254
v 0.155000 5.997746 0.042746
v 0.077746 6.277254 -0.005000
v 0.077746 6.277254 0.245000
v 0.155000 6.402254 0.197254
v 0.155000 6.402254 0.042746
v 0.030000 6.200000 0.120000
f 91 128 107
f 128 102 131
f 107 131 96
f 128 131 107
f 91 107 103
f 107 96 108
f 103 108 92
f 107 108 103
f 91 103 112
f 103 92 113
f 112 113 98
f 103 113 112
f 91 112 124
f 112 98 127
f 124 127 101
f 112 127 124
f 91 124 128
f 124 101 132
f 128 132 102
f 124 132 128
f 92 108 119
f 108 96 122
f 119 122 100
f 108 122 119
f 96 131 109
f 131 102 130
f 109 130 95
f 131 130 109
f 102 132 129
f 132 101 125
f 129 125 93
f 132 125 129
f 101 127 126
f 127 98 114
f 126 114 97
f 127 114 126
f 98 113 118
f 113 92 115
f 118 115 99
f 113 115 118
f 94 120 106
f 120 100 121
f 106 121 95
f 120 121 106
f 94 106 104
f 106 95 105
f 104 105 93
f 106 105 104
f 94 104 111
f 104 93 110
f 111 110 97
f 104 110 111
f 94 111 116
f 111 97 117
f 116 117 99
f 111 117 116
f 94 116 120
f 116 99 123
f 120 123 100
f 116 123 120
f 95 121 109
f 121 100 122
f 109 122 96
f 121 122 109
f 93 105 129
f 105 95 130
f 129 130 102
f 105 130 129
f 97 110 126
f 110 93 125
f 126 125 101
f 110 125 126
f 99 117 118
f 117 97 114
f 118 114 98
f 117 114 118
f 100 123 119
f 123 99 115
f 119 115 92
f 123 115 119

o FROND_STEM_0
usemtl green
v 0.430000 6.280000 0.120000
v 0.419419 6.241425 0.120000
v 2.169419 5.761425 0.120000
v 2.180000 5.800000 0.120000
v 0.424710 6.260712 0.085359
v 2.174710 5.780712 0.085359
v 0.435290 6.299288 0.085359
v 2.185290 5.819288 0.085359
v 0.440581 6.318575 0.120000
v 2.190581 5.838575 0.120000
v 0.435290 6.299288 0.154641
v 2.185290 5.819288 0.154641
v 0.424710 6.260712 0.154641
v 2.174710 5.780712 0.154641
f 134 133 137
f 134 137 135
f 135 137 138
f 135 138 136
f 137 133 139
f 137 139 138
f 138 139 140
f 138 140 136
f 139 133 141
f 139 141 140
f 140 141 142
f 140 142 136
f 141 133 143
f 141 143 142
f 142 143 144
f 142 144 136
f 143 133 145
f 143 145 144
f 144 145 146
f 144 146 136
f 145 133 134
f 145 134 146
f 146 134 135
f 146 135 136

o FROND_0_1_-1
usemtl green2
v 0.656667 6.175000 0.120000
v 0.656667 6.225000 0.120000
v 0.786667 6.175000 0.120000
v 0.786667 6.225000 0.120000
v 0.656667 6.175000 0.398974
v 0.656667 6.225000 0.398974
v 0.786667 6.175000 0.398974
v 0.786667 6.225000 0.398974
f 148 150 147
f 151 148 147
f 147 150 149
f 149 151 147
f 148 154 150
f 152 148 151
f 152 154 148
f 150 154 149
f 153 151 149
f 149 154 153
f 153 152 151
f 154 152 153

o FROND_0_1_1
usemtl green2
v 0.786667 6.175000 0.120000
v 0.786667 6.225000 0.120000
v 0.656667 6.175000 0.120000
v 0.656667 6.225000 0.120000
v 0.786667 6.175000 -0.158974
v 0.786667 6.225000 -0.158974
v 0.656667 6.175000 -0.158974
v 0.656667 6.225000 -0.158974
f 156 158 155
f 159 156 155
f 155 158 157
f 157 159 155
f 156 162 158
f 160 156 159
f 160 162 156
f 158 162 157
f 161 159 157
f 157 162 161
f 161 160 159
f 162 160 161

o FROND_0_2_-1
usemtl green2
v 0.948333 6.095000 0.120000
v 0.948333 6.145000 0.120000
v 1.078333 6.095000 0.120000
v 1.078333 6.145000 0.120000
v 0.948333 6.095000 0.357949
v 0.948333 6.145000 0.357949
v 1.078333 6.095000 0.357949
v 1.078333 6.145000 0.357949
f 164 166 163
f 167 164 163
f 163 166 165
f 165 167 163
f 164 170 166
f 168 164 167
f 168 170 164
f 166 170 165
f 169 167 165
f 165 170 169
f 169 168 167
f 170 168 169

o FROND_0_2_1
usemtl green2
v 1.078333 6.095000 0.120000
v 1.078333 6.145000 0.120000
v 0.948333 6.095000 0.120000
v 0.948333 6.145000 0.120000
v 1.078333 6.095000 -0.117949
v 1.078333 6.145000 -0.117949
v 0.948333 6.095000 -0.117949
v 0.948333 6.145000 -0.117949
f 172 174 171
f 175 172 171
f 171 174 173
f 173 175 171
f 172 178 174
f 176 172 175
f 176 178 172
f 174 178 173
f 177 175 173
f 173 178 177
f 177 176 175
f 178 176 177

o FROND_0_3_-1
usemtl green2
v 1.240000 6.015000 0.120000
v 1.240000 6.065000 0.120000
v 1.370000 6.015000 0.120000
v 1.370000 6.065000 0.120000
v 1.240000 6.015000 0.316923
v 1.240000 6.065000 0.316923
v 1.370000 6.015000 0.316923
v 1.370000 6.065000 0.316923
f 180 182 179
f 183 180 179
f 179 182 181
f 181 183 179
f 180 186 182
f 184 180 183
f 184 186 180
f 182 186 181
f 185 183 181
f 181 186 185
f 185 184 183
f 186 184 185

o FROND_0_3_1
usemtl green2
v 1.370000 6.015000 0.120000
v 1.370000 6.065000 0.120000
v 1.240000 6.015000 0.120000
v 1.240000 6.065000 0.120000
v 1.370000 6.015000 -0.076923
v 1.370000 6.065000 -0.076923
v 1.240000 6.015000 -0.076923
v 1.240000 6.065000 -0.076923
f 188 190 187
f 191 188 187
f 187 190 189
f 189 191 187
f 188 194 190
f 192 188 191
f 192 194 188
f 190 194 189
f 193 191 189
f 189 194 193
f 193 192 191
f 194 192 193

o FROND_0_4_-1
usemtl green2
v 1.531667 5.935000 0.120000
v 1.531667 5.985000 0.120000
v 1.661667 5.935000 0.120000
v 1.661667 5.985000 0.120000
v 1.531667 5.935000 0.275897
v 1.531667 5.985000 0.275897
v 1.661667 5.935000 0.275897
v 1.661667 5.985000 0.275897
f 196 198 195
f 199 196 195
f 195 198 197
f 197 199 195
f 196 202 198
f 200 196 199
f 200 202 196
f 198 202 197
f 201 199 197
f 197 202 201
f 201 200 199
f 202 200 201

o FROND_0_4_1
usemtl green2
v 1.661667 5.935000 0.120000
v 1.661667 5.985000 0.120000
v 1.531667 5.935000 0.120000
v 1.531667 5.985000 0.120000
v 1.661667 5.935000 -0.035897
v 1.661667 5.985000 -0.035897
v 1.531667 5.935000 -0.035897
v 1.531667 5.985000 -0.035897
f 204 206 203
f 207 204 203
f 203 206 205
f 205 207 203
f 204 210 206
f 208 204 207
f 208 210 204
f 206 210 205
f 209 207 205
f 205 210 209
f 209 208 207
f 210 208 209

o FROND_0_5_-1
usemtl green2
v 1.823333 5.855000 0.120000
v 1.823333 5.905000 0.120000
v 1.953333 5.855000 0.120000
v 1.953333 5.905000 0.120000
v 1.823333 5.855000 0.234872
v 1.823333 5.905000 0.234872
v 1.953333 5.855000 0.234872
v 1.953333 5.905000 0.234872
f 212 214 211
f 215 212 211
f 211 214 213
f 213 215 211
f 212 218 214
f 216 212 215
f 216 218 212
f 214 218 213
f 217 215 213
f 213 218 217
f 217 216 215
f 218 216 217

o FROND_0_5_1
usemtl green2
v 1.953333 5.855000 0.120000
v 1.953333 5.905000 0.120000
v 1.823333 5.855000 0.120000
v 1.823333 5.905000 0.120000
v 1.953333 5.855000 0.005128
v 1.953333 5.905000 0.005128
v 1.823333 5.855000 0.005128
v 1.823333 5.905000 0.005128
f 220 222 219
f 223 220 219
f 219 222 221
f 221 223 219
f 220 226 222
f 224 220 223
f 224 226 220
f 222 226 221
f 225 223 221
f 221 226 225
f 225 224 223
f 226 224 225

o FROND_STEM_1
usemtl green
v 0.409904 6.280000 0.045000
v 0.414095 6.246014 0.065674
v 1.929640 5.900650 -0.809326
v 1.925448 5.934635 -0.830000
v 0.394095 6.246014 0.031033
v 1.909640 5.900650 -0.843967
v 0.389904 6.280000 0.010359
v 1.905448 5.934635 -0.864641
v 0.405712 6.313986 0.024326
v 1.921257 5.968621 -0.850674
v 0.425712 6.313986 0.058967
v 1.941257 5.968621 -0.816033
v 0.429904 6.280000 0.079641
v 1.945448 5.934635 -0.795359
f 228 227 231
f 228 231 229
f 229 231 232
f 229 232 230
f 231 227 233
f 231 233 232
f 232 233 234
f 232 234 230
f 233 227 235
f 233 235 234
f 234 235 236
f 234 236 230
f 235 227 237
f 235 237 236
f 236 237 238
f 236 238 230
f 237 227 239
f 237 239 238
f 238 239 240
f 238 240 230
f 239 227 228
f 239 228 240
f 240 228 229
f 240 229 230

o FROND_1_1_-1
usemtl green2
v 0.606203 6.197439 -0.068333
v 0.606203 6.247439 -0.068333
v 0.718786 6.197439 -0.133333
v 0.718786 6.247439 -0.133333
v 0.745690 6.197439 0.173266
v 0.745690 6.247439 0.173266
v 0.858273 6.197439 0.108266
v 0.858273 6.247439 0.108266
f 242 244 241
f 245 242 241
f 241 244 243
f 243 245 241
f 242 248 244
f 246 242 245
f 246 248 242
f 244 248 243
f 247 245 243
f 243 248 247
f 247 246 245
f 248 246 247

o FROND_1_1_1
usemtl green2
v 0.718786 6.197439 -0.133333
v 0.718786 6.247439 -0.133333
v 0.606203 6.197439 -0.068333
v 0.606203 6.247439 -0.068333
v 0.579299 6.197439 -0.374932
v 0.579299 6.247439 -0.374932
v 0.466716 6.197439 -0.309932
v 0.466716 6.247439 -0.309932
f 250 252 249
f 253 250 249
f 249 252 251
f 251 253 249
f 250 256 252
f 254 250 253
f 254 256 250
f 252 256 251
f 255 253 251
f 251 256 255
f 255 254 253
f 256 254 255

o FROND_1_2_-1
usemtl green2
v 0.858794 6.139878 -0.214167
v 0.858794 6.189878 -0.214167
v 0.971377 6.139878 -0.279167
v 0.971377 6.189878 -0.279167
v 0.977768 6.139878 -0.008097
v 0.977768 6.189878 -0.008097
v 1.090351 6.139878 -0.073097
v 1.090351 6.189878 -0.073097
f 258 260 257
f 261 258 257
f 257 260 259
f 259 261 257
f 258 264 260
f 262 258 261
f 262 264 258
f 260 264 259
f 263 261 259
f 259 264 263
f 263 262 261
f 264 262 263

o FROND_1_2_1
usemtl green2
v 0.971377 6.139878 -0.279167
v 0.971377 6.189878 -0.279167
v 0.858794 6.139878 -0.214167
v 0.858794 6.189878 -0.214167
v 0.852403 6.139878 -0.485236
v 0.852403 6.189878 -0.485236
v 0.739819 6.139878 -0.420236
v 0.739819 6.189878 -0.420236
f 266 268 265
f 269 266 265
f 265 268 267
f 267 269 265
f 266 272 268
f 270 266 269
f 270 272 266
f 268 272 267
f 271 269 267
f 267 272 271
f 271 270 269
f 272 270 271

o FROND_1_3_-1
usemtl green2
v 1.111384 6.082318 -0.360000
v 1.111384 6.132318 -0.360000
v 1.223968 6.082318 -0.425000
v 1.223968 6.132318 -0.425000
v 1.209846 6.082318 -0.189460
v 1.209846 6.132318 -0.189460
v 1.322429 6.082318 -0.254460
v 1.322429 6.132318 -0.254460
f 274 276 273
f 277 274 273
f 273 276 275
f 275 277 273
f 274 280 276
f 278 274 277
f 278 280 274
f 276 280 275
f 279 277 275
f 275 280 279
f 279 278 277
f 280 278 279

o FROND_1_3_1
usemtl green2
v 1.223968 6.082318 -0.425000
v 1.223968 6.132318 -0.425000
v 1.111384 6.082318 -0.360000
v 1.111384 6.132318 -0.360000
v 1.125506 6.082318 -0.595540
v 1.125506 6.132318 -0.595540
v 1.012923 6.082318 -0.530540
v 1.012923 6.132318 -0.530540
f 282 284 281
f 285 282 281
f 281 284 283
f 283 285 281
f 282 288 284
f 286 282 285
f 286 288 282
f 284 288 283
f 287 285 283
f 283 288 287
f 287 286 285
f 288 286 287

o FROND_1_4_-1
usemtl green2
v 1.363975 6.024757 -0.505833
v 1.363975 6.074757 -0.505833
v 1.476558 6.024757 -0.570833
v 1.476558 6.074757 -0.570833
v 1.441924 6.024757 -0.370822
v 1.441924 6.074757 -0.370822
v 1.554507 6.024757 -0.435822
v 1.554507 6.074757 -0.435822
f 290 292 289
f 293 290 289
f 289 292 291
f 291 293 289
f 290 296 292
f 294 290 293
f 294 296 290
f 292 296 291
f 295 293 291
f 291 296 295
f 295 294 293
f 296 294 295

o FROND_1_4_1
usemtl green2
v 1.476558 6.024757 -0.570833
v 1.476558 6.074757 -0.570833
v 1.363975 6.024757 -0.505833
v 1.363975 6.074757 -0.505833
v 1.398610 6.024757 -0.705844
v 1.398610 6.074757 -0.705844
v 1.286026 6.024757 -0.640844
v 1.286026 6.074757 -0.640844
f 298 300 297
f 301 298 297
f 297 300 299
f 299 301 297
f 298 304 300
f 302 298 301
f 302 304 298
f 300 304 299
f 303 301 299
f 299 304 303
f 303 302 301
f 304 302 303

o FROND_1_5_-1
usemtl green2
v 1.616566 5.967196 -0.651667
v 1.616566 6.017196 -0.651667
v 1.729149 5.967196 -0.716667
v 1.729149 6.017196 -0.716667
v 1.674002 5.967196 -0.552185
v 1.674002 6.017196 -0.552185
v 1.786585 5.967196 -0.617185
v 1.786585 6.017196 -0.617185
f 306 308 305
f 309 306 305
f 305 308 307
f 307 309 305
f 306 312 308
f 310 306 309
f 310 312 306
f 308 312 307
f 311 309 307
f 307 312 311
f 311 310 309
f 312 310 311

o FROND_1_5_1
usemtl green2
v 1.729149 5.967196 -0.716667
v 1.729149 6.017196 -0.716667
v 1.616566 5.967196 -0.651667
v 1.616566 6.017196 -0.651667
v 1.671713 5.967196 -0.816149
v 1.671713 6.017196 -0.816149
v 1.559130 5.967196 -0.751149
v 1.559130 6.017196 -0.751149
f 314 316 313
f 317 314 313
f 313 316 315
f 315 317 313
f 314 320 316
f 318 314 317
f 318 320 314
f 316 320 315
f 319 317 315
f 315 320 319
f 319 318 317
f 320 318 319

o FROND_STEM_2
usemtl green
v 0.355000 6.280000 -0.009904
v 0.383122 6.260356 0.010669
v 1.258122 5.925843 -1.504876
v 1.230000 5.945488 -1.525448
v 0.351245 6.240711 -0.003400
v 1.226245 5.906199 -1.518944
v 0.323122 6.260356 -0.023972
v 1.198122 5.925843 -1.539517
v 0.326878 6.299644 -0.030476
v 1.201878 5.965132 -1.546021
v 0.358755 6.319289 -0.016408
v 1.233755 5.984776 -1.531952
v 0.386878 6.299644 0.004165
v 1.261878 5.965132 -1.511380
f 322 321 325
f 322 325 323
f 323 325 326
f 323 326 324
f 325 321 327
f 325 327 326
f 326 327 328
f 326 328 324
f 327 321 329
f 327 329 328
f 328 329 330
f 328 330 324
f 329 321 331
f 329 331 330
f 330 331 332
f 330 332 324
f 331 321 333
f 331 333 332
f 332 333 334
f 332 334 324
f 333 321 322
f 333 322 334
f 334 322 323
f 334 323 324

o FROND_2_1_-1
usemtl green2
v 0.468333 6.199248 -0.206203
v 0.468333 6.249248 -0.206203
v 0.533333 6.199248 -0.318786
v 0.533333 6.249248 -0.318786
v 0.709932 6.199248 -0.066716
v 0.709932 6.249248 -0.066716
v 0.774932 6.199248 -0.179299
v 0.774932 6.249248 -0.179299
f 336 338 335
f 339 336 335
f 335 338 337
f 337 339 335
f 336 342 338
f 340 336 339
f 340 342 336
f 338 342 337
f 341 339 337
f 337 342 341
f 341 340 339
f 342 340 341

o FROND_2_1_1
usemtl green2
v 0.533333 6.199248 -0.318786
v 0.533333 6.249248 -0.318786
v 0.468333 6.199248 -0.206203
v 0.468333 6.249248 -0.206203
v 0.291734 6.199248 -0.458273
v 0.291734 6.249248 -0.458273
v 0.226734 6.199248 -0.345690
v 0.226734 6.249248 -0.345690
f 344 346 343
f 347 344 343
f 343 346 345
f 345 347 343
f 344 350 346
f 348 344 347
f 348 350 344
f 346 350 345
f 349 347 345
f 345 350 349
f 349 348 347
f 350 348 349

o FROND_2_2_-1
usemtl green2
v 0.614167 6.143496 -0.458794
v 0.614167 6.193496 -0.458794
v 0.679167 6.143496 -0.571377
v 0.679167 6.193496 -0.571377
v 0.820236 6.143496 -0.339819
v 0.820236 6.193496 -0.339819
v 0.885236 6.143496 -0.452403
v 0.885236 6.193496 -0.452403
f 352 354 351
f 355 352 351
f 351 354 353
f 353 355 351
f 352 358 354
f 356 352 355
f 356 358 352
f 354 358 353
f 357 355 353
f 353 358 357
f 357 356 355
f 358 356 357

o FROND_2_2_1
usemtl green2
v 0.679167 6.143496 -0.571377
v 0.679167 6.193496 -0.571377
v 0.614167 6.143496 -0.458794
v 0.614167 6.193496 -0.458794
v 0.473097 6.143496 -0.690351
v 0.473097 6.193496 -0.690351
v 0.408097 6.143496 -0.577768
v 0.408097 6.193496 -0.577768
f 360 362 359
f 363 360 359
f 359 362 361
f 361 363 359
f 360 366 362
f 364 360 363
f 364 366 360
f 362 366 361
f 365 363 361
f 361 366 365
f 365 364 363
f 366 364 365

o FROND_2_3_-1
usemtl green2
v 0.760000 6.087744 -0.711384
v 0.760000 6.137744 -0.711384
v 0.825000 6.087744 -0.823968
v 0.825000 6.137744 -0.823968
v 0.930540 6.087744 -0.612923
v 0.930540 6.137744 -0.612923
v 0.995540 6.087744 -0.725506
v 0.995540 6.137744 -0.725506
f 368 370 367
f 371 368 367
f 367 370 369
f 369 371 367
f 368 374 370
f 372 368 371
f 372 374 368
f 370 374 369
f 373 371 369
f 369 374 373
f 373 372 371
f 374 372 373

o FROND_2_3_1
usemtl green2
v 0.825000 6.087744 -0.823968
v 0.825000 6.137744 -0.823968
v 0.760000 6.087744 -0.711384
v 0.760000 6.137744 -0.711384
v 0.654460 6.087744 -0.922429
v 0.654460 6.137744 -0.922429
v 0.589460 6.087744 -0.809846
v 0.589460 6.137744 -0.809846
f 376 378 375
f 379 376 375
f 375 378 377
f 377 379 375
f 376 382 378
f 380 376 379
f 380 382 376
f 378 382 377
f 381 379 377
f 377 382 381
f 381 380 379
f 382 380 381

o FROND_2_4_-1
usemtl green2
v 0.905833 6.031992 -0.963975
v 0.905833 6.081992 -0.963975
v 0.970833 6.031992 -1.076558
v 0.970833 6.081992 -1.076558
v 1.040844 6.031992 -0.886026
v 1.040844 6.081992 -0.886026
v 1.105844 6.031992 -0.998610
v 1.105844 6.081992 -0.998610
f 384 386 383
f 387 384 383
f 383 386 385
f 385 387 383
f 384 390 386
f 388 384 387
f 388 390 384
f 386 390 385
f 389 387 385
f 385 390 389
f 389 388 387
f 390 388 389

o FROND_2_4_1
usemtl green2
v 0.970833 6.031992 -1.076558
v 0.970833 6.081992 -1.076558
v 0.905833 6.031992 -0.963975
v 0.905833 6.081992 -0.963975
v 0.835822 6.031992 -1.154507
v 0.835822 6.081992 -1.154507
v 0.770822 6.031992 -1.041924
v 0.770822 6.081992 -1.041924
f 392 394 391
f 395 392 391
f 391 394 393
f 393 395 391
f 392 398 394
f 396 392 395
f 396 398 392
f 394 398 393
f 397 395 393
f 393 398 397
f 397 396 395
f 398 396 397

o FROND_2_5_-1
usemtl green2
v 1.051667 5.976240 -1.216566
v 1.051667 6.026240 -1.216566
v 1.116667 5.976240 -1.329149
v 1.116667 6.026240 -1.329149
v 1.151149 5.976240 -1.159130
v 1.151149 6.026240 -1.159130
v 1.216149 5.976240 -1.271713
v 1.216149 6.026240 -1.271713
f 400 402 399
f 403 400 399
f 399 402 401
f 401 403 399
f 400 406 402
f 404 400 403
f 404 406 400
f 402 406 401
f 405 403 401
f 401 406 405
f 405 404 403
f 406 404 405

o FROND_2_5_1
usemtl green2
v 1.116667 5.976240 -1.329149
v 1.116667 6.026240 -1.329149
v 1.051667 5.976240 -1.216566
v 1.051667 6.026240 -1.216566
v 1.017185 5.976240 -1.386585
v 1.017185 6.026240 -1.386585
v 0.952185 5.976240 -1.274002
v 0.952185 6.026240 -1.274002
f 408 410 407
f 411 408 407
f 407 410 409
f 409 411 407
f 408 414 410
f 412 408 411
f 412 414 408
f 410 414 409
f 413 411 409
f 409 414 413
f 413 412 411
f 414 412 413

o FROND_STEM_3
usemtl green
v 0.280000 6.280000 -0.030000
v 0.320000 6.280000 -0.030000
v 0.320000 5.822579 -1.780000
v 0.280000 5.822579 -1.780000
v 0.300000 6.246485 -0.021240
v 0.300000 5.789064 -1.771240
v 0.260000 6.246485 -0.021240
v 0.260000 5.789064 -1.771240
v 0.240000 6.280000 -0.030000
v 0.240000 5.822579 -1.780000
v 0.260000 6.313515 -0.038760
v 0.260000 5.856094 -1.788760
v 0.300000 6.313515 -0.038760
v 0.300000 5.856094 -1.788760
f 416 415 419
f 416 419 417
f 417 419 420
f 417 420 418
f 419 415 421
f 419 421 420
f 420 421 422
f 420 422 418
f 421 415 423
f 421 423 422
f 422 423 424
f 422 424 418
f 423 415 425
f 423 425 424
f 424 425 426
f 424 426 418
f 425 415 427
f 425 427 426
f 426 427 428
f 426 428 418
f 427 415 416
f 427 416 428
f 428 416 417
f 428 417 418

o FROND_3_1_-1
usemtl green2
v 0.280000 6.178763 -0.256667
v 0.280000 6.228763 -0.256667
v 0.280000 6.178763 -0.386667
v 0.280000 6.228763 -0.386667
v 0.558974 6.178763 -0.256667
v 0.558974 6.228763 -0.256667
v 0.558974 6.178763 -0.386667
v 0.558974 6.228763 -0.386667
f 430 432 429
f 433 430 429
f 429 432 431
f 431 433 429
f 430 436 432
f 434 430 433
f 434 436 430
f 432 436 431
f 435 433 431
f 431 436 435
f 435 434 433
f 436 434 435

o FROND_3_1_1
usemtl green2
v 0.280000 6.178763 -0.386667
v 0.280000 6.228763 -0.386667
v 0.280000 6.178763 -0.256667
v 0.280000 6.228763 -0.256667
v 0.001026 6.178763 -0.386667
v 0.001026 6.228763 -0.386667
v 0.001026 6.178763 -0.256667
v 0.001026 6.228763 -0.256667
f 438 440 437
f 441 438 437
f 437 440 439
f 439 441 437
f 438 444 440
f 442 438 441
f 442 444 438
f 440 444 439
f 443 441 439
f 439 444 443
f 443 442 441
f 444 442 443

o FROND_3_2_-1
usemtl green2
v 0.280000 6.102526 -0.548333
v 0.280000 6.152526 -0.548333
v 0.280000 6.102526 -0.678333
v 0.280000 6.152526 -0.678333
v 0.517949 6.102526 -0.548333
v 0.517949 6.152526 -0.548333
v 0.517949 6.102526 -0.678333
v 0.517949 6.152526 -0.678333
f 446 448 445
f 449 446 445
f 445 448 447
f 447 449 445
f 446 452 448
f 450 446 449
f 450 452 446
f 448 452 447
f 451 449 447
f 447 452 451
f 451 450 449
f 452 450 451

o FROND_3_2_1
usemtl green2
v 0.280000 6.102526 -0.678333
v 0.280000 6.152526 -0.678333
v 0.280000 6.102526 -0.548333
v 0.280000 6.152526 -0.548333
v 0.042051 6.102526 -0.678333
v 0.042051 6.152526 -0.678333
v 0.042051 6.102526 -0.548333
v 0.042051 6.152526 -0.548333
f 454 456 453
f 457 454 453
f 453 456 455
f 455 457 453
f 454 460 456
f 458 454 457
f 458 460 454
f 456 460 455
f 459 457 455
f 455 460 459
f 459 458 457
f 460 458 459

o FROND_3_3_-1
usemtl green2
v 0.280000 6.026290 -0.840000
v 0.280000 6.076290 -0.840000
v 0.280000 6.026290 -0.970000
v 0.280000 6.076290 -0.970000
v 0.476923 6.026290 -0.840000
v 0.476923 6.076290 -0.840000
v 0.476923 6.026290 -0.970000
v 0.476923 6.076290 -0.970000
f 462 464 461
f 465 462 461
f 461 464 463
f 463 465 461
f 462 468 464
f 466 462 465
f 466 468 462
f 464 468 463
f 467 465 463
f 463 468 467
f 467 466 465
f 468 466 467

o FROND_3_3_1
usemtl green2
v 0.280000 6.026290 -0.970000
v 0.280000 6.076290 -0.970000
v 0.280000 6.026290 -0.840000
v 0.280000 6.076290 -0.840000
v 0.083077 6.026290 -0.970000
v 0.083077 6.076290 -0.970000
v 0.083077 6.026290 -0.840000
v 0.083077 6.076290 -0.840000
f 470 472 469
f 473 470 469
f 469 472 471
f 471 473 469
f 470 476 472
f 474 470 473
f 474 476 470
f 472 476 471
f 475 473 471
f 471 476 475
f 475 474 473
f 476 474 475

o FROND_3_4_-1
usemtl green2
v 0.280000 5.950053 -1.131667
v 0.280000 6.000053 -1.131667
v 0.280000 5.950053 -1.261667
v 0.280000 6.000053 -1.261667
v 0.435897 5.950053 -1.131667
v 0.435897 6.000053 -1.131667
v 0.435897 5.950053 -1.261667
v 0.435897 6.000053 -1.261667
f 478 480 477
f 481 478 477
f 477 480 479
f 479 481 477
f 478 484 480
f 482 478 481
f 482 484 478
f 480 484 479
f 483 481 479
f 479 484 483
f 483 482 481
f 484 482 483

o FROND_3_4_1
usemtl green2
v 0.280000 5.950053 -1.261667
v 0.280000 6.000053 -1.261667
v 0.280000 5.950053 -1.131667
v 0.280000 6.000053 -1.131667
v 0.124103 5.950053 -1.261667
v 0.124103 6.000053 -1.261667
v 0.124103 5.950053 -1.131667
v 0.124103 6.000053 -1.131667
f 486 488 485
f 489 486 485
f 485 488 487
f 487 489 485
f 486 492 488
f 490 486 489
f 490 492 486
f 488 492 487
f 491 489 487
f 487 492 491
f 491 490 489
f 492 490 491

o FROND_3_5_-1
usemtl green2
v 0.280000 5.873816 -1.423333
v 0.280000 5.923816 -1.423333
v 0.280000 5.873816 -1.553333
v 0.280000 5.923816 -1.553333
v 0.394872 5.873816 -1.423333
v 0.394872 5.923816 -1.423333
v 0.394872 5.873816 -1.553333
v 0.394872 5.923816 -1.553333
f 494 496 493
f 497 494 493
f 493 496 495
f 495 497 493
f 494 500 496
f 498 494 497
f 498 500 494
f 496 500 495
f 499 497 495
f 495 500 499
f 499 498 497
f 500 498 499

o FROND_3_5_1
usemtl green2
v 0.280000 5.873816 -1.553333
v 0.280000 5.923816 -1.553333
v 0.280000 5.873816 -1.423333
v 0.280000 5.923816 -1.423333
v 0.165128 5.873816 -1.553333
v 0.165128 5.923816 -1.553333
v 0.165128 5.873816 -1.423333
v 0.165128 5.923816 -1.423333
f 502 504 501
f 505 502 501
f 501 504 503
f 503 505 501
f 502 508 504
f 506 502 505
f 506 508 502
f 504 508 503
f 507 505 503
f 503 508 507
f 507 506 505
f 508 506 507

o FROND_STEM_4
usemtl green
v 0.205000 6.280000 -0.009904
v 0.231751 6.298915 -0.032851
v -0.643249 5.697827 -1.548395
v -0.670000 5.678912 -1.525448
v 0.238249 6.261085 -0.021598
v -0.636751 5.659996 -1.537142
v 0.211497 6.242169 0.001349
v -0.663503 5.641081 -1.514195
v 0.178249 6.261085 0.013043
v -0.696751 5.659996 -1.502501
v 0.171751 6.298915 0.001790
v -0.703249 5.697827 -1.513754
v 0.198503 6.317831 -0.021157
v -0.676497 5.716742 -1.536701
f 510 509 513
f 510 513 511
f 511 513 514
f 511 514 512
f 513 509 515
f 513 515 514
f 514 515 516
f 514 516 512
f 515 509 517
f 515 517 516
f 516 517 518
f 516 518 512
f 517 509 519
f 517 519 518
f 518 519 520
f 518 520 512
f 519 509 521
f 519 521 520
f 520 521 522
f 520 522 512
f 521 509 510
f 521 510 522
f 522 510 511
f 522 511 512

o FROND_4_1_-1
usemtl green2
v 0.091667 6.154819 -0.206203
v 0.091667 6.204819 -0.206203
v 0.026667 6.154819 -0.318786
v 0.026667 6.204819 -0.318786
v 0.333266 6.154819 -0.345690
v 0.333266 6.204819 -0.345690
v 0.268266 6.154819 -0.458273
v 0.268266 6.204819 -0.458273
f 524 526 523
f 527 524 523
f 523 526 525
f 525 527 523
f 524 530 526
f 528 524 527
f 528 530 524
f 526 530 525
f 529 527 525
f 525 530 529
f 529 528 527
f 530 528 529

o FROND_4_1_1
usemtl green2
v 0.026667 6.154819 -0.318786
v 0.026667 6.204819 -0.318786
v 0.091667 6.154819 -0.206203
v 0.091667 6.204819 -0.206203
v -0.214932 6.154819 -0.179299
v -0.214932 6.204819 -0.179299
v -0.149932 6.154819 -0.066716
v -0.149932 6.204819 -0.066716
f 532 534 531
f 535 532 531
f 531 534 533
f 533 535 531
f 532 538 534
f 536 532 535
f 536 538 532
f 534 538 533
f 537 535 533
f 533 538 537
f 537 536 535
f 538 536 537

o FROND_4_2_-1
usemtl green2
v -0.054167 6.054637 -0.458794
v -0.054167 6.104637 -0.458794
v -0.119167 6.054637 -0.571377
v -0.119167 6.104637 -0.571377
v 0.151903 6.054637 -0.577768
v 0.151903 6.104637 -0.577768
v 0.086903 6.054637 -0.690351
v 0.086903 6.104637 -0.690351
f 540 542 539
f 543 540 539
f 539 542 541
f 541 543 539
f 540 546 542
f 544 540 543
f 544 546 540
f 542 546 541
f 545 543 541
f 541 546 545
f 545 544 543
f 546 544 545

o FROND_4_2_1
usemtl green2
v -0.119167 6.054637 -0.571377
v -0.119167 6.104637 -0.571377
v -0.054167 6.054637 -0.458794
v -0.054167 6.104637 -0.458794
v -0.325236 6.054637 -0.452403
v -0.325236 6.104637 -0.452403
v -0.260236 6.054637 -0.339819
v -0.260236 6.104637 -0.339819
f 548 550 547
f 551 548 547
f 547 550 549
f 549 551 547
f 548 554 550
f 552 548 551
f 552 554 548
f 550 554 549
f 553 551 549
f 549 554 553
f 553 552 551
f 554 552 553

o FROND_4_3_-1
usemtl green2
v -0.200000 5.954456 -0.711384
v -0.200000 6.004456 -0.711384
v -0.265000 5.954456 -0.823968
v -0.265000 6.004456 -0.823968
v -0.029460 5.954456 -0.809846
v -0.029460 6.004456 -0.809846
v -0.094460 5.954456 -0.922429
v -0.094460 6.004456 -0.922429
f 556 558 555
f 559 556 555
f 555 558 557
f 557 559 555
f 556 562 558
f 560 556 559
f 560 562 556
f 558 562 557
f 561 559 557
f 557 562 561
f 561 560 559
f 562 560 561

o FROND_4_3_1
usemtl green2
v -0.265000 5.954456 -0.823968
v -0.265000 6.004456 -0.823968
v -0.200000 5.954456 -0.711384
v -0.200000 6.004456 -0.711384
v -0.435540 5.954456 -0.725506
v -0.435540 6.004456 -0.725506
v -0.370540 5.954456 -0.612923
v -0.370540 6.004456 -0.612923
f 564 566 563
f 567 564 563
f 563 566 565
f 565 567 563
f 564 570 566
f 568 564 567
f 568 570 564
f 566 570 565
f 569 567 565
f 565 570 569
f 569 568 567
f 570 568 569

o FROND_4_4_-1
usemtl green2
v -0.345833 5.854274 -0.963975
v -0.345833 5.904274 -0.963975
v -0.410833 5.854274 -1.076558
v -0.410833 5.904274 -1.076558
v -0.210822 5.854274 -1.041924
v -0.210822 5.904274 -1.041924
v -0.275822 5.854274 -1.154507
v -0.275822 5.904274 -1.154507
f 572 574 571
f 575 572 571
f 571 574 573
f 573 575 571
f 572 578 574
f 576 572 575
f 576 578 572
f 574 578 573
f 577 575 573
f 573 578 577
f 577 576 575
f 578 576 577

o FROND_4_4_1
usemtl green2
v -0.410833 5.854274 -1.076558
v -0.410833 5.904274 -1.076558
v -0.345833 5.854274 -0.963975
v -0.345833 5.904274 -0.963975
v -0.545844 5.854274 -0.998610
v -0.545844 5.904274 -0.998610
v -0.480844 5.854274 -0.886026
v -0.480844 5.904274 -0.886026
f 580 582 579
f 583 580 579
f 579 582 581
f 581 583 579
f 580 586 582
f 584 580 583
f 584 586 580
f 582 586 581
f 585 583 581
f 581 586 585
f 585 584 583
f 586 584 585

o FROND_4_5_-1
usemtl green2
v -0.491667 5.754093 -1.216566
v -0.491667 5.804093 -1.216566
v -0.556667 5.754093 -1.329149
v -0.556667 5.804093 -1.329149
v -0.392185 5.754093 -1.274002
v -0.392185 5.804093 -1.274002
v -0.457185 5.754093 -1.386585
v -0.457185 5.804093 -1.386585
f 588 590 587
f 591 588 587
f 587 590 589
f 589 591 587
f 588 594 590
f 592 588 591
f 592 594 588
f 590 594 589
f 593 591 589
f 589 594 593
f 593 592 591
f 594 592 593

o FROND_4_5_1
usemtl green2
v -0.556667 5.754093 -1.329149
v -0.556667 5.804093 -1.329149
v -0.491667 5.754093 -1.216566
v -0.491667 5.804093 -1.216566
v -0.656149 5.754093 -1.271713
v -0.656149 5.804093 -1.271713
v -0.591149 5.754093 -1.159130
v -0.591149 5.804093 -1.159130
f 596 598 595
f 599 596 595
f 595 598 597
f 597 599 595
f 596 602 598
f 600 596 599
f 600 602 596
f 598 602 597
f 601 599 597
f 597 602 601
f 601 600 599
f 602 600 601

o FROND_STEM_5
usemtl green
v 0.150096 6.280000 0.045000
v 0.149886 6.312573 0.021784
v -1.365659 5.679145 -0.853216
v -1.365448 5.646572 -0.830000
v 0.170096 6.280000 0.010359
v -1.345448 5.646572 -0.864641
v 0.170307 6.247427 0.033575
v -1.345238 5.613999 -0.841425
v 0.150307 6.247427 0.068216
v -1.365238 5.613999 -0.806784
v 0.130096 6.280000 0.079641
v -1.385448 5.646572 -0.795359
v 0.129886 6.312573 0.056425
v -1.385659 5.679145 -0.818575
f 604 603 607
f 604 607 605
f 605 607 608
f 605 608 606
f 607 603 609
f 607 609 608
f 608 609 610
f 608 610 606
f 609 603 611
f 609 611 610
f 610 611 612
f 610 612 606
f 611 603 613
f 611 613 612
f 612 613 614
f 612 614 606
f 613 603 615
f 613 615 614
f 614 615 616
f 614 616 606
f 615 603 604
f 615 604 616
f 616 604 605
f 616 605 606

o FROND_5_1_-1
usemtl green2
v -0.046203 6.149429 -0.068333
v -0.046203 6.199429 -0.068333
v -0.158786 6.149429 -0.133333
v -0.158786 6.199429 -0.133333
v 0.093284 6.149429 -0.309932
v 0.093284 6.199429 -0.309932
v -0.019299 6.149429 -0.374932
v -0.019299 6.199429 -0.374932
f 618 620 617
f 621 618 617
f 617 620 619
f 619 621 617
f 618 624 620
f 622 618 621
f 622 624 618
f 620 624 619
f 623 621 619
f 619 624 623
f 623 622 621
f 624 622 623

o FROND_5_1_1
usemtl green2
v -0.158786 6.149429 -0.133333
v -0.158786 6.199429 -0.133333
v -0.046203 6.149429 -0.068333
v -0.046203 6.199429 -0.068333
v -0.298273 6.149429 0.108266
v -0.298273 6.199429 0.108266
v -0.185690 6.149429 0.173266
v -0.185690 6.199429 0.173266
f 626 628 625
f 629 626 625
f 625 628 627
f 627 629 625
f 626 632 628
f 630 626 629
f 630 632 626
f 628 632 627
f 631 629 627
f 627 632 631
f 631 630 629
f 632 630 631

o FROND_5_2_-1
usemtl green2
v -0.298794 6.043857 -0.214167
v -0.298794 6.093857 -0.214167
v -0.411377 6.043857 -0.279167
v -0.411377 6.093857 -0.279167
v -0.179819 6.043857 -0.420236
v -0.179819 6.093857 -0.420236
v -0.292403 6.043857 -0.485236
v -0.292403 6.093857 -0.485236
f 634 636 633
f 637 634 633
f 633 636 635
f 635 637 633
f 634 640 636
f 638 634 637
f 638 640 634
f 636 640 635
f 639 637 635
f 635 640 639
f 639 638 637
f 640 638 639

o FROND_5_2_1
usemtl green2
v -0.411377 6.043857 -0.279167
v -0.411377 6.093857 -0.279167
v -0.298794 6.043857 -0.214167
v -0.298794 6.093857 -0.214167
v -0.530351 6.043857 -0.073097
v -0.530351 6.093857 -0.073097
v -0.417768 6.043857 -0.008097
v -0.417768 6.093857 -0.008097
f 642 644 641
f 645 642 641
f 641 644 643
f 643 645 641
f 642 648 644
f 646 642 645
f 646 648 642
f 644 648 643
f 647 645 643
f 643 648 647
f 647 646 645
f 648 646 647

o FROND_5_3_-1
usemtl green2
v -0.551384 5.938286 -0.360000
v -0.551384 5.988286 -0.360000
v -0.663968 5.938286 -0.425000
v -0.663968 5.988286 -0.425000
v -0.452923 5.938286 -0.530540
v -0.452923 5.988286 -0.530540
v -0.565506 5.938286 -0.595540
v -0.565506 5.988286 -0.595540
f 650 652 649
f 653 650 649
f 649 652 651
f 651 653 649
f 650 656 652
f 654 650 653
f 654 656 650
f 652 656 651
f 655 653 651
f 651 656 655
f 655 654 653
f 656 654 655

o FROND_5_3_1
usemtl green2
v -0.663968 5.938286 -0.425000
v -0.663968 5.988286 -0.425000
v -0.551384 5.938286 -0.360000
v -0.551384 5.988286 -0.360000
v -0.762429 5.938286 -0.254460
v -0.762429 5.988286 -0.254460
v -0.649846 5.938286 -0.189460
v -0.649846 5.988286 -0.189460
f 658 660 657
f 661 658 657
f 657 660 659
f 659 661 657
f 658 664 660
f 662 658 661
f 662 664 658
f 660 664 659
f 663 661 659
f 659 664 663
f 663 662 661
f 664 662 663

o FROND_5_4_-1
usemtl green2
v -0.803975 5.832715 -0.505833
v -0.803975 5.882715 -0.505833
v -0.916558 5.832715 -0.570833
v -0.916558 5.882715 -0.570833
v -0.726026 5.832715 -0.640844
v -0.726026 5.882715 -0.640844
v -0.838610 5.832715 -0.705844
v -0.838610 5.882715 -0.705844
f 666 668 665
f 669 666 665
f 665 668 667
f 667 669 665
f 666 672 668
f 670 666 669
f 670 672 666
f 668 672 667
f 671 669 667
f 667 672 671
f 671 670 669
f 672 670 671

o FROND_5_4_1
usemtl green2
v -0.916558 5.832715 -0.570833
v -0.916558 5.882715 -0.570833
v -0.803975 5.832715 -0.505833
v -0.803975 5.882715 -0.505833
v -0.994507 5.832715 -0.435822
v -0.994507 5.882715 -0.435822
v -0.881924 5.832715 -0.370822
v -0.881924 5.882715 -0.370822
f 674 676 673
f 677 674 673
f 673 676 675
f 675 677 673
f 674 680 676
f 678 674 677
f 678 680 674
f 676 680 675
f 679 677 675
f 675 680 679
f 679 678 677
f 680 678 679

o FROND_5_5_-1
usemtl green2
v -1.056566 5.727143 -0.651667
v -1.056566 5.777143 -0.651667
v -1.169149 5.727143 -0.716667
v -1.169149 5.777143 -0.716667
v -0.999130 5.727143 -0.751149
v -0.999130 5.777143 -0.751149
v -1.111713 5.727143 -0.816149
v -1.111713 5.777143 -0.816149
f 682 684 681
f 685 682 681
f 681 684 683
f 683 685 681
f 682 688 684
f 686 682 685
f 686 688 682
f 684 688 683
f 687 685 683
f 683 688 687
f 687 686 685
f 688 686 687

o FROND_5_5_1
usemtl green2
v -1.169149 5.727143 -0.716667
v -1.169149 5.777143 -0.716667
v -1.056566 5.727143 -0.651667
v -1.056566 5.777143 -0.651667
v -1.226585 5.727143 -0.617185
v -1.226585 5.777143 -0.617185
v -1.114002 5.727143 -0.552185
v -1.114002 5.777143 -0.552185
f 690 692 689
f 693 690 689
f 689 692 691
f 691 693 689
f 690 696 692
f 694 690 693
f 694 696 690
f 692 696 691
f 695 693 691
f 691 696 695
f 695 694 693
f 696 694 695

o FROND_STEM_6
usemtl green
v 0.130000 6.280000 0.120000
v 0.118512 6.318315 0.120000
v -1.631488 5.793608 0.120000
v -1.620000 5.755294 0.120000
v 0.124256 6.299157 0.085359
v -1.625744 5.774451 0.085359
v 0.135744 6.260843 0.085359
v -1.614256 5.736136 0.085359
v 0.141488 6.241685 0.120000
v -1.608512 5.716979 0.120000
v 0.135744 6.260843 0.154641
v -1.614256 5.736136 0.154641
v 0.124256 6.299157 0.154641
v -1.625744 5.774451 0.154641
f 698 697 701
f 698 701 699
f 699 701 702
f 699 702 700
f 701 697 703
f 701 703 702
f 702 703 704
f 702 704 700
f 703 697 705
f 703 705 704
f 704 705 706
f 704 706 700
f 705 697 707
f 705 707 706
f 706 707 708
f 706 708 700
f 707 697 709
f 707 709 708
f 708 709 710
f 708 710 700
f 709 697 698
f 709 698 710
f 710 698 699
f 710 699 700

o FROND_6_1_-1
usemtl green2
v -0.096667 6.167549 0.120000
v -0.096667 6.217549 0.120000
v -0.226667 6.167549 0.120000
v -0.226667 6.217549 0.120000
v -0.096667 6.167549 -0.158974
v -0.096667 6.217549 -0.158974
v -0.226667 6.167549 -0.158974
v -0.226667 6.217549 -0.158974
f 712 714 711
f 715 712 711
f 711 714 713
f 713 715 711
f 712 718 714
f 716 712 715
f 716 718 712
f 714 718 713
f 717 715 713
f 713 718 717
f 717 716 715
f 718 716 717

o FROND_6_1_1
usemtl green2
v -0.226667 6.167549 0.120000
v -0.226667 6.217549 0.120000
v -0.096667 6.167549 0.120000
v -0.096667 6.217549 0.120000
v -0.226667 6.167549 0.398974
v -0.226667 6.217549 0.398974
v -0.096667 6.167549 0.398974
v -0.096667 6.217549 0.398974
f 720 722 719
f 723 720 719
f 719 722 721
f 721 723 719
f 720 726 722
f 724 720 723
f 724 726 720
f 722 726 721
f 725 723 721
f 721 726 725
f 725 724 723
f 726 724 725

o FROND_6_2_-1
usemtl green2
v -0.388333 6.080098 0.120000
v -0.388333 6.130098 0.120000
v -0.518333 6.080098 0.120000
v -0.518333 6.130098 0.120000
v -0.388333 6.080098 -0.117949
v -0.388333 6.130098 -0.117949
v -0.518333 6.080098 -0.117949
v -0.518333 6.130098 -0.117949
f 728 730 727
f 731 728 727
f 727 730 729
f 729 731 727
f 728 734 730
f 732 728 731
f 732 734 728
f 730 734 729
f 733 731 729
f 729 734 733
f 733 732 731
f 734 732 733

o FROND_6_2_1
usemtl green2
v -0.518333 6.080098 0.120000
v -0.518333 6.130098 0.120000
v -0.388333 6.080098 0.120000
v -0.388333 6.130098 0.120000
v -0.518333 6.080098 0.357949
v -0.518333 6.130098 0.357949
v -0.388333 6.080098 0.357949
v -0.388333 6.130098 0.357949
f 736 738 735
f 739 736 735
f 735 738 737
f 737 739 735
f 736 742 738
f 740 736 739
f 740 742 736
f 738 742 737
f 741 739 737
f 737 742 741
f 741 740 739
f 742 740 741

o FROND_6_3_-1
usemtl green2
v -0.680000 5.992647 0.120000
v -0.680000 6.042647 0.120000
v -0.810000 5.992647 0.120000
v -0.810000 6.042647 0.120000
v -0.680000 5.992647 -0.076923
v -0.680000 6.042647 -0.076923
v -0.810000 5.992647 -0.076923
v -0.810000 6.042647 -0.076923
f 744 746 743
f 747 744 743
f 743 746 745
f 745 747 743
f 744 750 746
f 748 744 747
f 748 750 744
f 746 750 745
f 749 747 745
f 745 750 749
f 749 748 747
f 750 748 749

o FROND_6_3_1
usemtl green2
v -0.810000 5.992647 0.120000
v -0.810000 6.042647 0.120000
v -0.680000 5.992647 0.120000
v -0.680000 6.042647 0.120000
v -0.810000 5.992647 0.316923
v -0.810000 6.042647 0.316923
v -0.680000 5.992647 0.316923
v -0.680000 6.042647 0.316923
f 752 754 751
f 755 752 751
f 751 754 753
f 753 755 751
f 752 758 754
f 756 752 755
f 756 758 752
f 754 758 753
f 757 755 753
f 753 758 757
f 757 756 755
f 758 756 757

o FROND_6_4_-1
usemtl green2
v -0.971667 5.905196 0.120000
v -0.971667 5.955196 0.120000
v -1.101667 5.905196 0.120000
v -1.101667 5.955196 0.120000
v -0.971667 5.905196 -0.035897
v -0.971667 5.955196 -0.035897
v -1.101667 5.905196 -0.035897
v -1.101667 5.955196 -0.035897
f 760 762 759
f 763 760 759
f 759 762 761
f 761 763 759
f 760 766 762
f 764 760 763
f 764 766 760
f 762 766 761
f 765 763 761
f 761 766 765
f 765 764 763
f 766 764 765

o FROND_6_4_1
usemtl green2
v -1.101667 5.905196 0.120000
v -1.101667 5.955196 0.120000
v -0.971667 5.905196 0.120000
v -0.971667 5.955196 0.120000
v -1.101667 5.905196 0.275897
v -1.101667 5.955196 0.275897
v -0.971667 5.905196 0.275897
v -0.971667 5.955196 0.275897
f 768 770 767
f 771 768 767
f 767 770 769
f 769 771 767
f 768 774 770
f 772 768 771
f 772 774 768
f 770 774 769
f 773 771 769
f 769 774 773
f 773 772 771
f 774 772 773

o FROND_6_5_-1
usemtl green2
v -1.263333 5.817745 0.120000
v -1.263333 5.867745 0.120000
v -1.393333 5.817745 0.120000
v -1.393333 5.867745 0.120000
v -1.263333 5.817745 0.005128
v -1.263333 5.867745 0.005128
v -1.393333 5.817745 0.005128
v -1.393333 5.867745 0.005128
f 776 778 775
f 779 776 775
f 775 778 777
f 777 779 775
f 776 782 778
f 780 776 779
f 780 782 776
f 778 782 777
f 781 779 777
f 777 782 781
f 781 780 779
f 782 780 781

o FROND_6_5_1
usemtl green2
v -1.393333 5.817745 0.120000
v -1.393333 5.867745 0.120000
v -1.263333 5.817745 0.120000
v -1.263333 5.867745 0.120000
v -1.393333 5.817745 0.234872
v -1.393333 5.867745 0.234872
v -1.263333 5.817745 0.234872
v -1.263333 5.867745 0.234872
f 784 786 783
f 787 784 783
f 783 786 785
f 785 787 783
f 784 790 786
f 788 784 787
f 788 790 784
f 786 790 785
f 789 787 785
f 785 790 789
f 789 788 787
f 790 788 789

o FROND_STEM_7
usemtl green
v 0.150096 6.280000 0.195000
v 0.153812 6.313873 0.215949
v -1.361732 5.938990 1.090949
v -1.365448 5.905118 1.070000
v 0.133812 6.313873 0.181308
v -1.381732 5.938990 1.056308
v 0.130096 6.280000 0.160359
v -1.385448 5.905118 1.035359
v 0.146380 6.246127 0.174051
v -1.369164 5.871245 1.049051
v 0.166380 6.246127 0.208692
v -1.349164 5.871245 1.083692
v 0.170096 6.280000 0.229641
v -1.345448 5.905118 1.104641
f 792 791 795
f 792 795 793
f 793 795 796
f 793 796 794
f 795 791 797
f 795 797 796
f 796 797 798
f 796 798 794
f 797 791 799
f 797 799 798
f 798 799 800
f 798 800 794
f 799 791 801
f 799 801 800
f 800 801 802
f 800 802 794
f 801 791 803
f 801 803 802
f 802 803 804
f 802 804 794
f 803 791 792
f 803 792 804
f 804 792 793
f 804 793 794

o FROND_7_1_-1
usemtl green2
v -0.046203 6.192520 0.308333
v -0.046203 6.242520 0.308333
v -0.158786 6.192520 0.373333
v -0.158786 6.242520 0.373333
v -0.185690 6.192520 0.066734
v -0.185690 6.242520 0.066734
v -0.298273 6.192520 0.131734
v -0.298273 6.242520 0.131734
f 806 808 805
f 809 806 805
f 805 808 807
f 807 809 805
f 806 812 808
f 810 806 809
f 810 812 806
f 808 812 807
f 811 809 807
f 807 812 811
f 811 810 809
f 812 810 811

o FROND_7_1_1
usemtl green2
v -0.158786 6.192520 0.373333
v -0.158786 6.242520 0.373333
v -0.046203 6.192520 0.308333
v -0.046203 6.242520 0.308333
v -0.019299 6.192520 0.614932
v -0.019299 6.242520 0.614932
v 0.093284 6.192520 0.549932
v 0.093284 6.242520 0.549932
f 814 816 813
f 817 814 813
f 813 816 815
f 815 817 813
f 814 820 816
f 818 814 817
f 818 820 814
f 816 820 815
f 819 817 815
f 815 820 819
f 819 818 817
f 820 818 819

o FROND_7_2_-1
usemtl green2
v -0.298794 6.130039 0.454167
v -0.298794 6.180039 0.454167
v -0.411377 6.130039 0.519167
v -0.411377 6.180039 0.519167
v -0.417768 6.130039 0.248097
v -0.417768 6.180039 0.248097
v -0.530351 6.130039 0.313097
v -0.530351 6.180039 0.313097
f 822 824 821
f 825 822 821
f 821 824 823
f 823 825 821
f 822 828 824
f 826 822 825
f 826 828 822
f 824 828 823
f 827 825 823
f 823 828 827
f 827 826 825
f 828 826 827

o FROND_7_2_1
usemtl green2
v -0.411377 6.130039 0.519167
v -0.411377 6.180039 0.519167
v -0.298794 6.130039 0.454167
v -0.298794 6.180039 0.454167
v -0.292403 6.130039 0.725236
v -0.292403 6.180039 0.725236
v -0.179819 6.130039 0.660236
v -0.179819 6.180039 0.660236
f 830 832 829
f 833 830 829
f 829 832 831
f 831 833 829
f 830 836 832
f 834 830 833
f 834 836 830
f 832 836 831
f 835 833 831
f 831 836 835
f 835 834 833
f 836 834 835

o FROND_7_3_-1
usemtl green2
v -0.551384 6.067559 0.600000
v -0.551384 6.117559 0.600000
v -0.663968 6.067559 0.665000
v -0.663968 6.117559 0.665000
v -0.649846 6.067559 0.429460
v -0.649846 6.117559 0.429460
v -0.762429 6.067559 0.494460
v -0.762429 6.117559 0.494460
f 838 840 837
f 841 838 837
f 837 840 839
f 839 841 837
f 838 844 840
f 842 838 841
f 842 844 838
f 840 844 839
f 843 841 839
f 839 844 843
f 843 842 841
f 844 842 843

o FROND_7_3_1
usemtl green2
v -0.663968 6.067559 0.665000
v -0.663968 6.117559 0.665000
v -0.551384 6.067559 0.600000
v -0.551384 6.117559 0.600000
v -0.565506 6.067559 0.835540
v -0.565506 6.117559 0.835540
v -0.452923 6.067559 0.770540
v -0.452923 6.117559 0.770540
f 846 848 845
f 849 846 845
f 845 848 847
f 847 849 845
f 846 852 848
f 850 846 849
f 850 852 846
f 848 852 847
f 851 849 847
f 847 852 851
f 851 850 849
f 852 850 851

o FROND_7_4_-1
usemtl green2
v -0.803975 6.005079 0.745833
v -0.803975 6.055079 0.745833
v -0.916558 6.005079 0.810833
v -0.916558 6.055079 0.810833
v -0.881924 6.005079 0.610822
v -0.881924 6.055079 0.610822
v -0.994507 6.005079 0.675822
v -0.994507 6.055079 0.675822
f 854 856 853
f 857 854 853
f 853 856 855
f 855 857 853
f 854 860 856
f 858 854 857
f 858 860 854
f 856 860 855
f 859 857 855
f 855 860 859
f 859 858 857
f 860 858 859

o FROND_7_4_1
usemtl green2
v -0.916558 6.005079 0.810833
v -0.916558 6.055079 0.810833
v -0.803975 6.005079 0.745833
v -0.803975 6.055079 0.745833
v -0.838610 6.005079 0.945844
v -0.838610 6.055079 0.945844
v -0.726026 6.005079 0.880844
v -0.726026 6.055079 0.880844
f 862 864 861
f 865 862 861
f 861 864 863
f 863 865 861
f 862 868 864
f 866 862 865
f 866 868 862
f 864 868 863
f 867 865 863
f 863 868 867
f 867 866 865
f 868 866 867

o FROND_7_5_-1
usemtl green2
v -1.056566 5.942598 0.891667
v -1.056566 5.992598 0.891667
v -1.169149 5.942598 0.956667
v -1.169149 5.992598 0.956667
v -1.114002 5.942598 0.792185
v -1.114002 5.992598 0.792185
v -1.226585 5.942598 0.857185
v -1.226585 5.992598 0.857185
f 870 872 869
f 873 870 869
f 869 872 871
f 871 873 869
f 870 876 872
f 874 870 873
f 874 876 870
f 872 876 871
f 875 873 871
f 871 876 875
f 875 874 873
f 876 874 875

o FROND_7_5_1
usemtl green2
v -1.169149 5.942598 0.956667
v -1.169149 5.992598 0.956667
v -1.056566 5.942598 0.891667
v -1.056566 5.992598 0.891667
v -1.111713 5.942598 1.056149
v -1.111713 5.992598 1.056149
v -0.999130 5.942598 0.991149
v -0.999130 5.992598 0.991149
f 878 880 877
f 881 878 877
f 877 880 879
f 879 881 877
f 878 884 880
f 882 878 881
f 882 884 878
f 880 884 879
f 883 881 879
f 879 884 883
f 883 882 881
f 884 882 883

o FROND_STEM_8
usemtl green
v 0.205000 6.280000 0.249904
v 0.233192 6.299670 0.270356
v -0.641808 5.977968 1.785900
v -0.670000 5.958297 1.765448
v 0.201384 6.319341 0.256167
v -0.673616 5.997638 1.771711
v 0.173192 6.299670 0.235715
v -0.701808 5.977968 1.751259
v 0.176808 6.260330 0.229452
v -0.698192 5.938627 1.744996
v 0.208616 6.240659 0.243641
v -0.666384 5.918957 1.759185
v 0.236808 6.260330 0.264093
v -0.638192 5.938627 1.779637
f 886 885 889
f 886 889 887
f 887 889 890
f 887 890 888
f 889 885 891
f 889 891 890
f 890 891 892
f 890 892 888
f 891 885 893
f 891 893 892
f 892 893 894
f 892 894 888
f 893 885 895
f 893 895 894
f 894 895 896
f 894 896 888
f 895 885 897
f 895 897 896
f 896 897 898
f 896 898 888
f 897 885 886
f 897 886 898
f 898 886 887
f 898 887 888

o FROND_8_1_-1
usemtl green2
v 0.091667 6.201383 0.446203
v 0.091667 6.251383 0.446203
v 0.026667 6.201383 0.558786
v 0.026667 6.251383 0.558786
v -0.149932 6.201383 0.306716
v -0.149932 6.251383 0.306716
v -0.214932 6.201383 0.419299
v -0.214932 6.251383 0.419299
f 900 902 899
f 903 900 899
f 899 902 901
f 901 903 899
f 900 906 902
f 904 900 903
f 904 906 900
f 902 906 901
f 905 903 901
f 901 906 905
f 905 904 903
f 906 904 905

o FROND_8_1_1
usemtl green2
v 0.026667 6.201383 0.558786
v 0.026667 6.251383 0.558786
v 0.091667 6.201383 0.446203
v 0.091667 6.251383 0.446203
v 0.268266 6.201383 0.698273
v 0.268266 6.251383 0.698273
v 0.333266 6.201383 0.585690
v 0.333266 6.251383 0.585690
f 908 910 907
f 911 908 907
f 907 910 909
f 909 911 907
f 908 914 910
f 912 908 911
f 912 914 908
f 910 914 909
f 913 911 909
f 909 914 913
f 913 912 911
f 914 912 913

o FROND_8_2_-1
usemtl green2
v -0.054167 6.147766 0.698794
v -0.054167 6.197766 0.698794
v -0.119167 6.147766 0.811377
v -0.119167 6.197766 0.811377
v -0.260236 6.147766 0.579819
v -0.260236 6.197766 0.579819
v -0.325236 6.147766 0.692403
v -0.325236 6.197766 0.692403
f 916 918 915
f 919 916 915
f 915 918 917
f 917 919 915
f 916 922 918
f 920 916 919
f 920 922 916
f 918 922 917
f 921 919 917
f 917 922 921
f 921 920 919
f 922 920 921

o FROND_8_2_1
usemtl green2
v -0.119167 6.147766 0.811377
v -0.119167 6.197766 0.811377
v -0.054167 6.147766 0.698794
v -0.054167 6.197766 0.698794
v 0.086903 6.147766 0.930351
v 0.086903 6.197766 0.930351
v 0.151903 6.147766 0.817768
v 0.151903 6.197766 0.817768
f 924 926 923
f 927 924 923
f 923 926 925
f 925 927 923
f 924 930 926
f 928 924 927
f 928 930 924
f 926 930 925
f 929 927 925
f 925 930 929
f 929 928 927
f 930 928 929

o FROND_8_3_-1
usemtl green2
v -0.200000 6.094149 0.951384
v -0.200000 6.144149 0.951384
v -0.265000 6.094149 1.063968
v -0.265000 6.144149 1.063968
v -0.370540 6.094149 0.852923
v -0.370540 6.144149 0.852923
v -0.435540 6.094149 0.965506
v -0.435540 6.144149 0.965506
f 932 934 931
f 935 932 931
f 931 934 933
f 933 935 931
f 932 938 934
f 936 932 935
f 936 938 932
f 934 938 933
f 937 935 933
f 933 938 937
f 937 936 935
f 938 936 937

o FROND_8_3_1
usemtl green2
v -0.265000 6.094149 1.063968
v -0.265000 6.144149 1.063968
v -0.200000 6.094149 0.951384
v -0.200000 6.144149 0.951384
v -0.094460 6.094149 1.162429
v -0.094460 6.144149 1.162429
v -0.029460 6.094149 1.049846
v -0.029460 6.144149 1.049846
f 940 942 939
f 943 940 939
f 939 942 941
f 941 943 939
f 940 946 942
f 944 940 943
f 944 946 940
f 942 946 941
f 945 943 941
f 941 946 945
f 945 944 943
f 946 944 945

o FROND_8_4_-1
usemtl green2
v -0.345833 6.040532 1.203975
v -0.345833 6.090532 1.203975
v -0.410833 6.040532 1.316558
v -0.410833 6.090532 1.316558
v -0.480844 6.040532 1.126026
v -0.480844 6.090532 1.126026
v -0.545844 6.040532 1.238610
v -0.545844 6.090532 1.238610
f 948 950 947
f 951 948 947
f 947 950 949
f 949 951 947
f 948 954 950
f 952 948 951
f 952 954 948
f 950 954 949
f 953 951 949
f 949 954 953
f 953 952 951
f 954 952 953

o FROND_8_4_1
usemtl green2
v -0.410833 6.040532 1.316558
v -0.410833 6.090532 1.316558
v -0.345833 6.040532 1.203975
v -0.345833 6.090532 1.203975
v -0.275822 6.040532 1.394507
v -0.275822 6.090532 1.394507
v -0.210822 6.040532 1.281924
v -0.210822 6.090532 1.281924
f 956 958 955
f 959 956 955
f 955 958 957
f 957 959 955
f 956 962 958
f 960 956 959
f 960 962 956
f 958 962 957
f 961 959 957
f 957 962 961
f 961 960 959
f 962 960 961

o FROND_8_5_-1
usemtl green2
v -0.491667 5.986914 1.456566
v -0.491667 6.036914 1.456566
v -0.556667 5.986914 1.569149
v -0.556667 6.036914 1.569149
v -0.591149 5.986914 1.399130
v -0.591149 6.036914 1.399130
v -0.656149 5.986914 1.511713
v -0.656149 6.036914 1.511713
f 964 966 963
f 967 964 963
f 963 966 965
f 965 967 963
f 964 970 966
f 968 964 967
f 968 970 964
f 966 970 965
f 969 967 965
f 965 970 969
f 969 968 967
f 970 968 969

o FROND_8_5_1
usemtl green2
v -0.556667 5.986914 1.569149
v -0.556667 6.036914 1.569149
v -0.491667 5.986914 1.456566
v -0.491667 6.036914 1.456566
v -0.457185 5.986914 1.626585
v -0.457185 6.036914 1.626585
v -0.392185 5.986914 1.514002
v -0.392185 6.036914 1.514002
f 972 974 971
f 975 972 971
f 971 974 973
f 973 975 971
f 972 978 974
f 976 972 975
f 976 978 972
f 974 978 973
f 977 975 973
f 973 978 977
f 977 976 975
f 978 976 977

o FROND_STEM_9
usemtl green
v 0.280000 6.280000 0.270000
v 0.320000 6.280000 0.270000
v 0.320000 5.865939 2.020000
v 0.280000 5.865939 2.020000
v 0.300000 6.313710 0.277976
v 0.300000 5.899649 2.027976
v 0.260000 6.313710 0.277976
v 0.260000 5.899649 2.027976
v 0.240000 6.280000 0.270000
v 0.240000 5.865939 2.020000
v 0.260000 6.246290 0.262024
v 0.260000 5.832229 2.012024
v 0.300000 6.246290 0.262024
v 0.300000 5.832229 2.012024
f 980 979 983
f 980 983 981
f 981 983 984
f 981 984 982
f 983 979 985
f 983 985 984
f 984 985 986
f 984 986 982
f 985 979 987
f 985 987 986
f 986 987 988
f 986 988 982
f 987 979 989
f 987 989 988
f 988 989 990
f 988 990 982
f 989 979 991
f 989 991 990
f 990 991 992
f 990 992 982
f 991 979 980
f 991 980 992
f 992 980 981
f 992 981 982

o FROND_9_1_-1
usemtl green2
v 0.280000 6.185990 0.496667
v 0.280000 6.235990 0.496667
v 0.280000 6.185990 0.626667
v 0.280000 6.235990 0.626667
v 0.001026 6.185990 0.496667
v 0.001026 6.235990 0.496667
v 0.001026 6.185990 0.626667
v 0.001026 6.235990 0.626667
f 994 996 993
f 997 994 993
f 993 996 995
f 995 997 993
f 994 1000 996
f 998 994 997
f 998 1000 994
f 996 1000 995
f 999 997 995
f 995 1000 999
f 999 998 997
f 1000 998 999

o FROND_9_1_1
usemtl green2
v 0.280000 6.185990 0.626667
v 0.280000 6.235990 0.626667
v 0.280000 6.185990 0.496667
v 0.280000 6.235990 0.496667
v 0.558974 6.185990 0.626667
v 0.558974 6.235990 0.626667
v 0.558974 6.185990 0.496667
v 0.558974 6.235990 0.496667
f 1002 1004 1001
f 1005 1002 1001
f 1001 1004 1003
f 1003 1005 1001
f 1002 1008 1004
f 1006 1002 1005
f 1006 1008 1002
f 1004 1008 1003
f 1007 1005 1003
f 1003 1008 1007
f 1007 1006 1005
f 1008 1006 1007

o FROND_9_2_-1
usemtl green2
v 0.280000 6.116980 0.788333
v 0.280000 6.166980 0.788333
v 0.280000 6.116980 0.918333
v 0.280000 6.166980 0.918333
v 0.042051 6.116980 0.788333
v 0.042051 6.166980 0.788333
v 0.042051 6.116980 0.918333
v 0.042051 6.166980 0.918333
f 1010 1012 1009
f 1013 1010 1009
f 1009 1012 1011
f 1011 1013 1009
f 1010 1016 1012
f 1014 1010 1013
f 1014 1016 1010
f 1012 1016 1011
f 1015 1013 1011
f 1011 1016 1015
f 1015 1014 1013
f 1016 1014 1015

o FROND_9_2_1
usemtl green2
v 0.280000 6.116980 0.918333
v 0.280000 6.166980 0.918333
v 0.280000 6.116980 0.788333
v 0.280000 6.166980 0.788333
v 0.517949 6.116980 0.918333
v 0.517949 6.166980 0.918333
v 0.517949 6.116980 0.788333
v 0.517949 6.166980 0.788333
f 1018 1020 1017
f 1021 1018 1017
f 1017 1020 1019
f 1019 1021 1017
f 1018 1024 1020
f 1022 1018 1021
f 1022 1024 1018
f 1020 1024 1019
f 1023 1021 1019
f 1019 1024 1023
f 1023 1022 1021
f 1024 1022 1023

o FROND_9_3_-1
usemtl green2
v 0.280000 6.047969 1.080000
v 0.280000 6.097969 1.080000
v 0.280000 6.047969 1.210000
v 0.280000 6.097969 1.210000
v 0.083077 6.047969 1.080000
v 0.083077 6.097969 1.080000
v 0.083077 6.047969 1.210000
v 0.083077 6.097969 1.210000
f 1026 1028 1025
f 1029 1026 1025
f 1025 1028 1027
f 1027 1029 1025
f 1026 1032 1028
f 1030 1026 1029
f 1030 1032 1026
f 1028 1032 1027
f 1031 1029 1027
f 1027 1032 1031
f 1031 1030 1029
f 1032 1030 1031

o FROND_9_3_1
usemtl green2
v 0.280000 6.047969 1.210000
v 0.280000 6.097969 1.210000
v 0.280000 6.047969 1.080000
v 0.280000 6.097969 1.080000
v 0.476923 6.047969 1.210000
v 0.476923 6.097969 1.210000
v 0.476923 6.047969 1.080000
v 0.476923 6.097969 1.080000
f 1034 1036 1033
f 1037 1034 1033
f 1033 1036 1035
f 1035 1037 1033
f 1034 1040 1036
f 1038 1034 1037
f 1038 1040 1034
f 1036 1040 1035
f 1039 1037 1035
f 1035 1040 1039
f 1039 1038 1037
f 1040 1038 1039

o FROND_9_4_-1
usemtl green2
v 0.280000 5.978959 1.371667
v 0.280000 6.028959 1.371667
v 0.280000 5.978959 1.501667
v 0.280000 6.028959 1.501667
v 0.124103 5.978959 1.371667
v 0.124103 6.028959 1.371667
v 0.124103 5.978959 1.501667
v 0.124103 6.028959 1.501667
f 1042 1044 1041
f 1045 1042 1041
f 1041 1044 1043
f 1043 1045 1041
f 1042 1048 1044
f 1046 1042 1045
f 1046 1048 1042
f 1044 1048 1043
f 1047 1045 1043
f 1043 1048 1047
f 1047 1046 1045
f 1048 1046 1047

o FROND_9_4_1
usemtl green2
v 0.280000 5.978959 1.501667
v 0.280000 6.028959 1.501667
v 0.280000 5.978959 1.371667
v 0.280000 6.028959 1.371667
v 0.435897 5.978959 1.501667
v 0.435897 6.028959 1.501667
v 0.435897 5.978959 1.371667
v 0.435897 6.028959 1.371667
f 1050 1052 1049
f 1053 1050 1049
f 1049 1052 1051
f 1051 1053 1049
f 1050 1056 1052
f 1054 1050 1053
f 1054 1056 1050
f 1052 1056 1051
f 1055 1053 1051
f 1051 1056 1055
f 1055 1054 1053
f 1056 1054 1055

o FROND_9_5_-1
usemtl green2
v 0.280000 5.909949 1.663333
v 0.280000 5.959949 1.663333
v 0.280000 5.909949 1.793333
v 0.280000 5.959949 1.793333
v 0.165128 5.909949 1.663333
v 0.165128 5.959949 1.663333
v 0.165128 5.909949 1.793333
v 0.165128 5.959949 1.793333
f 1058 1060 1057
f 1061 1058 1057
f 1057 1060 1059
f 1059 1061 1057
f 1058 1064 1060
f 1062 1058 1061
f 1062 1064 1058
f 1060 1064 1059
f 1063 1061 1059
f 1059 1064 1063
f 1063 1062 1061
f 1064 1062 1063

o FROND_9_5_1
usemtl green2
v 0.280000 5.909949 1.793333
v 0.280000 5.959949 1.793333
v 0.280000 5.909949 1.663333
v 0.280000 5.959949 1.663333
v 0.394872 5.909949 1.793333
v 0.394872 5.959949 1.793333
v 0.394872 5.909949 1.663333
v 0.394872 5.959949 1.663333
f 1066 1068 1065
f 1069 1066 1065
f 1065 1068 1067
f 1067 1069 1065
f 1066 1072 1068
f 1070 1066 1069
f 1070 1072 1066
f 1068 1072 1067
f 1071 1069 1067
f 1067 1072 1071
f 1071 1070 1069
f 1072 1070 1071

o FROND_STEM_10
usemtl green
v 0.355000 6.280000 0.249904
v 0.381918 6.260974 0.227244
v 1.256918 5.693930 1.742789
v 1.230000 5.712957 1.765448
v 0.388082 6.299026 0.237922
v 1.263082 5.731983 1.753467
v 0.361165 6.318052 0.260582
v 1.236165 5.751009 1.776126
v 0.328082 6.299026 0.272563
v 1.203082 5.731983 1.788108
v 0.321918 6.260974 0.261885
v 1.196918 5.693930 1.777430
v 0.348835 6.241948 0.239226
v 1.223835 5.674904 1.754770
f 1074 1073 1077
f 1074 1077 1075
f 1075 1077 1078
f 1075 1078 1076
f 1077 1073 1079
f 1077 1079 1078
f 1078 1079 1080
f 1078 1080 1076
f 1079 1073 1081
f 1079 1081 1080
f 1080 1081 1082
f 1080 1082 1076
f 1081 1073 1083
f 1081 1083 1082
f 1082 1083 1084
f 1082 1084 1076
f 1083 1073 1085
f 1083 1085 1084
f 1084 1085 1086
f 1084 1086 1076
f 1085 1073 1074
f 1085 1074 1086
f 1086 1074 1075
f 1086 1075 1076

o FROND_10_1_-1
usemtl green2
v 0.468333 6.160493 0.446203
v 0.468333 6.210493 0.446203
v 0.533333 6.160493 0.558786
v 0.533333 6.210493 0.558786
v 0.226734 6.160493 0.585690
v 0.226734 6.210493 0.585690
v 0.291734 6.160493 0.698273
v 0.291734 6.210493 0.698273
f 1088 1090 1087
f 1091 1088 1087
f 1087 1090 1089
f 1089 1091 1087
f 1088 1094 1090
f 1092 1088 1091
f 1092 1094 1088
f 1090 1094 1089
f 1093 1091 1089
f 1089 1094 1093
f 1093 1092 1091
f 1094 1092 1093

o FROND_10_1_1
usemtl green2
v 0.533333 6.160493 0.558786
v 0.533333 6.210493 0.558786
v 0.468333 6.160493 0.446203
v 0.468333 6.210493 0.446203
v 0.774932 6.160493 0.419299
v 0.774932 6.210493 0.419299
v 0.709932 6.160493 0.306716
v 0.709932 6.210493 0.306716
f 1096 1098 1095
f 1099 1096 1095
f 1095 1098 1097
f 1097 1099 1095
f 1096 1102 1098
f 1100 1096 1099
f 1100 1102 1096
f 1098 1102 1097
f 1101 1099 1097
f 1097 1102 1101
f 1101 1100 1099
f 1102 1100 1101

o FROND_10_2_-1
usemtl green2
v 0.614167 6.065986 0.698794
v 0.614167 6.115986 0.698794
v 0.679167 6.065986 0.811377
v 0.679167 6.115986 0.811377
v 0.408097 6.065986 0.817768
v 0.408097 6.115986 0.817768
v 0.473097 6.065986 0.930351
v 0.473097 6.115986 0.930351
f 1104 1106 1103
f 1107 1104 1103
f 1103 1106 1105
f 1105 1107 1103
f 1104 1110 1106
f 1108 1104 1107
f 1108 1110 1104
f 1106 1110 1105
f 1109 1107 1105
f 1105 1110 1109
f 1109 1108 1107
f 1110 1108 1109

o FROND_10_2_1
usemtl green2
v 0.679167 6.065986 0.811377
v 0.679167 6.115986 0.811377
v 0.614167 6.065986 0.698794
v 0.614167 6.115986 0.698794
v 0.885236 6.065986 0.692403
v 0.885236 6.115986 0.692403
v 0.820236 6.065986 0.579819
v 0.820236 6.115986 0.579819
f 1112 1114 1111
f 1115 1112 1111
f 1111 1114 1113
f 1113 1115 1111
f 1112 1118 1114
f 1116 1112 1115
f 1116 1118 1112
f 1114 1118 1113
f 1117 1115 1113
f 1113 1118 1117
f 1117 1116 1115
f 1118 1116 1117

o FROND_10_3_-1
usemtl green2
v 0.760000 5.971478 0.951384
v 0.760000 6.021478 0.951384
v 0.825000 5.971478 1.063968
v 0.825000 6.021478 1.063968
v 0.589460 5.971478 1.049846
v 0.589460 6.021478 1.049846
v 0.654460 5.971478 1.162429
v 0.654460 6.021478 1.162429
f 1120 1122 1119
f 1123 1120 1119
f 1119 1122 1121
f 1121 1123 1119
f 1120 1126 1122
f 1124 1120 1123
f 1124 1126 1120
f 1122 1126 1121
f 1125 1123 1121
f 1121 1126 1125
f 1125 1124 1123
f 1126 1124 1125

o FROND_10_3_1
usemtl green2
v 0.825000 5.971478 1.063968
v 0.825000 6.021478 1.063968
v 0.760000 5.971478 0.951384
v 0.760000 6.021478 0.951384
v 0.995540 5.971478 0.965506
v 0.995540 6.021478 0.965506
v 0.930540 5.971478 0.852923
v 0.930540 6.021478 0.852923
f 1128 1130 1127
f 1131 1128 1127
f 1127 1130 1129
f 1129 1131 1127
f 1128 1134 1130
f 1132 1128 1131
f 1132 1134 1128
f 1130 1134 1129
f 1133 1131 1129
f 1129 1134 1133
f 1133 1132 1131
f 1134 1132 1133

o FROND_10_4_-1
usemtl green2
v 0.905833 5.876971 1.203975
v 0.905833 5.926971 1.203975
v 0.970833 5.876971 1.316558
v 0.970833 5.926971 1.316558
v 0.770822 5.876971 1.281924
v 0.770822 5.926971 1.281924
v 0.835822 5.876971 1.394507
v 0.835822 5.926971 1.394507
f 1136 1138 1135
f 1139 1136 1135
f 1135 1138 1137
f 1137 1139 1135
f 1136 1142 1138
f 1140 1136 1139
f 1140 1142 1136
f 1138 1142 1137
f 1141 1139 1137
f 1137 1142 1141
f 1141 1140 1139
f 1142 1140 1141

o FROND_10_4_1
usemtl green2
v 0.970833 5.876971 1.316558
v 0.970833 5.926971 1.316558
v 0.905833 5.876971 1.203975
v 0.905833 5.926971 1.203975
v 1.105844 5.876971 1.238610
v 1.105844 5.926971 1.238610
v 1.040844 5.876971 1.126026
v 1.040844 5.926971 1.126026
f 1144 1146 1143
f 1147 1144 1143
f 1143 1146 1145
f 1145 1147 1143
f 1144 1150 1146
f 1148 1144 1147
f 1148 1150 1144
f 1146 1150 1145
f 1149 1147 1145
f 1145 1150 1149
f 1149 1148 1147
f 1150 1148 1149

o FROND_10_5_-1
usemtl green2
v 1.051667 5.782464 1.456566
v 1.051667 5.832464 1.456566
v 1.116667 5.782464 1.569149
v 1.116667 5.832464 1.569149
v 0.952185 5.782464 1.514002
v 0.952185 5.832464 1.514002
v 1.017185 5.782464 1.626585
v 1.017185 5.832464 1.626585
f 1152 1154 1151
f 1155 1152 1151
f 1151 1154 1153
f 1153 1155 1151
f 1152 1158 1154
f 1156 1152 1155
f 1156 1158 1152
f 1154 1158 1153
f 1157 1155 1153
f 1153 1158 1157
f 1157 1156 1155
f 1158 1156 1157

o FROND_10_5_1
usemtl green2
v 1.116667 5.782464 1.569149
v 1.116667 5.832464 1.569149
v 1.051667 5.782464 1.456566
v 1.051667 5.832464 1.456566
v 1.216149 5.782464 1.511713
v 1.216149 5.832464 1.511713
v 1.151149 5.782464 1.399130
v 1.151149 5.832464 1.399130
f 1160 1162 1159
f 1163 1160 1159
f 1159 1162 1161
f 1161 1163 1159
f 1160 1166 1162
f 1164 1160 1163
f 1164 1166 1160
f 1162 1166 1161
f 1165 1163 1161
f 1161 1166 1165
f 1165 1164 1163
f 1166 1164 1165

o FROND_STEM_11
usemtl green
v 0.409904 6.280000 0.195000
v 0.409600 6.247466 0.171730
v 1.925144 5.607468 1.046730
v 1.925448 5.640002 1.070000
v 0.429904 6.280000 0.160359
v 1.945448 5.640002 1.035359
v 0.430208 6.312534 0.183628
v 1.945752 5.672535 1.058628
v 0.410208 6.312534 0.218270
v 1.925752 5.672535 1.093270
v 0.389904 6.280000 0.229641
v 1.905448 5.640002 1.104641
v 0.389600 6.247466 0.206372
v 1.905144 5.607468 1.081372
f 1168 1167 1171
f 1168 1171 1169
f 1169 1171 1172
f 1169 1172 1170
f 1171 1167 1173
f 1171 1173 1172
f 1172 1173 1174
f 1172 1174 1170
f 1173 1167 1175
f 1173 1175 1174
f 1174 1175 1176
f 1174 1176 1170
f 1175 1167 1177
f 1175 1177 1176
f 1176 1177 1178
f 1176 1178 1170
f 1177 1167 1179
f 1177 1179 1178
f 1178 1179 1180
f 1178 1180 1170
f 1179 1167 1168
f 1179 1168 1180
f 1180 1168 1169
f 1180 1169 1170

o FROND_11_1_-1
usemtl green2
v 0.606203 6.148334 0.308333
v 0.606203 6.198334 0.308333
v 0.718786 6.148334 0.373333
v 0.718786 6.198334 0.373333
v 0.466716 6.148334 0.549932
v 0.466716 6.198334 0.549932
v 0.579299 6.148334 0.614932
v 0.579299 6.198334 0.614932
f 1182 1184 1181
f 1185 1182 1181
f 1181 1184 1183
f 1183 1185 1181
f 1182 1188 1184
f 1186 1182 1185
f 1186 1188 1182
f 1184 1188 1183
f 1187 1185 1183
f 1183 1188 1187
f 1187 1186 1185
f 1188 1186 1187

o FROND_11_1_1
usemtl green2
v 0.718786 6.148334 0.373333
v 0.718786 6.198334 0.373333
v 0.606203 6.148334 0.308333
v 0.606203 6.198334 0.308333
v 0.858273 6.148334 0.131734
v 0.858273 6.198334 0.131734
v 0.745690 6.148334 0.066734
v 0.745690 6.198334 0.066734
f 1190 1192 1189
f 1193 1190 1189
f 1189 1192 1191
f 1191 1193 1189
f 1190 1196 1192
f 1194 1190 1193
f 1194 1196 1190
f 1192 1196 1191
f 1195 1193 1191
f 1191 1196 1195
f 1195 1194 1193
f 1196 1194 1195

o FROND_11_2_-1
usemtl green2
v 0.858794 6.041667 0.454167
v 0.858794 6.091667 0.454167
v 0.971377 6.041667 0.519167
v 0.971377 6.091667 0.519167
v 0.739819 6.041667 0.660236
v 0.739819 6.091667 0.660236
v 0.852403 6.041667 0.725236
v 0.852403 6.091667 0.725236
f 1198 1200 1197
f 1201 1198 1197
f 1197 1200 1199
f 1199 1201 1197
f 1198 1204 1200
f 1202 1198 1201
f 1202 1204 1198
f 1200 1204 1199
f 1203 1201 1199
f 1199 1204 1203
f 1203 1202 1201
f 1204 1202 1203

o FROND_11_2_1
usemtl green2
v 0.971377 6.041667 0.519167
v 0.971377 6.091667 0.519167
v 0.858794 6.041667 0.454167
v 0.858794 6.091667 0.454167
v 1.090351 6.041667 0.313097
v 1.090351 6.091667 0.313097
v 0.977768 6.041667 0.248097
v 0.977768 6.091667 0.248097
f 1206 1208 1205
f 1209 1206 1205
f 1205 1208 1207
f 1207 1209 1205
f 1206 1212 1208
f 1210 1206 1209
f 1210 1212 1206
f 1208 1212 1207
f 1211 1209 1207
f 1207 1212 1211
f 1211 1210 1209
f 1212 1210 1211

o FROND_11_3_-1
usemtl green2
v 1.111384 5.935001 0.600000
v 1.111384 5.985001 0.600000
v 1.223968 5.935001 0.665000
v 1.223968 5.985001 0.665000
v 1.012923 5.935001 0.770540
v 1.012923 5.985001 0.770540
v 1.125506 5.935001 0.835540
v 1.125506 5.985001 0.835540
f 1214 1216 1213
f 1217 1214 1213
f 1213 1216 1215
f 1215 1217 1213
f 1214 1220 1216
f 1218 1214 1217
f 1218 1220 1214
f 1216 1220 1215
f 1219 1217 1215
f 1215 1220 1219
f 1219 1218 1217
f 1220 1218 1219

o FROND_11_3_1
usemtl green2
v 1.223968 5.935001 0.665000
v 1.223968 5.985001 0.665000
v 1.111384 5.935001 0.600000
v 1.111384 5.985001 0.600000
v 1.322429 5.935001 0.494460
v 1.322429 5.985001 0.494460
v 1.209846 5.935001 0.429460
v 1.209846 5.985001 0.429460
f 1222 1224 1221
f 1225 1222 1221
f 1221 1224 1223
f 1223 1225 1221
f 1222 1228 1224
f 1226 1222 1225
f 1226 1228 1222
f 1224 1228 1223
f 1227 1225 1223
f 1223 1228 1227
f 1227 1226 1225
f 1228 1226 1227

o FROND_11_4_-1
usemtl green2
v 1.363975 5.828334 0.745833
v 1.363975 5.878334 0.745833
v 1.476558 5.828334 0.810833
v 1.476558 5.878334 0.810833
v 1.286026 5.828334 0.880844
v 1.286026 5.878334 0.880844
v 1.398610 5.828334 0.945844
v 1.398610 5.878334 0.945844
f 1230 1232 1229
f 1233 1230 1229
f 1229 1232 1231
f 1231 1233 1229
f 1230 1236 1232
f 1234 1230 1233
f 1234 1236 1230
f 1232 1236 1231
f 1235 1233 1231
f 1231 1236 1235
f 1235 1234 1233
f 1236 1234 1235

o FROND_11_4_1
usemtl green2
v 1.476558 5.828334 0.810833
v 1.476558 5.878334 0.810833
v 1.363975 5.828334 0.745833
v 1.363975 5.878334 0.745833
v 1.554507 5.828334 0.675822
v 1.554507 5.878334 0.675822
v 1.441924 5.828334 0.610822
v 1.441924 5.878334 0.610822
f 1238 1240 1237
f 1241 1238 1237
f 1237 1240 1239
f 1239 1241 1237
f 1238 1244 1240
f 1242 1238 1241
f 1242 1244 1238
f 1240 1244 1239
f 1243 1241 1239
f 1239 1244 1243
f 1243 1242 1241
f 1244 1242 1243

o FROND_11_5_-1
usemtl green2
v 1.616566 5.721668 0.891667
v 1.616566 5.771668 0.891667
v 1.729149 5.721668 0.956667
v 1.729149 5.771668 0.956667
v 1.559130 5.721668 0.991149
v 1.559130 5.771668 0.991149
v 1.671713 5.721668 1.056149
v 1.671713 5.771668 1.056149
f 1246 1248 1245
f 1249 1246 1245
f 1245 1248 1247
f 1247 1249 1245
f 1246 1252 1248
f 1250 1246 1249
f 1250 1252 1246
f 1248 1252 1247
f 1251 1249 1247
f 1247 1252 1251
f 1251 1250 1249
f 1252 1250 1251

o FROND_11_5_1
usemtl green2
v 1.729149 5.721668 0.956667
v 1.729149 5.771668 0.956667
v 1.616566 5.721668 0.891667
v 1.616566 5.771668 0.891667
v 1.786585 5.721668 0.857185
v 1.786585 5.771668 0.857185
v 1.674002 5.721668 0.792185
v 1.674002 5.771668 0.792185
f 1254 1256 1253
f 1257 1254 1253
f 1253 1256 1255
f 1255 1257 1253
f 1254 1260 1256
f 1258 1254 1257
f 1258 1260 1254
f 1256 1260 1255
f 1259 1257 1255
f 1255 1260 1259
f 1259 1258 1257
f 1260 1258 1259

o COCONUT_0
usemtl wood
v 0.372170 6.020000 -0.023572
v 0.487830 6.020000 -0.023572
v 0.372170 6.020000 0.163572
v 0.487830 6.020000 0.163572
v 0.430000 6.113572 0.127830
v 0.430000 6.113572 0.012170
v 0.430000 5.926428 0.127830
v 0.430000 5.926428 0.012170
v 0.523572 5.962170 0.070000
v 0.523572 6.077830 0.070000
v 0.336428 5.962170 0.070000
v 0.336428 6.077830 0.070000
v 0.430000 6.020000 -0.040000
v 0.430000 6.020000 0.180000
v 0.396008 6.075000 0.158992
v 0.463992 6.075000 0.158992
v 0.396008 6.075000 -0.018992
v 0.463992 6.075000 -0.018992
v 0.430000 6.130000 0.070000
v 0.396008 5.965000 0.158992
v 0.463992 5.965000 0.158992
v 0.396008 5.965000 -0.018992
v 0.463992 5.965000 -0.018992
v 0.430000 5.910000 0.070000
v 0.518992 5.986008 0.015000
v 0.518992 5.986008 0.125000
v 0.485000 5.931008 0.103992
v 0.485000 5.931008 0.036008
v 0.518992 6.053992 0.015000
v 0.518992 6.053992 0.125000
v 0.485000 6.108992 0.103992
v 0.485000 6.108992 0.036008
v 0.540000 6.020000 0.070000
v 0.341008 5.986008 0.015000
v 0.341008 5.986008 0.125000
v 0.375000 5.931008 0.103992
v 0.375000 5.931008 0.036008
v 0.341008 6.053992 0.015000
v 0.341008 6.053992 0.125000
v 0.375000 6.108992 0.103992
v 0.375000 6.108992 0.036008
v 0.320000 6.020000 0.070000
f 1261 1298 1277
f 1298 1272 1301
f 1277 1301 1266
f 1298 1301 1277
f 1261 1277 1273
f 1277 1266 1278
f 1273 1278 1262
f 1277 1278 1273
f 1261 1273 1282
f 1273 1262 1283
f 1282 1283 1268
f 1273 1283 1282
f 1261 1282 1294
f 1282 1268 1297
f 1294 1297 1271
f 1282 1297 1294
f 1261 1294 1298
f 1294 1271 1302
f 1298 1302 1272
f 1294 1302 1298
f 1262 1278 1289
f 1278 1266 1292
f 1289 1292 1270
f 1278 1292 1289
f 1266 1301 1279
f 1301 1272 1300
f 1279 1300 1265
f 1301 1300 1279
f 1272 1302 1299
f 1302 1271 1295
f 1299 1295 1263
f 1302 1295 1299
f 1271 1297 1296
f 1297 1268 1284
f 1296 1284 1267
f 1297 1284 1296
f 1268 1283 1288
f 1283 1262 1285
f 1288 1285 1269
f 1283 1285 1288
f 1264 1290 1276
f 1290 1270 1291
f 1276 1291 1265
f 1290 1291 1276
f 1264 1276 1274
f 1276 1265 1275
f 1274 1275 1263
f 1276 1275 1274
f 1264 1274 1281
f 1274 1263 1280
f 1281 1280 1267
f 1274 1280 1281
f 1264 1281 1286
f 1281 1267 1287
f 1286 1287 1269
f 1281 1287 1286
f 1264 1286 1290
f 1286 1269 1293
f 1290 1293 1270
f 1286 1293 1290
f 1265 1291 1279
f 1291 1270 1292
f 1279 1292 1266
f 1291 1292 1279
f 1263 1275 1299
f 1275 1265 1300
f 1299 1300 1272
f 1275 1300 1299
f 1267 1280 1296
f 1280 1263 1295
f 1296 1295 1271
f 1280 1295 1296
f 1269 1287 1288
f 1287 1267 1284
f 1288 1284 1268
f 1287 1284 1288
f 1270 1293 1289
f 1293 1269 1285
f 1289 1285 1262
f 1293 1285 1289

o COCONUT_1
usemtl wood
v 0.102170 6.020000 -0.053572
v 0.217830 6.020000 -0.053572
v 0.102170 6.020000 0.133572
v 0.217830 6.020000 0.133572
v 0.160000 6.113572 0.097830
v 0.160000 6.113572 -0.017830
v 0.160000 5.926428 0.097830
v 0.160000 5.926428 -0.017830
v 0.253572 5.962170 0.040000
v 0.253572 6.077830 0.040000
v 0.066428 5.962170 0.040000
v 0.066428 6.077830 0.040000
v 0.160000 6.020000 -0.070000
v 0.160000 6.020000 0.150000
v 0.126008 6.075000 0.128992
v 0.193992 6.075000 0.128992
v 0.126008 6.075000 -0.048992
v 0.193992 6.075000 -0.048992
v 0.160000 6.130000 0.040000
v 0.126008 5.965000 0.128992
v 0.193992 5.965000 0.128992
v 0.126008 5.965000 -0.048992
v 0.193992 5.965000 -0.048992
v 0.160000 5.910000 0.040000
v 0.248992 5.986008 -0.015000
v 0.248992 5.986008 0.095000
v 0.215000 5.931008 0.073992
v 0.215000 5.931008 0.006008
v 0.248992 6.053992 -0.015000
v 0.248992 6.053992 0.095000
v 0.215000 6.108992 0.073992
v 0.215000 6.108992 0.006008
v 0.270000 6.020000 0.040000
v 0.071008 5.986008 -0.015000
v 0.071008 5.986008 0.095000
v 0.105000 5.931008 0.073992
v 0.105000 5.931008 0.006008
v 0.071008 6.053992 -0.015000
v 0.071008 6.053992 0.095000
v 0.105000 6.108992 0.073992
v 0.105000 6.108992 0.006008
v 0.050000 6.020000 0.040000
f 1303 1340 1319
f 1340 1314 1343
f 1319 1343 1308
f 1340 1343 1319
f 1303 1319 1315
f 1319 1308 1320
f 1315 1320 1304
f 1319 1320 1315
f 1303 1315 1324
f 1315 1304 1325
f 1324 1325 1310
f 1315 1325 1324
f 1303 1324 1336
f 1324 1310 1339
f 1336 1339 1313
f 1324 1339 1336
f 1303 1336 1340
f 1336 1313 1344
f 1340 1344 1314
f 1336 1344 1340
f 1304 1320 1331
f 1320 1308 1334
f 1331 1334 1312
f 1320 1334 1331
f 1308 1343 1321
f 1343 1314 1342
f 1321 1342 1307
f 1343 1342 1321
f 1314 1344 1341
f 1344 1313 1337
f 1341 1337 1305
f 1344 1337 1341
f 1313 1339 1338
f 1339 1310 1326
f 1338 1326 1309
f 1339 1326 1338
f 1310 1325 1330
f 1325 1304 1327
f 1330 1327 1311
f 1325 1327 1330
f 1306 1332 1318
f 1332 1312 1333
f 1318 1333 1307
f 1332 1333 1318
f 1306 1318 1316
f 1318 1307 1317
f 1316 1317 1305
f 1318 1317 1316
f 1306 1316 1323
f 1316 1305 1322
f 1323 1322 1309
f 1316 1322 1323
f 1306 1323 1328
f 1323 1309 1329
f 1328 1329 1311
f 1323 1329 1328
f 1306 1328 1332
f 1328 1311 1335
f 1332 1335 1312
f 1328 1335 1332
f 1307 1333 1321
f 1333 1312 1334
f 1321 1334 1308
f 1333 1334 1321
f 1305 1317 1341
f 1317 1307 1342
f 1341 1342 1314
f 1317 1342 1341
f 1309 1322 1338
f 1322 1305 1337
f 1338 1337 1313
f 1322 1337 1338
f 1311 1329 1330
f 1329 1309 1326
f 1330 1326 1310
f 1329 1326 1330
f 1312 1335 1331
f 1335 1311 1327
f 1331 1327 1304
f 1335 1327 1331

o COCONUT_2
usemtl wood
v 0.262170 6.020000 0.186428
v 0.377830 6.020000 0.186428
v 0.262170 6.020000 0.373572
v 0.377830 6.020000 0.373572
v 0.320000 6.113572 0.337830
v 0.320000 6.113572 0.222170
v 0.320000 5.926428 0.337830
v 0.320000 5.926428 0.222170
v 0.413572 5.962170 0.280000
v 0.413572 6.077830 0.280000
v 0.226428 5.962170 0.280000
v 0.226428 6.077830 0.280000
v 0.320000 6.020000 0.170000
v 0.320000 6.020000 0.390000
v 0.286008 6.075000 0.368992
v 0.353992 6.075000 0.368992
v 0.286008 6.075000 0.191008
v 0.353992 6.075000 0.191008
v 0.320000 6.130000 0.280000
v 0.286008 5.965000 0.368992
v 0.353992 5.965000 0.368992
v 0.286008 5.965000 0.191008
v 0.353992 5.965000 0.191008
v 0.320000 5.910000 0.280000
v 0.408992 5.986008 0.225000
v 0.408992 5.986008 0.335000
v 0.375000 5.931008 0.313992
v 0.375000 5.931008 0.246008
v 0.408992 6.053992 0.225000
v 0.408992 6.053992 0.335000
v 0.375000 6.108992 0.313992
v 0.375000 6.108992 0.246008
v 0.430000 6.020000 0.280000
v 0.231008 5.986008 0.225000
v 0.231008 5.986008 0.335000
v 0.265000 5.931008 0.313992
v 0.265000 5.931008 0.246008
v 0.231008 6.053992 0.225000
v 0.231008 6.053992 0.335000
v 0.265000 6.108992 0.313992
v 0.265000 6.108992 0.246008
v 0.210000 6.020000 0.280000
f 1345 1382 1361
f 1382 1356 1385
f 1361 1385 1350
f 1382 1385 1361
f 1345 1361 1357
f 1361 1350 1362
f 1357 1362 1346
f 1361 1362 1357
f 1345 1357 1366
f 1357 1346 1367
f 1366 1367 1352
f 1357 1367 1366
f 1345 1366 1378
f 1366 1352 1381
f 1378 1381 1355
f 1366 1381 1378
f 1345 1378 1382
f 1378 1355 1386
f 1382 1386 1356
f 1378 1386 1382
f 1346 1362 1373
f 1362 1350 1376
f 1373 1376 1354
f 1362 1376 1373
f 1350 1385 1363
f 1385 1356 1384
f 1363 1384 1349
f 1385 1384 1363
f 1356 1386 1383
f 1386 1355 1379
f 1383 1379 1347
f 1386 1379 1383
f 1355 1381 1380
f 1381 1352 1368
f 1380 1368 1351
f 1381 1368 1380
f 1352 1367 1372
f 1367 1346 1369
f 1372 1369 1353
f 1367 1369 1372
f 1348 1374 1360
f 1374 1354 1375
f 1360 1375 1349
f 1374 1375 1360
f 1348 1360 1358
f 1360 1349 1359
f 1358 1359 1347
f 1360 1359 1358
f 1348 1358 1365
f 1358 1347 1364
f 1365 1364 1351
f 1358 1364 1365
f 1348 1365 1370
f 1365 1351 1371
f 1370 1371 1353
f 1365 1371 1370
f 1348 1370 1374
f 1370 1353 1377
f 1374 1377 1354
f 1370 1377 1374
f 1349 1375 1363
f 1375 1354 1376
f 1363 1376 1350
f 1375 1376 1363
f 1347 1359 1383
f 1359 1349 1384
f 1383 1384 1356
f 1359 1384 1383
f 1351 1364 1380
f 1364 1347 1379
f 1380 1379 1355
f 1364 1379 1380
f 1353 1371 1372
f 1371 1351 1368
f 1372 1368 1352
f 1371 1368 1372
f 1354 1377 1373
f 1377 1353 1369
f 1373 1369 1346
f 1377 1369 1373
