# Negara Konoha — RumahKampung
# Original fictional game asset, Nusantara/Indonesia-inspired.
# 1 OBJ unit = 1 meter. Y-up. Intended front = +Z in Unity.
mtllib RumahKampung.mtl

o FOUNDATION
usemtl stone
v -3.100000 0.005000 2.550000
v -3.100000 0.355000 2.550000
v -3.100000 0.005000 -2.550000
v -3.100000 0.355000 -2.550000
v 3.100000 0.005000 2.550000
v 3.100000 0.355000 2.550000
v 3.100000 0.005000 -2.550000
v 3.100000 0.355000 -2.550000
f 2 4 1
f 5 2 1
f 1 4 3
f 3 5 1
f 2 8 4
f 6 2 5
f 6 8 2
f 4 8 3
f 7 5 3
f 3 8 7
f 7 6 5
f 8 6 7

o MAIN_WALL
usemtl cream
v -2.900000 0.325000 2.350000
v -2.900000 2.975000 2.350000
v -2.900000 0.325000 -2.350000
v -2.900000 2.975000 -2.350000
v 2.900000 0.325000 2.350000
v 2.900000 2.975000 2.350000
v 2.900000 0.325000 -2.350000
v 2.900000 2.975000 -2.350000
f 10 12 9
f 13 10 9
f 9 12 11
f 11 13 9
f 10 16 12
f 14 10 13
f 14 16 10
f 12 16 11
f 15 13 11
f 11 16 15
f 15 14 13
f 16 14 15

o VERANDA_FLOOR
usemtl wood2
v -2.700000 0.460000 3.250000
v -2.700000 0.640000 3.250000
v -2.700000 0.460000 2.050000
v -2.700000 0.640000 2.050000
v 2.700000 0.460000 3.250000
v 2.700000 0.640000 3.250000
v 2.700000 0.460000 2.050000
v 2.700000 0.640000 2.050000
f 18 20 17
f 21 18 17
f 17 20 19
f 19 21 17
f 18 24 20
f 22 18 21
f 22 24 18
f 20 24 19
f 23 21 19
f 19 24 23
f 23 22 21
f 24 22 23

o VERANDA_POST_-2.15
usemtl wood
v -2.150000 0.555000 2.650000
v -2.060000 0.555000 2.650000
v -2.060000 2.805000 2.650000
v -2.150000 2.805000 2.650000
v -2.086360 0.555000 2.586360
v -2.086360 2.805000 2.586360
v -2.150000 0.555000 2.560000
v -2.150000 2.805000 2.560000
v -2.213640 0.555000 2.586360
v -2.213640 2.805000 2.586360
v -2.240000 0.555000 2.650000
v -2.240000 2.805000 2.650000
v -2.213640 0.555000 2.713640
v -2.213640 2.805000 2.713640
v -2.150000 0.555000 2.740000
v -2.150000 2.805000 2.740000
v -2.086360 0.555000 2.713640
v -2.086360 2.805000 2.713640
f 26 25 29
f 26 29 27
f 27 29 30
f 27 30 28
f 29 25 31
f 29 31 30
f 30 31 32
f 30 32 28
f 31 25 33
f 31 33 32
f 32 33 34
f 32 34 28
f 33 25 35
f 33 35 34
f 34 35 36
f 34 36 28
f 35 25 37
f 35 37 36
f 36 37 38
f 36 38 28
f 37 25 39
f 37 39 38
f 38 39 40
f 38 40 28
f 39 25 41
f 39 41 40
f 40 41 42
f 40 42 28
f 41 25 26
f 41 26 42
f 42 26 27
f 42 27 28

o VERANDA_POST_2.15
usemtl wood
v 2.150000 0.555000 2.650000
v 2.240000 0.555000 2.650000
v 2.240000 2.805000 2.650000
v 2.150000 2.805000 2.650000
v 2.213640 0.555000 2.586360
v 2.213640 2.805000 2.586360
v 2.150000 0.555000 2.560000
v 2.150000 2.805000 2.560000
v 2.086360 0.555000 2.586360
v 2.086360 2.805000 2.586360
v 2.060000 0.555000 2.650000
v 2.060000 2.805000 2.650000
v 2.086360 0.555000 2.713640
v 2.086360 2.805000 2.713640
v 2.150000 0.555000 2.740000
v 2.150000 2.805000 2.740000
v 2.213640 0.555000 2.713640
v 2.213640 2.805000 2.713640
f 44 43 47
f 44 47 45
f 45 47 48
f 45 48 46
f 47 43 49
f 47 49 48
f 48 49 50
f 48 50 46
f 49 43 51
f 49 51 50
f 50 51 52
f 50 52 46
f 51 43 53
f 51 53 52
f 52 53 54
f 52 54 46
f 53 43 55
f 53 55 54
f 54 55 56
f 54 56 46
f 55 43 57
f 55 57 56
f 56 57 58
f 56 58 46
f 57 43 59
f 57 59 58
f 58 59 60
f 58 60 46
f 59 43 44
f 59 44 60
f 60 44 45
f 60 45 46

o DOOR
usemtl wood
v -0.475000 0.515000 2.430000
v -0.475000 2.365000 2.430000
v -0.475000 0.515000 2.350000
v -0.475000 2.365000 2.350000
v 0.475000 0.515000 2.430000
v 0.475000 2.365000 2.430000
v 0.475000 0.515000 2.350000
v 0.475000 2.365000 2.350000
f 62 64 61
f 65 62 61
f 61 64 63
f 63 65 61
f 62 68 64
f 66 62 65
f 66 68 62
f 64 68 63
f 67 65 63
f 63 68 67
f 67 66 65
f 68 66 67

o WINDOW_-1.65
usemtl glass
v -2.150000 1.105000 2.420000
v -2.150000 2.155000 2.420000
v -2.150000 1.105000 2.360000
v -2.150000 2.155000 2.360000
v -1.150000 1.105000 2.420000
v -1.150000 2.155000 2.420000
v -1.150000 1.105000 2.360000
v -1.150000 2.155000 2.360000
f 70 72 69
f 73 70 69
f 69 72 71
f 71 73 69
f 70 76 72
f 74 70 73
f 74 76 70
f 72 76 71
f 75 73 71
f 71 76 75
f 75 74 73
f 76 74 75

o SHUTTER_L_-1.65
usemtl wood2
v -2.305000 1.090000 2.435000
v -2.305000 2.170000 2.435000
v -2.305000 1.090000 2.365000
v -2.305000 2.170000 2.365000
v -2.155000 1.090000 2.435000
v -2.155000 2.170000 2.435000
v -2.155000 1.090000 2.365000
v -2.155000 2.170000 2.365000
f 78 80 77
f 81 78 77
f 77 80 79
f 79 81 77
f 78 84 80
f 82 78 81
f 82 84 78
f 80 84 79
f 83 81 79
f 79 84 83
f 83 82 81
f 84 82 83

o SHUTTER_R_-1.65
usemtl wood2
v -1.145000 1.090000 2.435000
v -1.145000 2.170000 2.435000
v -1.145000 1.090000 2.365000
v -1.145000 2.170000 2.365000
v -0.995000 1.090000 2.435000
v -0.995000 2.170000 2.435000
v -0.995000 1.090000 2.365000
v -0.995000 2.170000 2.365000
f 86 88 85
f 89 86 85
f 85 88 87
f 87 89 85
f 86 92 88
f 90 86 89
f 90 92 86
f 88 92 87
f 91 89 87
f 87 92 91
f 91 90 89
f 92 90 91

o WINDOW_1.65
usemtl glass
v 1.150000 1.105000 2.420000
v 1.150000 2.155000 2.420000
v 1.150000 1.105000 2.360000
v 1.150000 2.155000 2.360000
v 2.150000 1.105000 2.420000
v 2.150000 2.155000 2.420000
v 2.150000 1.105000 2.360000
v 2.150000 2.155000 2.360000
f 94 96 93
f 97 94 93
f 93 96 95
f 95 97 93
f 94 100 96
f 98 94 97
f 98 100 94
f 96 100 95
f 99 97 95
f 95 100 99
f 99 98 97
f 100 98 99

o SHUTTER_L_1.65
usemtl wood2
v 0.995000 1.090000 2.435000
v 0.995000 2.170000 2.435000
v 0.995000 1.090000 2.365000
v 0.995000 2.170000 2.365000
v 1.145000 1.090000 2.435000
v 1.145000 2.170000 2.435000
v 1.145000 1.090000 2.365000
v 1.145000 2.170000 2.365000
f 102 104 101
f 105 102 101
f 101 104 103
f 103 105 101
f 102 108 104
f 106 102 105
f 106 108 102
f 104 108 103
f 107 105 103
f 103 108 107
f 107 106 105
f 108 106 107

o SHUTTER_R_1.65
usemtl wood2
v 2.155000 1.090000 2.435000
v 2.155000 2.170000 2.435000
v 2.155000 1.090000 2.365000
v 2.155000 2.170000 2.365000
v 2.305000 1.090000 2.435000
v 2.305000 2.170000 2.435000
v 2.305000 1.090000 2.365000
v 2.305000 2.170000 2.365000
f 110 112 109
f 113 110 109
f 109 112 111
f 111 113 109
f 110 116 112
f 114 110 113
f 114 116 110
f 112 116 111
f 115 113 111
f 111 116 115
f 115 114 113
f 116 114 115

o TILE_ROOF
usemtl roof
v -3.300000 2.950000 2.775000
v 3.300000 2.950000 2.775000
v 3.300000 2.950000 -2.775000
v -3.300000 2.950000 -2.775000
v 0.000000 4.800000 0.000000
f 117 118 121
f 118 119 121
f 119 120 121
f 120 117 121
f 117 120 119
f 117 119 118

o PORCH_ROOF
usemtl roofdark
v -2.830614 3.137227 3.455000
v -2.813914 3.256059 3.455000
v -2.830614 3.137227 1.905000
v -2.813914 3.256059 1.905000
v 2.813914 2.343941 3.455000
v 2.830614 2.462773 3.455000
v 2.813914 2.343941 1.905000
v 2.830614 2.462773 1.905000
f 123 125 122
f 126 123 122
f 122 125 124
f 124 126 122
f 123 129 125
f 127 123 126
f 127 129 123
f 125 129 124
f 128 126 124
f 124 129 128
f 128 127 126
f 129 127 128

o VENT_0
usemtl wood2
v -0.970000 2.420000 2.445000
v -0.970000 2.640000 2.445000
v -0.970000 2.420000 2.375000
v -0.970000 2.640000 2.375000
v -0.630000 2.420000 2.445000
v -0.630000 2.640000 2.445000
v -0.630000 2.420000 2.375000
v -0.630000 2.640000 2.375000
f 131 133 130
f 134 131 130
f 130 133 132
f 132 134 130
f 131 137 133
f 135 131 134
f 135 137 131
f 133 137 132
f 136 134 132
f 132 137 136
f 136 135 134
f 137 135 136

o VENT_1
usemtl wood2
v -0.570000 2.420000 2.445000
v -0.570000 2.640000 2.445000
v -0.570000 2.420000 2.375000
v -0.570000 2.640000 2.375000
v -0.230000 2.420000 2.445000
v -0.230000 2.640000 2.445000
v -0.230000 2.420000 2.375000
v -0.230000 2.640000 2.375000
f 139 141 138
f 142 139 138
f 138 141 140
f 140 142 138
f 139 145 141
f 143 139 142
f 143 145 139
f 141 145 140
f 144 142 140
f 140 145 144
f 144 143 142
f 145 143 144

o VENT_2
usemtl wood2
v -0.170000 2.420000 2.445000
v -0.170000 2.640000 2.445000
v -0.170000 2.420000 2.375000
v -0.170000 2.640000 2.375000
v 0.170000 2.420000 2.445000
v 0.170000 2.640000 2.445000
v 0.170000 2.420000 2.375000
v 0.170000 2.640000 2.375000
f 147 149 146
f 150 147 146
f 146 149 148
f 148 150 146
f 147 153 149
f 151 147 150
f 151 153 147
f 149 153 148
f 152 150 148
f 148 153 152
f 152 151 150
f 153 151 152

o VENT_3
usemtl wood2
v 0.230000 2.420000 2.445000
v 0.230000 2.640000 2.445000
v 0.230000 2.420000 2.375000
v 0.230000 2.640000 2.375000
v 0.570000 2.420000 2.445000
v 0.570000 2.640000 2.445000
v 0.570000 2.420000 2.375000
v 0.570000 2.640000 2.375000
f 155 157 154
f 158 155 154
f 154 157 156
f 156 158 154
f 155 161 157
f 159 155 158
f 159 161 155
f 157 161 156
f 160 158 156
f 156 161 160
f 160 159 158
f 161 159 160

o VENT_4
usemtl wood2
v 0.630000 2.420000 2.445000
v 0.630000 2.640000 2.445000
v 0.630000 2.420000 2.375000
v 0.630000 2.640000 2.375000
v 0.970000 2.420000 2.445000
v 0.970000 2.640000 2.445000
v 0.970000 2.420000 2.375000
v 0.970000 2.640000 2.375000
f 163 165 162
f 166 163 162
f 162 165 164
f 164 166 162
f 163 169 165
f 167 163 166
f 167 169 163
f 165 169 164
f 168 166 164
f 164 169 168
f 168 167 166
f 169 167 168
