# Negara Konoha — LampuPJU
# Original fictional game asset, Nusantara/Indonesia-inspired.
# 1 OBJ unit = 1 meter. Y-up. Intended front = +Z in Unity.
mtllib LampuPJU.mtl

o BASE
usemtl stone
v 0.000000 0.000000 0.000000
v 0.220000 0.000000 0.000000
v 0.220000 0.280000 0.000000
v 0.000000 0.280000 0.000000
v 0.177984 0.000000 -0.129313
v 0.177984 0.280000 -0.129313
v 0.067984 0.000000 -0.209232
v 0.067984 0.280000 -0.209232
v -0.067984 0.000000 -0.209232
v -0.067984 0.280000 -0.209232
v -0.177984 0.000000 -0.129313
v -0.177984 0.280000 -0.129313
v -0.220000 0.000000 -0.000000
v -0.220000 0.280000 -0.000000
v -0.177984 -0.000000 0.129313
v -0.177984 0.280000 0.129313
v -0.067984 -0.000000 0.209232
v -0.067984 0.280000 0.209232
v 0.067984 -0.000000 0.209232
v 0.067984 0.280000 0.209232
v 0.177984 -0.000000 0.129313
v 0.177984 0.280000 0.129313
f 2 1 5
f 2 5 3
f 3 5 6
f 3 6 4
f 5 1 7
f 5 7 6
f 6 7 8
f 6 8 4
f 7 1 9
f 7 9 8
f 8 9 10
f 8 10 4
f 9 1 11
f 9 11 10
f 10 11 12
f 10 12 4
f 11 1 13
f 11 13 12
f 12 13 14
f 12 14 4
f 13 1 15
f 13 15 14
f 14 15 16
f 14 16 4
f 15 1 17
f 15 17 16
f 16 17 18
f 16 18 4
f 17 1 19
f 17 19 18
f 18 19 20
f 18 20 4
f 19 1 21
f 19 21 20
f 20 21 22
f 20 22 4
f 21 1 2
f 21 2 22
f 22 2 3
f 22 3 4

o POLE
usemtl metal
v 0.000000 0.175000 0.000000
v 0.070000 0.175000 0.000000
v 0.070000 6.725000 0.000000
v 0.000000 6.725000 0.000000
v 0.056631 0.175000 -0.041145
v 0.056631 6.725000 -0.041145
v 0.021631 0.175000 -0.066574
v 0.021631 6.725000 -0.066574
v -0.021631 0.175000 -0.066574
v -0.021631 6.725000 -0.066574
v -0.056631 0.175000 -0.041145
v -0.056631 6.725000 -0.041145
v -0.070000 0.175000 0.000000
v -0.070000 6.725000 0.000000
v -0.056631 0.175000 0.041145
v -0.056631 6.725000 0.041145
v -0.021631 0.175000 0.066574
v -0.021631 6.725000 0.066574
v 0.021631 0.175000 0.066574
v 0.021631 6.725000 0.066574
v 0.056631 0.175000 0.041145
v 0.056631 6.725000 0.041145
f 24 23 27
f 24 27 25
f 25 27 28
f 25 28 26
f 27 23 29
f 27 29 28
f 28 29 30
f 28 30 26
f 29 23 31
f 29 31 30
f 30 31 32
f 30 32 26
f 31 23 33
f 31 33 32
f 32 33 34
f 32 34 26
f 33 23 35
f 33 35 34
f 34 35 36
f 34 36 26
f 35 23 37
f 35 37 36
f 36 37 38
f 36 38 26
f 37 23 39
f 37 39 38
f 38 39 40
f 38 40 26
f 39 23 41
f 39 41 40
f 40 41 42
f 40 42 26
f 41 23 43
f 41 43 42
f 42 43 44
f 42 44 26
f 43 23 24
f 43 24 44
f 44 24 25
f 44 25 26

o ARM_1
usemtl metal
v 0.000000 6.550000 0.000000
v 0.060000 6.550000 0.000000
v 0.060000 6.900000 0.250000
v 0.000000 6.900000 0.250000
v 0.042426 6.574660 -0.034524
v 0.042426 6.924660 0.215476
v 0.000000 6.584874 -0.048824
v 0.000000 6.934874 0.201176
v -0.042426 6.574660 -0.034524
v -0.042426 6.924660 0.215476
v -0.060000 6.550000 0.000000
v -0.060000 6.900000 0.250000
v -0.042426 6.525340 0.034524
v -0.042426 6.875340 0.284524
v -0.000000 6.515126 0.048824
v -0.000000 6.865126 0.298824
v 0.042426 6.525340 0.034524
v 0.042426 6.875340 0.284524
f 46 45 49
f 46 49 47
f 47 49 50
f 47 50 48
f 49 45 51
f 49 51 50
f 50 51 52
f 50 52 48
f 51 45 53
f 51 53 52
f 52 53 54
f 52 54 48
f 53 45 55
f 53 55 54
f 54 55 56
f 54 56 48
f 55 45 57
f 55 57 56
f 56 57 58
f 56 58 48
f 57 45 59
f 57 59 58
f 58 59 60
f 58 60 48
f 59 45 61
f 59 61 60
f 60 61 62
f 60 62 48
f 61 45 46
f 61 46 62
f 62 46 47
f 62 47 48

o ARM_2
usemtl metal
v 0.000000 6.900000 0.250000
v 0.047500 6.900000 0.250000
v 0.047500 7.080000 1.150000
v 0.000000 7.080000 1.150000
v 0.033588 6.932935 0.243413
v 0.033588 7.112935 1.143413
v 0.000000 6.946578 0.240684
v 0.000000 7.126578 1.140684
v -0.033588 6.932935 0.243413
v -0.033588 7.112935 1.143413
v -0.047500 6.900000 0.250000
v -0.047500 7.080000 1.150000
v -0.033588 6.867065 0.256587
v -0.033588 7.047065 1.156587
v -0.000000 6.853422 0.259316
v -0.000000 7.033422 1.159316
v 0.033588 6.867065 0.256587
v 0.033588 7.047065 1.156587
f 64 63 67
f 64 67 65
f 65 67 68
f 65 68 66
f 67 63 69
f 67 69 68
f 68 69 70
f 68 70 66
f 69 63 71
f 69 71 70
f 70 71 72
f 70 72 66
f 71 63 73
f 71 73 72
f 72 73 74
f 72 74 66
f 73 63 75
f 73 75 74
f 74 75 76
f 74 76 66
f 75 63 77
f 75 77 76
f 76 77 78
f 76 78 66
f 77 63 79
f 77 79 78
f 78 79 80
f 78 80 66
f 79 63 64
f 79 64 80
f 80 64 65
f 80 65 66

o LAMP_HEAD
usemtl black
v -0.210000 6.970000 1.955000
v -0.210000 7.070000 1.955000
v -0.210000 6.970000 1.005000
v -0.210000 7.070000 1.005000
v 0.210000 6.970000 1.955000
v 0.210000 7.070000 1.955000
v 0.210000 6.970000 1.005000
v 0.210000 7.070000 1.005000
f 82 84 81
f 85 82 81
f 81 84 83
f 83 85 81
f 82 88 84
f 86 82 85
f 86 88 82
f 84 88 83
f 87 85 83
f 83 88 87
f 87 86 85
f 88 86 87

o LED_PANEL
usemtl white
v -0.150000 6.942500 1.860000
v -0.150000 6.977500 1.860000
v -0.150000 6.942500 1.140000
v -0.150000 6.977500 1.140000
v 0.150000 6.942500 1.860000
v 0.150000 6.977500 1.860000
v 0.150000 6.942500 1.140000
v 0.150000 6.977500 1.140000
f 90 92 89
f 93 90 89
f 89 92 91
f 91 93 89
f 90 96 92
f 94 90 93
f 94 96 90
f 92 96 91
f 95 93 91
f 91 96 95
f 95 94 93
f 96 94 95

o WOOD_SLEEVE
usemtl wood2
v -0.080000 1.675000 0.060000
v -0.080000 2.725000 0.060000
v -0.080000 1.675000 -0.060000
v -0.080000 2.725000 -0.060000
v 0.080000 1.675000 0.060000
v 0.080000 2.725000 0.060000
v 0.080000 1.675000 -0.060000
v 0.080000 2.725000 -0.060000
f 98 100 97
f 101 98 97
f 97 100 99
f 99 101 97
f 98 104 100
f 102 98 101
f 102 104 98
f 100 104 99
f 103 101 99
f 99 104 103
f 103 102 101
f 104 102 103

o RED_BAND_1.76
usemtl red
v -0.090000 1.720000 0.070000
v -0.090000 1.800000 0.070000
v -0.090000 1.720000 -0.070000
v -0.090000 1.800000 -0.070000
v 0.090000 1.720000 0.070000
v 0.090000 1.800000 0.070000
v 0.090000 1.720000 -0.070000
v 0.090000 1.800000 -0.070000
f 106 108 105
f 109 106 105
f 105 108 107
f 107 109 105
f 106 112 108
f 110 106 109
f 110 112 106
f 108 112 107
f 111 109 107
f 107 112 111
f 111 110 109
f 112 110 111

o RED_BAND_2.64
usemtl red
v -0.090000 2.600000 0.070000
v -0.090000 2.680000 0.070000
v -0.090000 2.600000 -0.070000
v -0.090000 2.680000 -0.070000
v 0.090000 2.600000 0.070000
v 0.090000 2.680000 0.070000
v 0.090000 2.600000 -0.070000
v 0.090000 2.680000 -0.070000
f 114 116 113
f 117 114 113
f 113 116 115
f 115 117 113
f 114 120 116
f 118 114 117
f 118 120 114
f 116 120 115
f 119 117 115
f 115 120 119
f 119 118 117
f 120 118 119
