# Negara Konoha — PohonFlamboyan
# Original fictional game asset, Nusantara/Indonesia-inspired.
# 1 OBJ unit = 1 meter. Y-up. Intended front = +Z in Unity.
mtllib PohonFlamboyan.mtl

o TRUNK
usemtl wood2
v 0.000000 0.000000 0.000000
v 0.240000 0.000000 0.000000
v 0.240000 2.100000 0.000000
v 0.000000 2.100000 0.000000
v 0.183851 0.000000 -0.154269
v 0.183851 2.100000 -0.154269
v 0.041676 0.000000 -0.236354
v 0.041676 2.100000 -0.236354
v -0.120000 0.000000 -0.207846
v -0.120000 2.100000 -0.207846
v -0.225526 0.000000 -0.082085
v -0.225526 2.100000 -0.082085
v -0.225526 -0.000000 0.082085
v -0.225526 2.100000 0.082085
v -0.120000 -0.000000 0.207846
v -0.120000 2.100000 0.207846
v 0.041676 -0.000000 0.236354
v 0.041676 2.100000 0.236354
v 0.183851 -0.000000 0.154269
v 0.183851 2.100000 0.154269
f 2 1 5
f 2 5 3
f 3 5 6
f 3 6 4
f 5 1 7
f 5 7 6
f 6 7 8
f 6 8 4
f 7 1 9
f 7 9 8
f 8 9 10
f 8 10 4
f 9 1 11
f 9 11 10
f 10 11 12
f 10 12 4
f 11 1 13
f 11 13 12
f 12 13 14
f 12 14 4
f 13 1 15
f 13 15 14
f 14 15 16
f 14 16 4
f 15 1 17
f 15 17 16
f 16 17 18
f 16 18 4
f 17 1 19
f 17 19 18
f 18 19 20
f 18 20 4
f 19 1 2
f 19 2 20
f 20 2 3
f 20 3 4

o MAIN_BRANCH_0
usemtl wood2
v 0.000000 1.700000 0.000000
v 0.075039 1.642892 0.011525
v 1.244173 3.042892 -0.663475
v 1.169134 3.100000 -0.675000
v 0.037776 1.638616 -0.061886
v 1.206910 3.038616 -0.736886
v -0.027933 1.680563 -0.088696
v 1.141201 3.080563 -0.763696
v -0.072608 1.737147 -0.048715
v 1.096526 3.137147 -0.723715
v -0.062607 1.765758 0.027949
v 1.106527 3.165758 -0.647051
v -0.005462 1.744853 0.083567
v 1.163672 3.144853 -0.591433
v 0.055796 1.690172 0.076257
v 1.224931 3.090172 -0.598743
f 22 21 25
f 22 25 23
f 23 25 26
f 23 26 24
f 25 21 27
f 25 27 26
f 26 27 28
f 26 28 24
f 27 21 29
f 27 29 28
f 28 29 30
f 28 30 24
f 29 21 31
f 29 31 30
f 30 31 32
f 30 32 24
f 31 21 33
f 31 33 32
f 32 33 34
f 32 34 24
f 33 21 35
f 33 35 34
f 34 35 36
f 34 36 24
f 35 21 22
f 35 22 36
f 36 22 23
f 36 23 24

o TWIG_0_-1
usemtl wood
v 1.169134 3.100000 -0.675000
v 1.187276 3.056120 -0.673719
v 2.036468 3.406120 -0.710766
v 2.018327 3.450000 -0.712047
v 1.177096 3.076402 -0.715447
v 2.026288 3.426402 -0.752495
v 1.158954 3.120282 -0.716728
v 2.008147 3.470282 -0.753775
v 1.150993 3.143880 -0.676281
v 2.000185 3.493880 -0.713328
v 1.161173 3.123598 -0.634553
v 2.010365 3.473598 -0.671600
v 1.179314 3.079718 -0.633272
v 2.028507 3.429718 -0.670319
f 38 37 41
f 38 41 39
f 39 41 42
f 39 42 40
f 41 37 43
f 41 43 42
f 42 43 44
f 42 44 40
f 43 37 45
f 43 45 44
f 44 45 46
f 44 46 40
f 45 37 47
f 45 47 46
f 46 47 48
f 46 48 40
f 47 37 49
f 47 49 48
f 48 49 50
f 48 50 40
f 49 37 38
f 49 38 50
f 50 38 39
f 50 39 40

o TWIG_0_1
usemtl wood
v 1.169134 3.100000 -0.675000
v 1.208144 3.076402 -0.661671
v 1.664824 3.426402 -1.378570
v 1.625814 3.450000 -1.391898
v 1.177096 3.056120 -0.691351
v 1.633776 3.406120 -1.408250
v 1.138087 3.079718 -0.704680
v 1.594767 3.429718 -1.421579
v 1.130125 3.123598 -0.688329
v 1.586805 3.473598 -1.405227
v 1.161173 3.143880 -0.658649
v 1.617853 3.493880 -1.375547
v 1.200182 3.120282 -0.645320
v 1.656862 3.470282 -1.362218
f 52 51 55
f 52 55 53
f 53 55 56
f 53 56 54
f 55 51 57
f 55 57 56
f 56 57 58
f 56 58 54
f 57 51 59
f 57 59 58
f 58 59 60
f 58 60 54
f 59 51 61
f 59 61 60
f 60 61 62
f 60 62 54
f 61 51 63
f 61 63 62
f 62 63 64
f 62 64 54
f 63 51 52
f 63 52 64
f 64 52 53
f 64 53 54

o MAIN_BRANCH_1
usemtl wood2
v 0.000000 1.700000 0.000000
v 0.093964 1.713116 -0.004875
v -0.186717 3.233116 -1.325374
v -0.280681 3.220000 -1.320499
v 0.062397 1.659933 -0.059383
v -0.218284 3.179933 -1.379882
v -0.016156 1.636922 -0.069174
v -0.296837 3.156922 -1.389674
v -0.082543 1.661409 -0.026876
v -0.363224 3.181409 -1.347375
v -0.086774 1.714956 0.035660
v -0.367454 3.234956 -1.284839
v -0.025662 1.757241 0.071344
v -0.306342 3.277241 -1.249156
v 0.054774 1.756422 0.053304
v -0.225907 3.276422 -1.267195
f 66 65 69
f 66 69 67
f 67 69 70
f 67 70 68
f 69 65 71
f 69 71 70
f 70 71 72
f 70 72 68
f 71 65 73
f 71 73 72
f 72 73 74
f 72 74 68
f 73 65 75
f 73 75 74
f 74 75 76
f 74 76 68
f 75 65 77
f 75 77 76
f 76 77 78
f 76 78 68
f 77 65 79
f 77 79 78
f 78 79 80
f 78 80 68
f 79 65 66
f 79 66 80
f 80 66 67
f 80 67 68

o TWIG_1_-1
usemtl wood
v -0.280681 3.220000 -1.320499
v -0.235282 3.208261 -1.312924
v -0.008101 3.558261 -2.132002
v -0.053500 3.570000 -2.139577
v -0.264542 3.177476 -1.334194
v -0.037361 3.527476 -2.153272
v -0.309941 3.189216 -1.341769
v -0.082760 3.539216 -2.160847
v -0.326080 3.231739 -1.328075
v -0.098899 3.581739 -2.147153
v -0.296819 3.262524 -1.306805
v -0.069639 3.612524 -2.125883
v -0.251421 3.250784 -1.299229
v -0.024240 3.600784 -2.118307
f 82 81 85
f 82 85 83
f 83 85 86
f 83 86 84
f 85 81 87
f 85 87 86
f 86 87 88
f 86 88 84
f 87 81 89
f 87 89 88
f 88 89 90
f 88 90 84
f 89 81 91
f 89 91 90
f 90 91 92
f 90 92 84
f 91 81 93
f 91 93 92
f 92 93 94
f 92 94 84
f 93 81 82
f 93 82 94
f 94 82 83
f 94 83 84

o TWIG_1_1
usemtl wood
v -0.280681 3.220000 -1.320499
v -0.245083 3.247939 -1.334936
v -0.785772 3.597939 -1.990799
v -0.821370 3.570000 -1.976362
v -0.250379 3.204620 -1.353688
v -0.791068 3.554620 -2.009550
v -0.285977 3.176680 -1.339251
v -0.826666 3.526680 -1.995113
v -0.316279 3.192061 -1.306062
v -0.856968 3.542061 -1.961924
v -0.310983 3.235380 -1.287311
v -0.851672 3.585380 -1.943173
v -0.275385 3.263320 -1.301748
v -0.816074 3.613320 -1.957610
f 96 95 99
f 96 99 97
f 97 99 100
f 97 100 98
f 99 95 101
f 99 101 100
f 100 101 102
f 100 102 98
f 101 95 103
f 101 103 102
f 102 103 104
f 102 104 98
f 103 95 105
f 103 105 104
f 104 105 106
f 104 106 98
f 105 95 107
f 105 107 106
f 106 107 108
f 106 108 98
f 107 95 96
f 107 96 108
f 108 96 97
f 108 97 98

o MAIN_BRANCH_2
usemtl wood2
v -0.000000 1.700000 0.000000
v 0.068676 1.765582 -0.002767
v -1.273929 3.165582 -0.143880
v -1.342605 3.100000 -0.141113
v 0.044982 1.735500 -0.075772
v -1.297623 3.135500 -0.216885
v -0.012584 1.678687 -0.091719
v -1.355189 3.078687 -0.232832
v -0.060674 1.637922 -0.038600
v -1.403279 3.037922 -0.179713
v -0.063075 1.643904 0.043586
v -1.405680 3.043904 -0.097528
v -0.017979 1.692127 0.092950
v -1.360584 3.092127 -0.048163
v 0.040656 1.746279 0.072322
v -1.301949 3.146279 -0.068792
f 110 109 113
f 110 113 111
f 111 113 114
f 111 114 112
f 113 109 115
f 113 115 114
f 114 115 116
f 114 116 112
f 115 109 117
f 115 117 116
f 116 117 118
f 116 118 112
f 117 109 119
f 117 119 118
f 118 119 120
f 118 120 112
f 119 109 121
f 119 121 120
f 120 121 122
f 120 122 112
f 121 109 123
f 121 123 122
f 122 123 124
f 122 124 112
f 123 109 110
f 123 110 124
f 124 110 111
f 124 111 112

o TWIG_2_-1
usemtl wood
v -1.342605 3.100000 -0.141113
v -1.315557 3.136625 -0.154652
v -2.024344 3.486625 -0.623823
v -2.051391 3.450000 -0.610284
v -1.317356 3.097317 -0.181258
v -2.026143 3.447317 -0.650429
v -1.344404 3.060692 -0.167719
v -2.053190 3.410692 -0.636890
v -1.369652 3.063375 -0.127575
v -2.078439 3.413375 -0.596746
v -1.367853 3.102683 -0.100969
v -2.076640 3.452683 -0.570140
v -1.340806 3.139308 -0.114507
v -2.049592 3.489308 -0.583678
f 126 125 129
f 126 129 127
f 127 129 130
f 127 130 128
f 129 125 131
f 129 131 130
f 130 131 132
f 130 132 128
f 131 125 133
f 131 133 132
f 132 133 134
f 132 134 128
f 133 125 135
f 133 135 134
f 134 135 136
f 134 136 128
f 135 125 137
f 135 137 136
f 136 137 138
f 136 138 128
f 137 125 126
f 137 126 138
f 138 126 127
f 138 127 128

o TWIG_2_1
usemtl wood
v -1.342605 3.100000 -0.141113
v -1.320567 3.140865 -0.131082
v -2.111411 3.490865 0.180471
v -2.133449 3.450000 0.170440
v -1.340273 3.134375 -0.173812
v -2.131117 3.484375 0.137741
v -1.362310 3.093509 -0.183843
v -2.153155 3.443509 0.127710
v -1.364642 3.059135 -0.151144
v -2.155486 3.409135 0.160409
v -1.344936 3.065625 -0.108415
v -2.135780 3.415625 0.203138
v -1.322899 3.106491 -0.098384
v -2.113743 3.456491 0.213169
f 140 139 143
f 140 143 141
f 141 143 144
f 141 144 142
f 143 139 145
f 143 145 144
f 144 145 146
f 144 146 142
f 145 139 147
f 145 147 146
f 146 147 148
f 146 148 142
f 147 139 149
f 147 149 148
f 148 149 150
f 148 150 142
f 149 139 151
f 149 151 150
f 150 151 152
f 150 152 142
f 151 139 140
f 151 140 152
f 152 140 141
f 152 141 142

o MAIN_BRANCH_3
usemtl wood2
v 0.000000 1.700000 -0.000000
v 0.091034 1.725659 0.008907
v -0.458060 3.245659 1.242193
v -0.549094 3.220000 1.233286
v 0.049796 1.761056 -0.053080
v -0.499299 3.281056 1.180206
v -0.028940 1.750477 -0.075097
v -0.578035 3.270477 1.158190
v -0.085884 1.701887 -0.040564
v -0.634978 3.221887 1.192723
v -0.078155 1.651876 0.024515
v -0.627249 3.171876 1.257801
v -0.011574 1.638104 0.071133
v -0.560668 3.158104 1.304419
v 0.063723 1.670940 0.064187
v -0.485372 3.190940 1.297473
f 154 153 157
f 154 157 155
f 155 157 158
f 155 158 156
f 157 153 159
f 157 159 158
f 158 159 160
f 158 160 156
f 159 153 161
f 159 161 160
f 160 161 162
f 160 162 156
f 161 153 163
f 161 163 162
f 162 163 164
f 162 164 156
f 163 153 165
f 163 165 164
f 164 165 166
f 164 166 156
f 165 153 167
f 165 167 166
f 166 167 168
f 166 168 156
f 167 153 154
f 167 154 168
f 168 154 155
f 168 155 156

o TWIG_3_-1
usemtl wood
v -0.549094 3.220000 1.233286
v -0.519611 3.254375 1.247616
v -1.184846 3.604375 1.776731
v -1.214330 3.570000 1.762401
v -0.546763 3.260865 1.209186
v -1.211998 3.610865 1.738300
v -0.576246 3.226491 1.194856
v -1.241482 3.576491 1.723970
v -0.578578 3.185625 1.218956
v -1.243813 3.535625 1.748071
v -0.551426 3.179135 1.257387
v -1.216661 3.529135 1.786501
v -0.521943 3.213509 1.271717
v -1.187178 3.563509 1.800831
f 170 169 173
f 170 173 171
f 171 173 174
f 171 174 172
f 173 169 175
f 173 175 174
f 174 175 176
f 174 176 172
f 175 169 177
f 175 177 176
f 176 177 178
f 176 178 172
f 177 169 179
f 177 179 178
f 178 179 180
f 178 180 172
f 179 169 181
f 179 181 180
f 180 181 182
f 180 182 172
f 181 169 170
f 181 170 182
f 182 170 171
f 182 171 172

o TWIG_3_1
usemtl wood
v -0.549094 3.220000 1.233286
v -0.501704 3.217317 1.231493
v -0.449784 3.567317 2.079906
v -0.497174 3.570000 2.081699
v -0.523846 3.256625 1.216632
v -0.471926 3.606625 2.065045
v -0.571236 3.259308 1.218425
v -0.519316 3.609308 2.066838
v -0.596485 3.222683 1.235080
v -0.544564 3.572683 2.083493
v -0.574343 3.183375 1.249941
v -0.522422 3.533375 2.098353
v -0.526952 3.180692 1.248147
v -0.475032 3.530692 2.096560
f 184 183 187
f 184 187 185
f 185 187 188
f 185 188 186
f 187 183 189
f 187 189 188
f 188 189 190
f 188 190 186
f 189 183 191
f 189 191 190
f 190 191 192
f 190 192 186
f 191 183 193
f 191 193 192
f 192 193 194
f 192 194 186
f 193 183 195
f 193 195 194
f 194 195 196
f 194 196 186
f 195 183 184
f 195 184 196
f 196 184 185
f 196 185 186

o MAIN_BRANCH_4
usemtl wood2
v 0.000000 1.700000 0.000000
v 0.080302 1.650995 -0.013234
v 1.083547 3.050995 0.890092
v 1.003246 3.100000 0.903326
v 0.060414 1.703944 -0.073209
v 1.063660 3.103944 0.830117
v -0.004966 1.753923 -0.078056
v 0.998279 3.153923 0.825271
v -0.066607 1.763297 -0.024125
v 0.936639 3.163297 0.879202
v -0.078091 1.725007 0.047972
v 0.925154 3.125007 0.951299
v -0.030771 1.667887 0.083945
v 0.972474 3.067887 0.987272
v 0.039720 1.634948 0.056706
v 1.042966 3.034948 0.960032
f 198 197 201
f 198 201 199
f 199 201 202
f 199 202 200
f 201 197 203
f 201 203 202
f 202 203 204
f 202 204 200
f 203 197 205
f 203 205 204
f 204 205 206
f 204 206 200
f 205 197 207
f 205 207 206
f 206 207 208
f 206 208 200
f 207 197 209
f 207 209 208
f 208 209 210
f 208 210 200
f 209 197 211
f 209 211 210
f 210 211 212
f 210 212 200
f 211 197 198
f 211 198 212
f 212 198 199
f 212 199 200

o TWIG_4_-1
usemtl wood
v 1.003246 3.100000 0.903326
v 1.047139 3.084620 0.893678
v 1.344787 3.434620 1.689860
v 1.300894 3.450000 1.699508
v 1.033548 3.127939 0.879716
v 1.331196 3.477939 1.675898
v 0.989654 3.143320 0.889364
v 1.287303 3.493320 1.685546
v 0.959352 3.115380 0.912974
v 1.257001 3.465380 1.709156
v 0.972944 3.072061 0.926937
v 1.270592 3.422061 1.723118
v 1.016837 3.056680 0.917289
v 1.314485 3.406680 1.713470
f 214 213 217
f 214 217 215
f 215 217 218
f 215 218 216
f 217 213 219
f 217 219 218
f 218 219 220
f 218 220 216
f 219 213 221
f 219 221 220
f 220 221 222
f 220 222 216
f 221 213 223
f 221 223 222
f 222 223 224
f 222 224 216
f 223 213 225
f 223 225 224
f 224 225 226
f 224 226 216
f 225 213 214
f 225 214 226
f 226 214 215
f 226 215 216

o TWIG_4_1
usemtl wood
v 1.003246 3.100000 0.903326
v 1.023175 3.057476 0.896197
v 1.846107 3.407476 1.108992
v 1.826178 3.450000 1.116121
v 1.019384 3.088261 0.860222
v 1.842317 3.438261 1.073017
v 0.999455 3.130784 0.867351
v 1.822388 3.480784 1.080146
v 0.983316 3.142524 0.910456
v 1.806249 3.492524 1.123250
v 0.987107 3.111739 0.946431
v 1.810040 3.461739 1.159225
v 1.007036 3.069216 0.939301
v 1.829969 3.419216 1.152096
f 228 227 231
f 228 231 229
f 229 231 232
f 229 232 230
f 231 227 233
f 231 233 232
f 232 233 234
f 232 234 230
f 233 227 235
f 233 235 234
f 234 235 236
f 234 236 230
f 235 227 237
f 235 237 236
f 236 237 238
f 236 238 230
f 237 227 239
f 237 239 238
f 238 239 240
f 238 240 230
f 239 227 228
f 239 228 240
f 240 228 229
f 240 229 230

o CANOPY_0
usemtl green2
v 0.488989 3.450000 -0.643092
v 1.511011 3.450000 -0.643092
v 0.488989 3.450000 0.643092
v 1.511011 3.450000 0.643092
v 1.000000 3.817481 0.397453
v 1.000000 3.817481 -0.397453
v 1.000000 3.082519 0.397453
v 1.000000 3.082519 -0.397453
v 1.826833 3.222884 0.000000
v 1.826833 3.677116 0.000000
v 0.173167 3.222884 0.000000
v 0.173167 3.677116 0.000000
v 1.000000 3.450000 -0.756000
v 1.000000 3.450000 0.756000
v 0.699635 3.666000 0.611617
v 1.300365 3.666000 0.611617
v 0.699635 3.666000 -0.611617
v 1.300365 3.666000 -0.611617
v 1.000000 3.882000 0.000000
v 0.699635 3.234000 0.611617
v 1.300365 3.234000 0.611617
v 0.699635 3.234000 -0.611617
v 1.300365 3.234000 -0.611617
v 1.000000 3.018000 0.000000
v 1.786365 3.316505 -0.378000
v 1.786365 3.316505 0.378000
v 1.486000 3.100505 0.233617
v 1.486000 3.100505 -0.233617
v 1.786365 3.583495 -0.378000
v 1.786365 3.583495 0.378000
v 1.486000 3.799495 0.233617
v 1.486000 3.799495 -0.233617
v 1.972000 3.450000 0.000000
v 0.213635 3.316505 -0.378000
v 0.213635 3.316505 0.378000
v 0.514000 3.100505 0.233617
v 0.514000 3.100505 -0.233617
v 0.213635 3.583495 -0.378000
v 0.213635 3.583495 0.378000
v 0.514000 3.799495 0.233617
v 0.514000 3.799495 -0.233617
v 0.028000 3.450000 0.000000
f 241 278 257
f 278 252 281
f 257 281 246
f 278 281 257
f 241 257 253
f 257 246 258
f 253 258 242
f 257 258 253
f 241 253 262
f 253 242 263
f 262 263 248
f 253 263 262
f 241 262 274
f 262 248 277
f 274 277 251
f 262 277 274
f 241 274 278
f 274 251 282
f 278 282 252
f 274 282 278
f 242 258 269
f 258 246 272
f 269 272 250
f 258 272 269
f 246 281 259
f 281 252 280
f 259 280 245
f 281 280 259
f 252 282 279
f 282 251 275
f 279 275 243
f 282 275 279
f 251 277 276
f 277 248 264
f 276 264 247
f 277 264 276
f 248 263 268
f 263 242 265
f 268 265 249
f 263 265 268
f 244 270 256
f 270 250 271
f 256 271 245
f 270 271 256
f 244 256 254
f 256 245 255
f 254 255 243
f 256 255 254
f 244 254 261
f 254 243 260
f 261 260 247
f 254 260 261
f 244 261 266
f 261 247 267
f 266 267 249
f 261 267 266
f 244 266 270
f 266 249 273
f 270 273 250
f 266 273 270
f 245 271 259
f 271 250 272
f 259 272 246
f 271 272 259
f 243 255 279
f 255 245 280
f 279 280 252
f 255 280 279
f 247 260 276
f 260 243 275
f 276 275 251
f 260 275 276
f 249 267 268
f 267 247 264
f 268 264 248
f 267 264 268
f 250 273 269
f 273 249 265
f 269 265 242
f 273 265 269

o CANOPY_1
usemtl green2
v 0.637725 3.767333 -1.196294
v 1.659746 3.767333 -1.196294
v 0.637725 3.767333 0.089890
v 1.659746 3.767333 0.089890
v 1.148735 4.134814 -0.155749
v 1.148735 4.134814 -0.950654
v 1.148735 3.399852 -0.155749
v 1.148735 3.399852 -0.950654
v 1.975568 3.540217 -0.553202
v 1.975568 3.994449 -0.553202
v 0.321903 3.540217 -0.553202
v 0.321903 3.994449 -0.553202
v 1.148735 3.767333 -1.309202
v 1.148735 3.767333 0.202798
v 0.848371 3.983333 0.058415
v 1.449100 3.983333 0.058415
v 0.848371 3.983333 -1.164819
v 1.449100 3.983333 -1.164819
v 1.148735 4.199333 -0.553202
v 0.848371 3.551333 0.058415
v 1.449100 3.551333 0.058415
v 0.848371 3.551333 -1.164819
v 1.449100 3.551333 -1.164819
v 1.148735 3.335333 -0.553202
v 1.935100 3.633837 -0.931202
v 1.935100 3.633837 -0.175202
v 1.634735 3.417837 -0.319585
v 1.634735 3.417837 -0.786819
v 1.935100 3.900828 -0.931202
v 1.935100 3.900828 -0.175202
v 1.634735 4.116828 -0.319585
v 1.634735 4.116828 -0.786819
v 2.120735 3.767333 -0.553202
v 0.362371 3.633837 -0.931202
v 0.362371 3.633837 -0.175202
v 0.662735 3.417837 -0.319585
v 0.662735 3.417837 -0.786819
v 0.362371 3.900828 -0.931202
v 0.362371 3.900828 -0.175202
v 0.662735 4.116828 -0.319585
v 0.662735 4.116828 -0.786819
v 0.176735 3.767333 -0.553202
f 283 320 299
f 320 294 323
f 299 323 288
f 320 323 299
f 283 299 295
f 299 288 300
f 295 300 284
f 299 300 295
f 283 295 304
f 295 284 305
f 304 305 290
f 295 305 304
f 283 304 316
f 304 290 319
f 316 319 293
f 304 319 316
f 283 316 320
f 316 293 324
f 320 324 294
f 316 324 320
f 284 300 311
f 300 288 314
f 311 314 292
f 300 314 311
f 288 323 301
f 323 294 322
f 301 322 287
f 323 322 301
f 294 324 321
f 324 293 317
f 321 317 285
f 324 317 321
f 293 319 318
f 319 290 306
f 318 306 289
f 319 306 318
f 290 305 310
f 305 284 307
f 310 307 291
f 305 307 310
f 286 312 298
f 312 292 313
f 298 313 287
f 312 313 298
f 286 298 296
f 298 287 297
f 296 297 285
f 298 297 296
f 286 296 303
f 296 285 302
f 303 302 289
f 296 302 303
f 286 303 308
f 303 289 309
f 308 309 291
f 303 309 308
f 286 308 312
f 308 291 315
f 312 315 292
f 308 315 312
f 287 313 301
f 313 292 314
f 301 314 288
f 313 314 301
f 285 297 321
f 297 287 322
f 321 322 294
f 297 322 321
f 289 302 318
f 302 285 317
f 318 317 293
f 302 317 318
f 291 309 310
f 309 289 306
f 310 306 290
f 309 306 310
f 292 315 311
f 315 291 307
f 311 307 284
f 315 307 311

o CANOPY_2
usemtl green2
v 0.455399 3.368227 -1.854931
v 1.477420 3.368227 -1.854931
v 0.455399 3.368227 -0.568747
v 1.477420 3.368227 -0.568747
v 0.966409 3.735708 -0.814386
v 0.966409 3.735708 -1.609292
v 0.966409 3.000746 -0.814386
v 0.966409 3.000746 -1.609292
v 1.793242 3.141111 -1.211839
v 1.793242 3.595343 -1.211839
v 0.139577 3.141111 -1.211839
v 0.139577 3.595343 -1.211839
v 0.966409 3.368227 -1.967839
v 0.966409 3.368227 -0.455839
v 0.666045 3.584227 -0.600222
v 1.266774 3.584227 -0.600222
v 0.666045 3.584227 -1.823456
v 1.266774 3.584227 -1.823456
v 0.966409 3.800227 -1.211839
v 0.666045 3.152227 -0.600222
v 1.266774 3.152227 -0.600222
v 0.666045 3.152227 -1.823456
v 1.266774 3.152227 -1.823456
v 0.966409 2.936227 -1.211839
v 1.752774 3.234732 -1.589839
v 1.752774 3.234732 -0.833839
v 1.452409 3.018732 -0.978222
v 1.452409 3.018732 -1.445456
v 1.752774 3.501722 -1.589839
v 1.752774 3.501722 -0.833839
v 1.452409 3.717722 -0.978222
v 1.452409 3.717722 -1.445456
v 1.938409 3.368227 -1.211839
v 0.180045 3.234732 -1.589839
v 0.180045 3.234732 -0.833839
v 0.480409 3.018732 -0.978222
v 0.480409 3.018732 -1.445456
v 0.180045 3.501722 -1.589839
v 0.180045 3.501722 -0.833839
v 0.480409 3.717722 -0.978222
v 0.480409 3.717722 -1.445456
v -0.005591 3.368227 -1.211839
f 325 362 341
f 362 336 365
f 341 365 330
f 362 365 341
f 325 341 337
f 341 330 342
f 337 342 326
f 341 342 337
f 325 337 346
f 337 326 347
f 346 347 332
f 337 347 346
f 325 346 358
f 346 332 361
f 358 361 335
f 346 361 358
f 325 358 362
f 358 335 366
f 362 366 336
f 358 366 362
f 326 342 353
f 342 330 356
f 353 356 334
f 342 356 353
f 330 365 343
f 365 336 364
f 343 364 329
f 365 364 343
f 336 366 363
f 366 335 359
f 363 359 327
f 366 359 363
f 335 361 360
f 361 332 348
f 360 348 331
f 361 348 360
f 332 347 352
f 347 326 349
f 352 349 333
f 347 349 352
f 328 354 340
f 354 334 355
f 340 355 329
f 354 355 340
f 328 340 338
f 340 329 339
f 338 339 327
f 340 339 338
f 328 338 345
f 338 327 344
f 345 344 331
f 338 344 345
f 328 345 350
f 345 331 351
f 350 351 333
f 345 351 350
f 328 350 354
f 350 333 357
f 354 357 334
f 350 357 354
f 329 355 343
f 355 334 356
f 343 356 330
f 355 356 343
f 327 339 363
f 339 329 364
f 363 364 336
f 339 364 363
f 331 344 360
f 344 327 359
f 360 359 335
f 344 359 360
f 333 351 352
f 351 331 348
f 352 348 332
f 351 348 352
f 334 357 353
f 357 333 349
f 353 349 326
f 357 349 353

o CANOPY_3
usemtl green2
v -0.288490 3.153739 -1.618020
v 0.733532 3.153739 -1.618020
v -0.288490 3.153739 -0.331836
v 0.733532 3.153739 -0.331836
v 0.222521 3.521220 -0.577475
v 0.222521 3.521220 -1.372381
v 0.222521 2.786258 -0.577475
v 0.222521 2.786258 -1.372381
v 1.049354 2.926623 -0.974928
v 1.049354 3.380855 -0.974928
v -0.604312 2.926623 -0.974928
v -0.604312 3.380855 -0.974928
v 0.222521 3.153739 -1.730928
v 0.222521 3.153739 -0.218928
v -0.077844 3.369739 -0.363311
v 0.522885 3.369739 -0.363311
v -0.077844 3.369739 -1.586545
v 0.522885 3.369739 -1.586545
v 0.222521 3.585739 -0.974928
v -0.077844 2.937739 -0.363311
v 0.522885 2.937739 -0.363311
v -0.077844 2.937739 -1.586545
v 0.522885 2.937739 -1.586545
v 0.222521 2.721739 -0.974928
v 1.008885 3.020244 -1.352928
v 1.008885 3.020244 -0.596928
v 0.708521 2.804244 -0.741311
v 0.708521 2.804244 -1.208545
v 1.008885 3.287235 -1.352928
v 1.008885 3.287235 -0.596928
v 0.708521 3.503235 -0.741311
v 0.708521 3.503235 -1.208545
v 1.194521 3.153739 -0.974928
v -0.563844 3.020244 -1.352928
v -0.563844 3.020244 -0.596928
v -0.263479 2.804244 -0.741311
v -0.263479 2.804244 -1.208545
v -0.563844 3.287235 -1.352928
v -0.563844 3.287235 -0.596928
v -0.263479 3.503235 -0.741311
v -0.263479 3.503235 -1.208545
v -0.749479 3.153739 -0.974928
f 367 404 383
f 404 378 407
f 383 407 372
f 404 407 383
f 367 383 379
f 383 372 384
f 379 384 368
f 383 384 379
f 367 379 388
f 379 368 389
f 388 389 374
f 379 389 388
f 367 388 400
f 388 374 403
f 400 403 377
f 388 403 400
f 367 400 404
f 400 377 408
f 404 408 378
f 400 408 404
f 368 384 395
f 384 372 398
f 395 398 376
f 384 398 395
f 372 407 385
f 407 378 406
f 385 406 371
f 407 406 385
f 378 408 405
f 408 377 401
f 405 401 369
f 408 401 405
f 377 403 402
f 403 374 390
f 402 390 373
f 403 390 402
f 374 389 394
f 389 368 391
f 394 391 375
f 389 391 394
f 370 396 382
f 396 376 397
f 382 397 371
f 396 397 382
f 370 382 380
f 382 371 381
f 380 381 369
f 382 381 380
f 370 380 387
f 380 369 386
f 387 386 373
f 380 386 387
f 370 387 392
f 387 373 393
f 392 393 375
f 387 393 392
f 370 392 396
f 392 375 399
f 396 399 376
f 392 399 396
f 371 397 385
f 397 376 398
f 385 398 372
f 397 398 385
f 369 381 405
f 381 371 406
f 405 406 378
f 381 406 405
f 373 386 402
f 386 369 401
f 402 401 377
f 386 401 402
f 375 393 394
f 393 373 390
f 394 390 374
f 393 390 394
f 376 399 395
f 399 375 391
f 395 391 368
f 399 391 395

o CANOPY_4
usemtl green2
v -0.794725 3.608116 -1.886125
v 0.227296 3.608116 -1.886125
v -0.794725 3.608116 -0.599941
v 0.227296 3.608116 -0.599941
v -0.283714 3.975597 -0.845580
v -0.283714 3.975597 -1.640486
v -0.283714 3.240635 -0.845580
v -0.283714 3.240635 -1.640486
v 0.543118 3.381000 -1.243033
v 0.543118 3.835232 -1.243033
v -1.110547 3.381000 -1.243033
v -1.110547 3.835232 -1.243033
v -0.283714 3.608116 -1.999033
v -0.283714 3.608116 -0.487033
v -0.584079 3.824116 -0.631416
v 0.016650 3.824116 -0.631416
v -0.584079 3.824116 -1.854650
v 0.016650 3.824116 -1.854650
v -0.283714 4.040116 -1.243033
v -0.584079 3.392116 -0.631416
v 0.016650 3.392116 -0.631416
v -0.584079 3.392116 -1.854650
v 0.016650 3.392116 -1.854650
v -0.283714 3.176116 -1.243033
v 0.502650 3.474621 -1.621033
v 0.502650 3.474621 -0.865033
v 0.202286 3.258621 -1.009416
v 0.202286 3.258621 -1.476650
v 0.502650 3.741612 -1.621033
v 0.502650 3.741612 -0.865033
v 0.202286 3.957612 -1.009416
v 0.202286 3.957612 -1.476650
v 0.688286 3.608116 -1.243033
v -1.070079 3.474621 -1.621033
v -1.070079 3.474621 -0.865033
v -0.769714 3.258621 -1.009416
v -0.769714 3.258621 -1.476650
v -1.070079 3.741612 -1.621033
v -1.070079 3.741612 -0.865033
v -0.769714 3.957612 -1.009416
v -0.769714 3.957612 -1.476650
v -1.255714 3.608116 -1.243033
f 409 446 425
f 446 420 449
f 425 449 414
f 446 449 425
f 409 425 421
f 425 414 426
f 421 426 410
f 425 426 421
f 409 421 430
f 421 410 431
f 430 431 416
f 421 431 430
f 409 430 442
f 430 416 445
f 442 445 419
f 430 445 442
f 409 442 446
f 442 419 450
f 446 450 420
f 442 450 446
f 410 426 437
f 426 414 440
f 437 440 418
f 426 440 437
f 414 449 427
f 449 420 448
f 427 448 413
f 449 448 427
f 420 450 447
f 450 419 443
f 447 443 411
f 450 443 447
f 419 445 444
f 445 416 432
f 444 432 415
f 445 432 444
f 416 431 436
f 431 410 433
f 436 433 417
f 431 433 436
f 412 438 424
f 438 418 439
f 424 439 413
f 438 439 424
f 412 424 422
f 424 413 423
f 422 423 411
f 424 423 422
f 412 422 429
f 422 411 428
f 429 428 415
f 422 428 429
f 412 429 434
f 429 415 435
f 434 435 417
f 429 435 434
f 412 434 438
f 434 417 441
f 438 441 418
f 434 441 438
f 413 439 427
f 439 418 440
f 427 440 414
f 439 440 427
f 411 423 447
f 423 413 448
f 447 448 420
f 423 448 447
f 415 428 444
f 428 411 443
f 444 443 419
f 428 443 444
f 417 435 436
f 435 415 432
f 436 432 416
f 435 432 436
f 418 441 437
f 441 417 433
f 437 433 410
f 441 433 437

o CANOPY_5
usemtl green2
v -1.477420 3.705516 -1.854931
v -0.455399 3.705516 -1.854931
v -1.477420 3.705516 -0.568747
v -0.455399 3.705516 -0.568747
v -0.966409 4.072997 -0.814386
v -0.966409 4.072997 -1.609292
v -0.966409 3.338035 -0.814386
v -0.966409 3.338035 -1.609292
v -0.139577 3.478400 -1.211839
v -0.139577 3.932632 -1.211839
v -1.793242 3.478400 -1.211839
v -1.793242 3.932632 -1.211839
v -0.966409 3.705516 -1.967839
v -0.966409 3.705516 -0.455839
v -1.266774 3.921516 -0.600222
v -0.666045 3.921516 -0.600222
v -1.266774 3.921516 -1.823456
v -0.666045 3.921516 -1.823456
v -0.966409 4.137516 -1.211839
v -1.266774 3.489516 -0.600222
v -0.666045 3.489516 -0.600222
v -1.266774 3.489516 -1.823456
v -0.666045 3.489516 -1.823456
v -0.966409 3.273516 -1.211839
v -0.180045 3.572021 -1.589839
v -0.180045 3.572021 -0.833839
v -0.480409 3.356021 -0.978222
v -0.480409 3.356021 -1.445456
v -0.180045 3.839011 -1.589839
v -0.180045 3.839011 -0.833839
v -0.480409 4.055011 -0.978222
v -0.480409 4.055011 -1.445456
v 0.005591 3.705516 -1.211839
v -1.752774 3.572021 -1.589839
v -1.752774 3.572021 -0.833839
v -1.452409 3.356021 -0.978222
v -1.452409 3.356021 -1.445456
v -1.752774 3.839011 -1.589839
v -1.752774 3.839011 -0.833839
v -1.452409 4.055011 -0.978222
v -1.452409 4.055011 -1.445456
v -1.938409 3.705516 -1.211839
f 451 488 467
f 488 462 491
f 467 491 456
f 488 491 467
f 451 467 463
f 467 456 468
f 463 468 452
f 467 468 463
f 451 463 472
f 463 452 473
f 472 473 458
f 463 473 472
f 451 472 484
f 472 458 487
f 484 487 461
f 472 487 484
f 451 484 488
f 484 461 492
f 488 492 462
f 484 492 488
f 452 468 479
f 468 456 482
f 479 482 460
f 468 482 479
f 456 491 469
f 491 462 490
f 469 490 455
f 491 490 469
f 462 492 489
f 492 461 485
f 489 485 453
f 492 485 489
f 461 487 486
f 487 458 474
f 486 474 457
f 487 474 486
f 458 473 478
f 473 452 475
f 478 475 459
f 473 475 478
f 454 480 466
f 480 460 481
f 466 481 455
f 480 481 466
f 454 466 464
f 466 455 465
f 464 465 453
f 466 465 464
f 454 464 471
f 464 453 470
f 471 470 457
f 464 470 471
f 454 471 476
f 471 457 477
f 476 477 459
f 471 477 476
f 454 476 480
f 476 459 483
f 480 483 460
f 476 483 480
f 455 481 469
f 481 460 482
f 469 482 456
f 481 482 469
f 453 465 489
f 465 455 490
f 489 490 462
f 465 490 489
f 457 470 486
f 470 453 485
f 486 485 461
f 470 485 486
f 459 477 478
f 477 457 474
f 478 474 458
f 477 474 478
f 460 483 479
f 483 459 475
f 479 475 452
f 483 475 479

o CANOPY_6
usemtl green2
v -1.411980 3.226040 -1.076976
v -0.389958 3.226040 -1.076976
v -1.411980 3.226040 0.209208
v -0.389958 3.226040 0.209208
v -0.900969 3.593521 -0.036431
v -0.900969 3.593521 -0.831336
v -0.900969 2.858559 -0.036431
v -0.900969 2.858559 -0.831336
v -0.074136 2.998924 -0.433884
v -0.074136 3.453156 -0.433884
v -1.727801 2.998924 -0.433884
v -1.727801 3.453156 -0.433884
v -0.900969 3.226040 -1.189884
v -0.900969 3.226040 0.322116
v -1.201333 3.442040 0.177733
v -0.600604 3.442040 0.177733
v -1.201333 3.442040 -1.045501
v -0.600604 3.442040 -1.045501
v -0.900969 3.658040 -0.433884
v -1.201333 3.010040 0.177733
v -0.600604 3.010040 0.177733
v -1.201333 3.010040 -1.045501
v -0.600604 3.010040 -1.045501
v -0.900969 2.794040 -0.433884
v -0.114604 3.092545 -0.811884
v -0.114604 3.092545 -0.055884
v -0.414969 2.876545 -0.200267
v -0.414969 2.876545 -0.667501
v -0.114604 3.359535 -0.811884
v -0.114604 3.359535 -0.055884
v -0.414969 3.575535 -0.200267
v -0.414969 3.575535 -0.667501
v 0.071031 3.226040 -0.433884
v -1.687333 3.092545 -0.811884
v -1.687333 3.092545 -0.055884
v -1.386969 2.876545 -0.200267
v -1.386969 2.876545 -0.667501
v -1.687333 3.359535 -0.811884
v -1.687333 3.359535 -0.055884
v -1.386969 3.575535 -0.200267
v -1.386969 3.575535 -0.667501
v -1.872969 3.226040 -0.433884
f 493 530 509
f 530 504 533
f 509 533 498
f 530 533 509
f 493 509 505
f 509 498 510
f 505 510 494
f 509 510 505
f 493 505 514
f 505 494 515
f 514 515 500
f 505 515 514
f 493 514 526
f 514 500 529
f 526 529 503
f 514 529 526
f 493 526 530
f 526 503 534
f 530 534 504
f 526 534 530
f 494 510 521
f 510 498 524
f 521 524 502
f 510 524 521
f 498 533 511
f 533 504 532
f 511 532 497
f 533 532 511
f 504 534 531
f 534 503 527
f 531 527 495
f 534 527 531
f 503 529 528
f 529 500 516
f 528 516 499
f 529 516 528
f 500 515 520
f 515 494 517
f 520 517 501
f 515 517 520
f 496 522 508
f 522 502 523
f 508 523 497
f 522 523 508
f 496 508 506
f 508 497 507
f 506 507 495
f 508 507 506
f 496 506 513
f 506 495 512
f 513 512 499
f 506 512 513
f 496 513 518
f 513 499 519
f 518 519 501
f 513 519 518
f 496 518 522
f 518 501 525
f 522 525 502
f 518 525 522
f 497 523 511
f 523 502 524
f 511 524 498
f 523 524 511
f 495 507 531
f 507 497 532
f 531 532 504
f 507 532 531
f 499 512 528
f 512 495 527
f 528 527 503
f 512 527 528
f 501 519 520
f 519 499 516
f 520 516 500
f 519 516 520
f 502 525 521
f 525 501 517
f 521 517 494
f 525 517 521

o CANOPY_7
usemtl green2
v -1.786011 3.252196 -0.643092
v -0.763989 3.252196 -0.643092
v -1.786011 3.252196 0.643092
v -0.763989 3.252196 0.643092
v -1.275000 3.619677 0.397453
v -1.275000 3.619677 -0.397453
v -1.275000 2.884715 0.397453
v -1.275000 2.884715 -0.397453
v -0.448167 3.025080 0.000000
v -0.448167 3.479312 0.000000
v -2.101833 3.025080 0.000000
v -2.101833 3.479312 0.000000
v -1.275000 3.252196 -0.756000
v -1.275000 3.252196 0.756000
v -1.575365 3.468196 0.611617
v -0.974635 3.468196 0.611617
v -1.575365 3.468196 -0.611617
v -0.974635 3.468196 -0.611617
v -1.275000 3.684196 0.000000
v -1.575365 3.036196 0.611617
v -0.974635 3.036196 0.611617
v -1.575365 3.036196 -0.611617
v -0.974635 3.036196 -0.611617
v -1.275000 2.820196 0.000000
v -0.488635 3.118701 -0.378000
v -0.488635 3.118701 0.378000
v -0.789000 2.902701 0.233617
v -0.789000 2.902701 -0.233617
v -0.488635 3.385691 -0.378000
v -0.488635 3.385691 0.378000
v -0.789000 3.601691 0.233617
v -0.789000 3.601691 -0.233617
v -0.303000 3.252196 0.000000
v -2.061365 3.118701 -0.378000
v -2.061365 3.118701 0.378000
v -1.761000 2.902701 0.233617
v -1.761000 2.902701 -0.233617
v -2.061365 3.385691 -0.378000
v -2.061365 3.385691 0.378000
v -1.761000 3.601691 0.233617
v -1.761000 3.601691 -0.233617
v -2.247000 3.252196 0.000000
f 535 572 551
f 572 546 575
f 551 575 540
f 572 575 551
f 535 551 547
f 551 540 552
f 547 552 536
f 551 552 547
f 535 547 556
f 547 536 557
f 556 557 542
f 547 557 556
f 535 556 568
f 556 542 571
f 568 571 545
f 556 571 568
f 535 568 572
f 568 545 576
f 572 576 546
f 568 576 572
f 536 552 563
f 552 540 566
f 563 566 544
f 552 566 563
f 540 575 553
f 575 546 574
f 553 574 539
f 575 574 553
f 546 576 573
f 576 545 569
f 573 569 537
f 576 569 573
f 545 571 570
f 571 542 558
f 570 558 541
f 571 558 570
f 542 557 562
f 557 536 559
f 562 559 543
f 557 559 562
f 538 564 550
f 564 544 565
f 550 565 539
f 564 565 550
f 538 550 548
f 550 539 549
f 548 549 537
f 550 549 548
f 538 548 555
f 548 537 554
f 555 554 541
f 548 554 555
f 538 555 560
f 555 541 561
f 560 561 543
f 555 561 560
f 538 560 564
f 560 543 567
f 564 567 544
f 560 567 564
f 539 565 553
f 565 544 566
f 553 566 540
f 565 566 553
f 537 549 573
f 549 539 574
f 573 574 546
f 549 574 573
f 541 554 570
f 554 537 569
f 570 569 545
f 554 569 570
f 543 561 562
f 561 541 558
f 562 558 542
f 561 558 562
f 544 567 563
f 567 543 559
f 563 559 536
f 567 559 563

o CANOPY_8
usemtl green2
v -1.907512 3.724932 0.029428
v -0.885491 3.724932 0.029428
v -1.907512 3.724932 1.315612
v -0.885491 3.724932 1.315612
v -1.396502 4.092413 1.069973
v -1.396502 4.092413 0.275067
v -1.396502 3.357451 1.069973
v -1.396502 3.357451 0.275067
v -0.569669 3.497816 0.672520
v -0.569669 3.952048 0.672520
v -2.223334 3.497816 0.672520
v -2.223334 3.952048 0.672520
v -1.396502 3.724932 -0.083480
v -1.396502 3.724932 1.428520
v -1.696866 3.940932 1.284137
v -1.096137 3.940932 1.284137
v -1.696866 3.940932 0.060903
v -1.096137 3.940932 0.060903
v -1.396502 4.156932 0.672520
v -1.696866 3.508932 1.284137
v -1.096137 3.508932 1.284137
v -1.696866 3.508932 0.060903
v -1.096137 3.508932 0.060903
v -1.396502 3.292932 0.672520
v -0.610137 3.591436 0.294520
v -0.610137 3.591436 1.050520
v -0.910502 3.375436 0.906137
v -0.910502 3.375436 0.438903
v -0.610137 3.858427 0.294520
v -0.610137 3.858427 1.050520
v -0.910502 4.074427 0.906137
v -0.910502 4.074427 0.438903
v -0.424502 3.724932 0.672520
v -2.182866 3.591436 0.294520
v -2.182866 3.591436 1.050520
v -1.882502 3.375436 0.906137
v -1.882502 3.375436 0.438903
v -2.182866 3.858427 0.294520
v -2.182866 3.858427 1.050520
v -1.882502 4.074427 0.906137
v -1.882502 4.074427 0.438903
v -2.368502 3.724932 0.672520
f 577 614 593
f 614 588 617
f 593 617 582
f 614 617 593
f 577 593 589
f 593 582 594
f 589 594 578
f 593 594 589
f 577 589 598
f 589 578 599
f 598 599 584
f 589 599 598
f 577 598 610
f 598 584 613
f 610 613 587
f 598 613 610
f 577 610 614
f 610 587 618
f 614 618 588
f 610 618 614
f 578 594 605
f 594 582 608
f 605 608 586
f 594 608 605
f 582 617 595
f 617 588 616
f 595 616 581
f 617 616 595
f 588 618 615
f 618 587 611
f 615 611 579
f 618 611 615
f 587 613 612
f 613 584 600
f 612 600 583
f 613 600 612
f 584 599 604
f 599 578 601
f 604 601 585
f 599 601 604
f 580 606 592
f 606 586 607
f 592 607 581
f 606 607 592
f 580 592 590
f 592 581 591
f 590 591 579
f 592 591 590
f 580 590 597
f 590 579 596
f 597 596 583
f 590 596 597
f 580 597 602
f 597 583 603
f 602 603 585
f 597 603 602
f 580 602 606
f 602 585 609
f 606 609 586
f 602 609 606
f 581 607 595
f 607 586 608
f 595 608 582
f 607 608 595
f 579 591 615
f 591 581 616
f 615 616 588
f 591 616 615
f 583 596 612
f 596 579 611
f 612 611 587
f 596 611 612
f 585 603 604
f 603 583 600
f 604 600 584
f 603 600 604
f 586 609 605
f 609 585 601
f 605 601 578
f 609 601 605

o CANOPY_9
usemtl green2
v -1.134500 3.576957 0.138739
v -0.112479 3.576957 0.138739
v -1.134500 3.576957 1.424923
v -0.112479 3.576957 1.424923
v -0.623490 3.944438 1.179284
v -0.623490 3.944438 0.384379
v -0.623490 3.209476 1.179284
v -0.623490 3.209476 0.384379
v 0.203343 3.349841 0.781831
v 0.203343 3.804073 0.781831
v -1.450322 3.349841 0.781831
v -1.450322 3.804073 0.781831
v -0.623490 3.576957 0.025831
v -0.623490 3.576957 1.537831
v -0.923854 3.792957 1.393448
v -0.323125 3.792957 1.393448
v -0.923854 3.792957 0.170215
v -0.323125 3.792957 0.170215
v -0.623490 4.008957 0.781831
v -0.923854 3.360957 1.393448
v -0.323125 3.360957 1.393448
v -0.923854 3.360957 0.170215
v -0.323125 3.360957 0.170215
v -0.623490 3.144957 0.781831
v 0.162875 3.443462 0.403831
v 0.162875 3.443462 1.159831
v -0.137490 3.227462 1.015448
v -0.137490 3.227462 0.548215
v 0.162875 3.710452 0.403831
v 0.162875 3.710452 1.159831
v -0.137490 3.926452 1.015448
v -0.137490 3.926452 0.548215
v 0.348510 3.576957 0.781831
v -1.409854 3.443462 0.403831
v -1.409854 3.443462 1.159831
v -1.109490 3.227462 1.015448
v -1.109490 3.227462 0.548215
v -1.409854 3.710452 0.403831
v -1.409854 3.710452 1.159831
v -1.109490 3.926452 1.015448
v -1.109490 3.926452 0.548215
v -1.595490 3.576957 0.781831
f 619 656 635
f 656 630 659
f 635 659 624
f 656 659 635
f 619 635 631
f 635 624 636
f 631 636 620
f 635 636 631
f 619 631 640
f 631 620 641
f 640 641 626
f 631 641 640
f 619 640 652
f 640 626 655
f 652 655 629
f 640 655 652
f 619 652 656
f 652 629 660
f 656 660 630
f 652 660 656
f 620 636 647
f 636 624 650
f 647 650 628
f 636 650 647
f 624 659 637
f 659 630 658
f 637 658 623
f 659 658 637
f 630 660 657
f 660 629 653
f 657 653 621
f 660 653 657
f 629 655 654
f 655 626 642
f 654 642 625
f 655 642 654
f 626 641 646
f 641 620 643
f 646 643 627
f 641 643 646
f 622 648 634
f 648 628 649
f 634 649 623
f 648 649 634
f 622 634 632
f 634 623 633
f 632 633 621
f 634 633 632
f 622 632 639
f 632 621 638
f 639 638 625
f 632 638 639
f 622 639 644
f 639 625 645
f 644 645 627
f 639 645 644
f 622 644 648
f 644 627 651
f 648 651 628
f 644 651 648
f 623 649 637
f 649 628 650
f 637 650 624
f 649 650 637
f 621 633 657
f 633 623 658
f 657 658 630
f 633 658 657
f 625 638 654
f 638 621 653
f 654 653 629
f 638 653 654
f 627 645 646
f 645 625 642
f 646 642 626
f 645 642 646
f 628 651 647
f 651 627 643
f 647 643 620
f 651 643 647

o CANOPY_10
usemtl green2
v -0.794725 3.142353 0.599941
v 0.227296 3.142353 0.599941
v -0.794725 3.142353 1.886125
v 0.227296 3.142353 1.886125
v -0.283714 3.509834 1.640486
v -0.283714 3.509834 0.845580
v -0.283714 2.774872 1.640486
v -0.283714 2.774872 0.845580
v 0.543118 2.915237 1.243033
v 0.543118 3.369469 1.243033
v -1.110547 2.915237 1.243033
v -1.110547 3.369469 1.243033
v -0.283714 3.142353 0.487033
v -0.283714 3.142353 1.999033
v -0.584079 3.358353 1.854650
v 0.016650 3.358353 1.854650
v -0.584079 3.358353 0.631416
v 0.016650 3.358353 0.631416
v -0.283714 3.574353 1.243033
v -0.584079 2.926353 1.854650
v 0.016650 2.926353 1.854650
v -0.584079 2.926353 0.631416
v 0.016650 2.926353 0.631416
v -0.283714 2.710353 1.243033
v 0.502650 3.008857 0.865033
v 0.502650 3.008857 1.621033
v 0.202286 2.792857 1.476650
v 0.202286 2.792857 1.009416
v 0.502650 3.275848 0.865033
v 0.502650 3.275848 1.621033
v 0.202286 3.491848 1.476650
v 0.202286 3.491848 1.009416
v 0.688286 3.142353 1.243033
v -1.070079 3.008857 0.865033
v -1.070079 3.008857 1.621033
v -0.769714 2.792857 1.476650
v -0.769714 2.792857 1.009416
v -1.070079 3.275848 0.865033
v -1.070079 3.275848 1.621033
v -0.769714 3.491848 1.476650
v -0.769714 3.491848 1.009416
v -1.255714 3.142353 1.243033
f 661 698 677
f 698 672 701
f 677 701 666
f 698 701 677
f 661 677 673
f 677 666 678
f 673 678 662
f 677 678 673
f 661 673 682
f 673 662 683
f 682 683 668
f 673 683 682
f 661 682 694
f 682 668 697
f 694 697 671
f 682 697 694
f 661 694 698
f 694 671 702
f 698 702 672
f 694 702 698
f 662 678 689
f 678 666 692
f 689 692 670
f 678 692 689
f 666 701 679
f 701 672 700
f 679 700 665
f 701 700 679
f 672 702 699
f 702 671 695
f 699 695 663
f 702 695 699
f 671 697 696
f 697 668 684
f 696 684 667
f 697 684 696
f 668 683 688
f 683 662 685
f 688 685 669
f 683 685 688
f 664 690 676
f 690 670 691
f 676 691 665
f 690 691 676
f 664 676 674
f 676 665 675
f 674 675 663
f 676 675 674
f 664 674 681
f 674 663 680
f 681 680 667
f 674 680 681
f 664 681 686
f 681 667 687
f 686 687 669
f 681 687 686
f 664 686 690
f 686 669 693
f 690 693 670
f 686 693 690
f 665 691 679
f 691 670 692
f 679 692 666
f 691 692 679
f 663 675 699
f 675 665 700
f 699 700 672
f 675 700 699
f 667 680 696
f 680 663 695
f 696 695 671
f 680 695 696
f 669 687 688
f 687 667 684
f 688 684 668
f 687 684 688
f 670 693 689
f 693 669 685
f 689 685 662
f 693 685 689

o CANOPY_11
usemtl green2
v -0.166103 3.402320 0.868046
v 0.855918 3.402320 0.868046
v -0.166103 3.402320 2.154230
v 0.855918 3.402320 2.154230
v 0.344907 3.769801 1.908591
v 0.344907 3.769801 1.113686
v 0.344907 3.034839 1.908591
v 0.344907 3.034839 1.113686
v 1.171740 3.175204 1.511138
v 1.171740 3.629436 1.511138
v -0.481925 3.175204 1.511138
v -0.481925 3.629436 1.511138
v 0.344907 3.402320 0.755138
v 0.344907 3.402320 2.267138
v 0.044543 3.618320 2.122755
v 0.645272 3.618320 2.122755
v 0.044543 3.618320 0.899521
v 0.645272 3.618320 0.899521
v 0.344907 3.834320 1.511138
v 0.044543 3.186320 2.122755
v 0.645272 3.186320 2.122755
v 0.044543 3.186320 0.899521
v 0.645272 3.186320 0.899521
v 0.344907 2.970320 1.511138
v 1.131272 3.268825 1.133138
v 1.131272 3.268825 1.889138
v 0.830907 3.052825 1.744755
v 0.830907 3.052825 1.277521
v 1.131272 3.535816 1.133138
v 1.131272 3.535816 1.889138
v 0.830907 3.751816 1.744755
v 0.830907 3.751816 1.277521
v 1.316907 3.402320 1.511138
v -0.441457 3.268825 1.133138
v -0.441457 3.268825 1.889138
v -0.141093 3.052825 1.744755
v -0.141093 3.052825 1.277521
v -0.441457 3.535816 1.133138
v -0.441457 3.535816 1.889138
v -0.141093 3.751816 1.744755
v -0.141093 3.751816 1.277521
v -0.627093 3.402320 1.511138
f 703 740 719
f 740 714 743
f 719 743 708
f 740 743 719
f 703 719 715
f 719 708 720
f 715 720 704
f 719 720 715
f 703 715 724
f 715 704 725
f 724 725 710
f 715 725 724
f 703 724 736
f 724 710 739
f 736 739 713
f 724 739 736
f 703 736 740
f 736 713 744
f 740 744 714
f 736 744 740
f 704 720 731
f 720 708 734
f 731 734 712
f 720 734 731
f 708 743 721
f 743 714 742
f 721 742 707
f 743 742 721
f 714 744 741
f 744 713 737
f 741 737 705
f 744 737 741
f 713 739 738
f 739 710 726
f 738 726 709
f 739 726 738
f 710 725 730
f 725 704 727
f 730 727 711
f 725 727 730
f 706 732 718
f 732 712 733
f 718 733 707
f 732 733 718
f 706 718 716
f 718 707 717
f 716 717 705
f 718 717 716
f 706 716 723
f 716 705 722
f 723 722 709
f 716 722 723
f 706 723 728
f 723 709 729
f 728 729 711
f 723 729 728
f 706 728 732
f 728 711 735
f 732 735 712
f 728 735 732
f 707 733 721
f 733 712 734
f 721 734 708
f 733 734 721
f 705 717 741
f 717 707 742
f 741 742 714
f 717 742 741
f 709 722 738
f 722 705 737
f 738 737 713
f 722 737 738
f 711 729 730
f 729 709 726
f 730 726 710
f 729 726 730
f 712 735 731
f 735 711 727
f 731 727 704
f 735 727 731

o CANOPY_12
usemtl green2
v 0.112479 3.769934 0.138739
v 1.134500 3.769934 0.138739
v 0.112479 3.769934 1.424923
v 1.134500 3.769934 1.424923
v 0.623490 4.137415 1.179284
v 0.623490 4.137415 0.384379
v 0.623490 3.402453 1.179284
v 0.623490 3.402453 0.384379
v 1.450322 3.542818 0.781831
v 1.450322 3.997050 0.781831
v -0.203343 3.542818 0.781831
v -0.203343 3.997050 0.781831
v 0.623490 3.769934 0.025831
v 0.623490 3.769934 1.537831
v 0.323125 3.985934 1.393448
v 0.923854 3.985934 1.393448
v 0.323125 3.985934 0.170215
v 0.923854 3.985934 0.170215
v 0.623490 4.201934 0.781831
v 0.323125 3.553934 1.393448
v 0.923854 3.553934 1.393448
v 0.323125 3.553934 0.170215
v 0.923854 3.553934 0.170215
v 0.623490 3.337934 0.781831
v 1.409854 3.636438 0.403831
v 1.409854 3.636438 1.159831
v 1.109490 3.420438 1.015448
v 1.109490 3.420438 0.548215
v 1.409854 3.903429 0.403831
v 1.409854 3.903429 1.159831
v 1.109490 4.119429 1.015448
v 1.109490 4.119429 0.548215
v 1.595490 3.769934 0.781831
v -0.162875 3.636438 0.403831
v -0.162875 3.636438 1.159831
v 0.137490 3.420438 1.015448
v 0.137490 3.420438 0.548215
v -0.162875 3.903429 0.403831
v -0.162875 3.903429 1.159831
v 0.137490 4.119429 1.015448
v 0.137490 4.119429 0.548215
v -0.348510 3.769934 0.781831
f 745 782 761
f 782 756 785
f 761 785 750
f 782 785 761
f 745 761 757
f 761 750 762
f 757 762 746
f 761 762 757
f 745 757 766
f 757 746 767
f 766 767 752
f 757 767 766
f 745 766 778
f 766 752 781
f 778 781 755
f 766 781 778
f 745 778 782
f 778 755 786
f 782 786 756
f 778 786 782
f 746 762 773
f 762 750 776
f 773 776 754
f 762 776 773
f 750 785 763
f 785 756 784
f 763 784 749
f 785 784 763
f 756 786 783
f 786 755 779
f 783 779 747
f 786 779 783
f 755 781 780
f 781 752 768
f 780 768 751
f 781 768 780
f 752 767 772
f 767 746 769
f 772 769 753
f 767 769 772
f 748 774 760
f 774 754 775
f 760 775 749
f 774 775 760
f 748 760 758
f 760 749 759
f 758 759 747
f 760 759 758
f 748 758 765
f 758 747 764
f 765 764 751
f 758 764 765
f 748 765 770
f 765 751 771
f 770 771 753
f 765 771 770
f 748 770 774
f 770 753 777
f 774 777 754
f 770 777 774
f 749 775 763
f 775 754 776
f 763 776 750
f 775 776 763
f 747 759 783
f 759 749 784
f 783 784 756
f 759 784 783
f 751 764 780
f 764 747 779
f 780 779 755
f 764 779 780
f 753 771 772
f 771 751 768
f 772 768 752
f 771 768 772
f 754 777 773
f 777 753 769
f 773 769 746
f 777 769 773

o CANOPY_13
usemtl green2
v 0.637725 3.415236 -0.089890
v 1.659746 3.415236 -0.089890
v 0.637725 3.415236 1.196294
v 1.659746 3.415236 1.196294
v 1.148735 3.782717 0.950654
v 1.148735 3.782717 0.155749
v 1.148735 3.047755 0.950654
v 1.148735 3.047755 0.155749
v 1.975568 3.188120 0.553202
v 1.975568 3.642352 0.553202
v 0.321903 3.188120 0.553202
v 0.321903 3.642352 0.553202
v 1.148735 3.415236 -0.202798
v 1.148735 3.415236 1.309202
v 0.848371 3.631236 1.164819
v 1.449100 3.631236 1.164819
v 0.848371 3.631236 -0.058415
v 1.449100 3.631236 -0.058415
v 1.148735 3.847236 0.553202
v 0.848371 3.199236 1.164819
v 1.449100 3.199236 1.164819
v 0.848371 3.199236 -0.058415
v 1.449100 3.199236 -0.058415
v 1.148735 2.983236 0.553202
v 1.935100 3.281741 0.175202
v 1.935100 3.281741 0.931202
v 1.634735 3.065741 0.786819
v 1.634735 3.065741 0.319585
v 1.935100 3.548732 0.175202
v 1.935100 3.548732 0.931202
v 1.634735 3.764732 0.786819
v 1.634735 3.764732 0.319585
v 2.120735 3.415236 0.553202
v 0.362371 3.281741 0.175202
v 0.362371 3.281741 0.931202
v 0.662735 3.065741 0.786819
v 0.662735 3.065741 0.319585
v 0.362371 3.548732 0.175202
v 0.362371 3.548732 0.931202
v 0.662735 3.764732 0.786819
v 0.662735 3.764732 0.319585
v 0.176735 3.415236 0.553202
f 787 824 803
f 824 798 827
f 803 827 792
f 824 827 803
f 787 803 799
f 803 792 804
f 799 804 788
f 803 804 799
f 787 799 808
f 799 788 809
f 808 809 794
f 799 809 808
f 787 808 820
f 808 794 823
f 820 823 797
f 808 823 820
f 787 820 824
f 820 797 828
f 824 828 798
f 820 828 824
f 788 804 815
f 804 792 818
f 815 818 796
f 804 818 815
f 792 827 805
f 827 798 826
f 805 826 791
f 827 826 805
f 798 828 825
f 828 797 821
f 825 821 789
f 828 821 825
f 797 823 822
f 823 794 810
f 822 810 793
f 823 810 822
f 794 809 814
f 809 788 811
f 814 811 795
f 809 811 814
f 790 816 802
f 816 796 817
f 802 817 791
f 816 817 802
f 790 802 800
f 802 791 801
f 800 801 789
f 802 801 800
f 790 800 807
f 800 789 806
f 807 806 793
f 800 806 807
f 790 807 812
f 807 793 813
f 812 813 795
f 807 813 812
f 790 812 816
f 812 795 819
f 816 819 796
f 812 819 816
f 791 817 805
f 817 796 818
f 805 818 792
f 817 818 805
f 789 801 825
f 801 791 826
f 825 826 798
f 801 826 825
f 793 806 822
f 806 789 821
f 822 821 797
f 806 821 822
f 795 813 814
f 813 793 810
f 814 810 794
f 813 810 814
f 796 819 815
f 819 795 811
f 815 811 788
f 819 811 815

o FLOWER_0
usemtl flower
v 1.013519 3.900000 -0.381587
v 1.240634 3.900000 -0.381587
v 1.013519 3.900000 -0.075353
v 1.240634 3.900000 -0.075353
v 1.127077 3.976559 -0.133838
v 1.127077 3.976559 -0.323101
v 1.127077 3.823441 -0.133838
v 1.127077 3.823441 -0.323101
v 1.310817 3.852684 -0.228470
v 1.310817 3.947316 -0.228470
v 0.943336 3.852684 -0.228470
v 0.943336 3.947316 -0.228470
v 1.127077 3.900000 -0.408470
v 1.127077 3.900000 -0.048470
v 1.060329 3.945000 -0.082847
v 1.193824 3.945000 -0.082847
v 1.060329 3.945000 -0.374093
v 1.193824 3.945000 -0.374093
v 1.127077 3.990000 -0.228470
v 1.060329 3.855000 -0.082847
v 1.193824 3.855000 -0.082847
v 1.060329 3.855000 -0.374093
v 1.193824 3.855000 -0.374093
v 1.127077 3.810000 -0.228470
v 1.301824 3.872188 -0.318470
v 1.301824 3.872188 -0.138470
v 1.235077 3.827188 -0.172847
v 1.235077 3.827188 -0.284093
v 1.301824 3.927812 -0.318470
v 1.301824 3.927812 -0.138470
v 1.235077 3.972812 -0.172847
v 1.235077 3.972812 -0.284093
v 1.343077 3.900000 -0.228470
v 0.952329 3.872188 -0.318470
v 0.952329 3.872188 -0.138470
v 1.019077 3.827188 -0.172847
v 1.019077 3.827188 -0.284093
v 0.952329 3.927812 -0.318470
v 0.952329 3.927812 -0.138470
v 1.019077 3.972812 -0.172847
v 1.019077 3.972812 -0.284093
v 0.911077 3.900000 -0.228470
f 829 866 845
f 866 840 869
f 845 869 834
f 866 869 845
f 829 845 841
f 845 834 846
f 841 846 830
f 845 846 841
f 829 841 850
f 841 830 851
f 850 851 836
f 841 851 850
f 829 850 862
f 850 836 865
f 862 865 839
f 850 865 862
f 829 862 866
f 862 839 870
f 866 870 840
f 862 870 866
f 830 846 857
f 846 834 860
f 857 860 838
f 846 860 857
f 834 869 847
f 869 840 868
f 847 868 833
f 869 868 847
f 840 870 867
f 870 839 863
f 867 863 831
f 870 863 867
f 839 865 864
f 865 836 852
f 864 852 835
f 865 852 864
f 836 851 856
f 851 830 853
f 856 853 837
f 851 853 856
f 832 858 844
f 858 838 859
f 844 859 833
f 858 859 844
f 832 844 842
f 844 833 843
f 842 843 831
f 844 843 842
f 832 842 849
f 842 831 848
f 849 848 835
f 842 848 849
f 832 849 854
f 849 835 855
f 854 855 837
f 849 855 854
f 832 854 858
f 854 837 861
f 858 861 838
f 854 861 858
f 833 859 847
f 859 838 860
f 847 860 834
f 859 860 847
f 831 843 867
f 843 833 868
f 867 868 840
f 843 868 867
f 835 848 864
f 848 831 863
f 864 863 839
f 848 863 864
f 837 855 856
f 855 835 852
f 856 852 836
f 855 852 856
f 838 861 857
f 861 837 853
f 857 853 830
f 861 853 857

o FLOWER_1
usemtl flower
v 1.023792 3.808060 -0.848971
v 1.250908 3.808060 -0.848971
v 1.023792 3.808060 -0.542737
v 1.250908 3.808060 -0.542737
v 1.137350 3.884619 -0.601223
v 1.137350 3.884619 -0.790486
v 1.137350 3.731502 -0.601223
v 1.137350 3.731502 -0.790486
v 1.321090 3.760745 -0.695854
v 1.321090 3.855376 -0.695854
v 0.953609 3.760745 -0.695854
v 0.953609 3.855376 -0.695854
v 1.137350 3.808060 -0.875854
v 1.137350 3.808060 -0.515854
v 1.070602 3.853060 -0.550231
v 1.204098 3.853060 -0.550231
v 1.070602 3.853060 -0.841477
v 1.204098 3.853060 -0.841477
v 1.137350 3.898060 -0.695854
v 1.070602 3.763060 -0.550231
v 1.204098 3.763060 -0.550231
v 1.070602 3.763060 -0.841477
v 1.204098 3.763060 -0.841477
v 1.137350 3.718060 -0.695854
v 1.312098 3.780249 -0.785854
v 1.312098 3.780249 -0.605854
v 1.245350 3.735249 -0.640231
v 1.245350 3.735249 -0.751477
v 1.312098 3.835872 -0.785854
v 1.312098 3.835872 -0.605854
v 1.245350 3.880872 -0.640231
v 1.245350 3.880872 -0.751477
v 1.353350 3.808060 -0.695854
v 0.962602 3.780249 -0.785854
v 0.962602 3.780249 -0.605854
v 1.029350 3.735249 -0.640231
v 1.029350 3.735249 -0.751477
v 0.962602 3.835872 -0.785854
v 0.962602 3.835872 -0.605854
v 1.029350 3.880872 -0.640231
v 1.029350 3.880872 -0.751477
v 0.921350 3.808060 -0.695854
f 871 908 887
f 908 882 911
f 887 911 876
f 908 911 887
f 871 887 883
f 887 876 888
f 883 888 872
f 887 888 883
f 871 883 892
f 883 872 893
f 892 893 878
f 883 893 892
f 871 892 904
f 892 878 907
f 904 907 881
f 892 907 904
f 871 904 908
f 904 881 912
f 908 912 882
f 904 912 908
f 872 888 899
f 888 876 902
f 899 902 880
f 888 902 899
f 876 911 889
f 911 882 910
f 889 910 875
f 911 910 889
f 882 912 909
f 912 881 905
f 909 905 873
f 912 905 909
f 881 907 906
f 907 878 894
f 906 894 877
f 907 894 906
f 878 893 898
f 893 872 895
f 898 895 879
f 893 895 898
f 874 900 886
f 900 880 901
f 886 901 875
f 900 901 886
f 874 886 884
f 886 875 885
f 884 885 873
f 886 885 884
f 874 884 891
f 884 873 890
f 891 890 877
f 884 890 891
f 874 891 896
f 891 877 897
f 896 897 879
f 891 897 896
f 874 896 900
f 896 879 903
f 900 903 880
f 896 903 900
f 875 901 889
f 901 880 902
f 889 902 876
f 901 902 889
f 873 885 909
f 885 875 910
f 909 910 882
f 885 910 909
f 877 890 906
f 890 873 905
f 906 905 881
f 890 905 906
f 879 897 898
f 897 877 894
f 898 894 878
f 897 894 898
f 880 903 899
f 903 879 895
f 899 895 872
f 903 895 899

o FLOWER_2
usemtl flower
v 0.831435 3.616771 -1.339399
v 1.058551 3.616771 -1.339399
v 0.831435 3.616771 -1.033165
v 1.058551 3.616771 -1.033165
v 0.944993 3.693329 -1.091651
v 0.944993 3.693329 -1.280914
v 0.944993 3.540212 -1.091651
v 0.944993 3.540212 -1.280914
v 1.128734 3.569455 -1.186282
v 1.128734 3.664086 -1.186282
v 0.761253 3.569455 -1.186282
v 0.761253 3.664086 -1.186282
v 0.944993 3.616771 -1.366282
v 0.944993 3.616771 -1.006282
v 0.878245 3.661771 -1.040659
v 1.011741 3.661771 -1.040659
v 0.878245 3.661771 -1.331905
v 1.011741 3.661771 -1.331905
v 0.944993 3.706771 -1.186282
v 0.878245 3.571771 -1.040659
v 1.011741 3.571771 -1.040659
v 0.878245 3.571771 -1.331905
v 1.011741 3.571771 -1.331905
v 0.944993 3.526771 -1.186282
v 1.119741 3.588959 -1.276282
v 1.119741 3.588959 -1.096282
v 1.052993 3.543959 -1.130659
v 1.052993 3.543959 -1.241905
v 1.119741 3.644582 -1.276282
v 1.119741 3.644582 -1.096282
v 1.052993 3.689582 -1.130659
v 1.052993 3.689582 -1.241905
v 1.160993 3.616771 -1.186282
v 0.770245 3.588959 -1.276282
v 0.770245 3.588959 -1.096282
v 0.836993 3.543959 -1.130659
v 0.836993 3.543959 -1.241905
v 0.770245 3.644582 -1.276282
v 0.770245 3.644582 -1.096282
v 0.836993 3.689582 -1.130659
v 0.836993 3.689582 -1.241905
v 0.728993 3.616771 -1.186282
f 913 950 929
f 950 924 953
f 929 953 918
f 950 953 929
f 913 929 925
f 929 918 930
f 925 930 914
f 929 930 925
f 913 925 934
f 925 914 935
f 934 935 920
f 925 935 934
f 913 934 946
f 934 920 949
f 946 949 923
f 934 949 946
f 913 946 950
f 946 923 954
f 950 954 924
f 946 954 950
f 914 930 941
f 930 918 944
f 941 944 922
f 930 944 941
f 918 953 931
f 953 924 952
f 931 952 917
f 953 952 931
f 924 954 951
f 954 923 947
f 951 947 915
f 954 947 951
f 923 949 948
f 949 920 936
f 948 936 919
f 949 936 948
f 920 935 940
f 935 914 937
f 940 937 921
f 935 937 940
f 916 942 928
f 942 922 943
f 928 943 917
f 942 943 928
f 916 928 926
f 928 917 927
f 926 927 915
f 928 927 926
f 916 926 933
f 926 915 932
f 933 932 919
f 926 932 933
f 916 933 938
f 933 919 939
f 938 939 921
f 933 939 938
f 916 938 942
f 938 921 945
f 942 945 922
f 938 945 942
f 917 943 931
f 943 922 944
f 931 944 918
f 943 944 931
f 915 927 951
f 927 917 952
f 951 952 924
f 927 952 951
f 919 932 948
f 932 915 947
f 948 947 923
f 932 947 948
f 921 939 940
f 939 919 936
f 940 936 920
f 939 936 940
f 922 945 941
f 945 921 937
f 941 937 914
f 945 937 941

o FLOWER_3
usemtl flower
v 0.427009 3.502002 -1.764882
v 0.654125 3.502002 -1.764882
v 0.427009 3.502002 -1.458648
v 0.654125 3.502002 -1.458648
v 0.540567 3.578560 -1.517134
v 0.540567 3.578560 -1.706397
v 0.540567 3.425443 -1.517134
v 0.540567 3.425443 -1.706397
v 0.724308 3.454686 -1.611765
v 0.724308 3.549317 -1.611765
v 0.356826 3.454686 -1.611765
v 0.356826 3.549317 -1.611765
v 0.540567 3.502002 -1.791765
v 0.540567 3.502002 -1.431765
v 0.473819 3.547002 -1.466142
v 0.607315 3.547002 -1.466142
v 0.473819 3.547002 -1.757388
v 0.607315 3.547002 -1.757388
v 0.540567 3.592002 -1.611765
v 0.473819 3.457002 -1.466142
v 0.607315 3.457002 -1.466142
v 0.473819 3.457002 -1.757388
v 0.607315 3.457002 -1.757388
v 0.540567 3.412002 -1.611765
v 0.715315 3.474190 -1.701765
v 0.715315 3.474190 -1.521765
v 0.648567 3.429190 -1.556142
v 0.648567 3.429190 -1.667388
v 0.715315 3.529813 -1.701765
v 0.715315 3.529813 -1.521765
v 0.648567 3.574813 -1.556142
v 0.648567 3.574813 -1.667388
v 0.756567 3.502002 -1.611765
v 0.365819 3.474190 -1.701765
v 0.365819 3.474190 -1.521765
v 0.432567 3.429190 -1.556142
v 0.432567 3.429190 -1.667388
v 0.365819 3.529813 -1.701765
v 0.365819 3.529813 -1.521765
v 0.432567 3.574813 -1.556142
v 0.432567 3.574813 -1.667388
v 0.324567 3.502002 -1.611765
f 955 992 971
f 992 966 995
f 971 995 960
f 992 995 971
f 955 971 967
f 971 960 972
f 967 972 956
f 971 972 967
f 955 967 976
f 967 956 977
f 976 977 962
f 967 977 976
f 955 976 988
f 976 962 991
f 988 991 965
f 976 991 988
f 955 988 992
f 988 965 996
f 992 996 966
f 988 996 992
f 956 972 983
f 972 960 986
f 983 986 964
f 972 986 983
f 960 995 973
f 995 966 994
f 973 994 959
f 995 994 973
f 966 996 993
f 996 965 989
f 993 989 957
f 996 989 993
f 965 991 990
f 991 962 978
f 990 978 961
f 991 978 990
f 962 977 982
f 977 956 979
f 982 979 963
f 977 979 982
f 958 984 970
f 984 964 985
f 970 985 959
f 984 985 970
f 958 970 968
f 970 959 969
f 968 969 957
f 970 969 968
f 958 968 975
f 968 957 974
f 975 974 961
f 968 974 975
f 958 975 980
f 975 961 981
f 980 981 963
f 975 981 980
f 958 980 984
f 980 963 987
f 984 987 964
f 980 987 984
f 959 985 973
f 985 964 986
f 973 986 960
f 985 986 973
f 957 969 993
f 969 959 994
f 993 994 966
f 969 994 993
f 961 974 990
f 974 957 989
f 990 989 965
f 974 989 990
f 963 981 982
f 981 961 978
f 982 978 962
f 981 978 982
f 964 987 983
f 987 963 979
f 983 979 956
f 987 979 983

o FLOWER_4
usemtl flower
v -0.142842 3.569271 -1.302744
v 0.084274 3.569271 -1.302744
v -0.142842 3.569271 -0.996510
v 0.084274 3.569271 -0.996510
v -0.029284 3.645830 -1.054995
v -0.029284 3.645830 -1.244259
v -0.029284 3.492713 -1.054995
v -0.029284 3.492713 -1.244259
v 0.154457 3.521955 -1.149627
v 0.154457 3.616587 -1.149627
v -0.213025 3.521955 -1.149627
v -0.213025 3.616587 -1.149627
v -0.029284 3.569271 -1.329627
v -0.029284 3.569271 -0.969627
v -0.096032 3.614271 -1.004004
v 0.037464 3.614271 -1.004004
v -0.096032 3.614271 -1.295250
v 0.037464 3.614271 -1.295250
v -0.029284 3.659271 -1.149627
v -0.096032 3.524271 -1.004004
v 0.037464 3.524271 -1.004004
v -0.096032 3.524271 -1.295250
v 0.037464 3.524271 -1.295250
v -0.029284 3.479271 -1.149627
v 0.145464 3.541460 -1.239627
v 0.145464 3.541460 -1.059627
v 0.078716 3.496460 -1.094004
v 0.078716 3.496460 -1.205250
v 0.145464 3.597083 -1.239627
v 0.145464 3.597083 -1.059627
v 0.078716 3.642083 -1.094004
v 0.078716 3.642083 -1.205250
v 0.186716 3.569271 -1.149627
v -0.204032 3.541460 -1.239627
v -0.204032 3.541460 -1.059627
v -0.137284 3.496460 -1.094004
v -0.137284 3.496460 -1.205250
v -0.204032 3.597083 -1.239627
v -0.204032 3.597083 -1.059627
v -0.137284 3.642083 -1.094004
v -0.137284 3.642083 -1.205250
v -0.245284 3.569271 -1.149627
f 997 1034 1013
f 1034 1008 1037
f 1013 1037 1002
f 1034 1037 1013
f 997 1013 1009
f 1013 1002 1014
f 1009 1014 998
f 1013 1014 1009
f 997 1009 1018
f 1009 998 1019
f 1018 1019 1004
f 1009 1019 1018
f 997 1018 1030
f 1018 1004 1033
f 1030 1033 1007
f 1018 1033 1030
f 997 1030 1034
f 1030 1007 1038
f 1034 1038 1008
f 1030 1038 1034
f 998 1014 1025
f 1014 1002 1028
f 1025 1028 1006
f 1014 1028 1025
f 1002 1037 1015
f 1037 1008 1036
f 1015 1036 1001
f 1037 1036 1015
f 1008 1038 1035
f 1038 1007 1031
f 1035 1031 999
f 1038 1031 1035
f 1007 1033 1032
f 1033 1004 1020
f 1032 1020 1003
f 1033 1020 1032
f 1004 1019 1024
f 1019 998 1021
f 1024 1021 1005
f 1019 1021 1024
f 1000 1026 1012
f 1026 1006 1027
f 1012 1027 1001
f 1026 1027 1012
f 1000 1012 1010
f 1012 1001 1011
f 1010 1011 999
f 1012 1011 1010
f 1000 1010 1017
f 1010 999 1016
f 1017 1016 1003
f 1010 1016 1017
f 1000 1017 1022
f 1017 1003 1023
f 1022 1023 1005
f 1017 1023 1022
f 1000 1022 1026
f 1022 1005 1029
f 1026 1029 1006
f 1022 1029 1026
f 1001 1027 1015
f 1027 1006 1028
f 1015 1028 1002
f 1027 1028 1015
f 999 1011 1035
f 1011 1001 1036
f 1035 1036 1008
f 1011 1036 1035
f 1003 1016 1032
f 1016 999 1031
f 1032 1031 1007
f 1016 1031 1032
f 1005 1023 1024
f 1023 1003 1020
f 1024 1020 1004
f 1023 1020 1024
f 1006 1029 1025
f 1029 1005 1021
f 1025 1021 998
f 1029 1021 1025

o FLOWER_5
usemtl flower
v -0.601342 3.756732 -1.394022
v -0.374226 3.756732 -1.394022
v -0.601342 3.756732 -1.087788
v -0.374226 3.756732 -1.087788
v -0.487784 3.833291 -1.146273
v -0.487784 3.833291 -1.335536
v -0.487784 3.680174 -1.146273
v -0.487784 3.680174 -1.335536
v -0.304043 3.709417 -1.240905
v -0.304043 3.804048 -1.240905
v -0.671524 3.709417 -1.240905
v -0.671524 3.804048 -1.240905
v -0.487784 3.756732 -1.420905
v -0.487784 3.756732 -1.060905
v -0.554532 3.801732 -1.095282
v -0.421036 3.801732 -1.095282
v -0.554532 3.801732 -1.386528
v -0.421036 3.801732 -1.386528
v -0.487784 3.846732 -1.240905
v -0.554532 3.711732 -1.095282
v -0.421036 3.711732 -1.095282
v -0.554532 3.711732 -1.386528
v -0.421036 3.711732 -1.386528
v -0.487784 3.666732 -1.240905
v -0.313036 3.728921 -1.330905
v -0.313036 3.728921 -1.150905
v -0.379784 3.683921 -1.185282
v -0.379784 3.683921 -1.296528
v -0.313036 3.784544 -1.330905
v -0.313036 3.784544 -1.150905
v -0.379784 3.829544 -1.185282
v -0.379784 3.829544 -1.296528
v -0.271784 3.756732 -1.240905
v -0.662532 3.728921 -1.330905
v -0.662532 3.728921 -1.150905
v -0.595784 3.683921 -1.185282
v -0.595784 3.683921 -1.296528
v -0.662532 3.784544 -1.330905
v -0.662532 3.784544 -1.150905
v -0.595784 3.829544 -1.185282
v -0.595784 3.829544 -1.296528
v -0.703784 3.756732 -1.240905
f 1039 1076 1055
f 1076 1050 1079
f 1055 1079 1044
f 1076 1079 1055
f 1039 1055 1051
f 1055 1044 1056
f 1051 1056 1040
f 1055 1056 1051
f 1039 1051 1060
f 1051 1040 1061
f 1060 1061 1046
f 1051 1061 1060
f 1039 1060 1072
f 1060 1046 1075
f 1072 1075 1049
f 1060 1075 1072
f 1039 1072 1076
f 1072 1049 1080
f 1076 1080 1050
f 1072 1080 1076
f 1040 1056 1067
f 1056 1044 1070
f 1067 1070 1048
f 1056 1070 1067
f 1044 1079 1057
f 1079 1050 1078
f 1057 1078 1043
f 1079 1078 1057
f 1050 1080 1077
f 1080 1049 1073
f 1077 1073 1041
f 1080 1073 1077
f 1049 1075 1074
f 1075 1046 1062
f 1074 1062 1045
f 1075 1062 1074
f 1046 1061 1066
f 1061 1040 1063
f 1066 1063 1047
f 1061 1063 1066
f 1042 1068 1054
f 1068 1048 1069
f 1054 1069 1043
f 1068 1069 1054
f 1042 1054 1052
f 1054 1043 1053
f 1052 1053 1041
f 1054 1053 1052
f 1042 1052 1059
f 1052 1041 1058
f 1059 1058 1045
f 1052 1058 1059
f 1042 1059 1064
f 1059 1045 1065
f 1064 1065 1047
f 1059 1065 1064
f 1042 1064 1068
f 1064 1047 1071
f 1068 1071 1048
f 1064 1071 1068
f 1043 1069 1057
f 1069 1048 1070
f 1057 1070 1044
f 1069 1070 1057
f 1041 1053 1077
f 1053 1043 1078
f 1077 1078 1050
f 1053 1078 1077
f 1045 1058 1074
f 1058 1041 1073
f 1074 1073 1049
f 1058 1073 1074
f 1047 1065 1066
f 1065 1045 1062
f 1066 1062 1046
f 1065 1062 1066
f 1048 1071 1067
f 1071 1047 1063
f 1067 1063 1040
f 1071 1063 1067

o FLOWER_6
usemtl flower
v -1.117722 3.892034 -1.289749
v -0.890606 3.892034 -1.289749
v -1.117722 3.892034 -0.983515
v -0.890606 3.892034 -0.983515
v -1.004164 3.968593 -1.042001
v -1.004164 3.968593 -1.231264
v -1.004164 3.815475 -1.042001
v -1.004164 3.815475 -1.231264
v -0.820423 3.844718 -1.136632
v -0.820423 3.939350 -1.136632
v -1.187904 3.844718 -1.136632
v -1.187904 3.939350 -1.136632
v -1.004164 3.892034 -1.316632
v -1.004164 3.892034 -0.956632
v -1.070911 3.937034 -0.991009
v -0.937416 3.937034 -0.991009
v -1.070911 3.937034 -1.282255
v -0.937416 3.937034 -1.282255
v -1.004164 3.982034 -1.136632
v -1.070911 3.847034 -0.991009
v -0.937416 3.847034 -0.991009
v -1.070911 3.847034 -1.282255
v -0.937416 3.847034 -1.282255
v -1.004164 3.802034 -1.136632
v -0.829416 3.864223 -1.226632
v -0.829416 3.864223 -1.046632
v -0.896164 3.819223 -1.081009
v -0.896164 3.819223 -1.192255
v -0.829416 3.919846 -1.226632
v -0.829416 3.919846 -1.046632
v -0.896164 3.964846 -1.081009
v -0.896164 3.964846 -1.192255
v -0.788164 3.892034 -1.136632
v -1.178911 3.864223 -1.226632
v -1.178911 3.864223 -1.046632
v -1.112164 3.819223 -1.081009
v -1.112164 3.819223 -1.192255
v -1.178911 3.919846 -1.226632
v -1.178911 3.919846 -1.046632
v -1.112164 3.964846 -1.081009
v -1.112164 3.964846 -1.192255
v -1.220164 3.892034 -1.136632
f 1081 1118 1097
f 1118 1092 1121
f 1097 1121 1086
f 1118 1121 1097
f 1081 1097 1093
f 1097 1086 1098
f 1093 1098 1082
f 1097 1098 1093
f 1081 1093 1102
f 1093 1082 1103
f 1102 1103 1088
f 1093 1103 1102
f 1081 1102 1114
f 1102 1088 1117
f 1114 1117 1091
f 1102 1117 1114
f 1081 1114 1118
f 1114 1091 1122
f 1118 1122 1092
f 1114 1122 1118
f 1082 1098 1109
f 1098 1086 1112
f 1109 1112 1090
f 1098 1112 1109
f 1086 1121 1099
f 1121 1092 1120
f 1099 1120 1085
f 1121 1120 1099
f 1092 1122 1119
f 1122 1091 1115
f 1119 1115 1083
f 1122 1115 1119
f 1091 1117 1116
f 1117 1088 1104
f 1116 1104 1087
f 1117 1104 1116
f 1088 1103 1108
f 1103 1082 1105
f 1108 1105 1089
f 1103 1105 1108
f 1084 1110 1096
f 1110 1090 1111
f 1096 1111 1085
f 1110 1111 1096
f 1084 1096 1094
f 1096 1085 1095
f 1094 1095 1083
f 1096 1095 1094
f 1084 1094 1101
f 1094 1083 1100
f 1101 1100 1087
f 1094 1100 1101
f 1084 1101 1106
f 1101 1087 1107
f 1106 1107 1089
f 1101 1107 1106
f 1084 1106 1110
f 1106 1089 1113
f 1110 1113 1090
f 1106 1113 1110
f 1085 1111 1099
f 1111 1090 1112
f 1099 1112 1086
f 1111 1112 1099
f 1083 1095 1119
f 1095 1085 1120
f 1119 1120 1092
f 1095 1120 1119
f 1087 1100 1116
f 1100 1083 1115
f 1116 1115 1091
f 1100 1115 1116
f 1089 1107 1108
f 1107 1087 1104
f 1108 1104 1088
f 1107 1104 1108
f 1090 1113 1109
f 1113 1089 1105
f 1109 1105 1082
f 1113 1105 1109

o FLOWER_7
usemtl flower
v -1.606968 3.850780 -0.965352
v -1.379853 3.850780 -0.965352
v -1.606968 3.850780 -0.659118
v -1.379853 3.850780 -0.659118
v -1.493410 3.927339 -0.717603
v -1.493410 3.927339 -0.906866
v -1.493410 3.774222 -0.717603
v -1.493410 3.774222 -0.906866
v -1.309670 3.803465 -0.812235
v -1.309670 3.898096 -0.812235
v -1.677151 3.803465 -0.812235
v -1.677151 3.898096 -0.812235
v -1.493410 3.850780 -0.992235
v -1.493410 3.850780 -0.632235
v -1.560158 3.895780 -0.666612
v -1.426663 3.895780 -0.666612
v -1.560158 3.895780 -0.957858
v -1.426663 3.895780 -0.957858
v -1.493410 3.940780 -0.812235
v -1.560158 3.805780 -0.666612
v -1.426663 3.805780 -0.666612
v -1.560158 3.805780 -0.957858
v -1.426663 3.805780 -0.957858
v -1.493410 3.760780 -0.812235
v -1.318663 3.822969 -0.902235
v -1.318663 3.822969 -0.722235
v -1.385410 3.777969 -0.756612
v -1.385410 3.777969 -0.867858
v -1.318663 3.878592 -0.902235
v -1.318663 3.878592 -0.722235
v -1.385410 3.923592 -0.756612
v -1.385410 3.923592 -0.867858
v -1.277410 3.850780 -0.812235
v -1.668158 3.822969 -0.902235
v -1.668158 3.822969 -0.722235
v -1.601410 3.777969 -0.756612
v -1.601410 3.777969 -0.867858
v -1.668158 3.878592 -0.902235
v -1.668158 3.878592 -0.722235
v -1.601410 3.923592 -0.756612
v -1.601410 3.923592 -0.867858
v -1.709410 3.850780 -0.812235
f 1123 1160 1139
f 1160 1134 1163
f 1139 1163 1128
f 1160 1163 1139
f 1123 1139 1135
f 1139 1128 1140
f 1135 1140 1124
f 1139 1140 1135
f 1123 1135 1144
f 1135 1124 1145
f 1144 1145 1130
f 1135 1145 1144
f 1123 1144 1156
f 1144 1130 1159
f 1156 1159 1133
f 1144 1159 1156
f 1123 1156 1160
f 1156 1133 1164
f 1160 1164 1134
f 1156 1164 1160
f 1124 1140 1151
f 1140 1128 1154
f 1151 1154 1132
f 1140 1154 1151
f 1128 1163 1141
f 1163 1134 1162
f 1141 1162 1127
f 1163 1162 1141
f 1134 1164 1161
f 1164 1133 1157
f 1161 1157 1125
f 1164 1157 1161
f 1133 1159 1158
f 1159 1130 1146
f 1158 1146 1129
f 1159 1146 1158
f 1130 1145 1150
f 1145 1124 1147
f 1150 1147 1131
f 1145 1147 1150
f 1126 1152 1138
f 1152 1132 1153
f 1138 1153 1127
f 1152 1153 1138
f 1126 1138 1136
f 1138 1127 1137
f 1136 1137 1125
f 1138 1137 1136
f 1126 1136 1143
f 1136 1125 1142
f 1143 1142 1129
f 1136 1142 1143
f 1126 1143 1148
f 1143 1129 1149
f 1148 1149 1131
f 1143 1149 1148
f 1126 1148 1152
f 1148 1131 1155
f 1152 1155 1132
f 1148 1155 1152
f 1127 1153 1141
f 1153 1132 1154
f 1141 1154 1128
f 1153 1154 1141
f 1125 1137 1161
f 1137 1127 1162
f 1161 1162 1134
f 1137 1162 1161
f 1129 1142 1158
f 1142 1125 1157
f 1158 1157 1133
f 1142 1157 1158
f 1131 1149 1150
f 1149 1129 1146
f 1150 1146 1130
f 1149 1146 1150
f 1132 1155 1151
f 1155 1131 1147
f 1151 1147 1124
f 1155 1147 1151

o FLOWER_8
usemtl flower
v -1.250805 3.670900 -0.323909
v -1.023689 3.670900 -0.323909
v -1.250805 3.670900 -0.017674
v -1.023689 3.670900 -0.017674
v -1.137247 3.747459 -0.076160
v -1.137247 3.747459 -0.265423
v -1.137247 3.594341 -0.076160
v -1.137247 3.594341 -0.265423
v -0.953506 3.623584 -0.170792
v -0.953506 3.718216 -0.170792
v -1.320987 3.623584 -0.170792
v -1.320987 3.718216 -0.170792
v -1.137247 3.670900 -0.350792
v -1.137247 3.670900 0.009208
v -1.203994 3.715900 -0.025169
v -1.070499 3.715900 -0.025169
v -1.203994 3.715900 -0.316415
v -1.070499 3.715900 -0.316415
v -1.137247 3.760900 -0.170792
v -1.203994 3.625900 -0.025169
v -1.070499 3.625900 -0.025169
v -1.203994 3.625900 -0.316415
v -1.070499 3.625900 -0.316415
v -1.137247 3.580900 -0.170792
v -0.962499 3.643088 -0.260792
v -0.962499 3.643088 -0.080792
v -1.029247 3.598088 -0.115169
v -1.029247 3.598088 -0.226415
v -0.962499 3.698712 -0.260792
v -0.962499 3.698712 -0.080792
v -1.029247 3.743712 -0.115169
v -1.029247 3.743712 -0.226415
v -0.921247 3.670900 -0.170792
v -1.311994 3.643088 -0.260792
v -1.311994 3.643088 -0.080792
v -1.245247 3.598088 -0.115169
v -1.245247 3.598088 -0.226415
v -1.311994 3.698712 -0.260792
v -1.311994 3.698712 -0.080792
v -1.245247 3.743712 -0.115169
v -1.245247 3.743712 -0.226415
v -1.353247 3.670900 -0.170792
f 1165 1202 1181
f 1202 1176 1205
f 1181 1205 1170
f 1202 1205 1181
f 1165 1181 1177
f 1181 1170 1182
f 1177 1182 1166
f 1181 1182 1177
f 1165 1177 1186
f 1177 1166 1187
f 1186 1187 1172
f 1177 1187 1186
f 1165 1186 1198
f 1186 1172 1201
f 1198 1201 1175
f 1186 1201 1198
f 1165 1198 1202
f 1198 1175 1206
f 1202 1206 1176
f 1198 1206 1202
f 1166 1182 1193
f 1182 1170 1196
f 1193 1196 1174
f 1182 1196 1193
f 1170 1205 1183
f 1205 1176 1204
f 1183 1204 1169
f 1205 1204 1183
f 1176 1206 1203
f 1206 1175 1199
f 1203 1199 1167
f 1206 1199 1203
f 1175 1201 1200
f 1201 1172 1188
f 1200 1188 1171
f 1201 1188 1200
f 1172 1187 1192
f 1187 1166 1189
f 1192 1189 1173
f 1187 1189 1192
f 1168 1194 1180
f 1194 1174 1195
f 1180 1195 1169
f 1194 1195 1180
f 1168 1180 1178
f 1180 1169 1179
f 1178 1179 1167
f 1180 1179 1178
f 1168 1178 1185
f 1178 1167 1184
f 1185 1184 1171
f 1178 1184 1185
f 1168 1185 1190
f 1185 1171 1191
f 1190 1191 1173
f 1185 1191 1190
f 1168 1190 1194
f 1190 1173 1197
f 1194 1197 1174
f 1190 1197 1194
f 1169 1195 1183
f 1195 1174 1196
f 1183 1196 1170
f 1195 1196 1183
f 1167 1179 1203
f 1179 1169 1204
f 1203 1204 1176
f 1179 1204 1203
f 1171 1184 1200
f 1184 1167 1199
f 1200 1199 1175
f 1184 1199 1200
f 1173 1191 1192
f 1191 1171 1188
f 1192 1188 1172
f 1191 1188 1192
f 1174 1197 1193
f 1197 1173 1189
f 1193 1189 1166
f 1197 1189 1193

o FLOWER_9
usemtl flower
v -1.420313 3.517774 0.111775
v -1.193198 3.517774 0.111775
v -1.420313 3.517774 0.418010
v -1.193198 3.517774 0.418010
v -1.306755 3.594333 0.359524
v -1.306755 3.594333 0.170261
v -1.306755 3.441215 0.359524
v -1.306755 3.441215 0.170261
v -1.123015 3.470458 0.264892
v -1.123015 3.565090 0.264892
v -1.490496 3.470458 0.264892
v -1.490496 3.565090 0.264892
v -1.306755 3.517774 0.084892
v -1.306755 3.517774 0.444892
v -1.373503 3.562774 0.410516
v -1.240008 3.562774 0.410516
v -1.373503 3.562774 0.119269
v -1.240008 3.562774 0.119269
v -1.306755 3.607774 0.264892
v -1.373503 3.472774 0.410516
v -1.240008 3.472774 0.410516
v -1.373503 3.472774 0.119269
v -1.240008 3.472774 0.119269
v -1.306755 3.427774 0.264892
v -1.132008 3.489962 0.174892
v -1.132008 3.489962 0.354892
v -1.198755 3.444962 0.320516
v -1.198755 3.444962 0.209269
v -1.132008 3.545585 0.174892
v -1.132008 3.545585 0.354892
v -1.198755 3.590585 0.320516
v -1.198755 3.590585 0.209269
v -1.090755 3.517774 0.264892
v -1.481503 3.489962 0.174892
v -1.481503 3.489962 0.354892
v -1.414755 3.444962 0.320516
v -1.414755 3.444962 0.209269
v -1.481503 3.545585 0.174892
v -1.481503 3.545585 0.354892
v -1.414755 3.590585 0.320516
v -1.414755 3.590585 0.209269
v -1.522755 3.517774 0.264892
f 1207 1244 1223
f 1244 1218 1247
f 1223 1247 1212
f 1244 1247 1223
f 1207 1223 1219
f 1223 1212 1224
f 1219 1224 1208
f 1223 1224 1219
f 1207 1219 1228
f 1219 1208 1229
f 1228 1229 1214
f 1219 1229 1228
f 1207 1228 1240
f 1228 1214 1243
f 1240 1243 1217
f 1228 1243 1240
f 1207 1240 1244
f 1240 1217 1248
f 1244 1248 1218
f 1240 1248 1244
f 1208 1224 1235
f 1224 1212 1238
f 1235 1238 1216
f 1224 1238 1235
f 1212 1247 1225
f 1247 1218 1246
f 1225 1246 1211
f 1247 1246 1225
f 1218 1248 1245
f 1248 1217 1241
f 1245 1241 1209
f 1248 1241 1245
f 1217 1243 1242
f 1243 1214 1230
f 1242 1230 1213
f 1243 1230 1242
f 1214 1229 1234
f 1229 1208 1231
f 1234 1231 1215
f 1229 1231 1234
f 1210 1236 1222
f 1236 1216 1237
f 1222 1237 1211
f 1236 1237 1222
f 1210 1222 1220
f 1222 1211 1221
f 1220 1221 1209
f 1222 1221 1220
f 1210 1220 1227
f 1220 1209 1226
f 1227 1226 1213
f 1220 1226 1227
f 1210 1227 1232
f 1227 1213 1233
f 1232 1233 1215
f 1227 1233 1232
f 1210 1232 1236
f 1232 1215 1239
f 1236 1239 1216
f 1232 1239 1236
f 1211 1237 1225
f 1237 1216 1238
f 1225 1238 1212
f 1237 1238 1225
f 1209 1221 1245
f 1221 1211 1246
f 1245 1246 1218
f 1221 1246 1245
f 1213 1226 1242
f 1226 1209 1241
f 1242 1241 1217
f 1226 1241 1242
f 1215 1233 1234
f 1233 1213 1230
f 1234 1230 1214
f 1233 1230 1234
f 1216 1239 1235
f 1239 1215 1231
f 1235 1231 1208
f 1239 1231 1235

o FLOWER_10
usemtl flower
v -1.407293 3.532186 0.638417
v -1.180178 3.532186 0.638417
v -1.407293 3.532186 0.944651
v -1.180178 3.532186 0.944651
v -1.293736 3.608744 0.886166
v -1.293736 3.608744 0.696903
v -1.293736 3.455627 0.886166
v -1.293736 3.455627 0.696903
v -1.109995 3.484870 0.791534
v -1.109995 3.579501 0.791534
v -1.477476 3.484870 0.791534
v -1.477476 3.579501 0.791534
v -1.293736 3.532186 0.611534
v -1.293736 3.532186 0.971534
v -1.360483 3.577186 0.937157
v -1.226988 3.577186 0.937157
v -1.360483 3.577186 0.645911
v -1.226988 3.577186 0.645911
v -1.293736 3.622186 0.791534
v -1.360483 3.487186 0.937157
v -1.226988 3.487186 0.937157
v -1.360483 3.487186 0.645911
v -1.226988 3.487186 0.645911
v -1.293736 3.442186 0.791534
v -1.118988 3.504374 0.701534
v -1.118988 3.504374 0.881534
v -1.185736 3.459374 0.847157
v -1.185736 3.459374 0.735911
v -1.118988 3.559997 0.701534
v -1.118988 3.559997 0.881534
v -1.185736 3.604997 0.847157
v -1.185736 3.604997 0.735911
v -1.077736 3.532186 0.791534
v -1.468483 3.504374 0.701534
v -1.468483 3.504374 0.881534
v -1.401736 3.459374 0.847157
v -1.401736 3.459374 0.735911
v -1.468483 3.559997 0.701534
v -1.468483 3.559997 0.881534
v -1.401736 3.604997 0.847157
v -1.401736 3.604997 0.735911
v -1.509736 3.532186 0.791534
f 1249 1286 1265
f 1286 1260 1289
f 1265 1289 1254
f 1286 1289 1265
f 1249 1265 1261
f 1265 1254 1266
f 1261 1266 1250
f 1265 1266 1261
f 1249 1261 1270
f 1261 1250 1271
f 1270 1271 1256
f 1261 1271 1270
f 1249 1270 1282
f 1270 1256 1285
f 1282 1285 1259
f 1270 1285 1282
f 1249 1282 1286
f 1282 1259 1290
f 1286 1290 1260
f 1282 1290 1286
f 1250 1266 1277
f 1266 1254 1280
f 1277 1280 1258
f 1266 1280 1277
f 1254 1289 1267
f 1289 1260 1288
f 1267 1288 1253
f 1289 1288 1267
f 1260 1290 1287
f 1290 1259 1283
f 1287 1283 1251
f 1290 1283 1287
f 1259 1285 1284
f 1285 1256 1272
f 1284 1272 1255
f 1285 1272 1284
f 1256 1271 1276
f 1271 1250 1273
f 1276 1273 1257
f 1271 1273 1276
f 1252 1278 1264
f 1278 1258 1279
f 1264 1279 1253
f 1278 1279 1264
f 1252 1264 1262
f 1264 1253 1263
f 1262 1263 1251
f 1264 1263 1262
f 1252 1262 1269
f 1262 1251 1268
f 1269 1268 1255
f 1262 1268 1269
f 1252 1269 1274
f 1269 1255 1275
f 1274 1275 1257
f 1269 1275 1274
f 1252 1274 1278
f 1274 1257 1281
f 1278 1281 1258
f 1274 1281 1278
f 1253 1279 1267
f 1279 1258 1280
f 1267 1280 1254
f 1279 1280 1267
f 1251 1263 1287
f 1263 1253 1288
f 1287 1288 1260
f 1263 1288 1287
f 1255 1268 1284
f 1268 1251 1283
f 1284 1283 1259
f 1268 1283 1284
f 1257 1275 1276
f 1275 1255 1272
f 1276 1272 1256
f 1275 1272 1276
f 1258 1281 1277
f 1281 1257 1273
f 1277 1273 1250
f 1281 1273 1277

o FLOWER_11
usemtl flower
v -1.172781 3.700885 1.176562
v -0.945665 3.700885 1.176562
v -1.172781 3.700885 1.482796
v -0.945665 3.700885 1.482796
v -1.059223 3.777444 1.424311
v -1.059223 3.777444 1.235048
v -1.059223 3.624327 1.424311
v -1.059223 3.624327 1.235048
v -0.875482 3.653569 1.329679
v -0.875482 3.748201 1.329679
v -1.242964 3.653569 1.329679
v -1.242964 3.748201 1.329679
v -1.059223 3.700885 1.149679
v -1.059223 3.700885 1.509679
v -1.125971 3.745885 1.475302
v -0.992475 3.745885 1.475302
v -1.125971 3.745885 1.184056
v -0.992475 3.745885 1.184056
v -1.059223 3.790885 1.329679
v -1.125971 3.655885 1.475302
v -0.992475 3.655885 1.475302
v -1.125971 3.655885 1.184056
v -0.992475 3.655885 1.184056
v -1.059223 3.610885 1.329679
v -0.884475 3.673074 1.239679
v -0.884475 3.673074 1.419679
v -0.951223 3.628074 1.385302
v -0.951223 3.628074 1.274056
v -0.884475 3.728697 1.239679
v -0.884475 3.728697 1.419679
v -0.951223 3.773697 1.385302
v -0.951223 3.773697 1.274056
v -0.843223 3.700885 1.329679
v -1.233971 3.673074 1.239679
v -1.233971 3.673074 1.419679
v -1.167223 3.628074 1.385302
v -1.167223 3.628074 1.274056
v -1.233971 3.728697 1.239679
v -1.233971 3.728697 1.419679
v -1.167223 3.773697 1.385302
v -1.167223 3.773697 1.274056
v -1.275223 3.700885 1.329679
f 1291 1328 1307
f 1328 1302 1331
f 1307 1331 1296
f 1328 1331 1307
f 1291 1307 1303
f 1307 1296 1308
f 1303 1308 1292
f 1307 1308 1303
f 1291 1303 1312
f 1303 1292 1313
f 1312 1313 1298
f 1303 1313 1312
f 1291 1312 1324
f 1312 1298 1327
f 1324 1327 1301
f 1312 1327 1324
f 1291 1324 1328
f 1324 1301 1332
f 1328 1332 1302
f 1324 1332 1328
f 1292 1308 1319
f 1308 1296 1322
f 1319 1322 1300
f 1308 1322 1319
f 1296 1331 1309
f 1331 1302 1330
f 1309 1330 1295
f 1331 1330 1309
f 1302 1332 1329
f 1332 1301 1325
f 1329 1325 1293
f 1332 1325 1329
f 1301 1327 1326
f 1327 1298 1314
f 1326 1314 1297
f 1327 1314 1326
f 1298 1313 1318
f 1313 1292 1315
f 1318 1315 1299
f 1313 1315 1318
f 1294 1320 1306
f 1320 1300 1321
f 1306 1321 1295
f 1320 1321 1306
f 1294 1306 1304
f 1306 1295 1305
f 1304 1305 1293
f 1306 1305 1304
f 1294 1304 1311
f 1304 1293 1310
f 1311 1310 1297
f 1304 1310 1311
f 1294 1311 1316
f 1311 1297 1317
f 1316 1317 1299
f 1311 1317 1316
f 1294 1316 1320
f 1316 1299 1323
f 1320 1323 1300
f 1316 1323 1320
f 1295 1321 1309
f 1321 1300 1322
f 1309 1322 1296
f 1321 1322 1309
f 1293 1305 1329
f 1305 1295 1330
f 1329 1330 1302
f 1305 1330 1329
f 1297 1310 1326
f 1310 1293 1325
f 1326 1325 1301
f 1310 1325 1326
f 1299 1317 1318
f 1317 1297 1314
f 1318 1314 1298
f 1317 1314 1318
f 1300 1323 1319
f 1323 1299 1315
f 1319 1315 1292
f 1323 1315 1319

o FLOWER_12
usemtl flower
v -0.479236 3.868771 0.937195
v -0.252120 3.868771 0.937195
v -0.479236 3.868771 1.243429
v -0.252120 3.868771 1.243429
v -0.365678 3.945329 1.184943
v -0.365678 3.945329 0.995680
v -0.365678 3.792212 1.184943
v -0.365678 3.792212 0.995680
v -0.181937 3.821455 1.090312
v -0.181937 3.916087 1.090312
v -0.549418 3.821455 1.090312
v -0.549418 3.916087 1.090312
v -0.365678 3.868771 0.910312
v -0.365678 3.868771 1.270312
v -0.432425 3.913771 1.235935
v -0.298930 3.913771 1.235935
v -0.432425 3.913771 0.944689
v -0.298930 3.913771 0.944689
v -0.365678 3.958771 1.090312
v -0.432425 3.823771 1.235935
v -0.298930 3.823771 1.235935
v -0.432425 3.823771 0.944689
v -0.298930 3.823771 0.944689
v -0.365678 3.778771 1.090312
v -0.190930 3.840959 1.000312
v -0.190930 3.840959 1.180312
v -0.257678 3.795959 1.145935
v -0.257678 3.795959 1.034689
v -0.190930 3.896582 1.000312
v -0.190930 3.896582 1.180312
v -0.257678 3.941582 1.145935
v -0.257678 3.941582 1.034689
v -0.149678 3.868771 1.090312
v -0.540425 3.840959 1.000312
v -0.540425 3.840959 1.180312
v -0.473678 3.795959 1.145935
v -0.473678 3.795959 1.034689
v -0.540425 3.896582 1.000312
v -0.540425 3.896582 1.180312
v -0.473678 3.941582 1.145935
v -0.473678 3.941582 1.034689
v -0.581678 3.868771 1.090312
f 1333 1370 1349
f 1370 1344 1373
f 1349 1373 1338
f 1370 1373 1349
f 1333 1349 1345
f 1349 1338 1350
f 1345 1350 1334
f 1349 1350 1345
f 1333 1345 1354
f 1345 1334 1355
f 1354 1355 1340
f 1345 1355 1354
f 1333 1354 1366
f 1354 1340 1369
f 1366 1369 1343
f 1354 1369 1366
f 1333 1366 1370
f 1366 1343 1374
f 1370 1374 1344
f 1366 1374 1370
f 1334 1350 1361
f 1350 1338 1364
f 1361 1364 1342
f 1350 1364 1361
f 1338 1373 1351
f 1373 1344 1372
f 1351 1372 1337
f 1373 1372 1351
f 1344 1374 1371
f 1374 1343 1367
f 1371 1367 1335
f 1374 1367 1371
f 1343 1369 1368
f 1369 1340 1356
f 1368 1356 1339
f 1369 1356 1368
f 1340 1355 1360
f 1355 1334 1357
f 1360 1357 1341
f 1355 1357 1360
f 1336 1362 1348
f 1362 1342 1363
f 1348 1363 1337
f 1362 1363 1348
f 1336 1348 1346
f 1348 1337 1347
f 1346 1347 1335
f 1348 1347 1346
f 1336 1346 1353
f 1346 1335 1352
f 1353 1352 1339
f 1346 1352 1353
f 1336 1353 1358
f 1353 1339 1359
f 1358 1359 1341
f 1353 1359 1358
f 1336 1358 1362
f 1358 1341 1365
f 1362 1365 1342
f 1358 1365 1362
f 1337 1363 1351
f 1363 1342 1364
f 1351 1364 1338
f 1363 1364 1351
f 1335 1347 1371
f 1347 1337 1372
f 1371 1372 1344
f 1347 1372 1371
f 1339 1352 1368
f 1352 1335 1367
f 1368 1367 1343
f 1352 1367 1368
f 1341 1359 1360
f 1359 1339 1356
f 1360 1356 1340
f 1359 1356 1360
f 1342 1365 1361
f 1365 1341 1357
f 1361 1357 1334
f 1365 1357 1361

o FLOWER_13
usemtl flower
v -0.079605 3.881489 1.179784
v 0.147510 3.881489 1.179784
v -0.079605 3.881489 1.486018
v 0.147510 3.881489 1.486018
v 0.033952 3.958048 1.427533
v 0.033952 3.958048 1.238269
v 0.033952 3.804931 1.427533
v 0.033952 3.804931 1.238269
v 0.217693 3.834174 1.332901
v 0.217693 3.928805 1.332901
v -0.149788 3.834174 1.332901
v -0.149788 3.928805 1.332901
v 0.033952 3.881489 1.152901
v 0.033952 3.881489 1.512901
v -0.032795 3.926489 1.478524
v 0.100700 3.926489 1.478524
v -0.032795 3.926489 1.187278
v 0.100700 3.926489 1.187278
v 0.033952 3.971489 1.332901
v -0.032795 3.836489 1.478524
v 0.100700 3.836489 1.478524
v -0.032795 3.836489 1.187278
v 0.100700 3.836489 1.187278
v 0.033952 3.791489 1.332901
v 0.208700 3.853678 1.242901
v 0.208700 3.853678 1.422901
v 0.141952 3.808678 1.388524
v 0.141952 3.808678 1.277278
v 0.208700 3.909301 1.242901
v 0.208700 3.909301 1.422901
v 0.141952 3.954301 1.388524
v 0.141952 3.954301 1.277278
v 0.249952 3.881489 1.332901
v -0.140795 3.853678 1.242901
v -0.140795 3.853678 1.422901
v -0.074048 3.808678 1.388524
v -0.074048 3.808678 1.277278
v -0.140795 3.909301 1.242901
v -0.140795 3.909301 1.422901
v -0.074048 3.954301 1.388524
v -0.074048 3.954301 1.277278
v -0.182048 3.881489 1.332901
f 1375 1412 1391
f 1412 1386 1415
f 1391 1415 1380
f 1412 1415 1391
f 1375 1391 1387
f 1391 1380 1392
f 1387 1392 1376
f 1391 1392 1387
f 1375 1387 1396
f 1387 1376 1397
f 1396 1397 1382
f 1387 1397 1396
f 1375 1396 1408
f 1396 1382 1411
f 1408 1411 1385
f 1396 1411 1408
f 1375 1408 1412
f 1408 1385 1416
f 1412 1416 1386
f 1408 1416 1412
f 1376 1392 1403
f 1392 1380 1406
f 1403 1406 1384
f 1392 1406 1403
f 1380 1415 1393
f 1415 1386 1414
f 1393 1414 1379
f 1415 1414 1393
f 1386 1416 1413
f 1416 1385 1409
f 1413 1409 1377
f 1416 1409 1413
f 1385 1411 1410
f 1411 1382 1398
f 1410 1398 1381
f 1411 1398 1410
f 1382 1397 1402
f 1397 1376 1399
f 1402 1399 1383
f 1397 1399 1402
f 1378 1404 1390
f 1404 1384 1405
f 1390 1405 1379
f 1404 1405 1390
f 1378 1390 1388
f 1390 1379 1389
f 1388 1389 1377
f 1390 1389 1388
f 1378 1388 1395
f 1388 1377 1394
f 1395 1394 1381
f 1388 1394 1395
f 1378 1395 1400
f 1395 1381 1401
f 1400 1401 1383
f 1395 1401 1400
f 1378 1400 1404
f 1400 1383 1407
f 1404 1407 1384
f 1400 1407 1404
f 1379 1405 1393
f 1405 1384 1406
f 1393 1406 1380
f 1405 1406 1393
f 1377 1389 1413
f 1389 1379 1414
f 1413 1414 1386
f 1389 1414 1413
f 1381 1394 1410
f 1394 1377 1409
f 1410 1409 1385
f 1394 1409 1410
f 1383 1401 1402
f 1401 1381 1398
f 1402 1398 1382
f 1401 1398 1402
f 1384 1407 1403
f 1407 1383 1399
f 1403 1399 1376
f 1407 1399 1403

o FLOWER_14
usemtl flower
v 0.441296 3.727347 1.258412
v 0.668412 3.727347 1.258412
v 0.441296 3.727347 1.564646
v 0.668412 3.727347 1.564646
v 0.554854 3.803906 1.506161
v 0.554854 3.803906 1.316898
v 0.554854 3.650789 1.506161
v 0.554854 3.650789 1.316898
v 0.738595 3.680032 1.411529
v 0.738595 3.774663 1.411529
v 0.371114 3.680032 1.411529
v 0.371114 3.774663 1.411529
v 0.554854 3.727347 1.231529
v 0.554854 3.727347 1.591529
v 0.488106 3.772347 1.557152
v 0.621602 3.772347 1.557152
v 0.488106 3.772347 1.265906
v 0.621602 3.772347 1.265906
v 0.554854 3.817347 1.411529
v 0.488106 3.682347 1.557152
v 0.621602 3.682347 1.557152
v 0.488106 3.682347 1.265906
v 0.621602 3.682347 1.265906
v 0.554854 3.637347 1.411529
v 0.729602 3.699536 1.321529
v 0.729602 3.699536 1.501529
v 0.662854 3.654536 1.467152
v 0.662854 3.654536 1.355906
v 0.729602 3.755159 1.321529
v 0.729602 3.755159 1.501529
v 0.662854 3.800159 1.467152
v 0.662854 3.800159 1.355906
v 0.770854 3.727347 1.411529
v 0.380106 3.699536 1.321529
v 0.380106 3.699536 1.501529
v 0.446854 3.654536 1.467152
v 0.446854 3.654536 1.355906
v 0.380106 3.755159 1.321529
v 0.380106 3.755159 1.501529
v 0.446854 3.800159 1.467152
v 0.446854 3.800159 1.355906
v 0.338854 3.727347 1.411529
f 1417 1454 1433
f 1454 1428 1457
f 1433 1457 1422
f 1454 1457 1433
f 1417 1433 1429
f 1433 1422 1434
f 1429 1434 1418
f 1433 1434 1429
f 1417 1429 1438
f 1429 1418 1439
f 1438 1439 1424
f 1429 1439 1438
f 1417 1438 1450
f 1438 1424 1453
f 1450 1453 1427
f 1438 1453 1450
f 1417 1450 1454
f 1450 1427 1458
f 1454 1458 1428
f 1450 1458 1454
f 1418 1434 1445
f 1434 1422 1448
f 1445 1448 1426
f 1434 1448 1445
f 1422 1457 1435
f 1457 1428 1456
f 1435 1456 1421
f 1457 1456 1435
f 1428 1458 1455
f 1458 1427 1451
f 1455 1451 1419
f 1458 1451 1455
f 1427 1453 1452
f 1453 1424 1440
f 1452 1440 1423
f 1453 1440 1452
f 1424 1439 1444
f 1439 1418 1441
f 1444 1441 1425
f 1439 1441 1444
f 1420 1446 1432
f 1446 1426 1447
f 1432 1447 1421
f 1446 1447 1432
f 1420 1432 1430
f 1432 1421 1431
f 1430 1431 1419
f 1432 1431 1430
f 1420 1430 1437
f 1430 1419 1436
f 1437 1436 1423
f 1430 1436 1437
f 1420 1437 1442
f 1437 1423 1443
f 1442 1443 1425
f 1437 1443 1442
f 1420 1442 1446
f 1442 1425 1449
f 1446 1449 1426
f 1442 1449 1446
f 1421 1447 1435
f 1447 1426 1448
f 1435 1448 1422
f 1447 1448 1435
f 1419 1431 1455
f 1431 1421 1456
f 1455 1456 1428
f 1431 1456 1455
f 1423 1436 1452
f 1436 1419 1451
f 1452 1451 1427
f 1436 1451 1452
f 1425 1443 1444
f 1443 1423 1440
f 1444 1440 1424
f 1443 1440 1444
f 1426 1449 1445
f 1449 1425 1441
f 1445 1441 1418
f 1449 1441 1445

o FLOWER_15
usemtl flower
v 1.011988 3.548062 1.120910
v 1.239104 3.548062 1.120910
v 1.011988 3.548062 1.427145
v 1.239104 3.548062 1.427145
v 1.125546 3.624621 1.368659
v 1.125546 3.624621 1.179396
v 1.125546 3.471504 1.368659
v 1.125546 3.471504 1.179396
v 1.309287 3.500747 1.274027
v 1.309287 3.595378 1.274027
v 0.941806 3.500747 1.274027
v 0.941806 3.595378 1.274027
v 1.125546 3.548062 1.094027
v 1.125546 3.548062 1.454027
v 1.058798 3.593062 1.419650
v 1.192294 3.593062 1.419650
v 1.058798 3.593062 1.128404
v 1.192294 3.593062 1.128404
v 1.125546 3.638062 1.274027
v 1.058798 3.503062 1.419650
v 1.192294 3.503062 1.419650
v 1.058798 3.503062 1.128404
v 1.192294 3.503062 1.128404
v 1.125546 3.458062 1.274027
v 1.300294 3.520251 1.184027
v 1.300294 3.520251 1.364027
v 1.233546 3.475251 1.329650
v 1.233546 3.475251 1.218404
v 1.300294 3.575874 1.184027
v 1.300294 3.575874 1.364027
v 1.233546 3.620874 1.329650
v 1.233546 3.620874 1.218404
v 1.341546 3.548062 1.274027
v 0.950798 3.520251 1.184027
v 0.950798 3.520251 1.364027
v 1.017546 3.475251 1.329650
v 1.017546 3.475251 1.218404
v 0.950798 3.575874 1.184027
v 0.950798 3.575874 1.364027
v 1.017546 3.620874 1.329650
v 1.017546 3.620874 1.218404
v 0.909546 3.548062 1.274027
f 1459 1496 1475
f 1496 1470 1499
f 1475 1499 1464
f 1496 1499 1475
f 1459 1475 1471
f 1475 1464 1476
f 1471 1476 1460
f 1475 1476 1471
f 1459 1471 1480
f 1471 1460 1481
f 1480 1481 1466
f 1471 1481 1480
f 1459 1480 1492
f 1480 1466 1495
f 1492 1495 1469
f 1480 1495 1492
f 1459 1492 1496
f 1492 1469 1500
f 1496 1500 1470
f 1492 1500 1496
f 1460 1476 1487
f 1476 1464 1490
f 1487 1490 1468
f 1476 1490 1487
f 1464 1499 1477
f 1499 1470 1498
f 1477 1498 1463
f 1499 1498 1477
f 1470 1500 1497
f 1500 1469 1493
f 1497 1493 1461
f 1500 1493 1497
f 1469 1495 1494
f 1495 1466 1482
f 1494 1482 1465
f 1495 1482 1494
f 1466 1481 1486
f 1481 1460 1483
f 1486 1483 1467
f 1481 1483 1486
f 1462 1488 1474
f 1488 1468 1489
f 1474 1489 1463
f 1488 1489 1474
f 1462 1474 1472
f 1474 1463 1473
f 1472 1473 1461
f 1474 1473 1472
f 1462 1472 1479
f 1472 1461 1478
f 1479 1478 1465
f 1472 1478 1479
f 1462 1479 1484
f 1479 1465 1485
f 1484 1485 1467
f 1479 1485 1484
f 1462 1484 1488
f 1484 1467 1491
f 1488 1491 1468
f 1484 1491 1488
f 1463 1489 1477
f 1489 1468 1490
f 1477 1490 1464
f 1489 1490 1477
f 1461 1473 1497
f 1473 1463 1498
f 1497 1498 1470
f 1473 1498 1497
f 1465 1478 1494
f 1478 1461 1493
f 1494 1493 1469
f 1478 1493 1494
f 1467 1485 1486
f 1485 1465 1482
f 1486 1482 1466
f 1485 1482 1486
f 1468 1491 1487
f 1491 1467 1483
f 1487 1483 1460
f 1491 1483 1487

o FLOWER_16
usemtl flower
v 0.896690 3.508468 0.396336
v 1.123806 3.508468 0.396336
v 0.896690 3.508468 0.702570
v 1.123806 3.508468 0.702570
v 1.010248 3.585027 0.644084
v 1.010248 3.585027 0.454821
v 1.010248 3.431910 0.644084
v 1.010248 3.431910 0.454821
v 1.193989 3.461152 0.549453
v 1.193989 3.555784 0.549453
v 0.826508 3.461152 0.549453
v 0.826508 3.555784 0.549453
v 1.010248 3.508468 0.369453
v 1.010248 3.508468 0.729453
v 0.943501 3.553468 0.695076
v 1.076996 3.553468 0.695076
v 0.943501 3.553468 0.403830
v 1.076996 3.553468 0.403830
v 1.010248 3.598468 0.549453
v 0.943501 3.463468 0.695076
v 1.076996 3.463468 0.695076
v 0.943501 3.463468 0.403830
v 1.076996 3.463468 0.403830
v 1.010248 3.418468 0.549453
v 1.184996 3.480657 0.459453
v 1.184996 3.480657 0.639453
v 1.118248 3.435657 0.605076
v 1.118248 3.435657 0.493830
v 1.184996 3.536280 0.459453
v 1.184996 3.536280 0.639453
v 1.118248 3.581280 0.605076
v 1.118248 3.581280 0.493830
v 1.226248 3.508468 0.549453
v 0.835501 3.480657 0.459453
v 0.835501 3.480657 0.639453
v 0.902248 3.435657 0.605076
v 0.902248 3.435657 0.493830
v 0.835501 3.536280 0.459453
v 0.835501 3.536280 0.639453
v 0.902248 3.581280 0.605076
v 0.902248 3.581280 0.493830
v 0.794248 3.508468 0.549453
f 1501 1538 1517
f 1538 1512 1541
f 1517 1541 1506
f 1538 1541 1517
f 1501 1517 1513
f 1517 1506 1518
f 1513 1518 1502
f 1517 1518 1513
f 1501 1513 1522
f 1513 1502 1523
f 1522 1523 1508
f 1513 1523 1522
f 1501 1522 1534
f 1522 1508 1537
f 1534 1537 1511
f 1522 1537 1534
f 1501 1534 1538
f 1534 1511 1542
f 1538 1542 1512
f 1534 1542 1538
f 1502 1518 1529
f 1518 1506 1532
f 1529 1532 1510
f 1518 1532 1529
f 1506 1541 1519
f 1541 1512 1540
f 1519 1540 1505
f 1541 1540 1519
f 1512 1542 1539
f 1542 1511 1535
f 1539 1535 1503
f 1542 1535 1539
f 1511 1537 1536
f 1537 1508 1524
f 1536 1524 1507
f 1537 1524 1536
f 1508 1523 1528
f 1523 1502 1525
f 1528 1525 1509
f 1523 1525 1528
f 1504 1530 1516
f 1530 1510 1531
f 1516 1531 1505
f 1530 1531 1516
f 1504 1516 1514
f 1516 1505 1515
f 1514 1515 1503
f 1516 1515 1514
f 1504 1514 1521
f 1514 1503 1520
f 1521 1520 1507
f 1514 1520 1521
f 1504 1521 1526
f 1521 1507 1527
f 1526 1527 1509
f 1521 1527 1526
f 1504 1526 1530
f 1526 1509 1533
f 1530 1533 1510
f 1526 1533 1530
f 1505 1531 1519
f 1531 1510 1532
f 1519 1532 1506
f 1531 1532 1519
f 1503 1515 1539
f 1515 1505 1540
f 1539 1540 1512
f 1515 1540 1539
f 1507 1520 1536
f 1520 1503 1535
f 1536 1535 1511
f 1520 1535 1536
f 1509 1527 1528
f 1527 1507 1524
f 1528 1524 1508
f 1527 1524 1528
f 1510 1533 1529
f 1533 1509 1525
f 1529 1525 1502
f 1533 1525 1529

o FLOWER_17
usemtl flower
v 1.204989 3.644967 0.044902
v 1.432105 3.644967 0.044902
v 1.204989 3.644967 0.351136
v 1.432105 3.644967 0.351136
v 1.318547 3.721526 0.292651
v 1.318547 3.721526 0.103388
v 1.318547 3.568409 0.292651
v 1.318547 3.568409 0.103388
v 1.502288 3.597652 0.198019
v 1.502288 3.692283 0.198019
v 1.134806 3.597652 0.198019
v 1.134806 3.692283 0.198019
v 1.318547 3.644967 0.018019
v 1.318547 3.644967 0.378019
v 1.251799 3.689967 0.343642
v 1.385295 3.689967 0.343642
v 1.251799 3.689967 0.052396
v 1.385295 3.689967 0.052396
v 1.318547 3.734967 0.198019
v 1.251799 3.599967 0.343642
v 1.385295 3.599967 0.343642
v 1.251799 3.599967 0.052396
v 1.385295 3.599967 0.052396
v 1.318547 3.554967 0.198019
v 1.493295 3.617156 0.108019
v 1.493295 3.617156 0.288019
v 1.426547 3.572156 0.253642
v 1.426547 3.572156 0.142396
v 1.493295 3.672779 0.108019
v 1.493295 3.672779 0.288019
v 1.426547 3.717779 0.253642
v 1.426547 3.717779 0.142396
v 1.534547 3.644967 0.198019
v 1.143799 3.617156 0.108019
v 1.143799 3.617156 0.288019
v 1.210547 3.572156 0.253642
v 1.210547 3.572156 0.142396
v 1.143799 3.672779 0.108019
v 1.143799 3.672779 0.288019
v 1.210547 3.717779 0.253642
v 1.210547 3.717779 0.142396
v 1.102547 3.644967 0.198019
f 1543 1580 1559
f 1580 1554 1583
f 1559 1583 1548
f 1580 1583 1559
f 1543 1559 1555
f 1559 1548 1560
f 1555 1560 1544
f 1559 1560 1555
f 1543 1555 1564
f 1555 1544 1565
f 1564 1565 1550
f 1555 1565 1564
f 1543 1564 1576
f 1564 1550 1579
f 1576 1579 1553
f 1564 1579 1576
f 1543 1576 1580
f 1576 1553 1584
f 1580 1584 1554
f 1576 1584 1580
f 1544 1560 1571
f 1560 1548 1574
f 1571 1574 1552
f 1560 1574 1571
f 1548 1583 1561
f 1583 1554 1582
f 1561 1582 1547
f 1583 1582 1561
f 1554 1584 1581
f 1584 1553 1577
f 1581 1577 1545
f 1584 1577 1581
f 1553 1579 1578
f 1579 1550 1566
f 1578 1566 1549
f 1579 1566 1578
f 1550 1565 1570
f 1565 1544 1567
f 1570 1567 1551
f 1565 1567 1570
f 1546 1572 1558
f 1572 1552 1573
f 1558 1573 1547
f 1572 1573 1558
f 1546 1558 1556
f 1558 1547 1557
f 1556 1557 1545
f 1558 1557 1556
f 1546 1556 1563
f 1556 1545 1562
f 1563 1562 1549
f 1556 1562 1563
f 1546 1563 1568
f 1563 1549 1569
f 1568 1569 1551
f 1563 1569 1568
f 1546 1568 1572
f 1568 1551 1575
f 1572 1575 1552
f 1568 1575 1572
f 1547 1573 1561
f 1573 1552 1574
f 1561 1574 1548
f 1573 1574 1561
f 1545 1557 1581
f 1557 1547 1582
f 1581 1582 1554
f 1557 1582 1581
f 1549 1562 1578
f 1562 1545 1577
f 1578 1577 1553
f 1562 1577 1578
f 1551 1569 1570
f 1569 1549 1566
f 1570 1566 1550
f 1569 1566 1570
f 1552 1575 1571
f 1575 1551 1567
f 1571 1567 1544
f 1575 1567 1571
