# Negara Konoha — Lentera
# Original fictional game asset, Nusantara/Indonesia-inspired.
# 1 OBJ unit = 1 meter. Y-up. Intended front = +Z in Unity.
mtllib Lentera.mtl

o BASE
usemtl stone
v 0.000000 0.000000 0.000000
v 0.200000 0.000000 0.000000
v 0.200000 0.180000 0.000000
v 0.000000 0.180000 0.000000
v 0.161803 0.000000 -0.117557
v 0.161803 0.180000 -0.117557
v 0.061803 0.000000 -0.190211
v 0.061803 0.180000 -0.190211
v -0.061803 0.000000 -0.190211
v -0.061803 0.180000 -0.190211
v -0.161803 0.000000 -0.117557
v -0.161803 0.180000 -0.117557
v -0.200000 0.000000 -0.000000
v -0.200000 0.180000 -0.000000
v -0.161803 -0.000000 0.117557
v -0.161803 0.180000 0.117557
v -0.061803 -0.000000 0.190211
v -0.061803 0.180000 0.190211
v 0.061803 -0.000000 0.190211
v 0.061803 0.180000 0.190211
v 0.161803 -0.000000 0.117557
v 0.161803 0.180000 0.117557
f 2 1 5
f 2 5 3
f 3 5 6
f 3 6 4
f 5 1 7
f 5 7 6
f 6 7 8
f 6 8 4
f 7 1 9
f 7 9 8
f 8 9 10
f 8 10 4
f 9 1 11
f 9 11 10
f 10 11 12
f 10 12 4
f 11 1 13
f 11 13 12
f 12 13 14
f 12 14 4
f 13 1 15
f 13 15 14
f 14 15 16
f 14 16 4
f 15 1 17
f 15 17 16
f 16 17 18
f 16 18 4
f 17 1 19
f 17 19 18
f 18 19 20
f 18 20 4
f 19 1 21
f 19 21 20
f 20 21 22
f 20 22 4
f 21 1 2
f 21 2 22
f 22 2 3
f 22 3 4

o POLE
usemtl bronze
v 0.000000 0.165000 0.000000
v 0.045000 0.165000 0.000000
v 0.045000 1.715000 0.000000
v 0.000000 1.715000 0.000000
v 0.031820 0.165000 -0.031820
v 0.031820 1.715000 -0.031820
v 0.000000 0.165000 -0.045000
v 0.000000 1.715000 -0.045000
v -0.031820 0.165000 -0.031820
v -0.031820 1.715000 -0.031820
v -0.045000 0.165000 0.000000
v -0.045000 1.715000 0.000000
v -0.031820 0.165000 0.031820
v -0.031820 1.715000 0.031820
v -0.000000 0.165000 0.045000
v -0.000000 1.715000 0.045000
v 0.031820 0.165000 0.031820
v 0.031820 1.715000 0.031820
f 24 23 27
f 24 27 25
f 25 27 28
f 25 28 26
f 27 23 29
f 27 29 28
f 28 29 30
f 28 30 26
f 29 23 31
f 29 31 30
f 30 31 32
f 30 32 26
f 31 23 33
f 31 33 32
f 32 33 34
f 32 34 26
f 33 23 35
f 33 35 34
f 34 35 36
f 34 36 26
f 35 23 37
f 35 37 36
f 36 37 38
f 36 38 26
f 37 23 39
f 37 39 38
f 38 39 40
f 38 40 26
f 39 23 24
f 39 24 40
f 40 24 25
f 40 25 26

o COLLAR_0.28
usemtl gold
v 0.000000 0.240000 0.000000
v 0.085000 0.240000 0.000000
v 0.085000 0.320000 0.000000
v 0.000000 0.320000 0.000000
v 0.060104 0.240000 -0.060104
v 0.060104 0.320000 -0.060104
v 0.000000 0.240000 -0.085000
v 0.000000 0.320000 -0.085000
v -0.060104 0.240000 -0.060104
v -0.060104 0.320000 -0.060104
v -0.085000 0.240000 0.000000
v -0.085000 0.320000 0.000000
v -0.060104 0.240000 0.060104
v -0.060104 0.320000 0.060104
v -0.000000 0.240000 0.085000
v -0.000000 0.320000 0.085000
v 0.060104 0.240000 0.060104
v 0.060104 0.320000 0.060104
f 42 41 45
f 42 45 43
f 43 45 46
f 43 46 44
f 45 41 47
f 45 47 46
f 46 47 48
f 46 48 44
f 47 41 49
f 47 49 48
f 48 49 50
f 48 50 44
f 49 41 51
f 49 51 50
f 50 51 52
f 50 52 44
f 51 41 53
f 51 53 52
f 52 53 54
f 52 54 44
f 53 41 55
f 53 55 54
f 54 55 56
f 54 56 44
f 55 41 57
f 55 57 56
f 56 57 58
f 56 58 44
f 57 41 42
f 57 42 58
f 58 42 43
f 58 43 44

o COLLAR_1.48
usemtl gold
v 0.000000 1.440000 0.000000
v 0.085000 1.440000 0.000000
v 0.085000 1.520000 0.000000
v 0.000000 1.520000 0.000000
v 0.060104 1.440000 -0.060104
v 0.060104 1.520000 -0.060104
v 0.000000 1.440000 -0.085000
v 0.000000 1.520000 -0.085000
v -0.060104 1.440000 -0.060104
v -0.060104 1.520000 -0.060104
v -0.085000 1.440000 0.000000
v -0.085000 1.520000 0.000000
v -0.060104 1.440000 0.060104
v -0.060104 1.520000 0.060104
v -0.000000 1.440000 0.085000
v -0.000000 1.520000 0.085000
v 0.060104 1.440000 0.060104
v 0.060104 1.520000 0.060104
f 60 59 63
f 60 63 61
f 61 63 64
f 61 64 62
f 63 59 65
f 63 65 64
f 64 65 66
f 64 66 62
f 65 59 67
f 65 67 66
f 66 67 68
f 66 68 62
f 67 59 69
f 67 69 68
f 68 69 70
f 68 70 62
f 69 59 71
f 69 71 70
f 70 71 72
f 70 72 62
f 71 59 73
f 71 73 72
f 72 73 74
f 72 74 62
f 73 59 75
f 73 75 74
f 74 75 76
f 74 76 62
f 75 59 60
f 75 60 76
f 76 60 61
f 76 61 62

o LAMP_FRAME
usemtl bronze
v -0.130000 1.680000 0.130000
v -0.130000 1.960000 0.130000
v -0.130000 1.680000 -0.130000
v -0.130000 1.960000 -0.130000
v 0.130000 1.680000 0.130000
v 0.130000 1.960000 0.130000
v 0.130000 1.680000 -0.130000
v 0.130000 1.960000 -0.130000
f 78 80 77
f 81 78 77
f 77 80 79
f 79 81 77
f 78 84 80
f 82 78 81
f 82 84 78
f 80 84 79
f 83 81 79
f 79 84 83
f 83 82 81
f 84 82 83

o LAMP_GLOW
usemtl cream
v -0.090000 1.720000 0.095000
v -0.090000 1.920000 0.095000
v -0.090000 1.720000 -0.085000
v -0.090000 1.920000 -0.085000
v 0.090000 1.720000 0.095000
v 0.090000 1.920000 0.095000
v 0.090000 1.720000 -0.085000
v 0.090000 1.920000 -0.085000
f 86 88 85
f 89 86 85
f 85 88 87
f 87 89 85
f 86 92 88
f 90 86 89
f 90 92 86
f 88 92 87
f 91 89 87
f 87 92 91
f 91 90 89
f 92 90 91

o CAP
usemtl roofdark
v 0.000000 2.030000 0.000000
v 0.220000 2.030000 0.000000
v 0.000000 2.170000 0.000000
v 0.000000 2.030000 -0.220000
v -0.220000 2.030000 0.000000
v -0.000000 2.030000 0.220000
f 94 93 96
f 94 96 95
f 96 93 97
f 96 97 95
f 97 93 98
f 97 98 95
f 98 93 94
f 98 94 95

o FINIAL
usemtl gold
v 0.000000 2.180000 0.000000
v 0.045000 2.180000 0.000000
v 0.000000 2.340000 0.000000
v 0.031820 2.180000 -0.031820
v 0.000000 2.180000 -0.045000
v -0.031820 2.180000 -0.031820
v -0.045000 2.180000 0.000000
v -0.031820 2.180000 0.031820
v -0.000000 2.180000 0.045000
v 0.031820 2.180000 0.031820
f 100 99 102
f 100 102 101
f 102 99 103
f 102 103 101
f 103 99 104
f 103 104 101
f 104 99 105
f 104 105 101
f 105 99 106
f 105 106 101
f 106 99 107
f 106 107 101
f 107 99 108
f 107 108 101
f 108 99 100
f 108 100 101

o BAND_RED
usemtl red
v -0.045000 1.537500 0.045000
v -0.045000 1.582500 0.045000
v -0.045000 1.537500 -0.045000
v -0.045000 1.582500 -0.045000
v 0.045000 1.537500 0.045000
v 0.045000 1.582500 0.045000
v 0.045000 1.537500 -0.045000
v 0.045000 1.582500 -0.045000
f 110 112 109
f 113 110 109
f 109 112 111
f 111 113 109
f 110 116 112
f 114 110 113
f 114 116 110
f 112 116 111
f 115 113 111
f 111 116 115
f 115 114 113
f 116 114 115

o BAND_WHITE
usemtl white
v -0.045000 1.487500 0.045000
v -0.045000 1.532500 0.045000
v -0.045000 1.487500 -0.045000
v -0.045000 1.532500 -0.045000
v 0.045000 1.487500 0.045000
v 0.045000 1.532500 0.045000
v 0.045000 1.487500 -0.045000
v 0.045000 1.532500 -0.045000
f 118 120 117
f 121 118 117
f 117 120 119
f 119 121 117
f 118 124 120
f 122 118 121
f 122 124 118
f 120 124 119
f 123 121 119
f 119 124 123
f 123 122 121
f 124 122 123
