# Negara Konoha — PohonPisang
# Original fictional game asset, Nusantara/Indonesia-inspired.
# 1 OBJ unit = 1 meter. Y-up. Intended front = +Z in Unity.
mtllib PohonPisang.mtl

o STEM_0
usemtl green3
v 0.000000 0.000000 0.000000
v 0.170000 0.000000 0.000000
v 0.170000 0.620000 0.000000
v 0.000000 0.620000 0.000000
v 0.120208 0.000000 -0.120208
v 0.120208 0.620000 -0.120208
v 0.000000 0.000000 -0.170000
v 0.000000 0.620000 -0.170000
v -0.120208 0.000000 -0.120208
v -0.120208 0.620000 -0.120208
v -0.170000 0.000000 -0.000000
v -0.170000 0.620000 0.000000
v -0.120208 -0.000000 0.120208
v -0.120208 0.620000 0.120208
v -0.000000 -0.000000 0.170000
v -0.000000 0.620000 0.170000
v 0.120208 -0.000000 0.120208
v 0.120208 0.620000 0.120208
f 2 1 5
f 2 5 3
f 3 5 6
f 3 6 4
f 5 1 7
f 5 7 6
f 6 7 8
f 6 8 4
f 7 1 9
f 7 9 8
f 8 9 10
f 8 10 4
f 9 1 11
f 9 11 10
f 10 11 12
f 10 12 4
f 11 1 13
f 11 13 12
f 12 13 14
f 12 14 4
f 13 1 15
f 13 15 14
f 14 15 16
f 14 16 4
f 15 1 17
f 15 17 16
f 16 17 18
f 16 18 4
f 17 1 2
f 17 2 18
f 18 2 3
f 18 3 4

o STEM_1
usemtl green3
v 0.000000 0.580000 0.000000
v 0.158000 0.580000 0.000000
v 0.158000 1.200000 0.000000
v 0.000000 1.200000 0.000000
v 0.111723 0.580000 -0.111723
v 0.111723 1.200000 -0.111723
v 0.000000 0.580000 -0.158000
v 0.000000 1.200000 -0.158000
v -0.111723 0.580000 -0.111723
v -0.111723 1.200000 -0.111723
v -0.158000 0.580000 0.000000
v -0.158000 1.200000 0.000000
v -0.111723 0.580000 0.111723
v -0.111723 1.200000 0.111723
v -0.000000 0.580000 0.158000
v -0.000000 1.200000 0.158000
v 0.111723 0.580000 0.111723
v 0.111723 1.200000 0.111723
f 20 19 23
f 20 23 21
f 21 23 24
f 21 24 22
f 23 19 25
f 23 25 24
f 24 25 26
f 24 26 22
f 25 19 27
f 25 27 26
f 26 27 28
f 26 28 22
f 27 19 29
f 27 29 28
f 28 29 30
f 28 30 22
f 29 19 31
f 29 31 30
f 30 31 32
f 30 32 22
f 31 19 33
f 31 33 32
f 32 33 34
f 32 34 22
f 33 19 35
f 33 35 34
f 34 35 36
f 34 36 22
f 35 19 20
f 35 20 36
f 36 20 21
f 36 21 22

o STEM_2
usemtl green3
v 0.000000 1.160000 0.000000
v 0.146000 1.160000 0.000000
v 0.146000 1.780000 0.000000
v 0.000000 1.780000 0.000000
v 0.103238 1.160000 -0.103238
v 0.103238 1.780000 -0.103238
v 0.000000 1.160000 -0.146000
v 0.000000 1.780000 -0.146000
v -0.103238 1.160000 -0.103238
v -0.103238 1.780000 -0.103238
v -0.146000 1.160000 0.000000
v -0.146000 1.780000 0.000000
v -0.103238 1.160000 0.103238
v -0.103238 1.780000 0.103238
v -0.000000 1.160000 0.146000
v -0.000000 1.780000 0.146000
v 0.103238 1.160000 0.103238
v 0.103238 1.780000 0.103238
f 38 37 41
f 38 41 39
f 39 41 42
f 39 42 40
f 41 37 43
f 41 43 42
f 42 43 44
f 42 44 40
f 43 37 45
f 43 45 44
f 44 45 46
f 44 46 40
f 45 37 47
f 45 47 46
f 46 47 48
f 46 48 40
f 47 37 49
f 47 49 48
f 48 49 50
f 48 50 40
f 49 37 51
f 49 51 50
f 50 51 52
f 50 52 40
f 51 37 53
f 51 53 52
f 52 53 54
f 52 54 40
f 53 37 38
f 53 38 54
f 54 38 39
f 54 39 40

o STEM_3
usemtl green3
v 0.000000 1.740000 0.000000
v 0.134000 1.740000 0.000000
v 0.134000 2.360000 0.000000
v 0.000000 2.360000 0.000000
v 0.094752 1.740000 -0.094752
v 0.094752 2.360000 -0.094752
v 0.000000 1.740000 -0.134000
v 0.000000 2.360000 -0.134000
v -0.094752 1.740000 -0.094752
v -0.094752 2.360000 -0.094752
v -0.134000 1.740000 0.000000
v -0.134000 2.360000 0.000000
v -0.094752 1.740000 0.094752
v -0.094752 2.360000 0.094752
v -0.000000 1.740000 0.134000
v -0.000000 2.360000 0.134000
v 0.094752 1.740000 0.094752
v 0.094752 2.360000 0.094752
f 56 55 59
f 56 59 57
f 57 59 60
f 57 60 58
f 59 55 61
f 59 61 60
f 60 61 62
f 60 62 58
f 61 55 63
f 61 63 62
f 62 63 64
f 62 64 58
f 63 55 65
f 63 65 64
f 64 65 66
f 64 66 58
f 65 55 67
f 65 67 66
f 66 67 68
f 66 68 58
f 67 55 69
f 67 69 68
f 68 69 70
f 68 70 58
f 69 55 71
f 69 71 70
f 70 71 72
f 70 72 58
f 71 55 56
f 71 56 72
f 72 56 57
f 72 57 58

o STEM_4
usemtl green3
v 0.000000 2.320000 0.000000
v 0.122000 2.320000 0.000000
v 0.122000 2.940000 0.000000
v 0.000000 2.940000 0.000000
v 0.086267 2.320000 -0.086267
v 0.086267 2.940000 -0.086267
v 0.000000 2.320000 -0.122000
v 0.000000 2.940000 -0.122000
v -0.086267 2.320000 -0.086267
v -0.086267 2.940000 -0.086267
v -0.122000 2.320000 0.000000
v -0.122000 2.940000 0.000000
v -0.086267 2.320000 0.086267
v -0.086267 2.940000 0.086267
v -0.000000 2.320000 0.122000
v -0.000000 2.940000 0.122000
v 0.086267 2.320000 0.086267
v 0.086267 2.940000 0.086267
f 74 73 77
f 74 77 75
f 75 77 78
f 75 78 76
f 77 73 79
f 77 79 78
f 78 79 80
f 78 80 76
f 79 73 81
f 79 81 80
f 80 81 82
f 80 82 76
f 81 73 83
f 81 83 82
f 82 83 84
f 82 84 76
f 83 73 85
f 83 85 84
f 84 85 86
f 84 86 76
f 85 73 87
f 85 87 86
f 86 87 88
f 86 88 76
f 87 73 89
f 87 89 88
f 88 89 90
f 88 90 76
f 89 73 74
f 89 74 90
f 90 74 75
f 90 75 76

o LEAF_STEM_0
usemtl green
v 0.000000 3.000000 0.000000
v -0.009411 2.963700 0.000000
v 1.340589 2.613700 0.000000
v 1.350000 2.650000 0.000000
v -0.004706 2.981850 -0.032476
v 1.345294 2.631850 -0.032476
v 0.004706 3.018150 -0.032476
v 1.354706 2.668150 -0.032476
v 0.009411 3.036300 0.000000
v 1.359411 2.686300 0.000000
v 0.004706 3.018150 0.032476
v 1.354706 2.668150 0.032476
v -0.004706 2.981850 0.032476
v 1.345294 2.631850 0.032476
f 92 91 95
f 92 95 93
f 93 95 96
f 93 96 94
f 95 91 97
f 95 97 96
f 96 97 98
f 96 98 94
f 97 91 99
f 97 99 98
f 98 99 100
f 98 100 94
f 99 91 101
f 99 101 100
f 100 101 102
f 100 102 94
f 101 91 103
f 101 103 102
f 102 103 104
f 102 104 94
f 103 91 92
f 103 92 104
f 104 92 93
f 104 93 94

o LEAF_0
usemtl green2
v 0.344664 2.637869 0.190000
v 0.340399 2.672608 0.190000
v 0.344664 2.637869 -0.190000
v 0.340399 2.672608 -0.190000
v 1.684601 2.802392 0.190000
v 1.680336 2.837131 0.190000
v 1.684601 2.802392 -0.190000
v 1.680336 2.837131 -0.190000
f 106 108 105
f 109 106 105
f 105 108 107
f 107 109 105
f 106 112 108
f 110 106 109
f 110 112 106
f 108 112 107
f 111 109 107
f 107 112 111
f 111 110 109
f 112 110 111

o LEAF_STEM_1
usemtl green
v 0.000000 3.000000 0.000000
v 0.013230 2.971426 0.020365
v 1.047390 2.831794 -0.847398
v 1.034160 2.860368 -0.867763
v -0.011021 2.964949 -0.007495
v 1.023139 2.825316 -0.875258
v -0.024252 2.993523 -0.027860
v 1.009908 2.853890 -0.895623
v -0.013230 3.028574 -0.020365
v 1.020930 2.888942 -0.888128
v 0.011021 3.035051 0.007495
v 1.045181 2.895419 -0.860269
v 0.024252 3.006477 0.027860
v 1.058412 2.866845 -0.839904
f 114 113 117
f 114 117 115
f 115 117 118
f 115 118 116
f 117 113 119
f 117 119 118
f 118 119 120
f 118 120 116
f 119 113 121
f 119 121 120
f 120 121 122
f 120 122 116
f 121 113 123
f 121 123 122
f 122 123 124
f 122 124 116
f 123 113 125
f 123 125 124
f 124 125 126
f 124 126 116
f 125 113 114
f 125 114 126
f 126 114 115
f 126 115 116

o LEAF_1
usemtl green2
v 0.382080 2.842473 -0.072576
v 0.380677 2.877425 -0.071398
v 0.137821 2.842473 -0.363673
v 0.136417 2.877425 -0.362495
v 1.414823 2.913127 -0.939150
v 1.413419 2.948079 -0.937972
v 1.170563 2.913127 -1.230247
v 1.169160 2.948079 -1.229069
f 128 130 127
f 131 128 127
f 127 130 129
f 129 131 127
f 128 134 130
f 132 128 131
f 132 134 128
f 130 134 129
f 133 131 129
f 129 134 133
f 133 132 131
f 134 132 133

o LEAF_STEM_2
usemtl green
v 0.000000 3.000000 0.000000
v 0.036267 2.993515 0.006993
v 0.270692 2.870839 -1.322497
v 0.234425 2.877324 -1.329490
v 0.012077 2.964906 0.005368
v 0.246502 2.842230 -1.324123
v -0.024190 2.971391 -0.001625
v 0.210235 2.848716 -1.331116
v -0.036267 3.006485 -0.006993
v 0.198158 2.883809 -1.336484
v -0.012077 3.035094 -0.005368
v 0.222348 2.912418 -1.334858
v 0.024190 3.028609 0.001625
v 0.258615 2.905933 -1.327865
f 136 135 139
f 136 139 137
f 137 139 140
f 137 140 138
f 139 135 141
f 139 141 140
f 140 141 142
f 140 142 138
f 141 135 143
f 141 143 142
f 142 143 144
f 142 144 138
f 143 135 145
f 143 145 144
f 144 145 146
f 144 146 138
f 145 135 147
f 145 147 146
f 146 147 148
f 146 148 138
f 147 135 136
f 147 136 148
f 148 136 137
f 148 137 138

o LEAF_2
usemtl green2
v 0.245685 2.902276 -0.299180
v 0.245791 2.937271 -0.299781
v -0.128542 2.902276 -0.365166
v -0.128436 2.937271 -0.365768
v 0.480074 2.878716 -1.628468
v 0.480180 2.913710 -1.629069
v 0.105847 2.878716 -1.694454
v 0.105953 2.913710 -1.695056
f 150 152 149
f 153 150 149
f 149 152 151
f 151 153 149
f 150 156 152
f 154 150 153
f 154 156 150
f 152 156 151
f 155 153 151
f 151 156 155
f 155 154 153
f 156 154 155

o LEAF_STEM_3
usemtl green
v -0.000000 3.000000 0.000000
v 0.025997 3.018260 -0.019925
v -0.649003 2.703540 -1.189059
v -0.675000 2.685280 -1.169134
v 0.030253 2.981740 -0.012551
v -0.644747 2.667020 -1.181686
v 0.004257 2.963479 0.007373
v -0.670743 2.648759 -1.161761
v -0.025997 2.981740 0.019925
v -0.700997 2.667020 -1.149210
v -0.030253 3.018260 0.012551
v -0.705253 2.703540 -1.156583
v -0.004257 3.036521 -0.007373
v -0.679257 2.721801 -1.176508
f 158 157 161
f 158 161 159
f 159 161 162
f 159 162 160
f 161 157 163
f 161 163 162
f 162 163 164
f 162 164 160
f 163 157 165
f 163 165 164
f 164 165 166
f 164 166 160
f 165 157 167
f 165 167 166
f 166 167 168
f 166 168 160
f 167 157 169
f 167 169 168
f 168 169 170
f 168 170 160
f 169 157 158
f 169 158 170
f 170 158 159
f 170 159 160

o LEAF_3
usemtl green2
v -0.007787 2.664329 -0.393488
v -0.005654 2.699068 -0.389794
v -0.336877 2.664329 -0.203488
v -0.334744 2.699068 -0.199794
v -0.677756 2.828852 -1.553908
v -0.675623 2.863591 -1.550214
v -1.006846 2.828852 -1.363908
v -1.004713 2.863591 -1.360214
f 172 174 171
f 175 172 171
f 171 174 173
f 173 175 171
f 172 178 174
f 176 172 175
f 176 178 172
f 174 178 173
f 177 175 173
f 173 178 177
f 177 176 175
f 178 176 177

o LEAF_STEM_4
usemtl green
v 0.000000 3.000000 0.000000
v -0.007896 3.032725 -0.016523
v -1.276481 2.493524 -0.478250
v -1.268585 2.460799 -0.461727
v 0.010361 3.006047 -0.035529
v -1.258224 2.466847 -0.497256
v 0.018257 2.973323 -0.019007
v -1.250328 2.434122 -0.480734
v 0.007896 2.967275 0.016523
v -1.260689 2.428075 -0.445205
v -0.010361 2.993953 0.035529
v -1.278946 2.454752 -0.426198
v -0.018257 3.026677 0.019007
v -1.286842 2.487477 -0.442721
f 180 179 183
f 180 183 181
f 181 183 184
f 181 184 182
f 183 179 185
f 183 185 184
f 184 185 186
f 184 186 182
f 185 179 187
f 185 187 186
f 186 187 188
f 186 188 182
f 187 179 189
f 187 189 188
f 188 189 190
f 188 190 182
f 189 179 191
f 189 191 190
f 190 191 192
f 190 192 182
f 191 179 180
f 191 180 192
f 192 180 181
f 192 181 182

o LEAF_4
usemtl green2
v -0.253892 2.542797 -0.294603
v -0.252171 2.577749 -0.293977
v -0.383860 2.542797 0.062480
v -0.382139 2.577749 0.063107
v -1.520739 2.613450 -0.755697
v -1.519018 2.648402 -0.755071
v -1.650706 2.613450 -0.398614
v -1.648985 2.648402 -0.397988
f 194 196 193
f 197 194 193
f 193 196 195
f 195 197 193
f 194 200 196
f 198 194 197
f 198 200 194
f 196 200 195
f 199 197 195
f 195 200 199
f 199 198 197
f 200 198 199

o LEAF_STEM_5
usemtl green
v 0.000000 3.000000 0.000000
v -0.008869 3.032292 0.016877
v -1.277454 2.442561 0.478604
v -1.268585 2.410269 0.461727
v -0.019050 3.026325 -0.018718
v -1.287635 2.436593 0.443009
v -0.010181 2.994033 -0.035595
v -1.278766 2.404302 0.426133
v 0.008869 2.967708 -0.016877
v -1.259716 2.377977 0.444850
v 0.019050 2.973675 0.018718
v -1.249535 2.383944 0.480445
v 0.010181 3.005967 0.035595
v -1.258404 2.416236 0.497322
f 202 201 205
f 202 205 203
f 203 205 206
f 203 206 204
f 205 201 207
f 205 207 206
f 206 207 208
f 206 208 204
f 207 201 209
f 207 209 208
f 208 209 210
f 208 210 204
f 209 201 211
f 209 211 210
f 210 211 212
f 210 212 204
f 211 201 213
f 211 213 212
f 212 213 214
f 212 214 204
f 213 201 202
f 213 202 214
f 214 202 203
f 214 203 204

o LEAF_5
usemtl green2
v -0.381940 2.551985 -0.063179
v -0.382514 2.586979 -0.062970
v -0.251972 2.551985 0.293904
v -0.252546 2.586979 0.294113
v -1.650332 2.528424 0.398478
v -1.650906 2.563419 0.398687
v -1.520364 2.528424 0.755561
v -1.520938 2.563419 0.755770
f 216 218 215
f 219 216 215
f 215 218 217
f 217 219 215
f 216 222 218
f 220 216 219
f 220 222 216
f 218 222 217
f 221 219 217
f 217 222 221
f 221 220 219
f 222 220 221

o LEAF_STEM_6
usemtl green
v 0.000000 3.000000 0.000000
v 0.025341 3.017904 0.021060
v -0.649659 2.598050 1.190195
v -0.675000 2.580146 1.169134
v -0.005568 3.035808 0.009644
v -0.680568 2.615954 1.178779
v -0.030909 3.017904 -0.011416
v -0.705909 2.598050 1.157719
v -0.025341 2.982096 -0.021060
v -0.700341 2.562242 1.148074
v 0.005568 2.964192 -0.009644
v -0.669432 2.544338 1.159490
v 0.030909 2.982096 0.011416
v -0.644091 2.562242 1.180550
f 224 223 227
f 224 227 225
f 225 227 228
f 225 228 226
f 227 223 229
f 227 229 228
f 228 229 230
f 228 230 226
f 229 223 231
f 229 231 230
f 230 231 232
f 230 232 226
f 231 223 233
f 231 233 232
f 232 233 234
f 232 234 226
f 233 223 235
f 233 235 234
f 234 235 236
f 234 236 226
f 235 223 224
f 235 224 236
f 236 224 225
f 236 225 226

o LEAF_6
usemtl green2
v -0.336877 2.585478 0.203488
v -0.334744 2.620217 0.199794
v -0.007787 2.585478 0.393488
v -0.005654 2.620217 0.389794
v -1.006846 2.750002 1.363908
v -1.004713 2.784741 1.360214
v -0.677756 2.750002 1.553908
v -0.675623 2.784741 1.550214
f 238 240 237
f 241 238 237
f 237 240 239
f 239 241 237
f 238 244 240
f 242 238 241
f 242 244 238
f 240 244 239
f 243 241 239
f 239 244 243
f 243 242 241
f 244 242 243

o LEAF_STEM_7
usemtl green
v 0.000000 3.000000 0.000000
v 0.036215 2.993549 -0.007287
v 0.270640 2.807796 1.322203
v 0.234425 2.814247 1.329490
v 0.024418 3.028459 -0.000329
v 0.258843 2.842705 1.329161
v -0.011797 3.034910 0.006958
v 0.222628 2.849156 1.336448
v -0.036215 3.006451 0.007287
v 0.198210 2.820698 1.336777
v -0.024418 2.971541 0.000329
v 0.210007 2.785788 1.329820
v 0.011797 2.965090 -0.006958
v 0.246222 2.779337 1.322533
f 246 245 249
f 246 249 247
f 247 249 250
f 247 250 248
f 249 245 251
f 249 251 250
f 250 251 252
f 250 252 248
f 251 245 253
f 251 253 252
f 252 253 254
f 252 254 248
f 253 245 255
f 253 255 254
f 254 255 256
f 254 256 248
f 255 245 257
f 255 257 256
f 256 257 258
f 256 258 248
f 257 245 246
f 257 246 258
f 258 246 247
f 258 247 248

o LEAF_7
usemtl green2
v -0.128188 2.807882 0.367179
v -0.128506 2.842834 0.365375
v 0.246039 2.807882 0.301192
v 0.245721 2.842834 0.299389
v 0.105916 2.878536 1.694847
v 0.105598 2.913488 1.693043
v 0.480143 2.878536 1.628861
v 0.479825 2.913488 1.627057
f 260 262 259
f 263 260 259
f 259 262 261
f 261 263 259
f 260 266 262
f 264 260 263
f 264 266 260
f 262 266 261
f 265 263 261
f 261 266 265
f 265 264 263
f 266 264 265

o LEAF_STEM_8
usemtl green
v 0.000000 3.000000 0.000000
v 0.013825 2.971356 -0.019865
v 1.047985 2.868696 0.847898
v 1.034160 2.897340 0.867763
v 0.024117 3.006493 -0.027973
v 1.058277 2.903833 0.839790
v 0.010291 3.035137 -0.008108
v 1.044451 2.932477 0.859656
v -0.013825 3.028644 0.019865
v 1.020335 2.925984 0.887629
v -0.024117 2.993507 0.027973
v 1.010043 2.890847 0.895736
v -0.010291 2.964863 0.008108
v 1.023869 2.862203 0.875871
f 268 267 271
f 268 271 269
f 269 271 272
f 269 272 270
f 271 267 273
f 271 273 272
f 272 273 274
f 272 274 270
f 273 267 275
f 273 275 274
f 274 275 276
f 274 276 270
f 275 267 277
f 275 277 276
f 276 277 278
f 276 278 270
f 277 267 279
f 277 279 278
f 278 279 280
f 278 280 270
f 279 267 268
f 279 268 280
f 280 268 269
f 280 269 270

o LEAF_8
usemtl green2
v 0.136255 2.917288 0.362359
v 0.136723 2.952282 0.362752
v 0.380514 2.917288 0.071262
v 0.380982 2.952282 0.071655
v 1.170258 2.893727 1.229990
v 1.170726 2.928722 1.230383
v 1.414517 2.893727 0.938893
v 1.414985 2.928722 0.939286
f 282 284 281
f 285 282 281
f 281 284 283
f 283 285 281
f 282 288 284
f 286 282 285
f 286 288 282
f 284 288 283
f 287 285 283
f 283 288 287
f 287 286 285
f 288 286 287

o BANANA_0
usemtl yellow
v 0.126879 2.420000 -0.053591
v 0.193121 2.420000 -0.053591
v 0.126879 2.420000 0.053591
v 0.193121 2.420000 0.053591
v 0.160000 2.534838 0.033121
v 0.160000 2.534838 -0.033121
v 0.160000 2.305162 0.033121
v 0.160000 2.305162 -0.033121
v 0.213591 2.349026 0.000000
v 0.213591 2.490974 0.000000
v 0.106409 2.349026 0.000000
v 0.106409 2.490974 0.000000
v 0.160000 2.420000 -0.063000
v 0.160000 2.420000 0.063000
v 0.140532 2.487500 0.050968
v 0.179468 2.487500 0.050968
v 0.140532 2.487500 -0.050968
v 0.179468 2.487500 -0.050968
v 0.160000 2.555000 0.000000
v 0.140532 2.352500 0.050968
v 0.179468 2.352500 0.050968
v 0.140532 2.352500 -0.050968
v 0.179468 2.352500 -0.050968
v 0.160000 2.285000 0.000000
v 0.210968 2.378283 -0.031500
v 0.210968 2.378283 0.031500
v 0.191500 2.310783 0.019468
v 0.191500 2.310783 -0.019468
v 0.210968 2.461717 -0.031500
v 0.210968 2.461717 0.031500
v 0.191500 2.529217 0.019468
v 0.191500 2.529217 -0.019468
v 0.223000 2.420000 0.000000
v 0.109032 2.378283 -0.031500
v 0.109032 2.378283 0.031500
v 0.128500 2.310783 0.019468
v 0.128500 2.310783 -0.019468
v 0.109032 2.461717 -0.031500
v 0.109032 2.461717 0.031500
v 0.128500 2.529217 0.019468
v 0.128500 2.529217 -0.019468
v 0.097000 2.420000 0.000000
f 289 326 305
f 326 300 329
f 305 329 294
f 326 329 305
f 289 305 301
f 305 294 306
f 301 306 290
f 305 306 301
f 289 301 310
f 301 290 311
f 310 311 296
f 301 311 310
f 289 310 322
f 310 296 325
f 322 325 299
f 310 325 322
f 289 322 326
f 322 299 330
f 326 330 300
f 322 330 326
f 290 306 317
f 306 294 320
f 317 320 298
f 306 320 317
f 294 329 307
f 329 300 328
f 307 328 293
f 329 328 307
f 300 330 327
f 330 299 323
f 327 323 291
f 330 323 327
f 299 325 324
f 325 296 312
f 324 312 295
f 325 312 324
f 296 311 316
f 311 290 313
f 316 313 297
f 311 313 316
f 292 318 304
f 318 298 319
f 304 319 293
f 318 319 304
f 292 304 302
f 304 293 303
f 302 303 291
f 304 303 302
f 292 302 309
f 302 291 308
f 309 308 295
f 302 308 309
f 292 309 314
f 309 295 315
f 314 315 297
f 309 315 314
f 292 314 318
f 314 297 321
f 318 321 298
f 314 321 318
f 293 319 307
f 319 298 320
f 307 320 294
f 319 320 307
f 291 303 327
f 303 293 328
f 327 328 300
f 303 328 327
f 295 308 324
f 308 291 323
f 324 323 299
f 308 323 324
f 297 315 316
f 315 295 312
f 316 312 296
f 315 312 316
f 298 321 317
f 321 297 313
f 317 313 290
f 321 313 317

o BANANA_1
usemtl yellow
v 0.066637 2.380000 -0.178684
v 0.132879 2.380000 -0.178684
v 0.066637 2.380000 -0.071502
v 0.132879 2.380000 -0.071502
v 0.099758 2.494838 -0.091972
v 0.099758 2.494838 -0.158214
v 0.099758 2.265162 -0.091972
v 0.099758 2.265162 -0.158214
v 0.153349 2.309026 -0.125093
v 0.153349 2.450974 -0.125093
v 0.046167 2.309026 -0.125093
v 0.046167 2.450974 -0.125093
v 0.099758 2.380000 -0.188093
v 0.099758 2.380000 -0.062093
v 0.080290 2.447500 -0.074125
v 0.119226 2.447500 -0.074125
v 0.080290 2.447500 -0.176061
v 0.119226 2.447500 -0.176061
v 0.099758 2.515000 -0.125093
v 0.080290 2.312500 -0.074125
v 0.119226 2.312500 -0.074125
v 0.080290 2.312500 -0.176061
v 0.119226 2.312500 -0.176061
v 0.099758 2.245000 -0.125093
v 0.150726 2.338283 -0.156593
v 0.150726 2.338283 -0.093593
v 0.131258 2.270783 -0.105625
v 0.131258 2.270783 -0.144561
v 0.150726 2.421717 -0.156593
v 0.150726 2.421717 -0.093593
v 0.131258 2.489217 -0.105625
v 0.131258 2.489217 -0.144561
v 0.162758 2.380000 -0.125093
v 0.048790 2.338283 -0.156593
v 0.048790 2.338283 -0.093593
v 0.068258 2.270783 -0.105625
v 0.068258 2.270783 -0.144561
v 0.048790 2.421717 -0.156593
v 0.048790 2.421717 -0.093593
v 0.068258 2.489217 -0.105625
v 0.068258 2.489217 -0.144561
v 0.036758 2.380000 -0.125093
f 331 368 347
f 368 342 371
f 347 371 336
f 368 371 347
f 331 347 343
f 347 336 348
f 343 348 332
f 347 348 343
f 331 343 352
f 343 332 353
f 352 353 338
f 343 353 352
f 331 352 364
f 352 338 367
f 364 367 341
f 352 367 364
f 331 364 368
f 364 341 372
f 368 372 342
f 364 372 368
f 332 348 359
f 348 336 362
f 359 362 340
f 348 362 359
f 336 371 349
f 371 342 370
f 349 370 335
f 371 370 349
f 342 372 369
f 372 341 365
f 369 365 333
f 372 365 369
f 341 367 366
f 367 338 354
f 366 354 337
f 367 354 366
f 338 353 358
f 353 332 355
f 358 355 339
f 353 355 358
f 334 360 346
f 360 340 361
f 346 361 335
f 360 361 346
f 334 346 344
f 346 335 345
f 344 345 333
f 346 345 344
f 334 344 351
f 344 333 350
f 351 350 337
f 344 350 351
f 334 351 356
f 351 337 357
f 356 357 339
f 351 357 356
f 334 356 360
f 356 339 363
f 360 363 340
f 356 363 360
f 335 361 349
f 361 340 362
f 349 362 336
f 361 362 349
f 333 345 369
f 345 335 370
f 369 370 342
f 345 370 369
f 337 350 366
f 350 333 365
f 366 365 341
f 350 365 366
f 339 357 358
f 357 337 354
f 358 354 338
f 357 354 358
f 340 363 359
f 363 339 355
f 359 355 332
f 363 355 359

o BANANA_2
usemtl yellow
v -0.068724 2.340000 -0.209579
v -0.002482 2.340000 -0.209579
v -0.068724 2.340000 -0.102397
v -0.002482 2.340000 -0.102397
v -0.035603 2.454838 -0.122867
v -0.035603 2.454838 -0.189110
v -0.035603 2.225162 -0.122867
v -0.035603 2.225162 -0.189110
v 0.017988 2.269026 -0.155988
v 0.017988 2.410974 -0.155988
v -0.089194 2.269026 -0.155988
v -0.089194 2.410974 -0.155988
v -0.035603 2.340000 -0.218988
v -0.035603 2.340000 -0.092988
v -0.055071 2.407500 -0.105020
v -0.016135 2.407500 -0.105020
v -0.055071 2.407500 -0.206957
v -0.016135 2.407500 -0.206957
v -0.035603 2.475000 -0.155988
v -0.055071 2.272500 -0.105020
v -0.016135 2.272500 -0.105020
v -0.055071 2.272500 -0.206957
v -0.016135 2.272500 -0.206957
v -0.035603 2.205000 -0.155988
v 0.015365 2.298283 -0.187488
v 0.015365 2.298283 -0.124488
v -0.004103 2.230783 -0.136520
v -0.004103 2.230783 -0.175457
v 0.015365 2.381717 -0.187488
v 0.015365 2.381717 -0.124488
v -0.004103 2.449217 -0.136520
v -0.004103 2.449217 -0.175457
v 0.027397 2.340000 -0.155988
v -0.086571 2.298283 -0.187488
v -0.086571 2.298283 -0.124488
v -0.067103 2.230783 -0.136520
v -0.067103 2.230783 -0.175457
v -0.086571 2.381717 -0.187488
v -0.086571 2.381717 -0.124488
v -0.067103 2.449217 -0.136520
v -0.067103 2.449217 -0.175457
v -0.098603 2.340000 -0.155988
f 373 410 389
f 410 384 413
f 389 413 378
f 410 413 389
f 373 389 385
f 389 378 390
f 385 390 374
f 389 390 385
f 373 385 394
f 385 374 395
f 394 395 380
f 385 395 394
f 373 394 406
f 394 380 409
f 406 409 383
f 394 409 406
f 373 406 410
f 406 383 414
f 410 414 384
f 406 414 410
f 374 390 401
f 390 378 404
f 401 404 382
f 390 404 401
f 378 413 391
f 413 384 412
f 391 412 377
f 413 412 391
f 384 414 411
f 414 383 407
f 411 407 375
f 414 407 411
f 383 409 408
f 409 380 396
f 408 396 379
f 409 396 408
f 380 395 400
f 395 374 397
f 400 397 381
f 395 397 400
f 376 402 388
f 402 382 403
f 388 403 377
f 402 403 388
f 376 388 386
f 388 377 387
f 386 387 375
f 388 387 386
f 376 386 393
f 386 375 392
f 393 392 379
f 386 392 393
f 376 393 398
f 393 379 399
f 398 399 381
f 393 399 398
f 376 398 402
f 398 381 405
f 402 405 382
f 398 405 402
f 377 403 391
f 403 382 404
f 391 404 378
f 403 404 391
f 375 387 411
f 387 377 412
f 411 412 384
f 387 412 411
f 379 392 408
f 392 375 407
f 408 407 383
f 392 407 408
f 381 399 400
f 399 379 396
f 400 396 380
f 399 396 400
f 382 405 401
f 405 381 397
f 401 397 374
f 405 397 401

o BANANA_3
usemtl yellow
v -0.177276 2.300000 -0.123012
v -0.111034 2.300000 -0.123012
v -0.177276 2.300000 -0.015830
v -0.111034 2.300000 -0.015830
v -0.144155 2.414838 -0.036300
v -0.144155 2.414838 -0.102542
v -0.144155 2.185162 -0.036300
v -0.144155 2.185162 -0.102542
v -0.090564 2.229026 -0.069421
v -0.090564 2.370974 -0.069421
v -0.197746 2.229026 -0.069421
v -0.197746 2.370974 -0.069421
v -0.144155 2.300000 -0.132421
v -0.144155 2.300000 -0.006421
v -0.163623 2.367500 -0.018453
v -0.124687 2.367500 -0.018453
v -0.163623 2.367500 -0.120389
v -0.124687 2.367500 -0.120389
v -0.144155 2.435000 -0.069421
v -0.163623 2.232500 -0.018453
v -0.124687 2.232500 -0.018453
v -0.163623 2.232500 -0.120389
v -0.124687 2.232500 -0.120389
v -0.144155 2.165000 -0.069421
v -0.093187 2.258283 -0.100921
v -0.093187 2.258283 -0.037921
v -0.112655 2.190783 -0.049953
v -0.112655 2.190783 -0.088889
v -0.093187 2.341717 -0.100921
v -0.093187 2.341717 -0.037921
v -0.112655 2.409217 -0.049953
v -0.112655 2.409217 -0.088889
v -0.081155 2.300000 -0.069421
v -0.195123 2.258283 -0.100921
v -0.195123 2.258283 -0.037921
v -0.175655 2.190783 -0.049953
v -0.175655 2.190783 -0.088889
v -0.195123 2.341717 -0.100921
v -0.195123 2.341717 -0.037921
v -0.175655 2.409217 -0.049953
v -0.175655 2.409217 -0.088889
v -0.207155 2.300000 -0.069421
f 415 452 431
f 452 426 455
f 431 455 420
f 452 455 431
f 415 431 427
f 431 420 432
f 427 432 416
f 431 432 427
f 415 427 436
f 427 416 437
f 436 437 422
f 427 437 436
f 415 436 448
f 436 422 451
f 448 451 425
f 436 451 448
f 415 448 452
f 448 425 456
f 452 456 426
f 448 456 452
f 416 432 443
f 432 420 446
f 443 446 424
f 432 446 443
f 420 455 433
f 455 426 454
f 433 454 419
f 455 454 433
f 426 456 453
f 456 425 449
f 453 449 417
f 456 449 453
f 425 451 450
f 451 422 438
f 450 438 421
f 451 438 450
f 422 437 442
f 437 416 439
f 442 439 423
f 437 439 442
f 418 444 430
f 444 424 445
f 430 445 419
f 444 445 430
f 418 430 428
f 430 419 429
f 428 429 417
f 430 429 428
f 418 428 435
f 428 417 434
f 435 434 421
f 428 434 435
f 418 435 440
f 435 421 441
f 440 441 423
f 435 441 440
f 418 440 444
f 440 423 447
f 444 447 424
f 440 447 444
f 419 445 433
f 445 424 446
f 433 446 420
f 445 446 433
f 417 429 453
f 429 419 454
f 453 454 426
f 429 454 453
f 421 434 450
f 434 417 449
f 450 449 425
f 434 449 450
f 423 441 442
f 441 421 438
f 442 438 422
f 441 438 442
f 424 447 443
f 447 423 439
f 443 439 416
f 447 439 443

o BANANA_4
usemtl yellow
v -0.177276 2.260000 0.015830
v -0.111034 2.260000 0.015830
v -0.177276 2.260000 0.123012
v -0.111034 2.260000 0.123012
v -0.144155 2.374838 0.102542
v -0.144155 2.374838 0.036300
v -0.144155 2.145162 0.102542
v -0.144155 2.145162 0.036300
v -0.090564 2.189026 0.069421
v -0.090564 2.330974 0.069421
v -0.197746 2.189026 0.069421
v -0.197746 2.330974 0.069421
v -0.144155 2.260000 0.006421
v -0.144155 2.260000 0.132421
v -0.163623 2.327500 0.120389
v -0.124687 2.327500 0.120389
v -0.163623 2.327500 0.018453
v -0.124687 2.327500 0.018453
v -0.144155 2.395000 0.069421
v -0.163623 2.192500 0.120389
v -0.124687 2.192500 0.120389
v -0.163623 2.192500 0.018453
v -0.124687 2.192500 0.018453
v -0.144155 2.125000 0.069421
v -0.093187 2.218283 0.037921
v -0.093187 2.218283 0.100921
v -0.112655 2.150783 0.088889
v -0.112655 2.150783 0.049953
v -0.093187 2.301717 0.037921
v -0.093187 2.301717 0.100921
v -0.112655 2.369217 0.088889
v -0.112655 2.369217 0.049953
v -0.081155 2.260000 0.069421
v -0.195123 2.218283 0.037921
v -0.195123 2.218283 0.100921
v -0.175655 2.150783 0.088889
v -0.175655 2.150783 0.049953
v -0.195123 2.301717 0.037921
v -0.195123 2.301717 0.100921
v -0.175655 2.369217 0.088889
v -0.175655 2.369217 0.049953
v -0.207155 2.260000 0.069421
f 457 494 473
f 494 468 497
f 473 497 462
f 494 497 473
f 457 473 469
f 473 462 474
f 469 474 458
f 473 474 469
f 457 469 478
f 469 458 479
f 478 479 464
f 469 479 478
f 457 478 490
f 478 464 493
f 490 493 467
f 478 493 490
f 457 490 494
f 490 467 498
f 494 498 468
f 490 498 494
f 458 474 485
f 474 462 488
f 485 488 466
f 474 488 485
f 462 497 475
f 497 468 496
f 475 496 461
f 497 496 475
f 468 498 495
f 498 467 491
f 495 491 459
f 498 491 495
f 467 493 492
f 493 464 480
f 492 480 463
f 493 480 492
f 464 479 484
f 479 458 481
f 484 481 465
f 479 481 484
f 460 486 472
f 486 466 487
f 472 487 461
f 486 487 472
f 460 472 470
f 472 461 471
f 470 471 459
f 472 471 470
f 460 470 477
f 470 459 476
f 477 476 463
f 470 476 477
f 460 477 482
f 477 463 483
f 482 483 465
f 477 483 482
f 460 482 486
f 482 465 489
f 486 489 466
f 482 489 486
f 461 487 475
f 487 466 488
f 475 488 462
f 487 488 475
f 459 471 495
f 471 461 496
f 495 496 468
f 471 496 495
f 463 476 492
f 476 459 491
f 492 491 467
f 476 491 492
f 465 483 484
f 483 463 480
f 484 480 464
f 483 480 484
f 466 489 485
f 489 465 481
f 485 481 458
f 489 481 485

o BANANA_5
usemtl yellow
v -0.068724 2.220000 0.102397
v -0.002482 2.220000 0.102397
v -0.068724 2.220000 0.209579
v -0.002482 2.220000 0.209579
v -0.035603 2.334838 0.189110
v -0.035603 2.334838 0.122867
v -0.035603 2.105162 0.189110
v -0.035603 2.105162 0.122867
v 0.017988 2.149026 0.155988
v 0.017988 2.290974 0.155988
v -0.089194 2.149026 0.155988
v -0.089194 2.290974 0.155988
v -0.035603 2.220000 0.092988
v -0.035603 2.220000 0.218988
v -0.055071 2.287500 0.206957
v -0.016135 2.287500 0.206957
v -0.055071 2.287500 0.105020
v -0.016135 2.287500 0.105020
v -0.035603 2.355000 0.155988
v -0.055071 2.152500 0.206957
v -0.016135 2.152500 0.206957
v -0.055071 2.152500 0.105020
v -0.016135 2.152500 0.105020
v -0.035603 2.085000 0.155988
v 0.015365 2.178283 0.124488
v 0.015365 2.178283 0.187488
v -0.004103 2.110783 0.175457
v -0.004103 2.110783 0.136520
v 0.015365 2.261717 0.124488
v 0.015365 2.261717 0.187488
v -0.004103 2.329217 0.175457
v -0.004103 2.329217 0.136520
v 0.027397 2.220000 0.155988
v -0.086571 2.178283 0.124488
v -0.086571 2.178283 0.187488
v -0.067103 2.110783 0.175457
v -0.067103 2.110783 0.136520
v -0.086571 2.261717 0.124488
v -0.086571 2.261717 0.187488
v -0.067103 2.329217 0.175457
v -0.067103 2.329217 0.136520
v -0.098603 2.220000 0.155988
f 499 536 515
f 536 510 539
f 515 539 504
f 536 539 515
f 499 515 511
f 515 504 516
f 511 516 500
f 515 516 511
f 499 511 520
f 511 500 521
f 520 521 506
f 511 521 520
f 499 520 532
f 520 506 535
f 532 535 509
f 520 535 532
f 499 532 536
f 532 509 540
f 536 540 510
f 532 540 536
f 500 516 527
f 516 504 530
f 527 530 508
f 516 530 527
f 504 539 517
f 539 510 538
f 517 538 503
f 539 538 517
f 510 540 537
f 540 509 533
f 537 533 501
f 540 533 537
f 509 535 534
f 535 506 522
f 534 522 505
f 535 522 534
f 506 521 526
f 521 500 523
f 526 523 507
f 521 523 526
f 502 528 514
f 528 508 529
f 514 529 503
f 528 529 514
f 502 514 512
f 514 503 513
f 512 513 501
f 514 513 512
f 502 512 519
f 512 501 518
f 519 518 505
f 512 518 519
f 502 519 524
f 519 505 525
f 524 525 507
f 519 525 524
f 502 524 528
f 524 507 531
f 528 531 508
f 524 531 528
f 503 529 517
f 529 508 530
f 517 530 504
f 529 530 517
f 501 513 537
f 513 503 538
f 537 538 510
f 513 538 537
f 505 518 534
f 518 501 533
f 534 533 509
f 518 533 534
f 507 525 526
f 525 505 522
f 526 522 506
f 525 522 526
f 508 531 527
f 531 507 523
f 527 523 500
f 531 523 527

o BANANA_6
usemtl yellow
v 0.066637 2.180000 0.071502
v 0.132879 2.180000 0.071502
v 0.066637 2.180000 0.178684
v 0.132879 2.180000 0.178684
v 0.099758 2.294838 0.158214
v 0.099758 2.294838 0.091972
v 0.099758 2.065162 0.158214
v 0.099758 2.065162 0.091972
v 0.153349 2.109026 0.125093
v 0.153349 2.250974 0.125093
v 0.046167 2.109026 0.125093
v 0.046167 2.250974 0.125093
v 0.099758 2.180000 0.062093
v 0.099758 2.180000 0.188093
v 0.080290 2.247500 0.176061
v 0.119226 2.247500 0.176061
v 0.080290 2.247500 0.074125
v 0.119226 2.247500 0.074125
v 0.099758 2.315000 0.125093
v 0.080290 2.112500 0.176061
v 0.119226 2.112500 0.176061
v 0.080290 2.112500 0.074125
v 0.119226 2.112500 0.074125
v 0.099758 2.045000 0.125093
v 0.150726 2.138283 0.093593
v 0.150726 2.138283 0.156593
v 0.131258 2.070783 0.144561
v 0.131258 2.070783 0.105625
v 0.150726 2.221717 0.093593
v 0.150726 2.221717 0.156593
v 0.131258 2.289217 0.144561
v 0.131258 2.289217 0.105625
v 0.162758 2.180000 0.125093
v 0.048790 2.138283 0.093593
v 0.048790 2.138283 0.156593
v 0.068258 2.070783 0.144561
v 0.068258 2.070783 0.105625
v 0.048790 2.221717 0.093593
v 0.048790 2.221717 0.156593
v 0.068258 2.289217 0.144561
v 0.068258 2.289217 0.105625
v 0.036758 2.180000 0.125093
f 541 578 557
f 578 552 581
f 557 581 546
f 578 581 557
f 541 557 553
f 557 546 558
f 553 558 542
f 557 558 553
f 541 553 562
f 553 542 563
f 562 563 548
f 553 563 562
f 541 562 574
f 562 548 577
f 574 577 551
f 562 577 574
f 541 574 578
f 574 551 582
f 578 582 552
f 574 582 578
f 542 558 569
f 558 546 572
f 569 572 550
f 558 572 569
f 546 581 559
f 581 552 580
f 559 580 545
f 581 580 559
f 552 582 579
f 582 551 575
f 579 575 543
f 582 575 579
f 551 577 576
f 577 548 564
f 576 564 547
f 577 564 576
f 548 563 568
f 563 542 565
f 568 565 549
f 563 565 568
f 544 570 556
f 570 550 571
f 556 571 545
f 570 571 556
f 544 556 554
f 556 545 555
f 554 555 543
f 556 555 554
f 544 554 561
f 554 543 560
f 561 560 547
f 554 560 561
f 544 561 566
f 561 547 567
f 566 567 549
f 561 567 566
f 544 566 570
f 566 549 573
f 570 573 550
f 566 573 570
f 545 571 559
f 571 550 572
f 559 572 546
f 571 572 559
f 543 555 579
f 555 545 580
f 579 580 552
f 555 580 579
f 547 560 576
f 560 543 575
f 576 575 551
f 560 575 576
f 549 567 568
f 567 547 564
f 568 564 548
f 567 564 568
f 550 573 569
f 573 549 565
f 569 565 542
f 573 565 569
